<svg width="254" height="251" viewBox="0 0 254 251" fill="none" xmlns="http://www.w3.org/2000/svg">
<path d="M31.7559 125.672L36.0338 126.713L31.8115 127.96C31.5223 128.045 31.2999 128.278 31.2291 128.571L30.1879 132.849L28.9402 128.626C28.8548 128.337 28.6219 128.115 28.3286 128.044L24.0508 127.003L28.2737 125.756C28.5629 125.67 28.7847 125.437 28.8562 125.144L29.8973 120.866L31.145 125.089C31.2297 125.378 31.4627 125.6 31.7559 125.672Z" fill="#EC407A"/>
<path d="M138.221 46.4525L142.499 47.4937L138.276 48.7407C137.986 48.8261 137.765 49.0591 137.693 49.3523L136.652 53.6302L135.405 49.4073C135.32 49.118 135.087 48.8963 134.793 48.8248L130.516 47.7836L134.738 46.5359C135.027 46.4505 135.249 46.2176 135.32 45.9243L136.362 41.6465L137.609 45.8694C137.695 46.1587 137.928 46.381 138.221 46.4525Z" fill="#EC407A"/>
<path d="M54.4669 46.5521L58.7447 47.5933L54.5225 48.8403C54.2332 48.9257 54.0115 49.1587 53.94 49.4519L52.8988 53.7298L51.6512 49.5069C51.5658 49.2176 51.3328 48.9952 51.0396 48.9244L46.7617 47.8832L50.9846 46.6355C51.2739 46.5502 51.4956 46.3172 51.5671 46.0239L52.6083 41.7461L53.8559 45.969C53.9407 46.2589 54.1737 46.4807 54.4669 46.5521Z" fill="#EC407A"/>
<path d="M115.486 17.6722L117.625 18.1931L115.514 18.8166C115.369 18.8597 115.258 18.9762 115.222 19.1224L114.701 21.2617L114.078 19.1502C114.036 19.0053 113.919 18.8948 113.772 18.859L111.633 18.3381L113.744 17.7146C113.889 17.6722 114 17.5551 114.036 17.4088L114.556 15.2695L115.18 17.381C115.222 17.5259 115.339 17.6365 115.486 17.6722Z" fill="#EC407A"/>
<path d="M18.3674 119.715L19.805 120.065L18.3859 120.484C18.2886 120.512 18.2138 120.591 18.19 120.69L17.8398 122.127L17.4208 120.708C17.3924 120.611 17.3136 120.536 17.215 120.512L15.7773 120.162L17.1965 119.743C17.2938 119.715 17.3686 119.636 17.3924 119.537L17.7425 118.1L18.1615 119.519C18.19 119.616 18.2687 119.691 18.3674 119.715Z" fill="#EC407A"/>
<path d="M249.706 122.806L253.984 123.847L249.761 125.094C249.472 125.18 249.25 125.413 249.178 125.706L248.137 129.984L246.889 125.761C246.804 125.472 246.571 125.25 246.278 125.178L242 124.137L246.222 122.889C246.512 122.804 246.734 122.571 246.805 122.278L247.846 118L249.093 122.223C249.18 122.513 249.413 122.735 249.706 122.806Z" fill="#EC407A"/>
<path d="M153.631 243.018L157.909 244.059L153.687 245.306C153.397 245.392 153.176 245.625 153.104 245.918L152.063 250.196L150.815 245.973C150.73 245.684 150.497 245.461 150.204 245.391L145.926 244.349L150.148 243.102C150.437 243.017 150.66 242.784 150.731 242.491L151.772 238.213L153.019 242.436C153.105 242.725 153.338 242.947 153.631 243.018Z" fill="#EC407A"/>
<path d="M141.984 240.084L144.135 240.608L142.012 241.235C141.867 241.278 141.755 241.395 141.719 241.543L141.196 243.694L140.568 241.57C140.525 241.425 140.408 241.313 140.261 241.277L138.109 240.754L140.233 240.127C140.378 240.084 140.49 239.967 140.526 239.819L141.049 237.668L141.677 239.792C141.719 239.937 141.837 240.049 141.984 240.084Z" fill="#EC407A"/>
<path d="M100.598 68.6206L102.041 68.9717L100.617 69.3922C100.519 69.421 100.445 69.4995 100.421 69.5984L100.069 71.0409L99.6487 69.6169C99.6199 69.5194 99.5414 69.4446 99.4425 69.4205L98 69.0694L99.4237 68.6487C99.5213 68.6199 99.5963 68.5414 99.6204 68.4425L99.9715 67L100.392 68.424C100.421 68.5217 100.499 68.5965 100.598 68.6206Z" fill="#EC407A"/>
<path d="M59.8365 58.9302L61.279 59.2813L59.8552 59.7017C59.7577 59.7305 59.6829 59.8091 59.6588 59.908L59.3077 61.3505L58.887 59.9265C58.8582 59.829 58.7797 59.7542 58.6808 59.7301L57.2383 59.379L58.662 58.9583C58.7596 58.9295 58.8346 58.8509 58.8587 58.7521L59.2097 57.3096L59.6302 58.7335C59.659 58.8313 59.7376 58.9061 59.8365 58.9302Z" fill="#EC407A"/>
<path d="M235.875 56.417L238.026 56.9406L235.903 57.5677C235.757 57.6106 235.646 57.7278 235.61 57.8753L235.086 60.0266L234.459 57.9029C234.416 57.7574 234.299 57.6459 234.151 57.61L232 57.0864L234.123 56.4589C234.269 56.416 234.381 56.2988 234.417 56.1513L234.94 54L235.567 56.1237C235.61 56.2695 235.727 56.381 235.875 56.417Z" fill="#EC407A"/>
<path d="M47.8749 56.417L50.0263 56.9406L47.9029 57.5677C47.7574 57.6106 47.6459 57.7278 47.61 57.8753L47.0864 60.0266L46.4589 57.9029C46.416 57.7574 46.2988 57.6459 46.1513 57.61L44 57.0864L46.1234 56.4589C46.2688 56.416 46.3807 56.2988 46.4166 56.1513L46.9402 54L47.5674 56.1237C47.6103 56.2695 47.7275 56.381 47.8749 56.417Z" fill="#EC407A"/>
<path d="M243.237 112.642L245.589 113.215L243.267 113.901C243.108 113.948 242.986 114.076 242.947 114.237L242.374 116.589L241.689 114.267C241.642 114.108 241.513 113.986 241.352 113.947L239 113.374L241.322 112.689C241.481 112.642 241.603 112.513 241.642 112.352L242.215 110L242.901 112.322C242.948 112.481 243.076 112.603 243.237 112.642Z" fill="#EC407A"/>
<path d="M240.308 129.439L241.589 129.751L240.324 130.125C240.238 130.15 240.171 130.22 240.15 130.308L239.838 131.589L239.465 130.324C239.439 130.238 239.369 130.171 239.281 130.15L238 129.838L239.265 129.465C239.351 129.439 239.418 129.369 239.439 129.281L239.751 128L240.125 129.265C240.15 129.352 240.22 129.418 240.308 129.439Z" fill="#EC407A"/>
<path d="M115.139 0C115.017 0 114.896 0.00397137 114.774 0.00463327C146.111 11.6805 169.684 39.2956 175.633 72.9929C177.065 92.1741 166.408 102.035 158.64 108.838C163.072 112.069 168.385 114.017 173.838 114.583C162.9 155.422 125.639 185.498 81.349 185.498C47.2368 185.498 17.2951 167.655 0.335938 140.796C11.2619 194.196 58.5089 234.365 115.138 234.365C179.856 234.365 232.321 181.9 232.321 117.182C232.321 52.4634 179.857 0 115.139 0Z" fill="#F5F5F5"/>
<path d="M178.535 18.4795C204.114 39.9753 220.377 72.1985 220.377 108.226C220.377 172.944 167.913 225.408 103.194 225.408C79.8822 225.408 58.1633 218.596 39.9102 206.861C60.2867 223.998 86.58 234.327 115.289 234.327C180.007 234.327 232.471 181.863 232.471 117.145C232.472 75.7212 210.978 39.3194 178.535 18.4795Z" fill="#E0E0E0"/>
<path d="M115.142 0C115.142 0 115.936 0.0079426 117.486 0.0416994C118.261 0.0589088 119.225 0.0807516 120.373 0.105904C120.947 0.107889 121.566 0.146941 122.23 0.202541C122.894 0.251521 123.604 0.304475 124.358 0.360075C130.375 0.818771 139.297 1.93142 150.298 5.30247C155.775 7.0393 161.746 9.36719 167.993 12.5119C174.234 15.6592 180.741 19.6518 187.182 24.6723C193.613 29.6941 200.004 35.7214 205.888 42.8765C206.604 43.7866 207.325 44.7027 208.051 45.6254C208.413 46.0867 208.777 46.55 209.143 47.0147C209.486 47.4965 209.829 47.9797 210.175 48.4642C210.865 49.4339 211.56 50.4102 212.26 51.3931C212.932 52.3946 213.573 53.4272 214.237 54.4524C215.605 56.4818 216.768 58.6727 218.037 60.8351C218.652 61.9279 219.196 63.0677 219.785 64.1923C220.364 65.3221 220.964 66.4507 221.47 67.6328C222 68.8037 222.533 69.9812 223.069 71.166C223.582 72.3608 224.036 73.5879 224.527 74.8078C224.769 75.4194 225.011 76.033 225.253 76.6485C225.486 77.2681 225.684 77.9015 225.902 78.5297C226.328 79.7899 226.757 81.0568 227.188 82.3316C227.556 83.6256 227.926 84.9263 228.298 86.2342C228.477 86.8901 228.687 87.5394 228.841 88.206C228.995 88.8718 229.149 89.5397 229.304 90.2095C229.598 91.5519 229.96 92.8876 230.202 94.2551C230.447 95.6219 230.692 96.996 230.939 98.3774C232.695 109.454 233.005 121.252 231.348 133.234C231.243 133.982 231.179 134.738 231.04 135.484C230.907 136.231 230.773 136.98 230.639 137.73C230.359 139.228 230.142 140.745 229.762 142.236C229.412 143.732 229.083 145.24 228.711 146.744C228.288 148.235 227.863 149.731 227.436 151.235C225.604 157.207 223.289 163.134 220.462 168.921C214.799 180.491 206.959 191.411 197.278 200.955C187.61 210.513 175.943 218.536 162.95 224.346C149.962 230.159 135.606 233.671 120.822 234.392C106.044 235.128 90.8569 233.009 76.4262 227.975C61.9729 222.994 48.3901 214.907 36.6897 204.46C27.2239 195.949 19.2586 185.972 13.1096 175.154C6.95126 164.336 2.62509 152.678 0.17408 140.832L0 139.99L0.484506 140.708C1.22319 141.801 1.96054 142.893 2.69724 143.983L3.80062 145.616L5.00065 147.177C5.80022 148.216 6.59913 149.254 7.39606 150.289C8.2552 151.275 9.11236 152.259 9.96886 153.241L11.2529 154.712L12.6191 156.104C13.5319 157.028 14.4426 157.95 15.3527 158.871C16.3032 159.749 17.2762 160.6 18.2346 161.464L19.6756 162.754C20.1588 163.179 20.6797 163.559 21.1794 163.963C22.1882 164.76 23.1956 165.555 24.201 166.35C25.223 167.122 26.2959 167.821 27.3377 168.559C29.3969 170.074 31.6235 171.314 33.7813 172.644C34.3161 172.985 34.8748 173.282 35.4387 173.57L37.1186 174.449L38.7952 175.326C39.3519 175.622 39.9085 175.917 40.4903 176.158C42.7997 177.155 45.0455 178.283 47.4138 179.085C48.584 179.52 49.7523 179.954 50.9179 180.387C52.1087 180.745 53.2974 181.102 54.4835 181.458C56.8373 182.241 59.2678 182.696 61.6552 183.275C62.8447 183.59 64.0672 183.723 65.2705 183.94C66.4778 184.136 67.6825 184.333 68.8851 184.528C70.0977 184.647 71.307 184.766 72.5143 184.885C73.7223 184.989 74.923 185.165 76.1323 185.168C85.7768 185.686 95.334 184.807 104.36 182.539C113.384 180.283 121.926 176.822 129.604 172.276C137.292 167.755 144.202 162.3 150.093 156.161C156.031 150.062 160.931 143.287 164.896 136.267C166.842 132.735 168.551 129.14 170.041 125.517C171.497 121.879 172.698 118.209 173.715 114.55L173.828 114.713C168.003 114.09 162.823 112.026 158.57 108.94L158.445 108.849L158.562 108.745C161.393 106.259 164.121 103.769 166.451 101.022C168.788 98.2887 170.757 95.3412 172.221 92.2303C173.692 89.1234 174.649 85.8708 175.18 82.6268C175.69 79.3723 175.696 76.1422 175.531 73.0015L175.532 73.0121C174.16 65.3605 171.92 58.2934 169.174 51.9187C166.421 45.5459 163.217 39.8152 159.664 34.8741C159.23 34.2493 158.815 33.6198 158.377 33.0149C157.915 32.4271 157.458 31.8453 157.006 31.2688C156.089 30.125 155.238 28.9627 154.316 27.8964C152.417 25.8114 150.693 23.7172 148.788 21.9525C147.862 21.0464 146.968 20.1462 146.072 19.2924C145.136 18.4815 144.221 17.6899 143.33 16.9175C141.586 15.323 139.751 14.027 138.071 12.731C137.648 12.4099 137.232 12.0936 136.821 11.7811C136.409 11.472 135.973 11.2086 135.56 10.9266C134.726 10.3733 133.917 9.83648 133.134 9.31689C131.593 8.23535 130.043 7.40334 128.631 6.58457C127.923 6.17816 127.242 5.78698 126.589 5.41169C125.945 5.01852 125.274 4.74449 124.661 4.42678C123.423 3.81783 122.299 3.26581 121.291 2.77005C121.039 2.64627 120.795 2.52581 120.558 2.40931C120.313 2.30804 120.076 2.21008 119.847 2.11543C119.389 1.92613 118.961 1.74874 118.563 1.58459C117.769 1.25562 117.097 0.976963 116.548 0.749269C115.469 0.296531 114.898 0.0569247 114.778 0.0066204L114.779 0.00397174C115.133 3.43358e-07 115.133 0 115.142 0C115.133 0 115.133 -7.47127e-07 114.777 0.00595634L114.778 0.0033102C114.898 0.0516288 115.473 0.282632 116.559 0.718824C117.109 0.942546 117.784 1.21657 118.581 1.5409C118.979 1.70307 119.409 1.87847 119.868 2.06579C120.098 2.15978 120.335 2.25641 120.58 2.35702C120.818 2.47285 121.063 2.592 121.315 2.71511C122.326 3.2069 123.453 3.75562 124.694 4.35993C125.308 4.67632 125.981 4.94836 126.627 5.33954C127.282 5.71351 127.964 6.10271 128.674 6.50779C130.09 7.32325 131.644 8.15261 133.189 9.2315C133.974 9.74977 134.785 10.2852 135.621 10.8373C136.035 11.1186 136.472 11.3814 136.886 11.6898C137.298 12.0009 137.715 12.3173 138.139 12.6376C139.824 13.931 141.664 15.2257 143.413 16.8189C144.308 17.5906 145.225 18.3823 146.163 19.1924C147.062 20.0463 147.958 20.9458 148.888 21.8519C150.798 23.6166 152.529 25.7108 154.434 27.7964C155.359 28.8628 156.213 30.0257 157.133 31.1701C157.587 31.7473 158.046 32.3298 158.508 32.9176C158.948 33.5225 159.365 34.1527 159.8 34.7782C163.366 39.7232 166.584 45.4612 169.349 51.8432C172.109 58.2272 174.36 65.3082 175.743 72.975L175.744 72.981V72.9856C175.913 76.1402 175.91 79.3868 175.401 82.6612C174.87 85.9251 173.909 89.2001 172.431 92.3289C170.96 95.461 168.979 98.429 166.634 101.179C164.295 103.941 161.558 106.441 158.726 108.933L158.717 108.739C162.936 111.796 168.077 113.839 173.855 114.454L174.008 114.471L173.967 114.618C172.95 118.287 171.748 121.969 170.289 125.617C168.797 129.252 167.086 132.858 165.136 136.401C161.164 143.444 156.252 150.242 150.3 156.362C144.395 162.523 137.466 167.998 129.755 172.536C122.055 177.1 113.487 180.575 104.435 182.842C95.3796 185.122 85.7914 186.006 76.1151 185.489C74.9018 185.486 73.6965 185.311 72.4845 185.207C71.2733 185.088 70.0593 184.969 68.8428 184.85C67.6361 184.654 66.4275 184.457 65.2156 184.26C64.0076 184.043 62.7811 183.909 61.5877 183.594C59.1923 183.014 56.7532 182.558 54.3909 181.773C53.2008 181.415 52.008 181.057 50.8126 180.698C49.6431 180.264 48.4709 179.828 47.296 179.392C44.9198 178.588 42.6653 177.457 40.3474 176.457C39.7636 176.214 39.2056 175.919 38.6463 175.622L36.9631 174.742L35.2772 173.86C34.7113 173.572 34.1507 173.273 33.6139 172.931C31.4481 171.597 29.2136 170.353 27.1465 168.833C26.1007 168.093 25.0237 167.392 23.9978 166.616C22.9884 165.82 21.9777 165.022 20.965 164.222C20.4633 163.817 19.941 163.435 19.4559 163.009L18.0096 161.715C17.0479 160.849 16.0709 159.995 15.1178 159.113C14.205 158.189 13.2903 157.263 12.3742 156.337L11.0034 154.941L9.71469 153.465C8.85554 152.479 7.99442 151.492 7.13262 150.503C6.33239 149.464 5.53083 148.423 4.72794 147.38L3.52329 145.814L2.41527 144.174C1.67592 143.081 0.935924 141.985 0.194597 140.888L0.505029 140.763C2.95008 152.573 7.265 164.197 13.4061 174.983C19.5379 185.769 27.4801 195.716 36.9181 204.202C48.5847 214.618 62.1272 222.683 76.5374 227.65C90.925 232.67 106.068 234.785 120.804 234.053C135.546 233.337 149.861 229.837 162.814 224.043C175.771 218.253 187.408 210.255 197.054 200.727C206.71 191.211 214.535 180.324 220.188 168.786C223.01 163.014 225.322 157.104 227.152 151.147C227.579 149.649 228.003 148.156 228.425 146.669C228.797 145.17 229.126 143.665 229.477 142.173C229.856 140.687 230.074 139.173 230.354 137.679C230.488 136.93 230.621 136.184 230.755 135.438C230.894 134.694 230.958 133.94 231.062 133.194C232.722 121.243 232.419 109.471 230.674 98.4191C230.429 97.041 230.185 95.6702 229.941 94.306C229.701 92.9412 229.34 91.6088 229.048 90.2691C228.894 89.6012 228.74 88.9347 228.587 88.2702C228.435 87.6056 228.225 86.957 228.047 86.3023C227.677 84.9971 227.309 83.6984 226.943 82.4071C226.514 81.1356 226.087 79.8707 225.662 78.6131C225.445 77.9862 225.247 77.3535 225.016 76.7353C224.775 76.121 224.533 75.5088 224.293 74.8985C223.804 73.6806 223.351 72.4554 222.841 71.2633C222.307 70.0805 221.776 68.905 221.248 67.7367C220.744 66.5566 220.146 65.4307 219.569 64.3021C218.983 63.1796 218.44 62.0418 217.827 60.9503C216.562 58.7912 215.403 56.6036 214.04 54.5775C213.378 53.5529 212.738 52.5223 212.069 51.5222C211.371 50.5406 210.679 49.5656 209.991 48.5973C209.647 48.1128 209.304 47.6302 208.962 47.1497C208.598 46.6857 208.235 46.223 207.873 45.7617C207.15 44.8403 206.431 43.9249 205.718 43.0161C199.851 35.869 193.478 29.8457 187.062 24.8252C180.637 19.8053 174.146 15.8108 167.917 12.6588C161.683 9.5095 155.724 7.17565 150.256 5.43088C139.273 2.04394 130.363 0.910112 124.351 0.429574C123.598 0.370665 122.889 0.315728 122.225 0.263437C121.562 0.20519 120.943 0.16349 120.369 0.158857C119.222 0.126424 118.259 0.0992852 117.484 0.0774425C115.936 0.0317715 115.142 0 115.142 0Z" fill="#7E7E7E"/>
<path d="M200.959 101.684C198.9 104.322 199.369 108.13 202.008 110.189C204.646 112.248 208.454 111.778 210.513 109.14C212.573 106.502 212.103 102.694 209.464 100.634C206.827 98.5753 203.018 99.0452 200.959 101.684Z" fill="#E0E0E0"/>
<path d="M200.402 101.326C198.348 103.957 198.654 107.629 201.286 109.683C203.917 111.737 207.693 110.962 209.747 108.331C211.801 105.7 211.338 102.228 208.707 100.174C206.076 98.1195 202.456 98.6947 200.402 101.326Z" fill="#EBEBEB"/>
<path d="M203.559 81.0394C202.618 82.2447 202.833 83.9848 204.038 84.9254C205.243 85.8659 206.983 85.6515 207.924 84.4461C208.864 83.2408 208.65 81.5007 207.445 80.5601C206.239 79.6189 204.499 79.8334 203.559 81.0394Z" fill="#E0E0E0"/>
<path d="M203.305 80.8762C202.367 82.0782 202.507 83.7555 203.709 84.6941C204.911 85.6326 206.636 85.2785 207.574 84.0758C208.512 82.8738 208.301 81.2873 207.099 80.3494C205.897 79.4114 204.243 79.6742 203.305 80.8762Z" fill="#EBEBEB"/>
<path d="M140.017 180.838C137.413 184.174 138.007 188.989 141.343 191.593C144.68 194.197 149.495 193.604 152.099 190.267C154.703 186.93 154.109 182.115 150.773 179.511C147.437 176.907 142.621 177.501 140.017 180.838Z" fill="#E0E0E0"/>
<path d="M139.312 180.386C136.715 183.713 137.102 188.356 140.43 190.953C143.757 193.55 148.533 192.57 151.129 189.243C153.726 185.915 153.141 181.526 149.814 178.928C146.487 176.331 141.909 177.058 139.312 180.386Z" fill="#EBEBEB"/>
<path d="M76.8317 207.138C74.6196 207.334 72.4354 206.908 70.3676 206.334C69.0325 205.963 67.54 205.34 67.3632 204.151L67.2501 203.124C66.1712 201.927 66.1321 200.106 67.1587 198.777C68.1105 197.546 69.8235 196.819 71.5186 196.651C73.2138 196.483 74.8956 196.812 76.4551 197.307C78.2091 197.863 79.8572 198.629 81.3372 199.579C82.164 200.109 82.9708 200.738 83.2687 201.589C83.597 202.526 83.2356 203.593 82.5651 204.441C81.3035 206.036 79.0444 206.941 76.8317 207.138Z" fill="#E0E0E0"/>
<path d="M75.5617 207.443C73.3496 207.64 71.1654 207.213 69.0976 206.639C67.7625 206.269 66.959 205.717 66.0932 204.456L65.3274 203.032C64.923 201.522 64.8628 200.411 65.8887 199.083C66.8405 197.851 68.5535 197.125 70.2486 196.956C71.9438 196.788 73.6256 197.118 75.1851 197.612C76.9391 198.168 78.5866 198.936 80.0672 199.885C80.894 200.415 81.4764 200.952 81.7749 201.803C82.1032 202.741 81.5333 203.577 80.8628 204.425C79.5999 206.019 77.7738 207.246 75.5617 207.443Z" fill="#EBEBEB"/>
<path d="M156.301 189.195C156.453 188.729 156.714 188.28 157.125 188.013C157.694 187.643 158.43 187.687 159.103 187.777C159.627 187.834 160.077 188.259 160.488 188.878C160.936 189.537 161.14 190.373 160.977 191.154C160.814 191.934 160.265 192.639 159.521 192.927C158.564 193.298 157.403 192.914 156.762 192.112C156.12 191.311 155.983 190.17 156.301 189.195Z" fill="#E0E0E0"/>
<path d="M155.858 189.215C155.998 188.787 156.238 188.373 156.615 188.129C157.139 187.788 157.816 187.829 158.435 187.912C158.917 187.964 159.33 188.354 159.708 188.924C160.121 189.53 160.308 190.299 160.158 191.016C160.008 191.734 159.503 192.383 158.819 192.647C157.939 192.988 156.871 192.635 156.282 191.898C155.692 191.161 155.566 190.112 155.858 189.215Z" fill="#EBEBEB"/>
<path d="M138.236 223.011C135.357 221.773 133.237 218.884 133.005 215.76C132.773 212.635 134.483 209.428 137.246 207.95C140.008 206.473 143.677 206.858 146.02 208.938C148.363 211.018 149.171 214.675 147.85 217.515" fill="#E0E0E0"/>
<path d="M186.361 192.045C183.517 185.035 184.866 176.503 189.732 170.711C194.598 164.919 202.77 162.12 210.165 163.712" fill="#E0E0E0"/>
<path d="M125.202 213.96C126.586 213.96 127.709 212.838 127.709 211.454C127.709 210.07 126.586 208.947 125.202 208.947C123.818 208.947 122.695 210.07 122.695 211.454C122.695 212.838 123.818 213.96 125.202 213.96Z" fill="#E0E0E0"/>
<path d="M162.799 156.796C162.839 156.884 162.653 157.055 162.406 157.218C162.158 157.381 161.927 157.485 161.862 157.413C161.799 157.344 161.945 157.109 162.217 156.931C162.487 156.751 162.76 156.71 162.799 156.796Z" fill="#FF9A6C"/>
<path d="M158.471 155.188C161.427 154.57 165.107 155.148 167.765 156.582C168.395 156.923 168.947 157.38 169.44 157.899C169.994 158.481 170.293 159.654 170.095 160.145C169.641 161.267 169.14 161.354 167.945 161.156C167.945 162.417 166.759 163.58 164.873 162.956C164.422 164.85 162.914 164.821 161.617 164.673C160.319 164.525 159.132 163.904 157.943 163.364C156.754 162.824 155.468 162.345 154.172 162.509C154.64 163.078 155.114 163.658 155.395 164.338C155.675 165.019 155.737 165.828 155.383 166.473C154.737 167.649 152.976 167.758 151.834 167.054C150.691 166.35 150.017 165.106 149.379 163.926C148.74 162.747 148.026 161.514 146.848 160.872L158.471 155.188Z" fill="#FAB19E"/>
<path d="M158.47 155.188C158.472 155.195 158.404 155.237 158.267 155.311C158.109 155.395 157.908 155.5 157.66 155.631C157.098 155.916 156.316 156.313 155.33 156.812C153.286 157.828 150.4 159.263 146.91 160.998L146.915 160.75C148 161.337 148.732 162.434 149.347 163.551C149.968 164.664 150.557 165.901 151.627 166.716C152.149 167.124 152.808 167.342 153.486 167.326C154.153 167.319 154.848 167.034 155.193 166.458C155.549 165.888 155.516 165.119 155.259 164.463C154.999 163.794 154.525 163.208 154.04 162.62L153.841 162.38L154.151 162.34C154.747 162.264 155.394 162.323 156.011 162.475C157.798 162.917 159.269 163.968 160.888 164.367C161.683 164.549 162.544 164.643 163.296 164.487C163.668 164.393 164.003 164.209 164.241 163.925C164.479 163.641 164.624 163.285 164.716 162.919L164.759 162.748L164.926 162.802C165.588 163.019 166.319 163.046 166.886 162.719C167.454 162.406 167.795 161.777 167.794 161.157L167.793 160.977L167.971 161.006C168.57 161.104 169.22 161.199 169.569 160.772C169.748 160.577 169.879 160.302 169.974 160.054C170.044 159.823 170.012 159.531 169.958 159.267C169.764 158.153 168.847 157.449 168.033 156.886C166.294 155.855 164.523 155.419 163.084 155.188C161.632 154.965 160.466 154.997 159.68 155.054C158.89 155.123 158.478 155.211 158.47 155.188C158.468 155.18 158.57 155.154 158.771 155.109C158.973 155.059 159.275 155.011 159.669 154.959C160.459 154.87 161.636 154.81 163.109 155.009C164.572 155.219 166.361 155.628 168.167 156.673C168.611 156.95 169.029 157.294 169.418 157.685C169.837 158.077 170.099 158.632 170.232 159.208C170.29 159.501 170.341 159.806 170.247 160.143C170.134 160.44 170.01 160.715 169.786 160.97C169.571 161.233 169.208 161.374 168.88 161.386C168.55 161.402 168.233 161.357 167.92 161.307L168.098 161.157C168.106 161.877 167.71 162.62 167.04 162.994C166.37 163.382 165.539 163.343 164.821 163.11L165.031 162.993C164.932 163.392 164.774 163.798 164.492 164.138C164.209 164.478 163.797 164.704 163.373 164.81C162.945 164.909 162.509 164.913 162.084 164.886C161.662 164.855 161.227 164.804 160.804 164.694C159.104 164.271 157.63 163.222 155.929 162.808C155.341 162.663 154.74 162.61 154.193 162.68L154.304 162.4C154.789 162.989 155.289 163.6 155.577 164.338C155.858 165.062 155.911 165.937 155.481 166.632C155.054 167.335 154.232 167.652 153.493 167.656C152.744 167.675 151.998 167.42 151.432 166.974C150.279 166.083 149.693 164.802 149.08 163.698C148.478 162.586 147.78 161.542 146.781 160.994L146.543 160.863L146.787 160.746C150.304 159.054 153.214 157.654 155.273 156.663C156.272 156.192 157.063 155.82 157.632 155.552C157.887 155.436 158.092 155.343 158.253 155.27C158.394 155.21 158.468 155.182 158.47 155.188Z" fill="#DB8E7A"/>
<path d="M158.871 159.527C158.856 159.445 160.576 159.462 162.344 160.512C164.125 161.542 164.981 163.033 164.902 163.06C164.818 163.13 163.873 161.79 162.17 160.809C160.482 159.804 158.851 159.634 158.871 159.527Z" fill="#DB8E7A"/>
<path d="M162.082 157.154C162.093 157.068 163.874 157.424 165.716 158.636C166.634 159.224 167.382 159.928 167.752 160.562C168.136 161.19 168.166 161.661 168.13 161.664C168.074 161.681 167.961 161.252 167.55 160.698C167.151 160.136 166.425 159.501 165.527 158.925C163.742 157.748 162.05 157.253 162.082 157.154Z" fill="#DB8E7A"/>
<path d="M123.389 135.276C123.943 127.743 131.677 113.607 135.562 109.742C139.076 106.245 147.523 98.9062 158.254 100.307C168.985 101.709 178.257 110.173 180.578 114.961C180.715 115.243 195.48 125.506 175.567 143.936L165.08 155.023C158.356 161.838 140.508 165.23 131.882 158.602L131.577 154.553C127.298 150.157 122.931 141.484 123.389 135.276Z" fill="#FAB19E"/>
<path d="M131.914 117.673C131.763 117.444 125.622 108.704 120.356 117.331C115.091 125.958 125.25 128.742 125.416 128.505C125.582 128.266 131.914 117.673 131.914 117.673Z" fill="#FAB19E"/>
<path d="M124.843 123.261C124.828 123.223 124.682 123.271 124.436 123.242C124.197 123.213 123.84 123.076 123.579 122.742C123.045 122.07 123.132 120.626 123.817 119.435C124.162 118.832 124.63 118.345 125.124 118.006C125.613 117.651 126.124 117.507 126.507 117.656C126.901 117.787 127.019 118.143 126.987 118.375C126.963 118.61 126.842 118.715 126.87 118.747C126.879 118.775 127.076 118.723 127.188 118.423C127.24 118.277 127.257 118.077 127.181 117.859C127.102 117.636 126.912 117.432 126.655 117.311C126.132 117.039 125.399 117.225 124.856 117.597C124.283 117.953 123.744 118.493 123.357 119.17C122.598 120.506 122.521 122.142 123.295 122.988C123.68 123.386 124.146 123.482 124.437 123.448C124.736 123.411 124.859 123.286 124.843 123.261Z" fill="#DB8E7A"/>
<path d="M157.428 141.776C157.815 141.693 158.495 143.652 160.454 144.982C162.391 146.339 164.513 146.314 164.562 146.699C164.593 146.876 164.072 147.147 163.136 147.174C162.212 147.207 160.862 146.931 159.648 146.094C158.435 145.255 157.717 144.107 157.442 143.245C157.156 142.374 157.245 141.806 157.428 141.776Z" fill="#263238"/>
<path d="M140.786 126.889C141.182 126.91 141.33 128.98 142.874 130.773C144.391 132.587 146.447 133.115 146.393 133.499C146.377 133.678 145.805 133.806 144.893 133.587C143.993 133.378 142.761 132.76 141.806 131.636C140.853 130.51 140.459 129.216 140.416 128.312C140.369 127.397 140.602 126.871 140.786 126.889Z" fill="#263238"/>
<path d="M143.372 142.746C143.497 142.609 144.314 143.172 144.973 144.174C145.637 145.173 145.835 146.144 145.66 146.206C145.478 146.276 145.016 145.48 144.399 144.554C143.788 143.624 143.237 142.887 143.372 142.746Z" fill="#263238"/>
<path d="M162.878 97.6674C171.985 98.7257 180.328 103.275 184.181 111.594C188.488 120.897 187.984 134.319 177.663 143.44C169.835 131.418 152.784 119.987 131.918 112.751C141.242 97.8004 153.771 96.609 162.878 97.6674Z" fill="#FF9BBD"/>
<path d="M157.77 160.172C157.743 160.106 158.978 159.681 160.697 158.497C162.426 157.335 164.59 155.413 166.815 153.132C169.047 150.853 170.972 148.69 172.407 147.165C173.123 146.401 173.707 145.786 174.124 145.374C174.539 144.959 174.776 144.738 174.794 144.755C174.811 144.771 174.607 145.024 174.223 145.466C173.793 145.956 173.244 146.582 172.588 147.33C171.199 148.896 169.303 151.085 167.062 153.373C164.828 155.664 162.617 157.577 160.831 158.7C159.944 159.269 159.178 159.652 158.635 159.877C158.084 160.089 157.778 160.194 157.77 160.172Z" fill="#DB8E7A"/>
<path d="M158.113 94.7644C150.544 94.4103 139.942 96.6396 133.105 100.009C142.433 101.626 155.533 103.781 164.86 105.398L180.01 107.463C178.624 100.882 165.681 95.1192 158.113 94.7644Z" fill="#FF9BBD"/>
<path d="M130.8 95.8297C132.227 95.5133 133.811 96.0733 134.722 97.2157C135.633 98.3588 135.826 100.029 135.199 101.349C134.573 102.669 133.158 103.575 131.696 103.592C130.972 103.6 130.19 103.365 129.783 102.766C129.604 103.209 129.424 103.651 129.244 104.094C128.638 103.623 128.314 102.815 128.425 102.055C128.156 102.254 127.887 102.453 127.619 102.652C127.086 101.379 127.12 99.8812 127.711 98.6341C128.301 97.3884 129.478 96.2235 130.8 95.8297Z" fill="#FAFAFA"/>
<path d="M130.799 95.8292C130.83 95.8795 129.928 96.0642 128.899 97.1239C128.399 97.6475 127.86 98.3822 127.58 99.3412C127.3 100.292 127.293 101.476 127.763 102.592L127.524 102.526C127.776 102.338 128.049 102.133 128.327 101.925L128.641 101.691L128.585 102.08C128.487 102.749 128.77 103.513 129.348 103.961L129.086 104.031C129.257 103.609 129.439 103.158 129.623 102.702L129.744 102.403L129.925 102.67C130.094 102.92 130.365 103.123 130.68 103.246C131.542 103.572 132.534 103.411 133.317 103.017C134.114 102.622 134.74 101.966 135.079 101.228C135.762 99.7179 135.321 98.0492 134.496 97.1398C133.659 96.1933 132.593 95.8961 131.906 95.8219C131.199 95.7544 130.805 95.8643 130.799 95.8292C130.797 95.818 130.892 95.7875 131.079 95.7438C131.267 95.7107 131.549 95.669 131.915 95.6869C132.628 95.7233 133.757 95.9881 134.677 96.9763C135.582 97.9321 136.093 99.7033 135.368 101.358C135.005 102.169 134.331 102.884 133.469 103.317C132.617 103.746 131.549 103.938 130.553 103.565C130.188 103.423 129.852 103.177 129.64 102.862L129.942 102.83C129.756 103.286 129.573 103.736 129.401 104.158L129.315 104.367L129.139 104.228C128.46 103.693 128.145 102.818 128.264 102.031L128.52 102.185C128.24 102.39 127.965 102.592 127.712 102.778L127.548 102.898L127.473 102.712C126.984 101.513 127.013 100.263 127.328 99.2651C127.647 98.2557 128.229 97.5118 128.765 96.9895C129.307 96.464 129.834 96.1661 130.205 96.0073C130.391 95.9278 130.539 95.8782 130.641 95.855C130.744 95.8299 130.797 95.8213 130.799 95.8292Z" fill="#263238"/>
<path d="M165.37 100.569C165.362 100.592 165.02 100.506 164.41 100.33C164.106 100.239 163.733 100.132 163.293 100.034C162.854 99.9331 162.361 99.7935 161.803 99.7002C160.695 99.4678 159.358 99.2825 157.868 99.1667C156.376 99.0733 154.731 99.0621 153.011 99.2024C151.292 99.3586 149.673 99.6505 148.219 99.9973C146.77 100.366 145.484 100.777 144.432 101.195C143.898 101.383 143.436 101.605 143.021 101.779C142.604 101.951 142.255 102.119 141.972 102.261C141.4 102.538 141.079 102.681 141.067 102.66C141.055 102.64 141.355 102.456 141.91 102.142C142.185 101.981 142.528 101.794 142.939 101.604C143.349 101.412 143.808 101.173 144.341 100.969C145.39 100.518 146.68 100.079 148.14 99.6889C149.606 99.3215 151.243 99.0164 152.982 98.8582C154.721 98.7166 156.386 98.7377 157.892 98.8496C159.397 98.984 160.743 99.1965 161.854 99.4612C162.414 99.5711 162.907 99.728 163.344 99.8478C163.782 99.9636 164.151 100.09 164.45 100.201C165.051 100.418 165.378 100.547 165.37 100.569Z" fill="#E76792"/>
<path d="M130.45 113.054C134.183 115.536 138.886 116.731 142.923 118.689C147.068 120.7 151.11 122.932 155.048 125.321C162.422 129.794 172.099 135.677 175.499 144.036C176.952 147.607 182.19 145.406 180.378 141.979C175.894 133.498 166.863 127.128 158.975 122.028C154.762 119.303 150.333 116.98 145.701 115.051C141.208 113.181 136.011 110.743 131.067 110.777C129.81 110.785 129.464 112.398 130.45 113.054Z" fill="#FF9BBD"/>
<path d="M180.747 142.613C180.741 142.615 180.719 142.568 180.682 142.474C180.639 142.361 180.586 142.225 180.522 142.058C180.384 141.693 180.169 141.156 179.848 140.487C179.217 139.146 178.127 137.275 176.425 135.237C175.577 134.218 174.572 133.164 173.407 132.128C172.236 131.107 170.915 130.063 169.56 128.946C166.818 126.748 163.813 124.282 160.348 122.195C156.806 120.227 153.337 118.491 150.136 117.042C146.929 115.598 143.974 114.45 141.466 113.562C138.958 112.672 136.906 112.015 135.487 111.562C134.8 111.343 134.255 111.169 133.853 111.041C133.684 110.983 133.545 110.936 133.43 110.898C133.335 110.864 133.288 110.844 133.289 110.838C133.291 110.832 133.342 110.841 133.44 110.864C133.557 110.894 133.699 110.93 133.872 110.975C134.279 111.088 134.83 111.241 135.526 111.435C136.957 111.848 139.023 112.47 141.546 113.332C144.069 114.192 147.041 115.32 150.265 116.753C153.488 118.192 156.956 119.918 160.522 121.898C162.28 122.941 163.895 124.107 165.427 125.263C166.958 126.421 168.398 127.584 169.76 128.7C171.117 129.83 172.417 130.869 173.598 131.916C174.766 132.972 175.77 134.044 176.613 135.082C178.305 137.157 179.372 139.064 179.97 140.431C180.275 141.114 180.47 141.661 180.588 142.036C180.639 142.207 180.681 142.348 180.715 142.464C180.742 142.561 180.753 142.611 180.747 142.613Z" fill="#E76792"/>
<path d="M184.641 134.701C184.632 134.709 184.486 134.579 184.216 134.322C183.926 134.042 183.536 133.666 183.046 133.191C182.544 132.694 181.926 132.091 181.182 131.417C180.442 130.74 179.622 129.944 178.658 129.127C177.711 128.293 176.67 127.382 175.512 126.454C174.378 125.495 173.111 124.542 171.791 123.522C169.115 121.528 166.098 119.437 162.819 117.419C159.526 115.419 156.289 113.686 153.294 112.213C151.785 111.503 150.358 110.81 148.988 110.237C147.633 109.63 146.349 109.118 145.175 108.655C144.009 108.171 142.927 107.803 141.987 107.453C141.048 107.099 140.229 106.823 139.558 106.603C138.913 106.382 138.399 106.207 138.019 106.077C137.668 105.953 137.485 105.882 137.488 105.871C137.492 105.859 137.681 105.908 138.039 106.01C138.425 106.126 138.945 106.28 139.6 106.475C140.278 106.676 141.104 106.933 142.051 107.271C142.999 107.604 144.088 107.957 145.263 108.428C146.446 108.877 147.738 109.377 149.101 109.975C150.479 110.537 151.915 111.222 153.433 111.926C156.444 113.388 159.696 115.118 162.999 117.124C166.288 119.149 169.31 121.255 171.983 123.268C173.301 124.298 174.565 125.263 175.694 126.233C176.847 127.174 177.881 128.097 178.821 128.945C179.775 129.776 180.585 130.585 181.314 131.277C182.047 131.965 182.652 132.583 183.14 133.096C183.612 133.59 183.987 133.982 184.265 134.273C184.52 134.546 184.649 134.692 184.641 134.701Z" fill="white"/>
<path d="M185.491 123.616C185.483 123.624 185.359 123.518 185.131 123.307C184.882 123.07 184.555 122.759 184.147 122.373C183.726 121.961 183.206 121.463 182.578 120.91C181.954 120.354 181.264 119.697 180.448 119.032C179.647 118.35 178.766 117.607 177.782 116.858C176.821 116.079 175.742 115.316 174.618 114.497C172.337 112.907 169.76 111.259 166.952 109.705C164.132 108.171 161.357 106.882 158.79 105.813C157.496 105.305 156.272 104.803 155.099 104.411C153.938 103.984 152.839 103.64 151.833 103.33C150.834 103 149.91 102.771 149.105 102.543C148.302 102.31 147.602 102.139 147.029 102.006C146.484 101.87 146.047 101.761 145.713 101.678C145.412 101.599 145.256 101.552 145.258 101.54C145.26 101.528 145.421 101.553 145.726 101.61C146.065 101.677 146.507 101.765 147.058 101.875C147.637 101.989 148.343 102.14 149.153 102.356C149.964 102.567 150.896 102.78 151.903 103.097C152.916 103.393 154.023 103.724 155.193 104.141C156.374 104.523 157.607 105.016 158.909 105.519C161.494 106.576 164.285 107.862 167.118 109.403C169.938 110.964 172.522 112.627 174.802 114.239C175.925 115.068 177.002 115.842 177.959 116.633C178.939 117.395 179.814 118.152 180.608 118.847C181.416 119.526 182.096 120.198 182.709 120.769C183.326 121.336 183.834 121.85 184.241 122.277C184.63 122.684 184.942 123.009 185.18 123.258C185.393 123.485 185.5 123.608 185.491 123.616Z" fill="white"/>
<path d="M180.049 108.81C180.01 108.854 179.246 108.178 177.927 107.201C176.61 106.222 174.708 104.979 172.457 103.885C170.203 102.796 168.048 102.073 166.465 101.645C164.881 101.214 163.877 101.033 163.887 100.976C163.891 100.952 164.145 100.976 164.603 101.039C165.062 101.098 165.72 101.221 166.525 101.408C168.136 101.779 170.33 102.473 172.608 103.575C174.883 104.681 176.787 105.973 178.075 107.007C178.721 107.524 179.226 107.964 179.556 108.288C179.889 108.608 180.065 108.793 180.049 108.81Z" fill="white"/>
<path d="M143.988 101.509C143.918 101.562 143.24 100.563 143.048 99.12C142.843 97.6784 143.226 96.5333 143.307 96.5651C143.41 96.5856 143.193 97.7075 143.389 99.073C143.569 100.441 144.08 101.462 143.988 101.509Z" fill="white"/>
<path d="M152.033 99.3682C151.958 99.4165 151.416 98.6176 151.172 97.4705C150.921 96.3248 151.086 95.3736 151.174 95.3869C151.275 95.3928 151.269 96.3102 151.509 97.3977C151.739 98.4878 152.123 99.3205 152.033 99.3682Z" fill="white"/>
<path d="M160.959 94.7402C161.049 94.7356 161.151 95.7933 160.908 97.0701C160.671 98.3483 160.192 99.2974 160.11 99.2604C160.017 99.2233 160.34 98.2457 160.569 97.0066C160.805 95.7695 160.859 94.7409 160.959 94.7402Z" fill="white"/>
<path d="M173.458 100.418C173.428 100.524 171.508 99.863 169.045 99.8477C166.583 99.8074 164.649 100.425 164.621 100.318C164.608 100.278 165.073 100.072 165.869 99.8696C166.663 99.6657 167.793 99.491 169.049 99.5036C170.306 99.5195 171.432 99.72 172.221 99.9417C173.011 100.161 173.472 100.379 173.458 100.418Z" fill="white"/>
<path d="M136.555 158.846C136.555 158.846 144.397 156.291 148.721 156.618C148.721 156.618 152.753 154.384 156.039 155.239C156.039 155.239 158.037 155.559 157.833 157.14C157.833 157.14 158.947 158.745 156.895 160.449C154.843 162.152 150.682 162.522 148.857 164.594C146.931 166.781 138.951 169.587 138.951 169.587L136.555 158.846Z" fill="#FAB19E"/>
<path d="M136.556 158.847C136.562 158.85 136.583 158.918 136.617 159.048C136.654 159.2 136.701 159.387 136.76 159.618C136.885 160.143 137.058 160.864 137.276 161.775C137.713 163.657 138.331 166.315 139.084 169.559L138.908 169.461C141.181 168.614 143.788 167.594 146.434 166.147C147.083 165.77 147.741 165.369 148.33 164.876L148.739 164.478C148.886 164.335 149.024 164.178 149.183 164.045C149.499 163.779 149.84 163.54 150.202 163.338C151.649 162.52 153.285 162.076 154.842 161.416C155.783 161.013 156.697 160.534 157.325 159.786C157.633 159.419 157.878 158.995 157.939 158.538C158.016 158.09 157.915 157.602 157.696 157.238L157.66 157.178L157.668 157.12C157.728 156.67 157.566 156.24 157.226 155.953C156.892 155.666 156.442 155.488 156.015 155.402L156.002 155.399L155.999 155.398C154.7 155.08 153.367 155.205 152.151 155.492C150.933 155.781 149.796 156.225 148.79 156.742L148.752 156.762L148.711 156.759C146.856 156.653 145.145 156.911 143.659 157.168C142.169 157.432 140.886 157.731 139.836 157.99C138.786 158.25 137.968 158.474 137.412 158.626C137.153 158.697 136.944 158.754 136.777 158.799C136.633 158.839 136.567 158.849 136.556 158.847C136.547 158.846 136.627 158.808 136.765 158.758C136.928 158.703 137.134 158.632 137.388 158.545C137.938 158.366 138.749 158.117 139.796 157.833C140.842 157.55 142.124 157.229 143.618 156.943C145.112 156.666 146.825 156.385 148.733 156.477L148.655 156.494C149.69 155.951 150.831 155.497 152.081 155.191C153.324 154.891 154.703 154.748 156.082 155.081L156.067 155.077C156.563 155.177 157.037 155.359 157.445 155.702C157.643 155.875 157.811 156.097 157.913 156.354C158.02 156.613 158.023 156.894 158.003 157.162L157.974 157.045C158.26 157.516 158.359 158.055 158.277 158.589C158.205 159.124 157.924 159.605 157.588 160.007C156.903 160.822 155.934 161.323 154.978 161.733C153.392 162.403 151.766 162.845 150.372 163.633C150.023 163.826 149.701 164.053 149.404 164.3C149.255 164.423 149.129 164.568 148.991 164.7L148.549 165.129C147.927 165.647 147.255 166.049 146.593 166.431C143.907 167.884 141.294 168.885 138.998 169.716L138.854 169.768L138.821 169.618C138.117 166.33 137.541 163.634 137.132 161.727C136.945 160.821 136.797 160.104 136.689 159.582C136.645 159.358 136.61 159.176 136.581 159.029C136.56 158.905 136.551 158.844 136.556 158.847Z" fill="#DB8E7A"/>
<path d="M148.607 159.926C148.58 159.899 148.963 159.463 149.715 158.911C150.464 158.359 151.609 157.724 152.981 157.323C154.355 156.926 155.662 156.848 156.59 156.913C157.521 156.976 158.077 157.138 158.07 157.175C158.068 157.292 155.764 156.852 153.077 157.654C150.381 158.417 148.671 160.023 148.607 159.926Z" fill="#DB8E7A"/>
<path d="M148.366 158.427C148.438 158.371 148.832 158.817 148.962 159.517C149.097 160.216 148.893 160.774 148.805 160.749C148.708 160.73 148.745 160.202 148.623 159.581C148.51 158.958 148.282 158.48 148.366 158.427Z" fill="#DB8E7A"/>
<path d="M53.4176 144.542C49.8414 148.982 48.3912 156.346 49.4462 161.835C50.502 167.325 54.4449 172.657 59.2999 176.618L60.7224 179.253L67.8331 179.057L72.8318 174.539L66.1288 163.468L57.1031 152.947L53.4176 144.542Z" fill="#FF9BBD"/>
<g opacity="0.3">
<path d="M51.3957 157.046C56.2904 162.342 65.7066 172.165 70.6013 177.461L60.2155 176.205C57.3104 174.789 54.2915 169.442 52.9333 166.509C51.5744 163.577 51.1243 160.266 51.3957 157.046Z" fill="#FF598E"/>
</g>
<path d="M120.602 135.606L116.168 134.669C115.976 134.67 115.79 134.636 115.611 134.565C112.937 133.504 90.5235 124.827 78.4061 127.301C65.5064 129.934 53.4585 137.475 51.2411 152.014C48.7286 168.488 65.4243 176.734 67.8991 177.86C68.0937 177.949 68.2963 177.995 68.5101 177.996C71.5932 178.014 97.03 178.12 104.939 176.877C111.827 175.794 122.252 173.951 125.824 173.315C126.548 173.186 127.072 172.554 127.065 171.818L124.22 137.722C124.22 137.713 124.219 137.705 124.22 137.697C124.319 136.585 122.304 135.599 120.602 135.606Z" fill="#FF9BBD"/>
<path d="M80.2191 149.666C80.2191 149.666 107.302 166.665 106.318 179.512C105.335 192.36 68.4168 189.62 68.4168 189.62L65.6719 176.721L69.4513 176.227" fill="#FF9BBD"/>
<path d="M81.0744 149.983C81.0804 149.972 81.2174 150.037 81.4736 150.169C81.729 150.303 82.1063 150.499 82.5836 150.767C83.5427 151.294 84.9141 152.087 86.5841 153.109C88.2521 154.133 90.2166 155.39 92.3366 156.878C94.4507 158.37 96.7376 160.082 98.9205 162.14C101.125 164.186 102.81 166.552 104.017 168.853C104.618 170.009 105.074 171.163 105.44 172.261C105.781 173.367 106.029 174.42 106.159 175.396C106.445 177.347 106.327 178.957 106.148 180.037C106.083 180.583 105.956 180.993 105.892 181.274C105.821 181.554 105.778 181.699 105.767 181.695C105.726 181.686 105.886 181.099 106.015 180.019C106.153 178.943 106.232 177.352 105.919 175.432C105.775 174.471 105.517 173.436 105.168 172.349C104.796 171.27 104.336 170.136 103.736 169C102.529 166.737 100.861 164.41 98.6829 162.389C96.5218 160.352 94.2495 158.638 92.1526 157.136C90.0491 155.639 88.1031 154.364 86.4543 153.315C84.8042 152.269 83.4533 151.445 82.516 150.883C82.0732 150.614 81.7158 150.398 81.4391 150.229C81.1942 150.077 81.0685 149.992 81.0744 149.983Z" fill="#E76792"/>
<path d="M60.2949 173.062C60.2869 173.072 60.1857 172.999 59.9983 172.852C59.7839 172.678 59.5171 172.461 59.1908 172.196C58.5038 171.61 57.5175 170.748 56.4102 169.566C55.3154 168.382 54.0512 166.886 53.0901 164.954C52.0906 163.038 51.4982 160.721 51.0448 158.305C50.8066 157.088 50.7033 155.87 50.7159 154.7C50.737 153.529 50.8655 152.407 51.0356 151.348C51.4155 149.234 52.0105 147.386 52.6393 145.893C53.2701 144.4 53.9347 143.262 54.4437 142.514C54.6859 142.133 54.9103 141.86 55.0559 141.672C55.2035 141.485 55.285 141.391 55.2949 141.398C55.3227 141.418 55.0215 141.817 54.5569 142.587C54.0869 143.351 53.4608 144.496 52.8651 145.987C52.2713 147.476 51.7067 149.312 51.3486 151.4C51.1891 152.447 51.07 153.554 51.0534 154.705C51.0462 155.856 51.1488 157.041 51.3831 158.239C51.8365 160.651 52.4097 162.925 53.3741 164.811C54.3007 166.714 55.5265 168.206 56.5902 169.401C57.6658 170.594 58.6229 171.481 59.2808 172.095C59.5886 172.379 59.8415 172.612 60.044 172.798C60.2154 172.963 60.3021 173.053 60.2949 173.062Z" fill="#E76792"/>
<path d="M119.909 136.566C122.976 135.669 126.416 136.877 128.674 139.138C130.932 141.4 132.114 144.564 132.5 147.736C132.887 150.909 132.308 154.512 131.879 157.679C133.996 157.417 136.452 157.779 137.163 158.017C138.758 162.57 139.644 165.404 141.239 169.956C132.61 174.505 123.274 177.708 113.669 179.414C111.693 179.764 109.638 180.05 107.7 179.528C104.123 178.566 101.729 174.964 101.185 171.299C100.642 167.635 101.618 163.921 102.831 160.422C105.476 152.791 107.247 149.083 112.054 142.593" fill="#FF9BBD"/>
<path d="M112.052 142.593C112.052 142.593 111.997 142.689 111.876 142.864C111.745 143.05 111.565 143.307 111.333 143.637C110.858 144.318 110.149 145.318 109.297 146.645C108.448 147.971 107.442 149.62 106.465 151.633C105.471 153.638 104.526 156.008 103.581 158.663C102.65 161.316 101.569 164.242 101.255 167.533C101.107 169.167 101.149 170.897 101.608 172.582C102.072 174.259 102.922 175.904 104.198 177.225C105.461 178.55 107.215 179.482 109.139 179.611C111.061 179.772 113.031 179.363 115.017 178.989C118.994 178.215 123.066 177.169 127.138 175.796C132.137 174.122 136.848 172.079 141.159 169.809L141.079 170.012C139.653 165.821 138.293 161.822 137.016 158.068L137.112 158.164C136.26 157.922 135.347 157.83 134.475 157.769C133.598 157.715 132.733 157.726 131.895 157.824L131.707 157.845L131.733 157.659C132.035 155.486 132.341 153.41 132.452 151.424C132.569 149.439 132.45 147.549 132.042 145.828C131.275 142.376 129.477 139.658 127.421 138.188C125.364 136.688 123.301 136.315 121.966 136.319C120.606 136.315 119.914 136.612 119.908 136.567C119.908 136.567 120.079 136.508 120.42 136.416C120.763 136.34 121.28 136.236 121.966 136.23C123.315 136.199 125.415 136.547 127.52 138.051C129.629 139.527 131.477 142.281 132.273 145.775C132.698 147.515 132.828 149.438 132.719 151.438C132.616 153.441 132.316 155.527 132.022 157.699L131.86 157.535C132.72 157.432 133.602 157.418 134.493 157.47C135.388 157.532 136.286 157.612 137.21 157.872L137.281 157.892L137.306 157.967C138.591 161.718 139.96 165.714 141.394 169.903L141.441 170.039L141.314 170.106C136.991 172.39 132.265 174.444 127.248 176.124C123.161 177.502 119.073 178.55 115.081 179.322C113.092 179.693 111.102 180.109 109.111 179.941C107.113 179.805 105.268 178.822 103.97 177.448C102.653 176.077 101.786 174.386 101.316 172.663C100.848 170.928 100.815 169.168 100.97 167.508C101.302 164.169 102.406 161.23 103.351 158.582C104.312 155.928 105.277 153.554 106.292 151.549C107.29 149.535 108.317 147.89 109.186 146.573C110.057 145.255 110.783 144.267 111.277 143.598C111.521 143.276 111.711 143.026 111.849 142.845C111.979 142.675 112.052 142.593 112.052 142.593Z" fill="#E76792"/>
<path d="M129.059 141.218C129.017 141.276 128.34 140.643 126.99 140.123C125.655 139.59 123.626 139.29 121.447 139.635C119.265 139.984 117.388 140.755 116.043 141.306C114.698 141.869 113.866 142.228 113.844 142.182C113.834 142.16 114.029 142.043 114.39 141.851C114.752 141.659 115.28 141.393 115.944 141.083C117.269 140.473 119.156 139.653 121.393 139.295C123.632 138.939 125.73 139.29 127.081 139.897C127.761 140.195 128.27 140.52 128.592 140.778C128.916 141.035 129.071 141.203 129.059 141.218Z" fill="white"/>
<path d="M113.906 157.511C113.898 157.489 114.147 157.386 114.607 157.219C115.074 157.082 115.76 156.885 116.635 156.806C118.361 156.625 120.897 156.842 123.263 158.163C124.09 158.616 124.828 159.162 125.447 159.735L125.259 159.71C127.057 158.784 128.748 158.28 129.952 158.016C130.554 157.879 131.036 157.789 131.369 157.732C131.701 157.678 131.884 157.658 131.888 157.676C131.897 157.718 131.187 157.894 130.002 158.218C128.818 158.538 127.176 159.072 125.41 160.003L125.309 160.056L125.222 159.977C124.616 159.428 123.898 158.903 123.097 158.465C120.804 157.182 118.35 156.932 116.655 157.048C114.935 157.16 113.926 157.582 113.906 157.511Z" fill="#E76792"/>
<path d="M41.5503 177.099C42.5458 176.227 44.0338 176.232 45.3285 176.505C46.6231 176.778 48.6015 177.518 49.9227 177.461C51.823 177.379 52.7629 175.94 54.3104 174.834C55.8579 173.727 57.5934 172.615 59.4918 172.736C60.8447 172.821 62.1135 173.558 62.978 174.602C63.8424 175.646 65.6732 176.722 65.6732 176.722L68.3155 189.139C62.8085 189.748 52.8986 186.866 47.6001 185.245C46.4186 184.883 44.2509 183.858 43.1865 183.231C42.1222 182.602 41.1843 181.679 40.7845 180.51C40.3847 179.34 40.6204 177.913 41.5503 177.099Z" fill="#FAB19E"/>
<path d="M47.6002 179.913C47.6075 179.93 47.4777 180.016 47.2044 180.067C46.933 180.114 46.5166 180.093 46.0553 179.914C45.59 179.742 45.1048 179.397 44.6223 178.998C44.1338 178.609 43.6162 178.153 42.9629 177.951C42.3162 177.734 41.6232 177.849 41.2506 178.292C40.8653 178.721 40.7515 179.283 40.7475 179.732C40.7654 180.653 40.9554 181.233 40.8879 181.244C40.8654 181.25 40.8045 181.115 40.7224 180.86C40.6436 180.605 40.5318 180.228 40.504 179.736C40.4788 179.252 40.5648 178.613 41.0136 178.08C41.2347 177.816 41.5676 177.61 41.939 177.54C42.3096 177.465 42.7001 177.506 43.0662 177.62C43.8115 177.855 44.3522 178.356 44.8255 178.753C45.2981 179.165 45.731 179.501 46.15 179.688C46.9959 180.092 47.5949 179.858 47.6002 179.913Z" fill="#DB8E7A"/>
<path d="M68.4211 189.62C68.4118 189.622 68.384 189.539 68.3396 189.378C68.29 189.185 68.2298 188.951 68.1563 188.667C67.9981 188.001 67.7836 187.102 67.5195 185.991C66.99 183.654 66.26 180.433 65.4127 176.693L65.375 176.527L65.5431 176.497C66.7888 176.272 68.1093 176.034 69.4728 175.789L69.3404 175.904C69.5655 175.231 69.8514 174.534 70.2102 173.862C71.4916 171.427 73.615 169.731 75.6761 168.642C77.7472 167.517 79.8653 167.034 81.6326 166.938C83.4091 166.836 84.8408 167.079 85.7972 167.318C86.2758 167.444 86.6431 167.556 86.8854 167.651C87.129 167.742 87.2547 167.794 87.2508 167.805C87.2402 167.837 86.7252 167.654 85.7674 167.449C84.8103 167.252 83.3932 167.05 81.6491 167.181C79.911 167.307 77.8498 167.803 75.827 168.921C73.8069 170.009 71.757 171.664 70.5146 174.024C70.1658 174.677 69.8872 175.354 69.6667 176.01L69.6337 176.108L69.5337 176.125C68.1689 176.365 66.8477 176.598 65.6014 176.818L65.7324 176.622C66.5313 180.373 67.2197 183.603 67.7188 185.947C67.9445 187.066 68.1278 187.971 68.2629 188.643C68.3151 188.931 68.3588 189.169 68.3946 189.365C68.4204 189.531 68.4303 189.618 68.4211 189.62Z" fill="#E76792"/>
<g opacity="0.3">
<path d="M114.086 155.403C114.271 154.814 114.809 154.387 115.395 154.189C115.98 153.993 116.612 153.993 117.228 154.026C119.098 154.123 120.989 154.5 122.609 155.438C124.23 156.376 124.969 158.02 125.332 159.857L124.721 159.242C124.866 159.401 125.187 159.698 125.332 159.857C122.951 157.744 119.038 156.523 115.885 156.965C115.502 157.019 115.101 157.091 114.741 156.952C114.165 156.73 113.901 155.992 114.086 155.403Z" fill="#FF598E"/>
</g>
<g opacity="0.3">
<path d="M82.199 147.391C83.949 147.965 85.5462 148.919 87.1261 149.865C90.0325 151.605 92.9588 153.36 95.4806 155.621C98.0031 157.882 100.043 160.8 100.304 163.789C96.9547 160.169 92.4776 156.768 88.3003 154.231C84.1231 151.694 79.8638 149.498 76.7773 147.284C78.5062 146.649 80.4489 146.818 82.199 147.391Z" fill="#FF598E"/>
</g>
<g opacity="0.3">
<path d="M86.7589 167.515C87.6253 168.267 88.8783 168.547 89.9823 168.235C89.6699 166.88 88.2138 166.144 86.878 165.757C83.4335 164.758 79.6077 164.884 76.3823 166.452C73.1569 168.02 70.6231 171.105 70.0625 174.647C73.0444 169.375 79.4237 166.251 85.4172 167.126" fill="#FF598E"/>
</g>
<path d="M82.0702 189.341C82.0463 189.342 82.0046 189.044 81.949 188.506C81.8987 187.967 81.8054 187.19 81.6671 186.234C81.3937 184.323 80.8576 181.702 79.9144 178.912C78.9639 176.123 77.793 173.717 76.8464 172.035C76.3745 171.193 75.9754 170.519 75.6875 170.062C75.4035 169.601 75.2559 169.339 75.2751 169.326C75.295 169.312 75.4803 169.548 75.7993 169.988C76.123 170.424 76.5559 171.081 77.0576 171.913C78.0637 173.575 79.2822 175.987 80.2413 178.802C81.1938 181.617 81.6962 184.272 81.9093 186.203C82.0179 187.169 82.0741 187.954 82.0834 188.496C82.0973 189.04 82.094 189.34 82.0702 189.341Z" fill="white"/>
<path d="M92.083 188.586C92.0592 188.589 91.995 188.281 91.899 187.724C91.807 187.166 91.6601 186.361 91.4622 185.371C91.069 183.391 90.4084 180.676 89.4063 177.764C88.3982 174.853 87.2426 172.309 86.3298 170.508C85.8744 169.606 85.4932 168.883 85.2211 168.387C84.953 167.889 84.814 167.607 84.8339 167.595C84.8544 167.583 85.0318 167.841 85.3369 168.319C85.6454 168.796 86.0604 169.504 86.5456 170.395C87.5179 172.176 88.7173 174.721 89.732 177.651C90.7414 180.583 91.3682 183.326 91.7018 185.327C91.8699 186.328 91.9804 187.141 92.0314 187.706C92.087 188.27 92.1062 188.583 92.083 188.586Z" fill="white"/>
<path d="M93.7712 166.366C93.7877 166.349 94.0161 166.545 94.4159 166.916C94.821 167.281 95.3697 167.85 96.0097 168.586C96.6544 169.32 97.3607 170.246 98.0802 171.319C98.7844 172.401 99.494 173.637 100.125 174.988C100.745 176.346 101.225 177.687 101.592 178.925C101.942 180.169 102.189 181.307 102.329 182.274C102.474 183.239 102.551 184.025 102.567 184.57C102.589 185.115 102.59 185.416 102.567 185.418C102.502 185.422 102.437 184.219 102.089 182.315C101.92 181.362 101.65 180.241 101.287 179.016C100.907 177.796 100.425 176.475 99.8117 175.133C99.1882 173.797 98.4958 172.573 97.8141 171.493C97.1171 170.422 96.4387 169.49 95.8231 168.743C94.5992 167.243 93.7262 166.413 93.7712 166.366Z" fill="white"/>
<path d="M89.1651 157.086C89.1664 157.098 89.0499 157.126 88.8262 157.168C88.5634 157.214 88.2397 157.27 87.8459 157.339C86.994 157.481 85.7603 157.681 84.2445 157.965C81.2262 158.543 77.0133 159.432 72.7778 161.471C68.5443 163.513 65.3592 166.507 63.6575 169.054C62.793 170.322 62.2324 171.44 61.9054 172.235C61.5745 173.029 61.4236 173.484 61.3931 173.474C61.3819 173.47 61.409 173.354 61.4719 173.135C61.5427 172.918 61.6162 172.587 61.781 172.186C62.0716 171.369 62.605 170.22 63.4556 168.918C65.1275 166.301 68.3391 163.228 72.6275 161.161C76.914 159.099 81.1654 158.243 84.2021 157.726C85.7285 157.472 86.9689 157.307 87.8274 157.206C88.2252 157.164 88.5521 157.129 88.8176 157.1C89.0433 157.08 89.1637 157.074 89.1651 157.086Z" fill="white"/>
<path d="M80.0517 149.529C80.0504 149.54 79.9372 149.546 79.7221 149.545C79.4679 149.54 79.1582 149.534 78.7842 149.526C78.3778 149.507 77.8807 149.494 77.3042 149.527C76.7277 149.552 76.0698 149.542 75.3483 149.634C74.9856 149.67 74.6076 149.707 74.2151 149.745C73.8213 149.786 73.4169 149.871 72.9959 149.935C72.1493 150.049 71.2664 150.277 70.3324 150.492C68.4817 150.991 66.4861 151.688 64.4905 152.644C62.5055 153.626 60.7263 154.767 59.192 155.917C58.4467 156.519 57.7219 157.074 57.1103 157.67C56.7999 157.962 56.4835 158.228 56.2088 158.512C55.9361 158.798 55.674 159.073 55.4225 159.337C54.9049 159.848 54.5077 160.372 54.1318 160.81C53.7499 161.244 53.454 161.643 53.2184 161.975C52.994 162.274 52.808 162.522 52.6551 162.725C52.5234 162.894 52.4486 162.98 52.4386 162.974C52.4287 162.967 52.4837 162.868 52.5968 162.686C52.7358 162.473 52.9046 162.212 53.1085 161.897C53.3282 161.553 53.6109 161.139 53.9802 160.691C54.3442 160.239 54.7315 159.699 55.2418 159.173C55.49 158.902 55.7495 158.62 56.0189 158.327C56.2916 158.035 56.606 157.761 56.9151 157.461C57.524 156.85 58.2495 156.282 58.9974 155.666C60.537 154.491 62.3314 153.328 64.3389 152.336C66.357 151.368 68.3791 150.673 70.2536 150.186C71.1995 149.977 72.0937 149.756 72.9502 149.654C73.3765 149.595 73.7855 149.516 74.184 149.482C74.5811 149.45 74.9631 149.421 75.3298 149.392C76.0585 149.315 76.7224 149.343 77.3029 149.335C77.884 149.32 78.3831 149.352 78.7908 149.392C79.1648 149.426 79.4739 149.454 79.7281 149.476C79.9419 149.499 80.0531 149.517 80.0517 149.529Z" fill="white"/>
<path d="M132.15 174.483C132.129 174.494 132.01 174.298 131.813 173.932C131.611 173.569 131.354 173.024 131.068 172.339C130.492 170.969 129.861 168.997 129.513 166.749C129.171 164.499 129.183 162.428 129.322 160.949C129.39 160.209 129.472 159.613 129.556 159.206C129.635 158.798 129.69 158.575 129.713 158.579C129.77 158.588 129.638 159.495 129.564 160.966C129.489 162.436 129.516 164.477 129.854 166.697C130.197 168.915 130.782 170.871 131.295 172.25C131.805 173.632 132.203 174.457 132.15 174.483Z" fill="white"/>
<path d="M121.494 178.455C121.472 178.465 121.339 178.212 121.118 177.745C120.891 177.281 120.609 176.585 120.309 175.71C120.002 174.837 119.713 173.77 119.466 172.57C119.236 171.367 119.059 170.029 118.994 168.615C118.942 167.2 119.01 165.852 119.14 164.633C119.288 163.416 119.489 162.33 119.722 161.434C119.951 160.537 120.174 159.822 120.362 159.34C120.544 158.857 120.656 158.594 120.678 158.602C120.738 158.622 120.353 159.697 119.96 161.489C119.759 162.384 119.585 163.462 119.456 164.666C119.344 165.871 119.288 167.203 119.339 168.6C119.403 169.996 119.568 171.317 119.779 172.51C120.006 173.698 120.267 174.759 120.541 175.634C121.079 177.389 121.552 178.429 121.494 178.455Z" fill="white"/>
<path d="M115.6 159.017C115.61 159.078 114.699 159.218 113.284 159.64C111.87 160.057 109.965 160.816 108.061 162.016C106.162 163.222 104.66 164.62 103.677 165.719C102.691 166.817 102.174 167.58 102.123 167.545C102.103 167.531 102.217 167.331 102.441 166.979C102.659 166.623 103.017 166.135 103.493 165.559C104.44 164.406 105.944 162.952 107.877 161.725C109.813 160.503 111.77 159.767 113.218 159.405C113.942 159.222 114.537 159.108 114.952 159.063C115.367 159.011 115.596 158.994 115.6 159.017Z" fill="white"/>
<path d="M131.047 152.228C131.014 152.288 129.876 151.627 127.913 150.849C126.934 150.454 125.738 150.065 124.39 149.715C123.036 149.385 121.528 149.106 119.927 148.954C118.324 148.817 116.789 148.821 115.398 148.902C114.009 149.005 112.762 149.173 111.728 149.386C109.658 149.799 108.42 150.245 108.399 150.18C108.391 150.158 108.696 150.037 109.256 149.836C109.534 149.732 109.879 149.614 110.288 149.507C110.695 149.395 111.155 149.249 111.678 149.148C112.715 148.902 113.971 148.708 115.376 148.586C116.782 148.486 118.336 148.472 119.958 148.611C121.579 148.765 123.105 149.058 124.469 149.408C125.829 149.779 127.03 150.196 128.006 150.624C128.502 150.817 128.929 151.044 129.309 151.226C129.692 151.406 130.01 151.583 130.266 151.735C130.781 152.033 131.059 152.207 131.047 152.228Z" fill="white"/>
<path d="M99.0227 129.334C99.0465 129.333 99.0895 129.744 99.1478 130.493C99.212 131.24 99.255 132.326 99.2623 133.669C99.2801 136.351 99.0557 140.071 98.3065 144.104C97.5493 148.137 96.4161 151.688 95.4305 154.183C94.9394 155.432 94.5078 156.429 94.1776 157.103C93.8532 157.779 93.6639 158.148 93.6427 158.138C93.6209 158.128 93.7692 157.74 94.0551 157.048C94.3463 156.359 94.7428 155.351 95.2028 154.096C96.1262 151.588 97.2143 148.05 97.9676 144.04C98.7122 140.03 98.9737 136.338 99.018 133.665C99.0418 132.329 99.0365 131.246 99.0134 130.498C98.9975 129.75 98.9995 129.335 99.0227 129.334Z" fill="white"/>
<path d="M83.1158 128.781C83.1389 128.776 83.2237 129.074 83.358 129.617C83.4957 130.159 83.6612 130.952 83.8346 131.937C84.1841 133.907 84.5097 136.663 84.5508 139.721C84.5872 142.779 84.3317 145.543 84.0325 147.521C83.8842 148.511 83.7393 149.307 83.6155 149.853C83.4957 150.4 83.4183 150.699 83.3951 150.694C83.3719 150.69 83.4044 150.382 83.4838 149.829C83.5665 149.278 83.6744 148.477 83.7916 147.489C84.0279 145.511 84.243 142.763 84.2066 139.724C84.1655 136.686 83.8809 133.946 83.5943 131.975C83.4527 130.989 83.3243 130.192 83.227 129.643C83.133 129.093 83.0926 128.786 83.1158 128.781Z" fill="white"/>
<path d="M111.739 135.607C111.762 135.614 111.656 136.016 111.445 136.738C111.236 137.46 110.912 138.498 110.491 139.774C109.652 142.328 108.4 145.827 106.85 149.626C105.296 153.424 103.74 156.8 102.552 159.211C101.958 160.416 101.463 161.385 101.107 162.047C100.752 162.709 100.546 163.071 100.525 163.06C100.504 163.05 100.67 162.668 100.987 161.987C101.329 161.256 101.783 160.283 102.332 159.106C103.463 156.671 104.981 153.287 106.531 149.496C108.079 145.704 109.364 142.226 110.261 139.696C110.693 138.47 111.049 137.458 111.318 136.697C111.568 135.988 111.717 135.6 111.739 135.607Z" fill="white"/>
<path d="M67.7543 131.318C67.7576 131.307 67.8404 131.32 67.9966 131.356C68.1508 131.397 68.3858 131.438 68.673 131.54C69.2555 131.717 70.0783 132.054 71.0221 132.605C72.9185 133.687 75.1961 135.814 76.8554 138.715C78.5135 141.616 79.3574 144.536 79.9008 146.628C80.1689 147.679 80.3589 148.536 80.48 149.13C80.6011 149.724 80.6547 150.055 80.6322 150.061C80.6084 150.066 80.5111 149.745 80.3496 149.161C80.1709 148.515 79.9412 147.686 79.6659 146.692C79.0642 144.623 78.1892 141.742 76.5569 138.887C74.9247 136.036 72.7252 133.93 70.8957 132.814C69.0682 131.671 67.7265 131.393 67.7543 131.318Z" fill="white"/>
<path d="M55.8242 141.285C55.8209 141.262 56.1578 141.203 56.7714 141.118C57.0779 141.071 57.4545 141.024 57.8947 141.003C58.3342 140.977 58.8346 140.926 59.3892 140.936C60.4986 140.909 61.8217 140.985 63.2785 141.17C64.7314 141.379 66.3167 141.711 67.935 142.219C69.5494 142.742 71.034 143.39 72.3399 144.061C73.6353 144.753 74.7579 145.457 75.6468 146.122C76.1055 146.435 76.4834 146.767 76.827 147.042C77.1731 147.315 77.4531 147.57 77.6755 147.787C78.1263 148.212 78.3672 148.455 78.3507 148.472C78.3341 148.489 78.0627 148.28 77.5875 147.888C77.3525 147.689 77.0619 147.449 76.7072 147.193C76.355 146.933 75.9698 146.618 75.5065 146.321C74.6076 145.688 73.4837 145.013 72.195 144.343C70.8957 143.695 69.4256 143.065 67.8311 142.547C66.2319 142.046 64.6692 141.708 63.2342 141.485C61.7966 141.284 60.4893 141.184 59.3892 141.18C58.8392 141.154 58.3421 141.188 57.9053 141.195C57.4677 141.198 57.0918 141.225 56.7847 141.252C56.1704 141.296 55.8276 141.309 55.8242 141.285Z" fill="white"/>
<path d="M225.743 42.6287C224.958 40.5331 224.158 38.4091 222.838 36.6021C221.518 34.7958 219.589 33.3158 217.368 33.0437C215.147 32.7717 212.686 33.9704 211.963 36.0878C211.644 31.3169 210.968 26.4221 208.58 22.2793C206.192 18.1365 201.736 14.8826 196.963 15.1745C192.463 15.4498 188.61 18.7924 186.468 22.7605C184.327 26.7286 183.592 31.2798 182.89 35.733C181.184 33.6401 177.582 34.2974 175.801 36.3281C174.021 38.3588 173.57 41.1964 173.191 43.8698L228.124 44.4052L225.743 42.6287Z" fill="white"/>
<path d="M225.744 42.6286C225.747 42.6259 225.798 42.659 225.898 42.7285C226.006 42.8059 226.152 42.9099 226.344 43.0475C226.75 43.3434 227.347 43.7789 228.153 44.368L228.268 44.4514H228.126C221.091 44.4435 199.89 44.2833 173.191 44.0371L173 44.0351L173.027 43.8451C173.208 42.5703 173.4 41.2697 173.761 39.9862C174.119 38.7088 174.663 37.432 175.546 36.3703C176.429 35.2967 177.727 34.5812 179.114 34.3515C179.808 34.2396 180.536 34.2542 181.227 34.4548C181.918 34.6513 182.564 35.0538 183.024 35.6224L182.721 35.7044C182.764 35.4284 182.812 35.1292 182.86 34.8301C183.29 32.1494 183.755 29.4905 184.551 26.9548C185.336 24.425 186.471 22.0058 188.109 20.0082C189.725 18.0092 191.809 16.4114 194.156 15.5873C196.498 14.7394 199.076 14.8427 201.272 15.684C203.485 16.5113 205.35 17.9424 206.814 19.5872C208.294 21.234 209.324 23.1475 210.048 25.0591C211.503 28.9087 211.847 32.7179 212.081 36.0784L211.853 36.0486C212.399 34.4971 213.789 33.5188 215.147 33.1323C216.53 32.7193 217.947 32.9178 219.09 33.4083C220.247 33.8961 221.176 34.6289 221.915 35.3887C222.658 36.1519 223.204 36.9607 223.64 37.71C224.502 39.2191 224.961 40.4847 225.287 41.3273C225.438 41.7436 225.554 42.064 225.638 42.293C225.712 42.5107 225.744 42.6286 225.744 42.6286C225.744 42.6286 225.693 42.5246 225.606 42.3082C225.515 42.0812 225.389 41.7648 225.224 41.3531C224.88 40.5191 224.401 39.2635 223.529 37.7762C223.089 37.0382 222.541 36.2445 221.802 35.4999C221.068 34.7579 220.149 34.0477 219.019 33.5804C217.899 33.1104 216.536 32.9304 215.205 33.3355C213.897 33.7154 212.578 34.6659 212.075 36.1261L211.889 36.6635L211.847 36.0963C211.597 32.7451 211.236 28.9584 209.786 25.1617C209.063 23.2746 208.046 21.3988 206.59 19.7884C205.15 18.178 203.318 16.7821 201.162 15.9818C199.021 15.1684 196.535 15.0744 194.264 15.8991C191.989 16.7013 189.952 18.2621 188.371 20.2233C186.769 22.1812 185.654 24.5561 184.878 27.0594C184.091 29.5666 183.629 32.2096 183.2 34.8863C183.152 35.1855 183.105 35.4847 183.062 35.76L183.001 36.1452L182.758 35.8421C181.918 34.7923 180.46 34.468 179.17 34.6924C177.864 34.9075 176.636 35.584 175.81 36.59C174.968 37.6014 174.44 38.8292 174.088 40.0796C173.734 41.3345 173.541 42.6206 173.36 43.8934L173.195 43.7022C199.894 43.9768 221.094 44.2303 228.127 44.3594L228.099 44.4428C227.301 43.8345 226.711 43.3851 226.31 43.0793C226.124 42.9344 225.984 42.8251 225.88 42.7437C225.785 42.6683 225.741 42.6305 225.744 42.6286Z" fill="#989898"/>
<path d="M210.98 213.515C210.341 211.808 209.689 210.077 208.613 208.604C207.538 207.132 205.965 205.926 204.156 205.704C202.346 205.483 200.341 206.46 199.751 208.185C199.492 204.297 198.94 200.308 196.994 196.932C195.048 193.557 191.417 190.905 187.528 191.143C183.86 191.367 180.721 194.091 178.976 197.325C177.231 200.558 176.632 204.267 176.059 207.896C174.669 206.19 171.734 206.726 170.283 208.381C168.832 210.036 168.465 212.348 168.156 214.527L212.921 214.963L210.98 213.515Z" fill="white"/>
<path d="M210.981 213.515C210.984 213.512 211.025 213.539 211.106 213.596C211.194 213.659 211.313 213.744 211.47 213.856C211.801 214.097 212.287 214.452 212.945 214.932L213.038 215H212.922C207.189 214.994 189.913 214.863 168.156 214.662L168 214.661L168.022 214.506C168.169 213.467 168.326 212.407 168.62 211.361C168.912 210.32 169.355 209.28 170.075 208.415C170.795 207.54 171.852 206.957 172.982 206.77C173.548 206.678 174.141 206.69 174.705 206.854C175.267 207.014 175.794 207.342 176.169 207.805L175.921 207.872C175.957 207.647 175.996 207.403 176.035 207.16C176.385 204.975 176.764 202.808 177.413 200.742C178.053 198.68 178.978 196.709 180.312 195.081C181.629 193.452 183.328 192.15 185.24 191.479C187.149 190.788 189.249 190.872 191.039 191.557C192.842 192.232 194.362 193.398 195.555 194.738C196.761 196.08 197.6 197.639 198.191 199.197C199.376 202.334 199.656 205.438 199.847 208.177L199.662 208.153C200.106 206.888 201.239 206.091 202.346 205.776C203.472 205.439 204.627 205.601 205.559 206.001C206.502 206.398 207.259 206.996 207.861 207.615C208.467 208.237 208.912 208.896 209.267 209.506C209.969 210.736 210.343 211.767 210.609 212.454C210.731 212.793 210.826 213.054 210.894 213.241C210.955 213.419 210.981 213.515 210.981 213.515C210.981 213.515 210.94 213.43 210.868 213.253C210.795 213.068 210.692 212.811 210.558 212.475C210.277 211.796 209.887 210.772 209.176 209.56C208.817 208.959 208.371 208.312 207.769 207.705C207.171 207.101 206.422 206.522 205.501 206.141C204.588 205.758 203.477 205.612 202.393 205.942C201.327 206.251 200.252 207.026 199.842 208.216L199.691 208.654L199.656 208.191C199.452 205.46 199.158 202.375 197.977 199.281C197.388 197.743 196.559 196.214 195.373 194.902C194.199 193.59 192.706 192.452 190.95 191.8C189.204 191.137 187.179 191.061 185.328 191.733C183.474 192.386 181.814 193.658 180.526 195.256C179.22 196.852 178.312 198.787 177.68 200.827C177.038 202.87 176.662 205.024 176.312 207.205C176.273 207.449 176.235 207.693 176.199 207.917L176.15 208.231L175.952 207.984C175.267 207.129 174.079 206.865 173.028 207.047C171.964 207.223 170.963 207.774 170.29 208.594C169.604 209.418 169.173 210.418 168.886 211.437C168.598 212.46 168.441 213.508 168.293 214.545L168.159 214.389C189.916 214.613 207.192 214.82 212.923 214.925L212.9 214.993C212.25 214.497 211.769 214.131 211.442 213.882C211.291 213.764 211.176 213.675 211.092 213.608C211.015 213.547 210.979 213.516 210.981 213.515Z" fill="#989898"/>
<path d="M93.4936 95.3763C92.8028 93.5324 92.0986 91.6626 90.9363 90.0723C89.7741 88.482 88.077 87.1796 86.1221 86.941C84.1673 86.7015 82.0021 87.757 81.3655 89.6201C81.0852 85.4208 80.4903 81.113 78.3877 77.4669C76.286 73.8208 72.3645 70.9573 68.1635 71.2143C64.2029 71.4562 60.8121 74.3982 58.9273 77.8908C57.0433 81.3834 56.3959 85.3882 55.7776 89.308C54.2766 87.4658 51.1061 88.0448 49.5391 89.832C47.9722 91.6192 47.5751 94.1164 47.2422 96.4693L95.5887 96.9407L93.4936 95.3763Z" fill="white"/>
<path d="M93.4951 95.3766C93.4992 95.3733 93.5451 95.4017 93.6336 95.4618C93.7354 95.5335 93.8638 95.6228 94.0299 95.7396C94.3962 96.0049 94.921 96.3837 95.6252 96.8935L95.7695 96.9978L95.5893 96.9986C89.3984 97.0145 70.739 96.8918 47.2411 96.6807L47 96.6782L47.0342 96.4388C47.1927 95.3166 47.3621 94.1693 47.6808 93.0338C47.9979 91.9041 48.4801 90.7719 49.2653 89.8274C50.0529 88.8695 51.2085 88.2329 52.445 88.0277C53.6615 87.8124 55.1041 88.1178 55.9476 89.1699L55.5646 89.2734C55.603 89.0306 55.6447 88.7669 55.6864 88.5033C56.0652 86.1429 56.4749 83.8 57.1782 81.5631C57.8707 79.3312 58.8736 77.1945 60.3221 75.4281C61.7505 73.6618 63.5944 72.2484 65.6728 71.5192C67.747 70.7691 70.0331 70.8609 71.9771 71.6068C73.9354 72.3402 75.5832 73.6068 76.8764 75.0602C78.1839 76.5161 79.0925 78.2074 79.7308 79.8944C81.0115 83.2927 81.311 86.6493 81.5146 89.6088L81.2276 89.5712C81.7157 88.1887 82.953 87.3218 84.157 86.9806C85.3835 86.6151 86.6417 86.7937 87.6521 87.2292C89.7054 88.1278 90.9119 89.7314 91.6645 91.0355C92.4213 92.368 92.8218 93.4835 93.1046 94.2269C93.2323 94.5865 93.3324 94.8685 93.4075 95.0788C93.47 95.2699 93.5009 95.3716 93.4951 95.3766C93.4892 95.3808 93.4467 95.2882 93.3674 95.0971C93.2831 94.8894 93.1697 94.6124 93.0262 94.2586C92.7191 93.5269 92.2944 92.423 91.5252 91.119C90.7617 89.8424 89.5527 88.2913 87.5636 87.4461C86.5816 87.0365 85.3918 86.8813 84.2321 87.2367C83.0899 87.5696 81.9426 88.4006 81.5079 89.668L81.2752 90.3463L81.2209 89.6305C80.9981 86.6827 80.6769 83.3545 79.402 80.0237C78.7654 78.3676 77.8727 76.7239 76.5961 75.313C75.3329 73.9021 73.7268 72.6806 71.8411 71.9814C69.9663 71.2706 67.797 71.1896 65.8113 71.9113C63.8222 72.613 62.0383 73.9797 60.6533 75.6985C59.2508 77.4139 58.2737 79.4956 57.5929 81.6941C56.9021 83.8951 56.4957 86.218 56.1178 88.5733C56.0761 88.837 56.0343 89.0998 55.996 89.3426L55.9192 89.8282L55.613 89.4461C54.8921 88.545 53.6373 88.263 52.5159 88.4574C51.3828 88.6443 50.3157 89.2317 49.599 90.1044C48.1239 91.9007 47.7776 94.2903 47.4555 96.4989L47.2478 96.2577C70.7456 96.5047 89.4034 96.7458 95.5926 96.8827L95.5576 96.9878C94.8642 96.4538 94.3478 96.0566 93.9865 95.7796C93.8297 95.6545 93.7078 95.5585 93.611 95.4818C93.5284 95.4134 93.4909 95.3792 93.4951 95.3766Z" fill="#989898"/>
<path d="M53.4584 233.828C52.9629 232.505 52.4579 231.165 51.6244 230.024C50.7914 228.884 49.5736 227.95 48.172 227.778C46.7703 227.607 45.2171 228.363 44.7604 229.7C44.5595 226.688 44.1325 223.599 42.6252 220.984C41.1179 218.369 38.3054 216.316 35.2929 216.5C32.4525 216.674 30.0206 218.783 28.6691 221.288C27.3176 223.792 26.8539 226.665 26.4102 229.476C25.3337 228.154 23.0601 228.57 21.9363 229.851C20.8125 231.133 20.528 232.924 20.2891 234.611H54.444L53.4584 233.828Z" fill="#F5F5F5"/>
</svg>
