<svg width="24" height="24" viewBox="0 0 24 24" fill="none" xmlns="http://www.w3.org/2000/svg">
<path d="M11 18L11 21C11 21.5 10.6 22 10 22C9.4 22 9 21.5 9 21L9 18L11 18Z" stroke="#1C1B1E" stroke-width="1.5" stroke-miterlimit="10" stroke-linecap="round" stroke-linejoin="round"/>
<path d="M15 18L15 21C15 21.5 14.6 22 14 22C13.4 22 13 21.5 13 21L13 18L15 18Z" stroke="#1C1B1E" stroke-width="1.5" stroke-miterlimit="10" stroke-linecap="round" stroke-linejoin="round"/>
<path d="M17 11L17 16C17 17.1 16.1 18 15 18L9 18C7.9 18 7 17.1 7 16L7 11C7 9.9 7.9 9 9 9L15 9C16.1 9 17 9.9 17 11Z" stroke="#1C1B1E" stroke-width="1.5" stroke-miterlimit="10" stroke-linecap="round" stroke-linejoin="round"/>
<path d="M5 11L5 15C5 15.6 4.6 16 4 16C3.4 16 3 15.6 3 15L3 11C3 10.4 3.4 10 4 10C4.6 10 5 10.4 5 11Z" stroke="#1C1B1E" stroke-width="1.5" stroke-miterlimit="10" stroke-linecap="round" stroke-linejoin="round"/>
<path d="M21 11L21 15C21 15.6 20.6 16 20 16C19.4 16 19 15.6 19 15L19 11C19 10.4 19.4 10 20 10C20.6 10 21 10.4 21 11Z" stroke="#1C1B1E" stroke-width="1.5" stroke-miterlimit="10" stroke-linecap="round" stroke-linejoin="round"/>
<path d="M13 18L11 18" stroke="#1C1B1E" stroke-width="1.5" stroke-miterlimit="10" stroke-linecap="round" stroke-linejoin="round"/>
<path d="M9.6 7L14.4 7C15.3 7 16 6.25 16 5.28571C16 2.92857 14.2 0.999999 12 0.999999C9.8 1 8 2.92857 8 5.28571C8 6.25 8.7 7 9.6 7Z" stroke="#1C1B1E" stroke-width="1.5" stroke-miterlimit="10" stroke-linecap="round" stroke-linejoin="round"/>
</svg>
