<svg width="25" height="24" viewBox="0 0 25 24" fill="none" xmlns="http://www.w3.org/2000/svg">
<path d="M17.1289 1.91H7.48891C5.36891 1.91 3.62891 3.65 3.62891 5.77V19.86C3.62891 21.66 4.91891 22.42 6.49891 21.55L11.3789 18.84C11.8989 18.55 12.7389 18.55 13.2489 18.84L18.1289 21.55C19.7089 22.43 20.9989 21.67 20.9989 19.86V5.77C20.9889 3.65 19.2589 1.91 17.1289 1.91ZM15.9289 9.03L11.9289 13.03C11.7789 13.18 11.5889 13.25 11.3989 13.25C11.2089 13.25 11.0189 13.18 10.8689 13.03L9.36891 11.53C9.07891 11.24 9.07891 10.76 9.36891 10.47C9.65891 10.18 10.1389 10.18 10.4289 10.47L11.3989 11.44L14.8689 7.97C15.1589 7.68 15.6389 7.68 15.9289 7.97C16.2189 8.26 16.2189 8.74 15.9289 9.03Z" fill="#1C1B1E"/>
</svg>
