<svg width="25" height="24" viewBox="0 0 25 24" fill="none" xmlns="http://www.w3.org/2000/svg">
<path d="M14.8086 11.4H9.80859C9.39859 11.4 9.05859 11.06 9.05859 10.65C9.05859 10.24 9.39859 9.89999 9.80859 9.89999H14.8086C15.2186 9.89999 15.5586 10.24 15.5586 10.65C15.5586 11.06 15.2186 11.4 14.8086 11.4Z" fill="#1C1B1E"/>
<path d="M12.3086 13.96C11.8986 13.96 11.5586 13.62 11.5586 13.21V8.20999C11.5586 7.79999 11.8986 7.45999 12.3086 7.45999C12.7186 7.45999 13.0586 7.79999 13.0586 8.20999V13.21C13.0586 13.62 12.7186 13.96 12.3086 13.96Z" fill="#1C1B1E"/>
<path d="M19.3789 22.75C18.8689 22.75 18.3089 22.6 17.7689 22.29L12.8889 19.58C12.5989 19.42 12.0289 19.42 11.7389 19.58L6.85891 22.29C5.86891 22.84 4.85891 22.9 4.08891 22.44C3.31891 21.99 2.87891 21.08 2.87891 19.95V5.86C2.87891 3.32 4.94891 1.25 7.48891 1.25H17.1389C19.6789 1.25 21.7489 3.32 21.7489 5.86V19.95C21.7489 21.08 21.3089 21.99 20.5389 22.44C20.1889 22.65 19.7889 22.75 19.3789 22.75ZM12.3089 17.96C12.7789 17.96 13.2389 18.06 13.6089 18.27L18.4889 20.98C18.9989 21.27 19.4689 21.33 19.7689 21.15C20.0689 20.97 20.2389 20.54 20.2389 19.95V5.86C20.2389 4.15 18.8389 2.75 17.1289 2.75H7.48891C5.77891 2.75 4.37891 4.15 4.37891 5.86V19.95C4.37891 20.54 4.54891 20.98 4.84891 21.15C5.14891 21.32 5.61891 21.27 6.12891 20.98L11.0089 18.27C11.3789 18.06 11.8389 17.96 12.3089 17.96Z" fill="#1C1B1E"/>
</svg>
