<svg width="24" height="24" viewBox="0 0 24 24" fill="none" xmlns="http://www.w3.org/2000/svg">
<path d="M18.8191 9.57C18.8191 9.76 18.7491 9.95001 18.5991 10.1C18.3091 10.39 17.8291 10.39 17.5391 10.1L11.9991 4.56L6.45914 10.1C6.16914 10.39 5.68914 10.39 5.39914 10.1C5.10914 9.81 5.10914 9.33 5.39914 9.04L11.4691 2.97C11.7591 2.68 12.2391 2.68 12.5291 2.97L18.5991 9.04C18.7491 9.19 18.8191 9.38 18.8191 9.57Z" fill="#1C1B1E"/>
<path d="M12.75 3.67L12.75 20.5C12.75 20.91 12.41 21.25 12 21.25C11.59 21.25 11.25 20.91 11.25 20.5L11.25 3.67C11.25 3.26 11.59 2.92 12 2.92C12.41 2.92 12.75 3.26 12.75 3.67Z" fill="#1C1B1E"/>
</svg>
