<svg width="24" height="24" viewBox="0 0 24 24" fill="none" xmlns="http://www.w3.org/2000/svg">
<path d="M9.57281 5.17988C9.76281 5.17988 9.95281 5.24988 10.1028 5.39988C10.3928 5.68988 10.3928 6.16988 10.1028 6.45988L4.56281 11.9999L10.1028 17.5399C10.3928 17.8299 10.3928 18.3099 10.1028 18.5999C9.81281 18.8899 9.33281 18.8899 9.04281 18.5999L2.97281 12.5299C2.68281 12.2399 2.68281 11.7599 2.97281 11.4699L9.04281 5.39988C9.19281 5.24988 9.38281 5.17988 9.57281 5.17988Z" fill="#938F94"/>
<path d="M3.67 11.25L20.5 11.25C20.91 11.25 21.25 11.59 21.25 12C21.25 12.41 20.91 12.75 20.5 12.75L3.67 12.75C3.26 12.75 2.92 12.41 2.92 12C2.92 11.59 3.26 11.25 3.67 11.25Z" fill="#938F94"/>
</svg>
