<svg width="24" height="25" viewBox="0 0 24 25" fill="none" xmlns="http://www.w3.org/2000/svg">
<mask id="mask0_9914_14609" style="mask-type:alpha" maskUnits="userSpaceOnUse" x="0" y="0" width="24" height="25">
<rect x="24" y="24.8555" width="24" height="24" transform="rotate(180 24 24.8555)" fill="#D9D9D9"/>
</mask>
<g mask="url(#mask0_9914_14609)">
<path d="M12.35 10.2055C12.25 10.1055 12.1333 10.0555 12 10.0555C11.8667 10.0555 11.75 10.1055 11.65 10.2055L8.85 13.0055C8.68333 13.1721 8.64167 13.3555 8.725 13.5555C8.80833 13.7555 8.96667 13.8555 9.2 13.8555L14.8 13.8555C15.0333 13.8555 15.1917 13.7555 15.275 13.5555C15.3583 13.3555 15.3167 13.1721 15.15 13.0055L12.35 10.2055ZM12 2.85547C13.3833 2.85547 14.6833 3.11797 15.9 3.64297C17.1167 4.16797 18.175 4.88047 19.075 5.78047C19.975 6.68047 20.6875 7.7388 21.2125 8.95547C21.7375 10.1721 22 11.4721 22 12.8555C22 14.2388 21.7375 15.5388 21.2125 16.7555C20.6875 17.9721 19.975 19.0305 19.075 19.9305C18.175 20.8305 17.1167 21.543 15.9 22.068C14.6833 22.593 13.3833 22.8555 12 22.8555C10.6167 22.8555 9.31667 22.593 8.1 22.068C6.88333 21.543 5.825 20.8305 4.925 19.9305C4.025 19.0305 3.3125 17.9721 2.7875 16.7555C2.2625 15.5388 2 14.2388 2 12.8555C2 11.4721 2.2625 10.1721 2.7875 8.95547C3.3125 7.7388 4.025 6.68047 4.925 5.78047C5.825 4.88047 6.88333 4.16797 8.1 3.64297C9.31666 3.11797 10.6167 2.85547 12 2.85547Z" fill="#039500"/>
</g>
</svg>
