<svg width="24" height="24" viewBox="0 0 24 24" fill="none" xmlns="http://www.w3.org/2000/svg">
<path d="M5.18086 14.43C5.18086 14.24 5.25086 14.05 5.40086 13.9C5.69086 13.61 6.17086 13.61 6.46086 13.9L12.0009 19.44L17.5409 13.9C17.8309 13.61 18.3109 13.61 18.6009 13.9C18.8909 14.19 18.8909 14.67 18.6009 14.96L12.5309 21.03C12.2409 21.32 11.7609 21.32 11.4709 21.03L5.40086 14.96C5.25086 14.81 5.18086 14.62 5.18086 14.43Z" fill="#1C1B1E"/>
<path d="M11.25 20.33L11.25 3.5C11.25 3.09 11.59 2.75 12 2.75C12.41 2.75 12.75 3.09 12.75 3.5L12.75 20.33C12.75 20.74 12.41 21.08 12 21.08C11.59 21.08 11.25 20.74 11.25 20.33Z" fill="#1C1B1E"/>
</svg>
