<svg width="48" height="48" viewBox="0 0 48 48" fill="none" xmlns="http://www.w3.org/2000/svg">
<path d="M9.6474 35.9013C11.6307 34.3846 13.8474 33.1888 16.2974 32.3138C18.7474 31.4388 21.3141 31.0013 23.9974 31.0013C26.6807 31.0013 29.2474 31.4388 31.6974 32.3138C34.1474 33.1888 36.3641 34.3846 38.3474 35.9013C39.7085 34.3069 40.7682 32.4985 41.5266 30.4763C42.2849 28.4541 42.6641 26.2957 42.6641 24.0013C42.6641 18.8291 40.846 14.4249 37.2099 10.7888C33.5738 7.15269 29.1696 5.33464 23.9974 5.33464C18.8252 5.33464 14.421 7.15269 10.7849 10.7888C7.14879 14.4249 5.33073 18.8291 5.33073 24.0013C5.33073 26.2957 5.7099 28.4541 6.46823 30.4763C7.22656 32.4985 8.28629 34.3069 9.6474 35.9013ZM23.9974 26.3346C21.703 26.3346 19.7682 25.5471 18.1932 23.9721C16.6182 22.3971 15.8307 20.4624 15.8307 18.168C15.8307 15.8735 16.6182 13.9388 18.1932 12.3638C19.7682 10.7888 21.703 10.0013 23.9974 10.0013C26.2918 10.0013 28.2266 10.7888 29.8016 12.3638C31.3766 13.9388 32.1641 15.8735 32.1641 18.168C32.1641 20.4624 31.3766 22.3971 29.8016 23.9721C28.2266 25.5471 26.2918 26.3346 23.9974 26.3346ZM23.9974 47.3346C20.7696 47.3346 17.7363 46.7221 14.8974 45.4971C12.0585 44.2721 9.58906 42.6096 7.48906 40.5096C5.38906 38.4096 3.72656 35.9402 2.50156 33.1013C1.27656 30.2624 0.664062 27.2291 0.664062 24.0013C0.664062 20.7735 1.27656 17.7402 2.50156 14.9013C3.72656 12.0624 5.38906 9.59297 7.48906 7.49297C9.58906 5.39297 12.0585 3.73047 14.8974 2.50547C17.7363 1.28047 20.7696 0.667969 23.9974 0.667969C27.2252 0.667969 30.2585 1.28047 33.0974 2.50547C35.9363 3.73047 38.4057 5.39297 40.5057 7.49297C42.6057 9.59297 44.2682 12.0624 45.4932 14.9013C46.7182 17.7402 47.3307 20.7735 47.3307 24.0013C47.3307 27.2291 46.7182 30.2624 45.4932 33.1013C44.2682 35.9402 42.6057 38.4096 40.5057 40.5096C38.4057 42.6096 35.9363 44.2721 33.0974 45.4971C30.2585 46.7221 27.2252 47.3346 23.9974 47.3346Z" fill="#8925D1"/>
</svg>
