<svg width="12" height="12" viewBox="0 0 12 12" fill="none" xmlns="http://www.w3.org/2000/svg">
<path d="M11.5751 5.26495L10.7817 4.34329C10.6301 4.16829 10.5076 3.84162 10.5076 3.60829V2.61662C10.5076 1.99829 10.0001 1.49079 9.38172 1.49079H8.39005C8.16255 1.49079 7.83005 1.36829 7.65505 1.21662L6.73339 0.423286C6.33089 0.0791195 5.67172 0.0791195 5.26339 0.423286L4.34755 1.22245C4.17255 1.36829 3.84005 1.49079 3.61255 1.49079H2.60339C1.98505 1.49079 1.47755 1.99829 1.47755 2.61662V3.61412C1.47755 3.84162 1.35505 4.16829 1.20922 4.34329L0.421719 5.27079C0.0833854 5.67329 0.0833854 6.32662 0.421719 6.72912L1.20922 7.65662C1.35505 7.83162 1.47755 8.15829 1.47755 8.38579V9.38329C1.47755 10.0016 1.98505 10.5091 2.60339 10.5091H3.61255C3.84005 10.5091 4.17255 10.6316 4.34755 10.7833L5.26922 11.5766C5.67172 11.9208 6.33089 11.9208 6.73922 11.5766L7.66089 10.7833C7.83589 10.6316 8.16255 10.5091 8.39589 10.5091H9.38755C10.0059 10.5091 10.5134 10.0016 10.5134 9.38329V8.39162C10.5134 8.16412 10.6359 7.83162 10.7876 7.65662L11.5809 6.73495C11.9192 6.33245 11.9192 5.66745 11.5751 5.26495ZM8.42505 4.89745L5.60755 7.71495C5.52589 7.79662 5.41505 7.84329 5.29839 7.84329C5.18172 7.84329 5.07089 7.79662 4.98922 7.71495L3.57755 6.30329C3.40839 6.13412 3.40839 5.85412 3.57755 5.68495C3.74672 5.51579 4.02672 5.51579 4.19589 5.68495L5.29839 6.78745L7.80672 4.27912C7.97589 4.10995 8.25588 4.10995 8.42505 4.27912C8.59422 4.44829 8.59422 4.72829 8.42505 4.89745Z" fill="#338EFF"/>
</svg>
