<svg width="360" height="760" viewBox="0 0 360 760" fill="none" xmlns="http://www.w3.org/2000/svg">
<g clip-path="url(#clip0_2566_34598)">
<rect width="360" height="760" fill="url(#paint0_linear_2566_34598)"/>
<g opacity="0.32">
<circle cx="44" cy="45" r="1" fill="#F9F9F9"/>
<circle cx="287" cy="187" r="1" fill="#F9F9F9"/>
<circle cx="301" cy="76" r="1" fill="#F9F9F9"/>
<circle cx="88" cy="219" r="1" fill="#F9F9F9"/>
<circle cx="200" cy="125" r="1" fill="#F9F9F9"/>
<circle cx="285" cy="253" r="1" fill="#F9F9F9"/>
<circle cx="186" cy="197" r="1" fill="#F9F9F9"/>
<circle cx="75" cy="123" r="1" fill="#F9F9F9"/>
<circle cx="166" cy="74" r="1" fill="#F9F9F9"/>
<circle cx="191" cy="363" r="1" fill="#F9F9F9"/>
<circle cx="283" cy="333" r="1" fill="#F9F9F9"/>
<circle cx="157" cy="274" r="1" fill="#F9F9F9"/>
<circle cx="59" cy="333" r="1" fill="#F9F9F9"/>
<circle cx="311" cy="442" r="1" fill="#F9F9F9"/>
<circle cx="53" cy="555" r="1" fill="#F9F9F9"/>
<circle cx="86" cy="421" r="1" fill="#F9F9F9"/>
<circle cx="217" cy="465" r="1" fill="#F9F9F9"/>
<circle cx="120" cy="517" r="1" fill="#F9F9F9"/>
<circle cx="273" cy="536" r="1" fill="#F9F9F9"/>
<circle cx="303" cy="622" r="1" fill="#F9F9F9"/>
<circle cx="68" cy="623" r="1" fill="#F9F9F9"/>
<circle cx="178" cy="593" r="1" fill="#F9F9F9"/>
<circle cx="237" cy="699" r="1" fill="#F9F9F9"/>
<circle cx="305" cy="699" r="1" fill="#F9F9F9"/>
<circle cx="53" cy="719" r="1" fill="#F9F9F9"/>
<circle cx="172" cy="653" r="1" fill="#F9F9F9"/>
<circle cx="131" cy="704" r="1" fill="#F9F9F9"/>
</g>
<g opacity="0.4">
<circle cx="94" cy="77" r="1" fill="#F9F9F9"/>
<circle cx="337" cy="219" r="1" fill="#F9F9F9"/>
<circle cx="351" cy="108" r="1" fill="#F9F9F9"/>
<circle cx="138" cy="251" r="1" fill="#F9F9F9"/>
<circle cx="250" cy="157" r="1" fill="#F9F9F9"/>
<circle cx="335" cy="285" r="1" fill="#F9F9F9"/>
<circle cx="236" cy="229" r="1" fill="#F9F9F9"/>
<circle cx="125" cy="155" r="1" fill="#F9F9F9"/>
<circle cx="216" cy="106" r="1" fill="#F9F9F9"/>
<circle cx="241" cy="395" r="1" fill="#F9F9F9"/>
<circle cx="333" cy="365" r="1" fill="#F9F9F9"/>
<circle cx="207" cy="306" r="1" fill="#F9F9F9"/>
<circle cx="109" cy="365" r="1" fill="#F9F9F9"/>
<circle cx="103" cy="587" r="1" fill="#F9F9F9"/>
<circle cx="136" cy="453" r="1" fill="#F9F9F9"/>
<circle cx="267" cy="497" r="1" fill="#F9F9F9"/>
<circle cx="170" cy="549" r="1" fill="#F9F9F9"/>
<circle cx="323" cy="568" r="1" fill="#F9F9F9"/>
<circle cx="353" cy="654" r="1" fill="#F9F9F9"/>
<circle cx="118" cy="655" r="1" fill="#F9F9F9"/>
<circle cx="228" cy="625" r="1" fill="#F9F9F9"/>
<circle cx="287" cy="731" r="1" fill="#F9F9F9"/>
<circle cx="355" cy="731" r="1" fill="#F9F9F9"/>
<circle cx="103" cy="751" r="1" fill="#F9F9F9"/>
<circle cx="222" cy="685" r="1" fill="#F9F9F9"/>
<circle cx="181" cy="736" r="1" fill="#F9F9F9"/>
</g>
<g opacity="0.48">
<circle cx="186.607" cy="197.279" r="1.05576" fill="#F9F9F9"/>
<circle cx="201.388" cy="80.0892" r="1.05576" fill="#F9F9F9"/>
<circle cx="94.755" cy="131.822" r="1.05576" fill="#F9F9F9"/>
<circle cx="184.493" cy="266.959" r="1.05576" fill="#F9F9F9"/>
<circle cx="79.9737" cy="207.837" r="1.05576" fill="#F9F9F9"/>
<circle cx="50.0558" cy="191.056" r="1.05576" fill="#F9F9F9"/>
<circle cx="21.0558" cy="151.056" r="1.05576" fill="#F9F9F9"/>
<circle cx="46.0558" cy="147.056" r="1.05576" fill="#F9F9F9"/>
<circle cx="23.0558" cy="185.056" r="1.05576" fill="#F9F9F9"/>
<circle cx="23.0558" cy="92.0558" r="1.05576" fill="#F9F9F9"/>
<circle cx="58.8605" cy="77.9779" r="1.05576" fill="#F9F9F9"/>
<circle cx="85.2511" cy="383.093" r="1.05576" fill="#F9F9F9"/>
<circle cx="182.384" cy="351.42" r="1.05576" fill="#F9F9F9"/>
<circle cx="49.3565" cy="289.13" r="1.05576" fill="#F9F9F9"/>
<circle cx="211.942" cy="466.498" r="1.05576" fill="#F9F9F9"/>
<circle cx="112.704" cy="490.781" r="1.05576" fill="#F9F9F9"/>
<circle cx="10.294" cy="545.68" r="1.05576" fill="#F9F9F9"/>
<circle cx="171.825" cy="565.74" r="1.05576" fill="#F9F9F9"/>
<circle cx="203.497" cy="656.536" r="1.05576" fill="#F9F9F9"/>
<circle cx="71.5284" cy="625.918" r="1.05576" fill="#F9F9F9"/>
<circle cx="133.817" cy="737.829" r="1.05576" fill="#F9F9F9"/>
<circle cx="205.61" cy="737.829" r="1.05576" fill="#F9F9F9"/>
<circle cx="65.1925" cy="689.264" r="1.05576" fill="#F9F9F9"/>
<circle cx="21.9073" cy="743.108" r="1.05576" fill="#F9F9F9"/>
</g>
<g opacity="0.56">
<circle cx="12.2788" cy="18.2788" r="1.27881" fill="#F9F9F9"/>
<circle cx="323.029" cy="199.87" r="1.27881" fill="#F9F9F9"/>
<circle cx="340.931" cy="57.9219" r="1.27881" fill="#F9F9F9"/>
<circle cx="68.5483" cy="240.792" r="1.27881" fill="#F9F9F9"/>
<circle cx="211.775" cy="120.584" r="1.27881" fill="#F9F9F9"/>
<circle cx="320.47" cy="284.271" r="1.27881" fill="#F9F9F9"/>
<circle cx="193.869" cy="212.658" r="1.27881" fill="#F9F9F9"/>
<circle cx="51.9233" cy="118.026" r="1.27881" fill="#F9F9F9"/>
<circle cx="168.294" cy="55.3643" r="1.27881" fill="#F9F9F9"/>
<circle cx="200.263" cy="424.94" r="1.27881" fill="#F9F9F9"/>
<circle cx="317.916" cy="386.576" r="1.27881" fill="#F9F9F9"/>
<circle cx="156.783" cy="311.126" r="1.27881" fill="#F9F9F9"/>
<circle cx="31.4624" cy="386.576" r="1.27881" fill="#F9F9F9"/>
<circle cx="353.72" cy="525.967" r="1.27881" fill="#F9F9F9"/>
<circle cx="23.7866" cy="670.472" r="1.27881" fill="#F9F9F9"/>
<circle cx="65.9897" cy="499.112" r="1.27881" fill="#F9F9F9"/>
<circle cx="233.513" cy="555.379" r="1.27881" fill="#F9F9F9"/>
<circle cx="109.47" cy="621.877" r="1.27881" fill="#F9F9F9"/>
<circle cx="305.126" cy="646.175" r="1.27881" fill="#F9F9F9"/>
<circle cx="343.49" cy="756.152" r="1.27881" fill="#F9F9F9"/>
<circle cx="42.9702" cy="757.431" r="1.27881" fill="#F9F9F9"/>
<circle cx="183.638" cy="719.067" r="1.27881" fill="#F9F9F9"/>
</g>
<g opacity="0.48">
<circle cx="131.954" cy="6.81361" r="0.813609" fill="#F9F9F9"/>
<circle cx="329.661" cy="122.346" r="0.813609" fill="#F9F9F9"/>
<circle cx="341.052" cy="32.0355" r="0.813609" fill="#F9F9F9"/>
<circle cx="167.751" cy="148.382" r="0.813609" fill="#F9F9F9"/>
<circle cx="258.876" cy="71.9025" r="0.813609" fill="#F9F9F9"/>
<circle cx="328.032" cy="176.044" r="0.813609" fill="#F9F9F9"/>
<circle cx="247.485" cy="130.482" r="0.813609" fill="#F9F9F9"/>
<circle cx="157.177" cy="70.275" r="0.813609" fill="#F9F9F9"/>
<circle cx="23.8136" cy="106.814" r="0.813609" fill="#F9F9F9"/>
<circle cx="21.8136" cy="53.8136" r="0.813609" fill="#F9F9F9"/>
<circle cx="152.814" cy="104.814" r="0.813609" fill="#F9F9F9"/>
<circle cx="231.216" cy="30.4083" r="0.813609" fill="#F9F9F9"/>
<circle cx="251.556" cy="265.541" r="0.813609" fill="#F9F9F9"/>
<circle cx="326.407" cy="241.133" r="0.813609" fill="#F9F9F9"/>
<circle cx="223.892" cy="193.13" r="0.813609" fill="#F9F9F9"/>
<circle cx="144.157" cy="241.133" r="0.813609" fill="#F9F9F9"/>
<circle cx="349.189" cy="329.817" r="0.813609" fill="#F9F9F9"/>
<circle cx="139.278" cy="421.755" r="0.813609" fill="#F9F9F9"/>
<circle cx="166.126" cy="312.731" r="0.813609" fill="#F9F9F9"/>
<circle cx="272.708" cy="348.53" r="0.813609" fill="#F9F9F9"/>
<circle cx="193.79" cy="390.837" r="0.813609" fill="#F9F9F9"/>
<circle cx="318.271" cy="406.296" r="0.813609" fill="#F9F9F9"/>
<circle cx="342.681" cy="476.266" r="0.813609" fill="#F9F9F9"/>
<circle cx="151.482" cy="477.08" r="0.813609" fill="#F9F9F9"/>
<circle cx="240.978" cy="452.672" r="0.813609" fill="#F9F9F9"/>
<circle cx="288.982" cy="538.914" r="0.813609" fill="#F9F9F9"/>
<circle cx="344.306" cy="538.914" r="0.813609" fill="#F9F9F9"/>
<circle cx="139.278" cy="555.186" r="0.813609" fill="#F9F9F9"/>
<circle cx="236.095" cy="501.488" r="0.813609" fill="#F9F9F9"/>
<circle cx="202.739" cy="542.982" r="0.813609" fill="#F9F9F9"/>
</g>
<g opacity="0.4">
<circle cx="70" cy="26" r="1" fill="#F9F9F9"/>
<circle cx="313" cy="168" r="1" fill="#F9F9F9"/>
<circle cx="327" cy="57" r="1" fill="#F9F9F9"/>
<circle cx="114" cy="200" r="1" fill="#F9F9F9"/>
<circle cx="226" cy="106" r="1" fill="#F9F9F9"/>
<circle cx="311" cy="234" r="1" fill="#F9F9F9"/>
<circle cx="212" cy="178" r="1" fill="#F9F9F9"/>
<circle cx="101" cy="104" r="1" fill="#F9F9F9"/>
<circle cx="192" cy="55" r="1" fill="#F9F9F9"/>
<circle cx="217" cy="344" r="1" fill="#F9F9F9"/>
<circle cx="309" cy="314" r="1" fill="#F9F9F9"/>
<circle cx="183" cy="255" r="1" fill="#F9F9F9"/>
<circle cx="85" cy="314" r="1" fill="#F9F9F9"/>
<circle cx="337" cy="423" r="1" fill="#F9F9F9"/>
<circle cx="79" cy="536" r="1" fill="#F9F9F9"/>
<circle cx="112" cy="402" r="1" fill="#F9F9F9"/>
<circle cx="243" cy="446" r="1" fill="#F9F9F9"/>
<circle cx="146" cy="498" r="1" fill="#F9F9F9"/>
<circle cx="299" cy="517" r="1" fill="#F9F9F9"/>
<circle cx="329" cy="603" r="1" fill="#F9F9F9"/>
<circle cx="94" cy="604" r="1" fill="#F9F9F9"/>
<circle cx="204" cy="574" r="1" fill="#F9F9F9"/>
<circle cx="263" cy="680" r="1" fill="#F9F9F9"/>
<circle cx="331" cy="680" r="1" fill="#F9F9F9"/>
<circle cx="79" cy="700" r="1" fill="#F9F9F9"/>
<circle cx="198" cy="634" r="1" fill="#F9F9F9"/>
<circle cx="157" cy="685" r="1" fill="#F9F9F9"/>
</g>
<g opacity="0.32">
<path d="M270.478 461.677C270.321 461.671 270.165 461.664 270.01 461.661C269.302 461.588 268.665 461.275 268.432 460.688C268.145 459.964 268.085 459.184 268.102 458.428C268.114 457.857 266.982 457.857 267.002 458.428C267.016 458.816 267.043 459.226 267.103 459.634C266.978 460.013 266.805 460.38 266.585 460.697C266.073 461.432 265.271 461.555 264.327 461.686C263.804 461.759 263.955 462.394 264.448 462.407C265.211 462.429 265.986 462.49 266.372 463.074C266.913 463.892 267.045 464.72 267.08 465.638C267.094 466.119 268.003 466.122 268.008 465.638C268.011 465.304 267.996 464.979 267.959 464.66C267.966 464.231 268.034 463.808 268.266 463.394C268.444 463.077 268.728 462.779 269.144 462.654C269.553 462.532 270.049 462.567 270.478 462.552C271.176 462.579 271.172 461.707 270.478 461.677Z" fill="white" fill-opacity="0.24"/>
<path d="M270.478 461.677C270.321 461.671 270.165 461.664 270.01 461.661C269.302 461.588 268.665 461.275 268.432 460.688C268.145 459.964 268.085 459.184 268.102 458.428C268.114 457.857 266.982 457.857 267.002 458.428C267.016 458.816 267.043 459.226 267.103 459.634C266.978 460.013 266.805 460.38 266.585 460.697C266.073 461.432 265.271 461.555 264.327 461.686C263.804 461.759 263.955 462.394 264.448 462.407C265.211 462.429 265.986 462.49 266.372 463.074C266.913 463.892 267.045 464.72 267.08 465.638C267.094 466.119 268.003 466.122 268.008 465.638C268.011 465.304 267.996 464.979 267.959 464.66C267.966 464.231 268.034 463.808 268.266 463.394C268.444 463.077 268.728 462.779 269.144 462.654C269.553 462.532 270.049 462.567 270.478 462.552C271.176 462.579 271.172 461.707 270.478 461.677Z" fill="white" fill-opacity="0.24"/>
<path d="M276.627 452.758C276.515 452.753 276.404 452.748 276.293 452.746C275.787 452.691 275.332 452.456 275.166 452.016C274.961 451.473 274.918 450.888 274.93 450.321C274.939 449.893 274.13 449.893 274.145 450.321C274.155 450.612 274.173 450.92 274.217 451.226C274.127 451.51 274.004 451.785 273.846 452.022C273.481 452.574 272.908 452.666 272.234 452.765C271.86 452.819 271.968 453.295 272.32 453.306C272.865 453.322 273.418 453.368 273.694 453.805C274.081 454.419 274.175 455.04 274.2 455.729C274.21 456.09 274.86 456.091 274.863 455.729C274.865 455.478 274.854 455.234 274.828 454.995C274.833 454.673 274.881 454.356 275.047 454.045C275.174 453.808 275.377 453.584 275.674 453.491C275.967 453.399 276.32 453.425 276.627 453.414C277.126 453.435 277.123 452.781 276.627 452.758Z" fill="white" fill-opacity="0.24"/>
<path d="M271.627 585.758C271.515 585.753 271.404 585.748 271.293 585.746C270.787 585.691 270.332 585.456 270.166 585.016C269.961 584.473 269.918 583.888 269.93 583.321C269.939 582.893 269.13 582.893 269.145 583.321C269.155 583.612 269.173 583.92 269.217 584.226C269.127 584.51 269.004 584.785 268.846 585.022C268.481 585.574 267.908 585.666 267.234 585.765C266.86 585.819 266.968 586.295 267.32 586.306C267.865 586.322 268.418 586.368 268.694 586.805C269.081 587.419 269.175 588.04 269.2 588.729C269.21 589.09 269.86 589.091 269.863 588.729C269.865 588.478 269.854 588.234 269.828 587.995C269.833 587.673 269.881 587.356 270.047 587.045C270.174 586.808 270.377 586.584 270.674 586.491C270.967 586.399 271.32 586.425 271.627 586.414C272.126 586.435 272.123 585.781 271.627 585.758Z" fill="white" fill-opacity="0.24"/>
<path d="M59.627 444.758C59.5151 444.753 59.4036 444.748 59.2925 444.746C58.7871 444.691 58.3322 444.456 58.1659 444.016C57.9607 443.473 57.9176 442.888 57.9297 442.321C57.9389 441.893 57.1298 441.893 57.1446 442.321C57.1546 442.612 57.1734 442.92 57.2167 443.226C57.1271 443.51 57.0036 443.785 56.8463 444.022C56.481 444.574 55.908 444.666 55.2336 444.765C54.8602 444.819 54.9681 445.295 55.32 445.306C55.8647 445.322 56.4184 445.368 56.6942 445.805C57.0808 446.419 57.1751 447.04 57.1998 447.729C57.21 448.09 57.8596 448.091 57.8628 447.729C57.865 447.478 57.8544 447.234 57.8278 446.995C57.8325 446.673 57.8811 446.356 58.0472 446.045C58.1743 445.808 58.3769 445.584 58.6742 445.491C58.9667 445.399 59.3204 445.425 59.627 445.414C60.1255 445.435 60.1231 444.781 59.627 444.758Z" fill="white" fill-opacity="0.24"/>
<path d="M192.627 504.758C192.515 504.753 192.404 504.748 192.293 504.746C191.787 504.691 191.332 504.456 191.166 504.016C190.961 503.473 190.918 502.888 190.93 502.321C190.939 501.893 190.13 501.893 190.145 502.321C190.155 502.612 190.173 502.92 190.217 503.226C190.127 503.51 190.004 503.785 189.846 504.022C189.481 504.574 188.908 504.666 188.234 504.765C187.86 504.819 187.968 505.295 188.32 505.306C188.865 505.322 189.418 505.368 189.694 505.805C190.081 506.419 190.175 507.04 190.2 507.729C190.21 508.09 190.86 508.091 190.863 507.729C190.865 507.478 190.854 507.234 190.828 506.995C190.833 506.673 190.881 506.356 191.047 506.045C191.174 505.808 191.377 505.584 191.674 505.491C191.967 505.399 192.32 505.425 192.627 505.414C193.126 505.435 193.123 504.781 192.627 504.758Z" fill="white" fill-opacity="0.24"/>
<path d="M47.627 586.758C47.5151 586.753 47.4036 586.748 47.2925 586.746C46.7871 586.691 46.3322 586.456 46.1659 586.016C45.9607 585.473 45.9176 584.888 45.9297 584.321C45.9389 583.893 45.1298 583.893 45.1446 584.321C45.1546 584.612 45.1734 584.92 45.2167 585.226C45.1271 585.51 45.0036 585.785 44.8463 586.022C44.481 586.574 43.908 586.666 43.2336 586.765C42.8602 586.819 42.9681 587.295 43.32 587.306C43.8647 587.322 44.4184 587.368 44.6942 587.805C45.0808 588.419 45.1751 589.04 45.1998 589.729C45.21 590.09 45.8596 590.091 45.8628 589.729C45.865 589.478 45.8544 589.234 45.8278 588.995C45.8325 588.673 45.8811 588.356 46.0472 588.045C46.1743 587.808 46.3769 587.584 46.6742 587.491C46.9667 587.399 47.3204 587.425 47.627 587.414C48.1255 587.435 48.1231 586.781 47.627 586.758Z" fill="white" fill-opacity="0.24"/>
<path d="M111.627 686.758C111.515 686.753 111.404 686.748 111.293 686.746C110.787 686.691 110.332 686.456 110.166 686.016C109.961 685.473 109.918 684.888 109.93 684.321C109.939 683.893 109.13 683.893 109.145 684.321C109.155 684.612 109.173 684.92 109.217 685.226C109.127 685.51 109.004 685.785 108.846 686.022C108.481 686.574 107.908 686.666 107.234 686.765C106.86 686.819 106.968 687.295 107.32 687.306C107.865 687.322 108.418 687.368 108.694 687.805C109.081 688.419 109.175 689.04 109.2 689.729C109.21 690.09 109.86 690.091 109.863 689.729C109.865 689.478 109.854 689.234 109.828 688.995C109.833 688.673 109.881 688.356 110.047 688.045C110.174 687.808 110.377 687.584 110.674 687.491C110.967 687.399 111.32 687.425 111.627 687.414C112.126 687.435 112.123 686.781 111.627 686.758Z" fill="white" fill-opacity="0.24"/>
<path d="M250.627 729.758C250.515 729.753 250.404 729.748 250.293 729.746C249.787 729.691 249.332 729.456 249.166 729.016C248.961 728.473 248.918 727.888 248.93 727.321C248.939 726.893 248.13 726.893 248.145 727.321C248.155 727.612 248.173 727.92 248.217 728.226C248.127 728.51 248.004 728.785 247.846 729.022C247.481 729.574 246.908 729.666 246.234 729.765C245.86 729.819 245.968 730.295 246.32 730.306C246.865 730.322 247.418 730.368 247.694 730.805C248.081 731.419 248.175 732.04 248.2 732.729C248.21 733.09 248.86 733.091 248.863 732.729C248.865 732.478 248.854 732.234 248.828 731.995C248.833 731.673 248.881 731.356 249.047 731.045C249.174 730.808 249.377 730.584 249.674 730.491C249.967 730.399 250.32 730.425 250.627 730.414C251.126 730.435 251.123 729.781 250.627 729.758Z" fill="white" fill-opacity="0.24"/>
<path d="M268.627 301.758C268.515 301.753 268.404 301.748 268.293 301.746C267.787 301.691 267.332 301.456 267.166 301.016C266.961 300.473 266.918 299.888 266.93 299.321C266.939 298.893 266.13 298.893 266.145 299.321C266.155 299.612 266.173 299.92 266.217 300.226C266.127 300.51 266.004 300.785 265.846 301.022C265.481 301.574 264.908 301.666 264.234 301.765C263.86 301.819 263.968 302.295 264.32 302.306C264.865 302.322 265.418 302.368 265.694 302.805C266.081 303.419 266.175 304.04 266.2 304.729C266.21 305.09 266.86 305.091 266.863 304.729C266.865 304.478 266.854 304.234 266.828 303.995C266.833 303.673 266.881 303.356 267.047 303.045C267.174 302.808 267.377 302.584 267.674 302.491C267.967 302.399 268.32 302.425 268.627 302.414C269.126 302.435 269.123 301.781 268.627 301.758Z" fill="white" fill-opacity="0.24"/>
<path d="M110.627 287.758C110.515 287.753 110.404 287.748 110.293 287.746C109.787 287.691 109.332 287.456 109.166 287.016C108.961 286.473 108.918 285.888 108.93 285.321C108.939 284.893 108.13 284.893 108.145 285.321C108.155 285.612 108.173 285.92 108.217 286.226C108.127 286.51 108.004 286.785 107.846 287.022C107.481 287.574 106.908 287.666 106.234 287.765C105.86 287.819 105.968 288.295 106.32 288.306C106.865 288.322 107.418 288.368 107.694 288.805C108.081 289.419 108.175 290.04 108.2 290.729C108.21 291.09 108.86 291.091 108.863 290.729C108.865 290.478 108.854 290.234 108.828 289.995C108.833 289.673 108.881 289.356 109.047 289.045C109.174 288.808 109.377 288.584 109.674 288.491C109.967 288.399 110.32 288.425 110.627 288.414C111.126 288.435 111.123 287.781 110.627 287.758Z" fill="white" fill-opacity="0.24"/>
<path d="M131.627 368.758C131.515 368.753 131.404 368.748 131.293 368.746C130.787 368.691 130.332 368.456 130.166 368.016C129.961 367.473 129.918 366.888 129.93 366.321C129.939 365.893 129.13 365.893 129.145 366.321C129.155 366.612 129.173 366.92 129.217 367.226C129.127 367.51 129.004 367.785 128.846 368.022C128.481 368.574 127.908 368.666 127.234 368.765C126.86 368.819 126.968 369.295 127.32 369.306C127.865 369.322 128.418 369.368 128.694 369.805C129.081 370.419 129.175 371.04 129.2 371.729C129.21 372.09 129.86 372.091 129.863 371.729C129.865 371.478 129.854 371.234 129.828 370.995C129.833 370.673 129.881 370.356 130.047 370.045C130.174 369.808 130.377 369.584 130.674 369.491C130.967 369.399 131.32 369.425 131.627 369.414C132.126 369.435 132.123 368.781 131.627 368.758Z" fill="white" fill-opacity="0.24"/>
<path d="M44.627 354.758C44.5151 354.753 44.4036 354.748 44.2925 354.746C43.7871 354.691 43.3322 354.456 43.1659 354.016C42.9607 353.473 42.9176 352.888 42.9297 352.321C42.9389 351.893 42.1298 351.893 42.1446 352.321C42.1546 352.612 42.1734 352.92 42.2167 353.226C42.1271 353.51 42.0036 353.785 41.8463 354.022C41.481 354.574 40.908 354.666 40.2336 354.765C39.8602 354.819 39.9681 355.295 40.32 355.306C40.8647 355.322 41.4184 355.368 41.6942 355.805C42.0808 356.419 42.1751 357.04 42.1998 357.729C42.21 358.09 42.8596 358.091 42.8628 357.729C42.865 357.478 42.8544 357.234 42.8278 356.995C42.8325 356.673 42.8811 356.356 43.0472 356.045C43.1743 355.808 43.3769 355.584 43.6742 355.491C43.9667 355.399 44.3204 355.425 44.627 355.414C45.1255 355.435 45.1231 354.781 44.627 354.758Z" fill="white" fill-opacity="0.24"/>
<path d="M284.627 382.758C284.515 382.753 284.404 382.748 284.293 382.746C283.787 382.691 283.332 382.456 283.166 382.016C282.961 381.473 282.918 380.888 282.93 380.321C282.939 379.893 282.13 379.893 282.145 380.321C282.155 380.612 282.173 380.92 282.217 381.226C282.127 381.51 282.004 381.785 281.846 382.022C281.481 382.574 280.908 382.666 280.234 382.765C279.86 382.819 279.968 383.295 280.32 383.306C280.865 383.322 281.418 383.368 281.694 383.805C282.081 384.419 282.175 385.04 282.2 385.729C282.21 386.09 282.86 386.091 282.863 385.729C282.865 385.478 282.854 385.234 282.828 384.995C282.833 384.673 282.881 384.356 283.047 384.045C283.174 383.808 283.377 383.584 283.674 383.491C283.967 383.399 284.32 383.425 284.627 383.414C285.126 383.435 285.123 382.781 284.627 382.758Z" fill="white" fill-opacity="0.24"/>
<path d="M271.627 213.758C271.515 213.753 271.404 213.748 271.293 213.746C270.787 213.691 270.332 213.456 270.166 213.016C269.961 212.473 269.918 211.888 269.93 211.321C269.939 210.893 269.13 210.893 269.145 211.321C269.155 211.612 269.173 211.92 269.217 212.226C269.127 212.51 269.004 212.785 268.846 213.022C268.481 213.574 267.908 213.666 267.234 213.765C266.86 213.819 266.968 214.295 267.32 214.306C267.865 214.322 268.418 214.368 268.694 214.805C269.081 215.419 269.175 216.04 269.2 216.729C269.21 217.09 269.86 217.091 269.863 216.729C269.865 216.478 269.854 216.234 269.828 215.995C269.833 215.673 269.881 215.356 270.047 215.045C270.174 214.808 270.377 214.584 270.674 214.491C270.967 214.399 271.32 214.425 271.627 214.414C272.126 214.435 272.123 213.781 271.627 213.758Z" fill="white" fill-opacity="0.24"/>
<path d="M48.627 225.758C48.5151 225.753 48.4036 225.748 48.2925 225.746C47.7871 225.691 47.3322 225.456 47.1659 225.016C46.9607 224.473 46.9176 223.888 46.9297 223.321C46.9389 222.893 46.1298 222.893 46.1446 223.321C46.1546 223.612 46.1734 223.92 46.2167 224.226C46.1271 224.51 46.0036 224.785 45.8463 225.022C45.481 225.574 44.908 225.666 44.2336 225.765C43.8602 225.819 43.9681 226.295 44.32 226.306C44.8647 226.322 45.4184 226.368 45.6942 226.805C46.0808 227.419 46.1751 228.04 46.1998 228.729C46.21 229.09 46.8596 229.091 46.8628 228.729C46.865 228.478 46.8544 228.234 46.8278 227.995C46.8325 227.673 46.8811 227.356 47.0472 227.045C47.1743 226.808 47.3769 226.584 47.6742 226.491C47.9667 226.399 48.3204 226.425 48.627 226.414C49.1255 226.435 49.1231 225.781 48.627 225.758Z" fill="white" fill-opacity="0.24"/>
<path d="M158.627 188.758C158.515 188.753 158.404 188.748 158.293 188.746C157.787 188.691 157.332 188.456 157.166 188.016C156.961 187.473 156.918 186.888 156.93 186.321C156.939 185.893 156.13 185.893 156.145 186.321C156.155 186.612 156.173 186.92 156.217 187.226C156.127 187.51 156.004 187.785 155.846 188.022C155.481 188.574 154.908 188.666 154.234 188.765C153.86 188.819 153.968 189.295 154.32 189.306C154.865 189.322 155.418 189.368 155.694 189.805C156.081 190.419 156.175 191.04 156.2 191.729C156.21 192.09 156.86 192.091 156.863 191.729C156.865 191.478 156.854 191.234 156.828 190.995C156.833 190.673 156.881 190.356 157.047 190.045C157.174 189.808 157.377 189.584 157.674 189.491C157.967 189.399 158.32 189.425 158.627 189.414C159.126 189.435 159.123 188.781 158.627 188.758Z" fill="white" fill-opacity="0.24"/>
<path d="M320.627 514.758C320.515 514.753 320.404 514.748 320.293 514.746C319.787 514.691 319.332 514.456 319.166 514.016C318.961 513.473 318.918 512.888 318.93 512.321C318.939 511.893 318.13 511.893 318.145 512.321C318.155 512.612 318.173 512.92 318.217 513.226C318.127 513.51 318.004 513.785 317.846 514.022C317.481 514.574 316.908 514.666 316.234 514.765C315.86 514.819 315.968 515.295 316.32 515.306C316.865 515.322 317.418 515.368 317.694 515.805C318.081 516.419 318.175 517.04 318.2 517.729C318.21 518.09 318.86 518.091 318.863 517.729C318.865 517.478 318.854 517.234 318.828 516.995C318.833 516.673 318.881 516.356 319.047 516.045C319.174 515.808 319.377 515.584 319.674 515.491C319.967 515.399 320.32 515.425 320.627 515.414C321.126 515.435 321.123 514.781 320.627 514.758Z" fill="white" fill-opacity="0.24"/>
<path d="M50.627 660.758C50.5151 660.753 50.4036 660.748 50.2925 660.746C49.7871 660.691 49.3322 660.456 49.1659 660.016C48.9607 659.473 48.9176 658.888 48.9297 658.321C48.9389 657.893 48.1298 657.893 48.1446 658.321C48.1546 658.612 48.1734 658.92 48.2167 659.226C48.1271 659.51 48.0036 659.785 47.8463 660.022C47.481 660.574 46.908 660.666 46.2336 660.765C45.8602 660.819 45.9681 661.295 46.32 661.306C46.8647 661.322 47.4184 661.368 47.6942 661.805C48.0808 662.419 48.1751 663.04 48.1998 663.729C48.21 664.09 48.8596 664.091 48.8628 663.729C48.865 663.478 48.8544 663.234 48.8278 662.995C48.8325 662.673 48.8811 662.356 49.0472 662.045C49.1743 661.808 49.3769 661.584 49.6742 661.491C49.9667 661.399 50.3204 661.425 50.627 661.414C51.1255 661.435 51.1231 660.781 50.627 660.758Z" fill="white" fill-opacity="0.24"/>
<path d="M75.627 153.758C75.5151 153.753 75.4036 153.748 75.2925 153.746C74.7871 153.691 74.3322 153.456 74.1659 153.016C73.9607 152.473 73.9176 151.888 73.9297 151.321C73.9389 150.893 73.1298 150.893 73.1446 151.321C73.1546 151.612 73.1734 151.92 73.2167 152.226C73.1271 152.51 73.0036 152.785 72.8463 153.022C72.481 153.574 71.908 153.666 71.2336 153.765C70.8602 153.819 70.9681 154.295 71.32 154.306C71.8647 154.322 72.4184 154.368 72.6942 154.805C73.0808 155.419 73.1751 156.04 73.1998 156.729C73.21 157.09 73.8596 157.091 73.8628 156.729C73.865 156.478 73.8544 156.234 73.8278 155.995C73.8325 155.673 73.8811 155.356 74.0472 155.045C74.1743 154.808 74.3769 154.584 74.6742 154.491C74.9667 154.399 75.3204 154.425 75.627 154.414C76.1255 154.435 76.1231 153.781 75.627 153.758Z" fill="white" fill-opacity="0.24"/>
<path d="M71.4778 161.677C71.3211 161.671 71.165 161.664 71.0095 161.661C70.302 161.588 69.6651 161.275 69.4323 160.688C69.145 159.964 69.0847 159.184 69.1016 158.428C69.1144 157.857 67.9818 157.857 68.0025 158.428C68.0165 158.816 68.0427 159.226 68.1034 159.634C67.9779 160.013 67.805 160.38 67.5849 160.697C67.0734 161.432 66.2712 161.555 65.3271 161.686C64.8042 161.759 64.9553 162.394 65.4481 162.407C66.2106 162.429 66.9857 162.49 67.3719 163.074C67.9131 163.892 68.0452 164.72 68.0797 165.638C68.094 166.119 69.0034 166.122 69.008 165.638C69.011 165.304 68.9962 164.979 68.9589 164.66C68.9655 164.231 69.0335 163.808 69.2661 163.394C69.4441 163.077 69.7276 162.779 70.1439 162.654C70.5534 162.532 71.0485 162.567 71.4778 162.552C72.1757 162.579 72.1724 161.707 71.4778 161.677Z" fill="white" fill-opacity="0.24"/>
<path d="M100.702 559.298C100.612 559.294 100.523 559.29 100.434 559.288C100.03 559.243 99.6658 559.047 99.5327 558.68C99.3686 558.228 99.3341 557.74 99.3438 557.268C99.3511 556.911 98.7039 556.911 98.7157 557.268C98.7237 557.51 98.7387 557.766 98.7733 558.022C98.7017 558.258 98.6029 558.488 98.4771 558.685C98.1848 559.145 97.7264 559.222 97.1869 559.304C96.8881 559.349 96.9745 559.746 97.256 559.755C97.6918 559.768 98.1347 559.806 98.3554 560.171C98.6646 560.682 98.7401 561.2 98.7599 561.774C98.768 562.075 99.2877 562.076 99.2903 561.774C99.292 561.565 99.2836 561.362 99.2622 561.162C99.266 560.894 99.3049 560.63 99.4378 560.371C99.5395 560.173 99.7015 559.987 99.9394 559.909C100.173 559.832 100.456 559.854 100.702 559.845C101.1 559.862 101.099 559.317 100.702 559.298Z" fill="white" fill-opacity="0.24"/>
<path d="M156.552 629.677C156.418 629.671 156.284 629.664 156.151 629.661C155.545 629.588 154.999 629.275 154.799 628.688C154.553 627.964 154.501 627.184 154.516 626.428C154.527 625.857 153.556 625.857 153.574 626.428C153.586 626.816 153.608 627.226 153.66 627.634C153.553 628.013 153.404 628.38 153.216 628.697C152.777 629.432 152.09 629.555 151.28 629.686C150.832 629.759 150.962 630.394 151.384 630.407C152.038 630.429 152.702 630.49 153.033 631.074C153.497 631.892 153.61 632.72 153.64 633.638C153.652 634.119 154.432 634.122 154.435 633.638C154.438 633.304 154.425 632.979 154.393 632.66C154.399 632.231 154.457 631.808 154.657 631.394C154.809 631.077 155.052 630.779 155.409 630.654C155.76 630.532 156.184 630.567 156.552 630.552C157.151 630.579 157.148 629.707 156.552 629.677Z" fill="white" fill-opacity="0.24"/>
<path d="M266.776 659.839C266.709 659.835 266.642 659.832 266.576 659.83C266.272 659.794 265.999 659.637 265.9 659.344C265.776 658.982 265.751 658.592 265.758 658.214C265.763 657.929 265.278 657.929 265.287 658.214C265.293 658.408 265.304 658.613 265.33 658.817C265.276 659.006 265.202 659.19 265.108 659.348C264.889 659.716 264.545 659.777 264.14 659.843C263.916 659.879 263.981 660.197 264.192 660.204C264.519 660.214 264.851 660.245 265.017 660.537C265.248 660.946 265.305 661.36 265.32 661.819C265.326 662.06 265.716 662.061 265.718 661.819C265.719 661.652 265.713 661.489 265.697 661.33C265.7 661.115 265.729 660.904 265.828 660.697C265.905 660.538 266.026 660.389 266.205 660.327C266.38 660.266 266.592 660.283 266.776 660.276C267.075 660.29 267.074 659.854 266.776 659.839Z" fill="white" fill-opacity="0.24"/>
<path d="M273.627 653.218C273.515 653.212 273.404 653.206 273.293 653.203C272.787 653.14 272.332 652.865 272.166 652.352C271.961 651.719 271.918 651.036 271.93 650.375C271.939 649.875 271.13 649.875 271.145 650.375C271.155 650.714 271.173 651.073 271.217 651.43C271.127 651.761 271.004 652.083 270.846 652.36C270.481 653.003 269.908 653.111 269.234 653.225C268.86 653.289 268.968 653.844 269.32 653.857C269.865 653.875 270.418 653.929 270.694 654.44C271.081 655.155 271.175 655.88 271.2 656.684C271.21 657.105 271.86 657.106 271.863 656.684C271.865 656.391 271.854 656.107 271.828 655.827C271.833 655.452 271.881 655.082 272.047 654.719C272.174 654.442 272.377 654.181 272.674 654.072C272.967 653.965 273.32 653.996 273.627 653.983C274.126 654.007 274.123 653.244 273.627 653.218Z" fill="white" fill-opacity="0.24"/>
</g>
</g>
<defs>
<linearGradient id="paint0_linear_2566_34598" x1="426" y1="-167" x2="-105" y2="1012" gradientUnits="userSpaceOnUse">
<stop stop-color="#CFEFFC"/>
<stop offset="0.268232" stop-color="#B8DBF6"/>
<stop offset="0.469632" stop-color="#B1C0FB"/>
<stop offset="0.694654" stop-color="#AEC4F9"/>
<stop offset="1" stop-color="#C1DBFA"/>
</linearGradient>
<clipPath id="clip0_2566_34598">
<rect width="360" height="760" fill="white"/>
</clipPath>
</defs>
</svg>
