<svg width="24" height="24" viewBox="0 0 24 24" fill="none" xmlns="http://www.w3.org/2000/svg">
<path d="M6.69937 20.0625C6.38437 20.0625 6.09188 19.9875 5.82938 19.8375C5.25188 19.5 4.92188 18.8175 4.92188 17.97V7.395C4.92188 5.49 6.47438 3.9375 8.37938 3.9375H15.6169C17.5219 3.9375 19.0744 5.49 19.0744 7.395V17.9625C19.0744 18.81 18.7444 19.4925 18.1669 19.83C17.5894 20.1675 16.8319 20.13 16.0894 19.7175L12.4294 17.685C12.2119 17.565 11.7844 17.565 11.5669 17.685L7.90688 19.7175C7.50187 19.9425 7.08937 20.0625 6.69937 20.0625ZM8.38687 5.0625C7.10437 5.0625 6.05438 6.1125 6.05438 7.395V17.9625C6.05438 18.405 6.18188 18.735 6.40688 18.8625C6.63188 18.99 6.98438 18.9525 7.36688 18.735L11.0269 16.7025C11.5819 16.395 12.4219 16.395 12.9769 16.7025L16.6369 18.735C17.0194 18.9525 17.3719 18.9975 17.5969 18.8625C17.8219 18.7275 17.9494 18.3975 17.9494 17.9625V7.395C17.9494 6.1125 16.8994 5.0625 15.6169 5.0625H8.38687V5.0625Z" fill="#1C1B1E"/>
</svg>
