<svg width="306" height="261" viewBox="0 0 306 261" fill="none" xmlns="http://www.w3.org/2000/svg">
<g opacity="0.56">
<path d="M248.613 48.0345C248.613 48.0345 247.398 34.8682 239.75 24.6467C232.101 14.425 216.533 7 216.533 7C216.533 7 219.974 16.6567 231.979 25.4446C242.284 32.9873 248.613 48.0345 248.613 48.0345Z" fill="#FFC8DA"/>
<path d="M252.411 69.6489C252.411 69.6489 250.241 53.2807 239.996 46.9123C229.207 40.2055 225.52 23.7005 225.52 23.7005C225.52 23.7005 226.309 43.7632 237.036 52.4879C246.394 60.0991 252.411 69.6489 252.411 69.6489Z" fill="#FFC8DA"/>
<path d="M250.471 98.6022C250.471 98.6022 251.578 81.7083 240.286 73.4495C227.504 64.1014 218.406 52.7616 218.406 52.7616C218.406 52.7616 222.987 66.1785 232.554 75.6477C242.496 85.4876 250.471 98.6022 250.471 98.6022Z" fill="#FFC8DA"/>
<path d="M252.103 68.9418C252.103 68.9418 262.268 60.8247 265.458 48.4731C268.649 36.1215 264.867 19.5358 264.867 19.5358C264.867 19.5358 257.685 34.371 259.208 46.4391C260.806 59.0963 252.103 68.9418 252.103 68.9418Z" fill="#FFC8DA"/>
<path d="M250.916 100.48C250.916 100.48 254.312 91.1987 266.349 84.9743C279.664 78.0897 278.169 53.6522 278.169 53.6522C278.169 53.6522 272.695 69.2182 263.76 76.6342C253.334 85.2864 250.916 100.48 250.916 100.48Z" fill="#FFC8DA"/>
<path d="M245.145 123.399C245.145 123.399 254.009 110.266 263.58 103.657C271.93 97.8918 273.138 86.2565 273.138 86.2565C273.138 86.2565 274.797 104.617 264.531 110.086C252.705 116.386 245.145 123.399 245.145 123.399Z" fill="#FFC8DA"/>
<path d="M244.958 122.829C244.958 122.829 239.736 114.781 240.074 101.733C240.421 88.3253 222.762 75.5636 222.762 75.5636C222.762 75.5636 228.939 93.3175 232.951 105.815C236.828 117.894 244.958 122.829 244.958 122.829Z" fill="#FFC8DA"/>
<path d="M247.597 45.3215C247.597 45.3215 259.114 66.219 248.738 112.104C238.647 156.736 199.993 208.728 198.112 207.636C195.676 206.221 206.798 195.425 217.552 177.606C229.805 157.302 244.508 128.719 248.539 106.297C251.256 91.1844 252.596 79.6827 252.112 70.4166C251.256 54.0823 247.597 45.3215 247.597 45.3215Z" fill="#FFC8DA"/>
<path d="M281.472 134.121C281.472 134.121 287.863 123.994 288.011 112.431C288.16 100.868 281.08 86.9437 281.08 86.9437C281.08 86.9437 278.223 95.7789 281.993 108.716C285.229 119.82 281.472 134.121 281.472 134.121Z" fill="#FFC8DA"/>
<path d="M272.268 151.743C272.268 151.743 279.74 138.789 275.899 128.561C271.854 117.79 278.312 103.9 278.312 103.9C278.312 103.9 267.811 118.746 270.699 130.933C273.217 141.563 272.268 151.743 272.268 151.743Z" fill="#FFC8DA"/>
<path d="M254.906 171.469C254.906 171.469 265.019 159.945 261.47 147.782C257.452 134.014 257.176 120.847 257.176 120.847C257.176 120.847 253.063 133.013 254.707 145.094C256.415 157.648 254.906 171.469 254.906 171.469Z" fill="#FFC8DA"/>
<path d="M272.439 151.067C272.439 151.067 284.213 150.845 293.317 143.734C302.421 136.622 308.855 122.621 308.855 122.621C308.855 122.621 295.516 129.315 289.953 138.824C284.117 148.797 272.439 151.067 272.439 151.067Z" fill="#FFC8DA"/>
<path d="M254.193 173.066C254.193 173.066 261.751 168.274 273.825 170.445C287.181 172.847 299.588 154.468 299.588 154.468C299.588 154.468 287.072 162.629 276.567 163.025C264.31 163.487 254.193 173.066 254.193 173.066Z" fill="#FFC8DA"/>
<path d="M237.404 186.345C237.404 186.345 251.011 181.803 261.528 182.337C270.702 182.803 277.987 175.112 277.987 175.112C277.987 175.112 269.05 189.216 258.664 187.48C246.699 185.479 237.404 186.345 237.404 186.345Z" fill="#FFC8DA"/>
<path d="M237.582 185.834C237.582 185.834 238.273 177.171 245.713 167.985C253.359 158.545 247.723 139.634 247.723 139.634C247.723 139.634 242.363 155.795 238.348 166.986C234.469 177.802 237.582 185.834 237.582 185.834Z" fill="#FFC8DA"/>
<path d="M271.632 152.13C266.867 159.052 259.561 166.575 249.274 175.931C236.277 187.752 215.262 198.511 196.961 206.276L197.591 208.105C214.067 201.162 232.436 191.667 246.213 180.213C278.973 152.978 282.234 131.612 282.234 131.612C282.234 131.612 280.028 139.924 271.632 152.13Z" fill="#FFC8DA"/>
<path d="M225.606 217.659C225.606 217.659 233.735 210.622 233.585 202.524C233.427 193.996 241.095 186.046 241.095 186.046C241.095 186.046 230.472 193.604 229.512 202.812C228.674 210.844 225.606 217.659 225.606 217.659Z" fill="#FFC8DA"/>
<path d="M209.19 226.81C209.19 226.81 218.759 221.455 219.267 212.091C219.842 201.491 222.797 192.285 222.797 192.285C222.797 192.285 217.121 199.651 215.348 208.461C213.505 217.616 209.19 226.81 209.19 226.81Z" fill="#FFC8DA"/>
<path d="M225.884 217.232C225.884 217.232 233.877 220.152 241.712 217.595C249.548 215.038 257.227 207.005 257.227 207.005C257.227 207.005 246.635 208.167 240.615 213.311C234.301 218.706 225.884 217.232 225.884 217.232Z" fill="#FFC8DA"/>
<path d="M235.011 209.35C235.011 209.35 241.865 204.306 244.068 196.364C246.271 188.422 243.826 177.582 243.826 177.582C243.826 177.582 238.935 187.048 239.892 194.909C240.895 203.154 235.011 209.35 235.011 209.35Z" fill="#FFC8DA"/>
<path d="M208.329 227.733C208.329 227.733 214.568 226.382 222.192 231.04C230.625 236.193 243.376 226.682 243.376 226.682C243.376 226.682 232.989 229.076 225.811 226.608C217.436 223.729 208.329 227.733 208.329 227.733Z" fill="#FFC8DA"/>
<path d="M194.154 232.653L194.134 232.574C195.854 232.667 204.793 233.271 211.063 236.077C217.138 238.795 223.886 235.362 223.886 235.362C223.886 235.362 214.494 242.813 207.905 238.897C201.296 234.969 195.534 233.077 194.154 232.653Z" fill="#FFC8DA"/>
<path d="M194.083 232.255C194.083 232.255 196.616 226.426 203.824 221.995C211.232 217.443 211.943 202.852 211.943 202.852C211.943 202.852 204.473 212.665 199.096 219.38C193.9 225.871 194.083 232.255 194.083 232.255Z" fill="#FFC8DA"/>
<path d="M193.922 231.751C197.667 230.835 201.187 229.74 204.327 228.436C213.496 224.631 220.217 221.32 225.081 217.761C233.655 211.486 237.126 206.295 237.126 206.295C237.126 206.295 229.83 220.266 201.242 230.607C198.975 231.427 196.615 232.156 194.192 232.803L193.922 231.751Z" fill="#FFC8DA"/>
<path d="M45.7591 86.1782C45.7591 86.1782 43.829 73.3634 48.7135 61.8455C53.5979 50.3276 66.6758 39.6182 66.6758 39.6182C66.6758 39.6182 65.664 49.6138 56.2964 60.7868C48.2562 70.3765 45.7591 86.1782 45.7591 86.1782Z" fill="#FFC8DA"/>
<path d="M47.2005 107.637C47.2005 107.637 45.429 91.5514 53.6879 83.0931C62.3857 74.1854 62.0261 57.6145 62.0261 57.6145C62.0261 57.6145 65.9776 76.8933 57.812 87.707C50.6895 97.1403 47.2005 107.637 47.2005 107.637Z" fill="#FFC8DA"/>
<path d="M55.8446 134.739C55.8446 134.739 50.8318 118.92 59.6439 108.417C69.6186 96.5299 75.6211 83.6084 75.6211 83.6084C75.6211 83.6084 74.4051 97.4496 67.5186 108.7C60.3619 120.392 55.8446 134.739 55.8446 134.739Z" fill="#FFC8DA"/>
<path d="M47.3396 106.894C47.3396 106.894 35.7619 101.547 29.83 90.5381C23.8981 79.5294 23.6108 62.8592 23.6108 62.8592C23.6108 62.8592 33.9236 75.2978 35.3021 87.1399C36.7479 99.5599 47.3396 106.894 47.3396 106.894Z" fill="#FFC8DA"/>
<path d="M55.8538 136.631C55.8538 136.631 50.4461 128.592 37.5303 125.485C23.2432 122.048 18.9387 98.4407 18.9387 98.4407C18.9387 98.4407 27.7973 111.974 38.0403 116.942C49.9919 122.737 55.8538 136.631 55.8538 136.631Z" fill="#FFC8DA"/>
<path d="M66.7258 157.093C66.7258 157.093 55.2109 146.669 44.5513 142.619C35.2527 139.085 31.3759 128.294 31.3759 128.294C31.3759 128.294 34.0999 146.157 45.1532 148.959C57.8865 152.188 66.7258 157.093 66.7258 157.093Z" fill="#FFC8DA"/>
<path d="M86.6704 179.252C86.6704 179.252 72.7898 172.281 61.4358 171.224C51.5313 170.302 44.9137 160.938 44.9137 160.938C44.9137 160.938 52.3087 177.425 63.7091 177.174C76.8421 176.885 86.6704 179.252 86.6704 179.252Z" fill="#FFC8DA"/>
<path d="M104.669 203.252C104.669 203.252 96.4192 199.109 89.6713 198.481C83.7849 197.933 79.8519 192.368 79.8519 192.368C79.8519 192.368 84.2469 202.166 91.0223 202.017C98.8276 201.845 104.669 203.252 104.669 203.252Z" fill="#FFC8DA"/>
<path d="M66.7638 156.508C66.7638 156.508 69.8479 147.627 66.4688 135.288C62.9955 122.608 76.8125 106.331 76.8125 106.331C76.8125 106.331 75.0946 124.673 74.2054 137.506C73.3453 149.909 66.7638 156.508 66.7638 156.508Z" fill="#FFC8DA"/>
<path d="M86.32 184.662C86.32 184.662 87.2923 175.31 81.1821 164.071C74.9025 152.521 84.6328 133.516 84.6328 133.516C84.6328 133.516 87.1531 151.765 89.2208 164.461C91.2188 176.733 86.32 184.662 86.32 184.662Z" fill="#FFC8DA"/>
<path d="M104.367 204.146C104.367 204.146 105.339 194.795 99.229 183.555C92.9494 172.005 102.68 153 102.68 153C102.68 153 105.2 171.249 107.268 183.945C109.266 196.217 104.367 204.146 104.367 204.146Z" fill="#FFC8DA"/>
<path d="M46.0858 83.3575C46.0858 83.3575 40.0219 105.941 60.6522 147.184C80.7171 187.3 129.694 227.738 131.229 226.257C133.216 224.341 120.1 216.668 105.688 202.226C89.2659 185.77 68.5726 162.006 59.4801 141.61C53.3519 127.863 49.3815 117.23 47.6704 108.298C44.6562 92.5516 46.0858 83.3575 46.0858 83.3575Z" fill="#FFC8DA"/>
<path d="M45.9152 211.609C45.9152 211.609 52.6757 206.77 58.5434 208.34C64.7229 209.993 72.0561 205.664 72.0561 205.664C72.0561 205.664 64.4136 212.282 57.5142 211.347C51.4957 210.531 45.9152 211.609 45.9152 211.609Z" fill="#FFC8DA"/>
<path d="M59.9152 216.609C59.9152 216.609 66.6757 211.77 72.5434 213.34C78.7229 214.993 86.0561 210.664 86.0561 210.664C86.0561 210.664 78.4136 217.282 71.5142 216.347C65.4957 215.531 59.9152 216.609 59.9152 216.609Z" fill="#FFC8DA"/>
<path d="M43.2055 203.573C43.2055 203.573 48.3797 201.096 52.1785 202.867C56.1791 204.731 61.6813 202.669 61.6813 202.669C61.6813 202.669 55.6944 206.249 51.1185 204.786C47.1268 203.51 43.2055 203.573 43.2055 203.573Z" fill="#FFC8DA"/>
<path d="M70.8765 207.71C70.8765 207.71 71.8137 201.477 68.8764 196.036C65.9392 190.596 59.1281 185.948 59.1281 185.948C59.1281 185.948 61.4655 193.586 65.9847 197.372C70.7246 201.344 70.8765 207.71 70.8765 207.71Z" fill="#FFC8DA"/>
<path d="M59.1514 201.288C59.1514 201.288 59.9534 195.954 57.4401 191.299C54.9268 186.644 49.0987 182.667 49.0987 182.667C49.0987 182.667 51.0987 189.202 54.9657 192.442C59.0214 195.841 59.1514 201.288 59.1514 201.288Z" fill="#FFC8DA"/>
<path d="M56.5428 199.393C56.5428 199.393 49.2043 197.216 44.7317 191.186C40.2591 185.156 38.6518 175.272 38.6518 175.272C38.6518 175.272 45.8501 181.774 47.6895 188.693C49.6188 195.95 56.5428 199.393 56.5428 199.393Z" fill="#FFC8DA"/>
<path d="M100.117 214.416C100.117 214.416 96.1464 211.886 94.4836 205.65C92.6447 198.751 81.1209 196.945 81.1209 196.945C81.1209 196.945 87.8027 201.085 90.3377 206.001C93.2952 211.737 100.117 214.416 100.117 214.416Z" fill="#FFC8DA"/>
<path d="M108.387 216.188L108.367 216.221C107.791 215.598 104.839 212.32 103.575 209.225C102.351 206.226 98.8052 205.051 98.8052 205.051C98.8052 205.051 104.645 205.793 105.646 209.369C106.649 212.956 108.043 215.571 108.387 216.188Z" fill="#FFC8DA"/>
<path d="M114.59 216.488L114.596 216.444C113.648 216.615 108.732 217.571 105.472 219.514C102.313 221.397 98.2963 220.04 98.2963 220.04C98.2963 220.04 104.098 223.356 107.448 220.797C110.807 218.231 113.857 216.812 114.59 216.488Z" fill="#FFC8DA"/>
<path d="M101.333 214.853L101.338 214.809C100.39 214.981 95.4743 215.937 92.2143 217.88C89.0556 219.762 85.0385 218.405 85.0385 218.405C85.0385 218.405 90.8401 221.722 94.19 219.163C97.5497 216.596 100.6 215.178 101.333 214.853Z" fill="#FFC8DA"/>
<path d="M119.546 215.692C113.908 215.606 108.533 215.205 103.629 214.4C89.3138 212.052 78.6485 209.615 70.549 206.26C56.2718 200.344 49.6232 194.321 49.6232 194.321C49.6232 194.321 64.6034 211.171 108.738 216.41C112.238 216.825 115.841 217.087 119.506 217.216L119.546 215.692Z" fill="#FFC8DA"/>
</g>
<path d="M144.172 6.32861C144.172 6.32861 161.565 6.32861 171.952 27.3603C182.461 48.6383 178.993 54.3589 185.095 62.9711C191.198 71.5833 205.916 87.3724 201.967 104.238C198.018 121.103 149.557 107.467 149.557 107.467C149.557 107.467 153.864 44.3658 144.172 6.32861Z" fill="#2F343B"/>
<path d="M160.396 45.8999C160.396 45.8999 182.167 84.0699 184.916 103.019C187.666 121.968 139.914 103.867 139.914 103.867L148.652 67.2028L160.396 45.8999Z" fill="#272B30"/>
<path d="M129.458 78.8668V126.573L110.191 157.75C110.191 157.75 180.989 192.642 210.288 156.376C239.587 120.11 174.16 108.448 174.16 108.448C174.16 108.448 164.543 106.214 159.676 102.029C154.81 97.8445 153.633 69.533 153.633 69.533L129.458 78.8668Z" fill="#DB9482"/>
<path d="M148.848 153.13C148.848 153.13 156.797 157.349 157.229 162.225C157.229 162.225 160.557 155.018 148.848 153.13Z" fill="#CE8877"/>
<path d="M162.479 212.486C158.296 231.445 153.639 248.819 153.639 248.819C153.639 248.819 118.791 243.155 113.124 231.542C110.206 225.567 107.443 215.895 105.183 206.925C103.053 198.466 101.377 190.628 100.453 187.082C98.5478 179.776 111.249 150.794 122.759 154.798C122.759 154.798 136.589 162.1 150.148 167.586C153.665 169.014 157.164 170.315 160.4 171.336C165.9 173.073 170.638 174.001 173.405 173.336C179.301 171.923 167.642 189.104 162.479 212.486Z" fill="#FFAAC7"/>
<path d="M166.666 178.301L162.476 212.486L113.121 231.541C110.202 225.567 107.44 215.895 105.18 206.925C110.151 192.957 141.959 175.376 144.567 172.049C145.857 170.404 148.091 168.821 150.144 167.586C153.662 169.013 157.161 170.315 160.397 171.335L166.666 178.301Z" fill="#FF9BBD"/>
<path d="M236.981 179.249C234.167 181.39 231.485 183.556 228.926 185.741C186.476 221.982 177.799 263.206 150.74 268.863C135.805 271.987 123.521 268.013 114.981 260.803C103.893 251.449 99.1102 236.638 103.027 224.81C109.918 204.013 127.435 188.762 142.721 178.269C144.238 177.223 145.736 176.228 147.196 175.278V175.274C156.828 169.022 164.957 164.763 167.987 162.29C176.109 155.653 191.003 158.363 191.003 158.363C226.485 155.712 236.981 179.249 236.981 179.249Z" fill="#C22D5F"/>
<path d="M228.925 185.677C186.475 221.917 177.798 263.142 150.739 268.799C135.804 271.923 123.521 267.948 114.98 260.739C115.017 253.769 115.136 245.916 115.484 245.639C116.112 245.136 118.631 239.849 118.38 229.855C118.128 219.858 131.473 208.763 135.76 206.419C140.043 204.078 137.139 201.083 135.922 195.168C134.705 189.252 140.538 188.749 144.695 189.984C148.849 191.215 162.32 187.618 168.049 186.986C173.774 186.357 180.073 184.723 193.422 183.122C206.77 181.521 222.493 183.27 222.493 183.27C225.123 183.61 227.242 184.442 228.925 185.677Z" fill="#B62153"/>
<path d="M251.539 203.402C231.817 210.268 217.004 213.595 205.139 211.735C193.27 209.876 187.84 207.21 182.244 211.846C176.652 216.479 145.757 245.099 140.671 243.447C138.959 242.888 140.087 240.585 142.336 237.771V237.768C146.597 232.444 154.867 225.304 155.459 224.794C154.748 225.297 143.331 233.409 139.266 236.019C135.068 238.714 129.99 243.306 126.502 242.038C123.158 240.825 126.35 237.868 126.628 237.62C126.28 237.86 120.71 241.646 119.456 238.733C118.161 235.719 125.829 228.059 144.426 214.268C143.771 214.66 133.23 220.979 130.874 222.942C128.444 224.968 123.754 231.083 121.168 228.181C118.579 225.278 128.111 214.848 135.49 209.805C142.872 204.759 148.96 199.823 148.96 199.823C148.96 199.823 140.797 198.691 138.989 195.723C137.176 192.754 138.959 189.219 142.254 191.286C145.554 193.349 153.476 191.637 160.903 190.232C168.334 188.823 175.631 188.99 179.873 186.812C183.402 184.997 204.965 185.089 216.464 183.751C218.772 183.485 220.677 183.156 221.949 182.745C221.949 182.745 219.438 178.663 216.009 172.685C213.535 168.374 210.587 163.076 207.758 157.611C205.272 152.805 202.879 147.873 200.985 143.362C200.486 142.168 200.02 141.007 199.595 139.883C194.232 125.66 157.988 124 154.134 94.1405C153.432 88.7019 153.802 82.3352 155.632 74.7816C155.681 74.5636 155.736 74.3417 155.791 74.1199C155.791 74.1199 155.791 74.3824 155.795 74.8519C155.821 77.2736 155.995 85.1932 157.227 91.1827C158.025 95.087 159.276 98.1742 161.221 98.3776C166.732 98.9506 200.172 94.3106 206.556 102.097C208.767 104.8 217.23 116.986 226.513 132.041C228.807 135.76 231.152 139.654 233.463 143.621C234.68 145.71 235.89 147.821 237.077 149.936C250.843 174.452 261.839 199.815 251.539 203.402Z" fill="#DB9482"/>
<path d="M233.466 143.621C230.976 147.277 226.017 150.194 226.017 150.194L207.76 157.611L190.909 164.458L163.328 161.438C163.328 161.438 167.985 159.674 174.158 152.25C180.331 144.822 189.392 151.366 192.289 150.194C194.645 149.237 198.861 145.151 200.988 143.362C201.472 142.951 201.85 142.659 202.072 142.556C203.255 141.997 202.072 139.709 202.072 139.709L202.722 138.26C206.687 139.653 210.042 135.383 217.839 132.362C221.308 131.02 224.282 131.305 226.516 132.041C228.809 135.76 231.154 139.653 233.466 143.621Z" fill="#CE8877"/>
<path d="M251.544 203.402C231.823 210.267 217.01 213.595 205.145 211.735C193.276 209.875 187.846 207.21 182.25 211.846C176.657 216.479 145.763 245.099 140.677 243.447C138.965 242.888 140.093 240.585 142.341 237.771C140.877 246.441 167.799 218.893 175.921 209.927C184.044 200.961 197.263 203.036 215.016 204.215C232.77 205.394 241.458 201.146 246.558 197.323C251.659 193.504 245.992 181.891 237.682 185.621C232.389 187.999 222.765 185.721 216.47 183.751C218.778 183.484 220.683 183.155 221.955 182.745C221.955 182.745 219.444 178.663 216.015 172.685L231.072 148.852L237.082 149.936C250.849 174.452 261.845 199.815 251.544 203.402Z" fill="#CE8877"/>
<path d="M186.915 158.524C186.915 158.524 192.221 154.825 186.395 152.36C180.568 149.895 182.061 150.065 179.737 150.556C177.413 151.048 174.236 155.454 170.468 156.363C166.701 157.272 148.284 166.806 147.215 175.173C146.147 183.54 148.963 186.67 163.326 185.163C177.689 183.657 179.127 182.511 179.127 182.511C179.127 182.511 186.236 164.493 179.776 165.038C179.776 165.038 172.803 166.513 176.228 165.041C179.652 163.57 189.466 164.221 186.915 158.524Z" fill="#C22D5F"/>
<path d="M172.896 254.953C172.145 255.932 171.383 256.868 170.618 257.755C170.607 257.77 170.592 257.781 170.581 257.796C154.377 276.522 135.126 275.121 124.743 270.544C115.663 266.536 68.0394 246.186 57.3502 239.805C46.6611 233.423 70.9872 160.872 76.0063 140.16C77.3082 134.788 80.0896 130.148 83.7143 126.129C94.0632 114.642 111.295 108.201 120.59 104.142C133.025 98.714 124.348 79.2295 124.189 78.8708C157.099 110.575 108.669 159.693 104.789 163.531C104.63 163.686 104.545 163.767 104.545 163.767L92.1731 196.758L84.6522 216.817C107.288 241.445 137.134 252.367 138.617 251.461C140.104 250.556 140.807 247.078 142.206 245.137C143.604 243.199 158.934 227.353 164.082 229.782C169.231 232.207 159.363 239.79 157.277 242.826C155.191 245.865 163.221 242.326 167.973 236.98C172.726 231.638 177.257 220.457 183.223 220.217C189.045 219.98 180.02 232.03 179.591 232.603C185.775 225.859 188.486 227.33 191.153 228.144C193.823 228.961 189.544 233.261 172.896 254.953Z" fill="#DB9482"/>
<path d="M170.581 257.795C154.377 276.522 135.126 275.121 124.743 270.544C115.663 266.536 68.0394 246.186 57.3502 239.805C46.6611 233.423 70.9872 160.872 76.0063 140.16C77.3082 134.788 80.0896 130.148 83.7143 126.129L102.637 153.13L104.789 163.53C104.63 163.686 104.545 163.767 104.545 163.767L92.1731 196.758C88.9885 189.644 83.4887 176.515 83.0892 169.749C82.5233 160.177 77.9887 156.624 74.5897 162.225C71.1907 167.823 56.2702 225.507 60.3314 230.225C64.3889 234.939 145.308 285.329 170.581 257.795Z" fill="#CE8877"/>
<path d="M157.226 91.1826C156.264 92.3435 155.229 93.3234 154.134 94.1404C142.616 102.774 124.922 93.73 124.922 93.73C126.057 75.6505 145.76 70.5187 155.632 74.7816C155.687 74.8038 155.743 74.8297 155.795 74.8518C155.82 77.2735 155.994 85.1931 157.226 91.1826Z" fill="#CE8877"/>
<path d="M126.452 16.0512C143.428 11.447 162.746 28.006 163.865 50.6565C164.984 73.3071 159.774 91.2531 149.45 92.587C139.125 93.9209 118.52 89.0794 108.891 64.9956C99.2613 40.9118 108.617 20.8881 126.452 16.0512Z" fill="#DB9482"/>
<path d="M146.825 20.6841C146.825 20.6841 148.529 29.386 137.164 38.1815C125.799 46.9769 111.878 55.0544 108.665 60.6357C105.452 66.2169 117.628 28.4698 117.628 28.4698L146.825 20.6841Z" fill="#CE8877"/>
<path d="M108.667 60.6358C113.887 83.2571 127.057 87.2719 127.057 87.2719C140.3 117.149 136.344 123.117 133.401 139.459C131.035 152.603 124.067 164.937 113.657 177.137C103.246 189.338 105.759 203.691 105.759 203.691C92.1182 195.797 90.3233 176.778 87.4515 158.119C84.5797 139.459 66.9898 138.382 59.0923 112.187C56.2707 102.828 57.6348 93.825 60.8836 85.8372C66.7241 71.462 78.6601 60.381 83.2729 56.4588C90.4525 50.3585 82.5902 25.9696 102.693 8.38639C122.796 -9.19683 144.17 6.32869 144.17 6.32869C156.016 19.9647 136.344 35.7537 123.708 45.4424C114.917 52.1851 108.667 60.6358 108.667 60.6358Z" fill="#2F343B"/>
<path d="M127.062 87.2719C121.067 88.8113 116.86 81.8928 113.5 81.1644C110.114 80.4323 106.74 76.155 102.098 71.6372C97.4533 67.1158 101.388 60.592 101.388 60.592C101.958 59.7703 104.181 59.5765 107.067 59.7164C107.573 61.4532 108.179 63.2115 108.894 64.995C113.32 76.0652 120.062 83.0698 127.062 87.2719Z" fill="#272B30"/>
<path d="M160.949 156.376C160.949 156.376 165.344 135.887 183.223 132.992C183.223 132.992 171.16 139.485 160.949 156.376Z" fill="#CE8877"/>
<path d="M197.574 136.551C197.574 136.551 209.765 139.359 214.588 147.181C219.411 155.003 210.47 152.503 210.47 152.503C210.47 152.503 210.008 144.117 197.574 136.551Z" fill="#CE8876"/>
<path d="M249.822 167.645C245.716 177.617 234.831 187.381 215.336 181.48C213.609 180.955 211.985 180.405 210.468 179.828C194.871 173.883 190.163 165.242 190.999 158.299C191.916 150.679 199.387 149.788 202.871 144.811C205.856 140.544 216.73 130.078 232.871 136.71H232.875C235.564 137.816 238.401 139.398 241.374 141.565C250.344 148.102 253.924 157.674 249.822 167.645Z" fill="#DB9482"/>
<path d="M249.822 167.646C245.717 177.617 234.832 187.382 215.336 181.481C213.609 180.956 211.985 180.405 210.469 179.828C208.686 176.393 207.417 173.347 206.792 172.175C204.932 168.688 207.351 169.121 211.785 169.365C216.22 169.613 216.461 169.62 222.63 166.725C228.799 163.83 222.674 160.902 221.347 159.963C220.019 159.027 221.117 153.884 222.105 151.784C223.089 149.681 219.985 142.682 222.105 140.042C224.198 137.432 232.65 136.729 232.872 136.711H232.875C235.564 137.816 238.401 139.399 241.375 141.565C250.344 148.102 253.924 157.674 249.822 167.646Z" fill="#75534A"/>
<path d="M220.818 159.675C220.818 159.675 225.527 161.942 223.513 164.458C221.498 166.975 215.58 170.751 208.277 166.975C208.277 166.975 212.055 171.884 219.609 169.115C227.164 166.346 227.315 161.814 220.818 159.675Z" fill="#C47E6C"/>
<path d="M182.772 163.631C182.772 163.631 197.575 162.885 208.872 170.206C215.835 174.719 226.236 181.935 221.135 182.998C216.035 184.061 181.429 181.007 182.772 163.631Z" fill="#C22D5F"/>
<path d="M215.749 164.478C216.396 163.649 216.898 164.332 216.803 164.877C216.709 165.422 216.247 166.335 214.989 166.117C213.731 165.898 213.271 164.566 214.403 164.762C215.536 164.959 215.304 165.048 215.749 164.478Z" fill="#C47E6C"/>
<path d="M218.118 165.527C218.118 165.527 217.711 161.406 220.215 161.668C222.719 161.93 221.702 164.302 221.202 164.69C220.703 165.078 221.1 163.29 220.877 163.079C220.655 162.867 219.764 162.522 219.356 163.626C218.948 164.731 219.077 165.728 218.118 165.527Z" fill="#C47E6C"/>
<path d="M111.931 59.5067C111.931 59.5067 99.1581 53.7271 101.197 65.3175C101.829 68.9105 104.449 70.0906 106.564 72.1873C108.287 73.8952 110.318 75.939 111.977 76.2617C114.852 76.8208 115.85 74.2419 116.533 73.0962C120.629 66.2319 111.931 59.5067 111.931 59.5067Z" fill="#DB9482"/>
<path d="M107.884 60.4778C108.678 60.8743 109.665 64.0216 108.972 64.5386C108.279 65.0556 108.619 61.5706 107.475 61.0153C106.332 60.4599 103.87 60.7693 104.004 63.1135C104.138 65.4578 105.401 68.1904 106.821 69.086C108.24 69.9816 108.813 70.3777 108.507 70.5232C108.201 70.6688 105.214 69.4831 103.648 66.1027C102.081 62.7223 103.476 58.2782 107.884 60.4778Z" fill="#AD6959"/>
<path d="M108.501 62.4836C108.501 62.4836 107.371 63.2467 106.655 65.2892C105.938 67.3318 107.393 68.4529 109.276 68.7922C111.159 69.1314 113.59 69.3999 112.773 68.4145C111.957 67.4292 111.602 65.373 110.915 65.4519C110.229 65.5307 109.645 66.2477 110.231 66.6792C110.816 67.1106 111.339 67.8805 110.924 68.0242C110.508 68.1679 107.128 67.7919 107.38 66.0011C107.632 64.2104 109.279 63.2444 108.501 62.4836Z" fill="#AD6959"/>
<path d="M105.759 203.691C92.1182 195.797 90.3233 176.778 87.4515 158.119C84.5797 139.459 66.9898 138.382 59.0923 112.187C56.2707 102.828 57.6348 93.825 60.8836 85.8372C61.16 93.6778 62.962 108.261 72.1842 114.523C85.1073 123.297 92.531 136.488 95.0044 152.431C97.4813 168.371 95.891 186.514 105.759 203.691Z" fill="#272B30"/>
<path d="M126.629 237.62C126.629 237.62 145.793 222.858 147.824 221.537C147.824 221.537 135.134 233.69 126.629 237.62Z" fill="#AD6959"/>
<path d="M179.593 232.603C179.593 232.603 173.018 243.249 168.992 247.119C168.992 247.119 175.144 243.479 179.593 232.603Z" fill="#AD6959"/>
<path d="M166.289 184.671C166.289 184.671 155.16 189.933 146.176 186.043C141.541 184.035 141.586 180.834 142.721 178.205C144.237 177.159 145.735 176.164 147.196 175.214C146.985 176.208 145.536 183.932 151.232 184.671C157.316 185.463 166.289 184.671 166.289 184.671Z" fill="#B62153"/>
<path d="M148.961 199.823C148.961 199.823 154.386 196.601 156.464 196.184C156.464 196.184 151.459 196.474 148.961 199.823Z" fill="#AD6959"/>
</svg>
