<svg width="24" height="25" viewBox="0 0 24 25" fill="none" xmlns="http://www.w3.org/2000/svg">
<g clip-path="url(#clip0_10000_1784)">
<path fill-rule="evenodd" clip-rule="evenodd" d="M8.51828 20.1497C10.1633 21.7947 12.4269 22.8211 14.9436 22.8211C16.0262 22.8211 17.0526 22.6383 18.0086 22.2868L22.7468 23.735L22.1141 19.2921C23.2951 17.7596 23.9981 15.8474 23.9981 13.7807C23.9981 8.95816 20.2301 5.02143 15.4779 4.74023C17.0947 6.37117 15.9559 7.38347 15.9559 11.1234C15.9559 14.8773 11.8645 19.6014 9.27751 19.6014C6.69052 19.6014 8.70106 20.1497 8.51828 20.1497Z" fill="#AD7FDD"/>
<path fill-rule="evenodd" clip-rule="evenodd" d="M9.05448 2.06836C14.0457 2.06836 18.0949 6.11757 18.0949 11.1088C18.0949 16.1141 14.0457 20.1633 9.05448 20.1633C7.97188 20.1633 6.93146 19.9664 5.9754 19.629L1.23726 21.0771L1.88401 16.6343C0.702988 15.1018 0 13.1896 0 11.1088C0 6.11757 4.04921 2.06836 9.05448 2.06836Z" fill="#FEE265"/>
<path fill-rule="evenodd" clip-rule="evenodd" d="M5.98934 19.6289H5.97528L5.25823 19.8397C5.04734 19.7413 4.83644 19.6429 4.62554 19.5304C4.21781 19.3055 3.82414 19.0524 3.45858 18.7712C3.34611 18.7009 3.33205 18.5463 3.40234 18.4338C3.4867 18.3354 3.64136 18.3213 3.73978 18.3916C4.09127 18.6587 4.47089 18.8977 4.8505 19.1086C5.23011 19.3195 5.60973 19.4883 5.98934 19.6289Z" fill="#FEB752"/>
<path fill-rule="evenodd" clip-rule="evenodd" d="M6.1997 19.0097C6.07316 18.9535 6.01692 18.8269 6.0591 18.7004C6.10128 18.5739 6.24188 18.5036 6.36842 18.5598C6.79021 18.7145 7.22606 18.8269 7.67597 18.8972C8.12589 18.9816 8.58986 19.0238 9.05383 19.0238C9.18037 19.0238 9.29285 19.1222 9.29285 19.2628C9.29285 19.3893 9.18037 19.5018 9.05383 19.5018C8.56174 19.5018 8.08371 19.4596 7.60568 19.3753C7.12764 19.2909 6.66367 19.1644 6.1997 19.0097ZM16.8711 8.07122C16.9132 8.19776 16.857 8.33836 16.7305 8.38054C16.6039 8.42272 16.4633 8.36648 16.4211 8.23994C15.8447 6.74961 14.8183 5.47017 13.5108 4.57034C12.2454 3.7127 10.6988 3.20655 9.05383 3.20655C8.91323 3.20655 8.81481 3.09407 8.81481 2.96753C8.81481 2.82693 8.91323 2.72852 9.05383 2.72852C10.7972 2.72852 12.4282 3.26279 13.7779 4.17667C15.1558 5.13273 16.2524 6.48247 16.8711 8.07122ZM0.660156 11.1081C0.660156 10.9816 0.772634 10.8691 0.899172 10.8691C1.02571 10.8691 1.13819 10.9816 1.13819 11.1081C1.13819 11.8111 1.22255 12.5141 1.40532 13.1749C1.5881 13.8498 1.85524 14.4825 2.20673 15.087C2.27703 15.1995 2.23485 15.3542 2.12237 15.4104C2.00989 15.4807 1.8693 15.4385 1.799 15.3261C1.41938 14.6934 1.13819 14.0044 0.941351 13.3015C0.758575 12.5844 0.660156 11.8533 0.660156 11.1081Z" fill="#FEEC9A"/>
<path d="M9.05131 12.4014C9.76569 12.4014 10.3448 11.8223 10.3448 11.108C10.3448 10.3936 9.76569 9.81445 9.05131 9.81445C8.33693 9.81445 7.75781 10.3936 7.75781 11.108C7.75781 11.8223 8.33693 12.4014 9.05131 12.4014Z" fill="#FB701D"/>
<path d="M13.2271 12.4014C13.9415 12.4014 14.5206 11.8223 14.5206 11.108C14.5206 10.3936 13.9415 9.81445 13.2271 9.81445C12.5127 9.81445 11.9336 10.3936 11.9336 11.108C11.9336 11.8223 12.5127 12.4014 13.2271 12.4014Z" fill="#FB701D"/>
<path d="M4.82084 12.4014C5.53522 12.4014 6.11434 11.8223 6.11434 11.108C6.11434 10.3936 5.53522 9.81445 4.82084 9.81445C4.10646 9.81445 3.52734 10.3936 3.52734 11.108C3.52734 11.8223 4.10646 12.4014 4.82084 12.4014Z" fill="#FB701D"/>
</g>
<defs>
<clipPath id="clip0_10000_1784">
<rect width="24" height="24" fill="white" transform="translate(0 0.902344)"/>
</clipPath>
</defs>
</svg>
