<svg width="10" height="8" viewBox="0 0 10 8" fill="none" xmlns="http://www.w3.org/2000/svg">
<path d="M3.33366 5.33236L8.25032 0.41569C8.4031 0.262912 8.59755 0.186523 8.83366 0.186523C9.06977 0.186523 9.26421 0.262912 9.41699 0.41569C9.56977 0.568468 9.64616 0.762912 9.64616 0.999023C9.64616 1.23513 9.56977 1.42958 9.41699 1.58236L3.91699 7.08236C3.75033 7.24902 3.55588 7.33236 3.33366 7.33236C3.11144 7.33236 2.91699 7.24902 2.75033 7.08236L0.583659 4.91569C0.430881 4.76291 0.354492 4.56847 0.354492 4.33236C0.354492 4.09625 0.430881 3.9018 0.583659 3.74902C0.736436 3.59625 0.930881 3.51986 1.16699 3.51986C1.4031 3.51986 1.59755 3.59625 1.75033 3.74902L3.33366 5.33236Z" fill="white"/>
</svg>
