<svg width="24" height="24" viewBox="0 0 24 24" fill="none" xmlns="http://www.w3.org/2000/svg">
<path d="M6 7.25367C6 6.93501 6.11736 6.61635 6.36884 6.36478C6.85505 5.87841 7.6598 5.87841 8.146 6.36478L17.6353 15.8574C18.1216 16.3438 18.1216 17.1488 17.6353 17.6352C17.1491 18.1216 16.3444 18.1216 15.8582 17.6352L6.36884 8.14256C6.11736 7.90776 6 7.57233 6 7.25367Z" fill="#BA1A1A"/>
<path d="M6 16.7463C6 16.4277 6.11736 16.109 6.36884 15.8574L15.8582 6.36478C16.3444 5.87841 17.1491 5.87841 17.6353 6.36478C18.1216 6.85115 18.1216 7.65618 17.6353 8.14256L8.146 17.6352C7.6598 18.1216 6.85505 18.1216 6.36884 17.6352C6.11736 17.3836 6 17.065 6 16.7463Z" fill="#BA1A1A"/>
</svg>
