<svg width="28" height="28" viewBox="0 0 28 28" fill="none" xmlns="http://www.w3.org/2000/svg">
<mask id="mask0_2501_20154" style="mask-type:alpha" maskUnits="userSpaceOnUse" x="0" y="0" width="28" height="28">
<rect x="28" y="28" width="28" height="28" transform="rotate(180 28 28)" fill="#D9D9D9"/>
</mask>
<g mask="url(#mask0_2501_20154)">
<path d="M18.6668 12.8337C18.9974 12.8337 19.2747 12.9457 19.4987 13.1697C19.7219 13.3929 19.8335 13.6698 19.8335 14.0003C19.8335 14.3309 19.7219 14.6082 19.4987 14.8322C19.2747 15.0554 18.9974 15.167 18.6668 15.167L9.3335 15.167C9.00294 15.167 8.72605 15.0554 8.50283 14.8322C8.27883 14.6082 8.16683 14.3309 8.16683 14.0003C8.16683 13.6698 8.27883 13.3929 8.50283 13.1697C8.72605 12.9457 9.00294 12.8337 9.3335 12.8337L18.6668 12.8337Z" fill="#8925D1"/>
</g>
</svg>
