<svg width="18" height="18" viewBox="0 0 18 18" fill="none" xmlns="http://www.w3.org/2000/svg">
<path d="M4.88469 14.2417C4.452 14.2417 4.04768 14.0928 3.75686 13.8161C3.388 13.4685 3.21067 12.9436 3.27451 12.3762L3.53696 10.0779C3.58662 9.64525 3.84907 9.07069 4.15408 8.75858L9.97769 2.59449C11.4318 1.05524 12.9498 1.01268 14.489 2.46681C16.0283 3.92094 16.0708 5.43891 14.6167 6.97816L8.79311 13.1422C8.49519 13.4614 7.94191 13.7594 7.50922 13.8303L5.22517 14.2204C5.10459 14.2275 4.99819 14.2417 4.88469 14.2417ZM12.2546 2.45972C11.7085 2.45972 11.2332 2.8002 10.7509 3.31092L4.92725 9.4821C4.78539 9.63106 4.62224 9.98572 4.59387 10.1914L4.33141 12.4897C4.30304 12.7237 4.35979 12.9153 4.48747 13.0358C4.61515 13.1564 4.80667 13.199 5.04075 13.1635L7.32479 12.7734C7.5305 12.7379 7.87098 12.5535 8.01284 12.4045L13.8365 6.24045C14.716 5.30414 15.0352 4.43875 13.7513 3.23289C13.1839 2.6867 12.6944 2.45972 12.2546 2.45972Z" fill="white"/>
<path d="M13.2566 8.16297C13.2424 8.16297 13.2211 8.16297 13.2069 8.16297C10.9938 7.94307 9.21341 6.26196 8.87293 4.06303C8.83037 3.7722 9.02898 3.50266 9.31981 3.45301C9.61063 3.41045 9.88018 3.60906 9.92983 3.89988C10.1994 5.61647 11.5897 6.93582 13.3204 7.10606C13.6113 7.13443 13.8241 7.39689 13.7957 7.68771C13.7602 7.95726 13.5261 8.16297 13.2566 8.16297Z" fill="white"/>
<path d="M15.8507 16.5327H3.08278C2.79195 16.5327 2.55078 16.2916 2.55078 16.0007C2.55078 15.7099 2.79195 15.4688 3.08278 15.4688H15.8507C16.1416 15.4688 16.3827 15.7099 16.3827 16.0007C16.3827 16.2916 16.1416 16.5327 15.8507 16.5327Z" fill="white"/>
</svg>
