<svg width="64" height="64" viewBox="0 0 64 64" fill="none" xmlns="http://www.w3.org/2000/svg">
<mask id="mask0_309_19704" style="mask-type:alpha" maskUnits="userSpaceOnUse" x="0" y="0" width="64" height="64">
<rect width="64" height="64" fill="#D9D9D9"/>
</mask>
<g mask="url(#mask0_309_19704)">
<path d="M13.3333 58.6666C11.8667 58.6666 10.6111 58.1444 9.56667 57.1C8.52222 56.0555 8 54.8 8 53.3333V16C8 14.5333 8.52222 13.2778 9.56667 12.2333C10.6111 11.1889 11.8667 10.6666 13.3333 10.6666H16V7.99998C16 7.24442 16.2556 6.61109 16.7667 6.09998C17.2778 5.58887 17.9111 5.33331 18.6667 5.33331C19.4222 5.33331 20.0556 5.58887 20.5667 6.09998C21.0778 6.61109 21.3333 7.24442 21.3333 7.99998V10.6666H42.6667V7.99998C42.6667 7.24442 42.9222 6.61109 43.4333 6.09998C43.9444 5.58887 44.5778 5.33331 45.3333 5.33331C46.0889 5.33331 46.7222 5.58887 47.2333 6.09998C47.7444 6.61109 48 7.24442 48 7.99998V10.6666H50.6667C52.1333 10.6666 53.3889 11.1889 54.4333 12.2333C55.4778 13.2778 56 14.5333 56 16V32H50.6667V26.6666H13.3333V53.3333H32V58.6666H13.3333ZM13.3333 21.3333H50.6667V16H13.3333V21.3333ZM59 45.3333L53.3333 39.6666L55.2667 37.7333C55.7556 37.2444 56.3778 37 57.1333 37C57.8889 37 58.5111 37.2444 59 37.7333L60.9333 39.6666C61.4222 40.1555 61.6667 40.7778 61.6667 41.5333C61.6667 42.2889 61.4222 42.9111 60.9333 43.4L59 45.3333ZM37.3333 60V56.8C37.3333 56.4444 37.4 56.1 37.5333 55.7666C37.6667 55.4333 37.8667 55.1333 38.1333 54.8666L51.4667 41.5333L57.1333 47.2L43.8 60.5333C43.5333 60.8 43.2333 61 42.9 61.1333C42.5667 61.2667 42.2222 61.3333 41.8667 61.3333H38.6667C38.3111 61.3333 38 61.2 37.7333 60.9333C37.4667 60.6666 37.3333 60.3555 37.3333 60Z" fill="#EFEFEF"/>
<path d="M59.0007 45.3334L53.334 39.6667L55.2673 37.7334C55.7562 37.2445 56.3784 37.0001 57.134 37.0001C57.8895 37.0001 58.5118 37.2445 59.0007 37.7334L60.934 39.6667C61.4229 40.1556 61.6673 40.7778 61.6673 41.5334C61.6673 42.2889 61.4229 42.9112 60.934 43.4001L59.0007 45.3334ZM37.334 60.0001V56.8001C37.334 56.4445 37.4006 56.1001 37.534 55.7667C37.6673 55.4334 37.8673 55.1334 38.134 54.8667L51.4673 41.5334L57.134 47.2001L43.8007 60.5334C43.534 60.8001 43.234 61.0001 42.9007 61.1334C42.5673 61.2667 42.2229 61.3334 41.8673 61.3334H38.6673C38.3118 61.3334 38.0007 61.2001 37.734 60.9334C37.4673 60.6667 37.334 60.3556 37.334 60.0001Z" fill="#EC407A"/>
</g>
</svg>
