<svg width="64" height="64" viewBox="0 0 64 64" fill="none" xmlns="http://www.w3.org/2000/svg">
<mask id="mask0_309_19652" style="mask-type:alpha" maskUnits="userSpaceOnUse" x="0" y="0" width="64" height="64">
<rect width="64" height="64" fill="#D9D9D9"/>
</mask>
<g mask="url(#mask0_309_19652)">
<path d="M11.3333 58.6666C9.86667 58.6666 8.61111 58.1444 7.56667 57.1C6.52222 56.0555 6 54.8 6 53.3333V10.6666C6 9.19998 6.52222 7.94442 7.56667 6.89998C8.61111 5.85554 9.86667 5.33331 11.3333 5.33331H32.6667L48.6667 21.3333V32H43.3333V24H30V10.6666H11.3333V53.3333H27.3333V58.6666H11.3333Z" fill="#EFEFEF"/>
<path d="M53.6667 43.3333L48 37.6667L49.9333 35.7333C50.4222 35.2444 51.0444 35 51.8 35C52.5556 35 53.1778 35.2444 53.6667 35.7333L55.6 37.6667C56.0889 38.1556 56.3333 38.7778 56.3333 39.5333C56.3333 40.2889 56.0889 40.9111 55.6 41.4L53.6667 43.3333ZM32 58V54.8C32 54.4444 32.0667 54.1 32.2 53.7667C32.3333 53.4333 32.5333 53.1333 32.8 52.8667L46.1333 39.5333L51.8 45.2L38.4667 58.5333C38.2 58.8 37.9 59 37.5667 59.1333C37.2333 59.2667 36.8889 59.3333 36.5333 59.3333H33.3333C32.9778 59.3333 32.6667 59.2 32.4 58.9333C32.1333 58.6667 32 58.3556 32 58Z" fill="#EC407A"/>
</g>
</svg>
