<svg width="24" height="21" viewBox="0 0 24 21" fill="none" xmlns="http://www.w3.org/2000/svg">
<path fill-rule="evenodd" clip-rule="evenodd" d="M12.0096 3.1596C11.8889 3.1596 11.7741 3.10356 11.6945 3.00585L11.1725 2.36468C10.5617 1.61231 9.82297 1.02257 8.9768 0.611733C8.14084 0.205809 7.25187 -6.25831e-06 6.33468 1.42727e-10L6.30264 8.69308e-05L6.28286 5.38504e-05C5.22594 9.10572e-05 4.17378 0.281625 3.2401 0.81422C1.24147 1.95337 1.54446e-06 4.12244 1.54446e-06 6.47497C-0.000460018 7.14946 0.102534 7.81479 0.306215 8.45258L0.309051 8.46332C0.532718 9.50086 1.00516 10.6446 1.71388 11.8646C1.73519 11.9013 1.77453 11.9239 1.81695 11.9239H4.9048C4.94824 11.9239 4.98825 11.9003 5.00932 11.8624L6.02333 10.0338C6.11228 9.87529 6.23749 9.7426 6.38565 9.64954C6.53289 9.55713 6.70057 9.50517 6.87082 9.49917C6.89588 9.49673 6.92146 9.49548 6.94685 9.49548C7.2733 9.49548 7.59396 9.69183 7.78373 10.0079L9.07235 12.1401C9.1248 12.2269 9.25468 12.213 9.28765 12.1171L11.0374 7.02864C11.1109 6.81357 11.2422 6.63043 11.4171 6.49921C11.5919 6.36801 11.797 6.29866 12.0102 6.29866C12.2233 6.29866 12.4284 6.36801 12.6032 6.49921C12.7781 6.63043 12.9094 6.81357 12.983 7.02883L14.6518 11.8463C14.6685 11.8944 14.7138 11.9266 14.7647 11.9266H17.5567C17.6855 11.9266 17.8067 11.9806 17.8979 12.0787C17.989 12.1768 18.0392 12.3072 18.0392 12.4458C18.0392 12.5845 17.989 12.7149 17.8979 12.813C17.8067 12.9111 17.6855 12.965 17.5567 12.965H14.3444C14.2453 12.965 14.1502 12.9328 14.069 12.872C13.9879 12.8112 13.9267 12.7264 13.8923 12.6267L12.0782 7.38962C12.0728 7.37345 12.0637 7.36067 12.0516 7.3515C12.0275 7.33334 11.9937 7.33319 11.9692 7.35165C11.9573 7.36066 11.9482 7.37345 11.9432 7.38847L9.77952 13.6928C9.74814 13.7838 9.694 13.8632 9.62292 13.9225C9.55184 13.9819 9.46691 14.0186 9.37743 14.0287L9.37368 14.0291C9.3562 14.0304 9.33873 14.0304 9.32126 14.0293C9.24259 14.0283 9.16459 14.0064 9.09549 13.9658C9.02559 13.9247 8.96565 13.865 8.9222 13.7931L6.97764 10.5708C6.96729 10.5536 6.95265 10.5405 6.93551 10.5327L6.92383 10.5326C6.91948 10.5325 6.91513 10.5323 6.91078 10.532C6.90003 10.5327 6.88961 10.536 6.88038 10.5417C6.87023 10.548 6.86166 10.557 6.85572 10.5678L5.66351 12.713C5.62071 12.79 5.55979 12.8541 5.48732 12.8982C5.41499 12.9424 5.33263 12.9657 5.24935 12.9657H2.62633C2.53065 12.9657 2.4739 13.0724 2.52812 13.1513C3.83084 15.0453 5.59745 16.9779 7.42779 18.5045C9.30128 20.0671 11.0111 21 12.0015 21C12.6019 21 13.558 20.5955 14.6938 19.861C15.8377 19.1213 17.1223 18.072 18.311 16.9066C21.1719 14.1014 23.1197 11.0617 23.6546 8.56679L23.6577 8.55526C23.8764 7.8845 23.9916 7.18412 24 6.47359C24 4.12347 22.7585 1.95439 20.7599 0.81422C19.8435 0.295994 18.8103 0.0249463 17.7742 0.0322548C15.8528 0.0322548 14.0078 0.903946 12.8382 2.36403L12.3272 3.00287C12.2475 3.10248 12.1318 3.1596 12.0096 3.1596Z" fill="#FF895D"/>
</svg>
