<svg width="24" height="24" viewBox="0 0 24 24" fill="none" xmlns="http://www.w3.org/2000/svg">
<path d="M7.78907 17.2775L7.78297 17.2836L7.77709 17.2899C7.65205 17.4239 7.45774 17.5 7.25367 17.5C7.06041 17.5 6.87112 17.4303 6.71827 17.2775C6.42724 16.9866 6.42724 16.4985 6.71827 16.2076L16.2109 6.71827C16.5021 6.42724 16.9906 6.42724 17.2817 6.71827C17.5728 7.00919 17.5728 7.49727 17.2817 7.78819L7.78907 17.2775Z" fill="#BA1A1A" stroke="#BA1A1A"/>
<path d="M16.7463 18C16.4277 18 16.109 17.8826 15.8574 17.6312L6.36478 8.14181C5.87841 7.65561 5.87841 6.85086 6.36478 6.36465C6.85115 5.87845 7.65618 5.87845 8.14256 6.36465L17.6352 15.854C18.1216 16.3402 18.1216 17.145 17.6352 17.6312C17.3836 17.8826 17.065 18 16.7463 18Z" fill="#BA1A1A"/>
</svg>
