<svg width="25" height="24" viewBox="0 0 25 24" fill="none" xmlns="http://www.w3.org/2000/svg">
<path d="M17.75 2H7.75C4.99 2 2.75 4.23 2.75 6.98V12.96V13.96C2.75 16.71 4.99 18.94 7.75 18.94H9.25C9.52 18.94 9.88 19.12 10.05 19.34L11.55 21.33C12.21 22.21 13.29 22.21 13.95 21.33L15.45 19.34C15.64 19.09 15.94 18.94 16.25 18.94H17.75C20.51 18.94 22.75 16.71 22.75 13.96V6.98C22.75 4.23 20.51 2 17.75 2ZM8.75 12C8.19 12 7.75 11.55 7.75 11C7.75 10.45 8.2 10 8.75 10C9.3 10 9.75 10.45 9.75 11C9.75 11.55 9.31 12 8.75 12ZM12.75 12C12.19 12 11.75 11.55 11.75 11C11.75 10.45 12.2 10 12.75 10C13.3 10 13.75 10.45 13.75 11C13.75 11.55 13.31 12 12.75 12ZM16.75 12C16.19 12 15.75 11.55 15.75 11C15.75 10.45 16.2 10 16.75 10C17.3 10 17.75 10.45 17.75 11C17.75 11.55 17.31 12 16.75 12Z" fill="#EC407A"/>
</svg>
