<svg width="24" height="24" viewBox="0 0 24 24" fill="none" xmlns="http://www.w3.org/2000/svg">
<path d="M9 22H15C20 22 22 20 22 15V9C22 4 20 2 15 2H9C4 2 2 4 2 9V15C2 20 4 22 9 22Z" stroke="#1D1A22" stroke-width="1.5" stroke-linecap="round" stroke-linejoin="round"/>
<path d="M9 10C10.1046 10 11 9.10457 11 8C11 6.89543 10.1046 6 9 6C7.89543 6 7 6.89543 7 8C7 9.10457 7.89543 10 9 10Z" stroke="#1D1A22" stroke-width="1.5" stroke-linecap="round" stroke-linejoin="round"/>
<path d="M2.67188 18.9505L7.60187 15.6405C8.39187 15.1105 9.53187 15.1705 10.2419 15.7805L10.5719 16.0705C11.3519 16.7405 12.6119 16.7405 13.3919 16.0705L17.5519 12.5005C18.3319 11.8305 19.5919 11.8305 20.3719 12.5005L22.0019 13.9005" stroke="#1D1A22" stroke-width="1.5" stroke-linecap="round" stroke-linejoin="round"/>
</svg>
