<svg width="20" height="20" viewBox="0 0 20 20" fill="none" xmlns="http://www.w3.org/2000/svg">
<path d="M7.50065 8.95833C6.23398 8.95833 5.20898 7.93333 5.20898 6.66667C5.20898 5.4 6.23398 4.375 7.50065 4.375C8.76732 4.375 9.79232 5.4 9.79232 6.66667C9.79232 7.93333 8.76732 8.95833 7.50065 8.95833ZM7.50065 5.625C6.92565 5.625 6.45898 6.09167 6.45898 6.66667C6.45898 7.24167 6.92565 7.70833 7.50065 7.70833C8.07565 7.70833 8.54232 7.24167 8.54232 6.66667C8.54232 6.09167 8.07565 5.625 7.50065 5.625Z" fill="#938F94"/>
<path d="M12.4993 18.9596H7.49935C2.97435 18.9596 1.04102 17.0263 1.04102 12.5013V7.5013C1.04102 2.9763 2.97435 1.04297 7.49935 1.04297H10.8327C11.1743 1.04297 11.4577 1.3263 11.4577 1.66797C11.4577 2.00964 11.1743 2.29297 10.8327 2.29297H7.49935C3.65768 2.29297 2.29102 3.65964 2.29102 7.5013V12.5013C2.29102 16.343 3.65768 17.7096 7.49935 17.7096H12.4993C16.341 17.7096 17.7077 16.343 17.7077 12.5013V8.33464C17.7077 7.99297 17.991 7.70964 18.3327 7.70964C18.6743 7.70964 18.9577 7.99297 18.9577 8.33464V12.5013C18.9577 17.0263 17.0243 18.9596 12.4993 18.9596Z" fill="#938F94"/>
<path d="M17.7083 4.79297H13.125C12.7833 4.79297 12.5 4.50964 12.5 4.16797C12.5 3.8263 12.7833 3.54297 13.125 3.54297H17.7083C18.05 3.54297 18.3333 3.8263 18.3333 4.16797C18.3333 4.50964 18.05 4.79297 17.7083 4.79297Z" fill="#938F94"/>
<path d="M15.416 7.08333C15.0743 7.08333 14.791 6.8 14.791 6.45833V1.875C14.791 1.53333 15.0743 1.25 15.416 1.25C15.7577 1.25 16.041 1.53333 16.041 1.875V6.45833C16.041 6.8 15.7577 7.08333 15.416 7.08333Z" fill="#938F94"/>
<path d="M2.22443 16.4148C2.02443 16.4148 1.82443 16.3148 1.70776 16.1398C1.5161 15.8565 1.5911 15.4648 1.87443 15.2732L5.98276 12.5148C6.88276 11.9148 8.12443 11.9815 8.9411 12.6732L9.2161 12.9148C9.63276 13.2732 10.3411 13.2732 10.7494 12.9148L14.2161 9.93984C15.1078 9.18151 16.4911 9.18151 17.3828 9.93984L18.7411 11.1065C18.9994 11.3315 19.0328 11.7232 18.8078 11.9898C18.5828 12.2482 18.1911 12.2815 17.9244 12.0565L16.5661 10.8898C16.1494 10.5315 15.4411 10.5315 15.0328 10.8898L11.5661 13.8648C10.6828 14.6232 9.2911 14.6232 8.39943 13.8648L8.12443 13.6232C7.7411 13.2982 7.10776 13.2648 6.68276 13.5565L2.58276 16.3148C2.4661 16.3815 2.3411 16.4148 2.22443 16.4148Z" fill="#938F94"/>
</svg>
