<svg width="18" height="19" viewBox="0 0 18 19" fill="none" xmlns="http://www.w3.org/2000/svg">
<mask id="mask0_9810_13593" style="mask-type:alpha" maskUnits="userSpaceOnUse" x="0" y="0" width="18" height="19">
<rect y="0.5" width="18" height="18" fill="#D9D9D9"/>
</mask>
<g mask="url(#mask0_9810_13593)">
<path d="M0.75 13.4C0.75 12.975 0.859375 12.5844 1.07812 12.2281C1.29688 11.8719 1.5875 11.6 1.95 11.4125C2.725 11.025 3.5125 10.7344 4.3125 10.5406C5.1125 10.3469 5.925 10.25 6.75 10.25C7.575 10.25 8.3875 10.3469 9.1875 10.5406C9.9875 10.7344 10.775 11.025 11.55 11.4125C11.9125 11.6 12.2031 11.8719 12.4219 12.2281C12.6406 12.5844 12.75 12.975 12.75 13.4V14C12.75 14.4125 12.6031 14.7656 12.3094 15.0594C12.0156 15.3531 11.6625 15.5 11.25 15.5H2.25C1.8375 15.5 1.48438 15.3531 1.19063 15.0594C0.896875 14.7656 0.75 14.4125 0.75 14V13.4ZM13.8375 15.5C13.975 15.275 14.0781 15.0344 14.1469 14.7781C14.2156 14.5219 14.25 14.2625 14.25 14V13.25C14.25 12.7 14.0969 12.1719 13.7906 11.6656C13.4844 11.1594 13.05 10.725 12.4875 10.3625C13.125 10.4375 13.725 10.5656 14.2875 10.7469C14.85 10.9281 15.375 11.15 15.8625 11.4125C16.3125 11.6625 16.6562 11.9406 16.8937 12.2469C17.1313 12.5531 17.25 12.8875 17.25 13.25V14C17.25 14.4125 17.1031 14.7656 16.8094 15.0594C16.5156 15.3531 16.1625 15.5 15.75 15.5H13.8375ZM6.75 9.5C5.925 9.5 5.21875 9.20625 4.63125 8.61875C4.04375 8.03125 3.75 7.325 3.75 6.5C3.75 5.675 4.04375 4.96875 4.63125 4.38125C5.21875 3.79375 5.925 3.5 6.75 3.5C7.575 3.5 8.28125 3.79375 8.86875 4.38125C9.45625 4.96875 9.75 5.675 9.75 6.5C9.75 7.325 9.45625 8.03125 8.86875 8.61875C8.28125 9.20625 7.575 9.5 6.75 9.5ZM14.25 6.5C14.25 7.325 13.9563 8.03125 13.3688 8.61875C12.7813 9.20625 12.075 9.5 11.25 9.5C11.1125 9.5 10.9375 9.48438 10.725 9.45312C10.5125 9.42188 10.3375 9.3875 10.2 9.35C10.5375 8.95 10.7969 8.50625 10.9781 8.01875C11.1594 7.53125 11.25 7.025 11.25 6.5C11.25 5.975 11.1594 5.46875 10.9781 4.98125C10.7969 4.49375 10.5375 4.05 10.2 3.65C10.375 3.5875 10.55 3.54688 10.725 3.52813C10.9 3.50938 11.075 3.5 11.25 3.5C12.075 3.5 12.7813 3.79375 13.3688 4.38125C13.9563 4.96875 14.25 5.675 14.25 6.5Z" fill="#8925D1"/>
</g>
</svg>
