<svg width="25" height="24" viewBox="0 0 25 24" fill="none" xmlns="http://www.w3.org/2000/svg">
<path d="M12.5 18.75C12.09 18.75 11.75 18.41 11.75 18V15C11.75 14.59 12.09 14.25 12.5 14.25C12.91 14.25 13.25 14.59 13.25 15V18C13.25 18.41 12.91 18.75 12.5 18.75Z" fill="#938F94"/>
<path d="M18.1009 22.5608H6.90094C5.08094 22.5608 3.42094 21.1608 3.12094 19.3708L1.79094 11.4008C1.57094 10.1608 2.18094 8.5708 3.17094 7.7808L10.1009 2.2308C11.4409 1.1508 13.5509 1.1608 14.9009 2.2408L21.8309 7.7808C22.8109 8.5708 23.4109 10.1608 23.2109 11.4008L21.8809 19.3608C21.5809 21.1308 19.8809 22.5608 18.1009 22.5608ZM12.4909 2.9308C11.9609 2.9308 11.4309 3.0908 11.0409 3.4008L4.11094 8.9608C3.55094 9.4108 3.15094 10.4508 3.27094 11.1608L4.60094 19.1208C4.78094 20.1708 5.83094 21.0608 6.90094 21.0608H18.1009C19.1709 21.0608 20.2209 20.1708 20.4009 19.1108L21.7309 11.1508C21.8409 10.4508 21.4409 9.3908 20.8909 8.9508L13.9609 3.4108C13.5609 3.0908 13.0209 2.9308 12.4909 2.9308Z" fill="#938F94"/>
</svg>
