<svg width="28" height="28" viewBox="0 0 28 28" fill="none" xmlns="http://www.w3.org/2000/svg">
<mask id="mask0_2501_20149" style="mask-type:alpha" maskUnits="userSpaceOnUse" x="0" y="0" width="28" height="28">
<rect width="28" height="28" fill="#D9D9D9"/>
</mask>
<g mask="url(#mask0_2501_20149)">
<path d="M14.0002 22.1663C13.6696 22.1663 13.3927 22.0543 13.1695 21.8303C12.9455 21.6071 12.8335 21.3302 12.8335 20.9997V15.1663H7.00016C6.66961 15.1663 6.39233 15.0543 6.16833 14.8303C5.94511 14.6071 5.8335 14.3302 5.8335 13.9997C5.8335 13.6691 5.94511 13.3918 6.16833 13.1678C6.39233 12.9446 6.66961 12.833 7.00016 12.833H12.8335V6.99967C12.8335 6.66912 12.9455 6.39184 13.1695 6.16784C13.3927 5.94462 13.6696 5.83301 14.0002 5.83301C14.3307 5.83301 14.608 5.94462 14.832 6.16784C15.0552 6.39184 15.1668 6.66912 15.1668 6.99967V12.833H21.0002C21.3307 12.833 21.6076 12.9446 21.8308 13.1678C22.0548 13.3918 22.1668 13.6691 22.1668 13.9997C22.1668 14.3302 22.0548 14.6071 21.8308 14.8303C21.6076 15.0543 21.3307 15.1663 21.0002 15.1663H15.1668V20.9997C15.1668 21.3302 15.0552 21.6071 14.832 21.8303C14.608 22.0543 14.3307 22.1663 14.0002 22.1663Z" fill="#8925D1"/>
</g>
</svg>
