<svg width="55" height="19" viewBox="0 0 55 19" fill="none" xmlns="http://www.w3.org/2000/svg">
<path fill-rule="evenodd" clip-rule="evenodd" d="M9.48846 1.10293e-05C4.24813 1.12584e-05 -6.43816e-07 4.24814 -4.14754e-07 9.48847C-1.85692e-07 14.7288 4.24813 18.9769 9.48846 18.9769L39.5115 18.9769C43.3489 18.9769 46.6542 16.699 48.149 13.4216C48.2391 13.224 48.3836 13.055 48.5707 12.9448L53.5851 9.98941C54.2415 9.60259 54.2415 8.65323 53.5851 8.2664L48.0244 4.98907C47.8723 4.89938 47.7475 4.77032 47.6567 4.61878C45.999 1.852 42.9716 1.14731e-05 39.5115 1.16243e-05L9.48846 1.10293e-05Z" fill="#EC407A"/>
<path d="M12.0244 11.165C12.0244 10.703 11.753 10.472 11.2104 10.472H9.12038V8.47C9.12038 7.86133 9.30371 7.37 9.67038 6.996C10.037 6.61467 10.532 6.424 11.1554 6.424H12.5524L12.6294 7.337H11.1334C10.8107 7.337 10.5467 7.44333 10.3414 7.656C10.1434 7.86133 10.0444 8.12167 10.0444 8.437V9.526H11.3644C11.8924 9.526 12.2847 9.66533 12.5414 9.944C12.8054 10.2153 12.9374 10.604 12.9374 11.11C12.9374 11.572 12.8017 12.001 12.5304 12.397C12.2664 12.793 11.9034 13.1047 11.4414 13.332C10.9867 13.5667 10.4807 13.684 9.92338 13.684H9.07638C8.15238 13.684 7.44104 13.4163 6.94238 12.881C6.44371 12.3457 6.19438 11.5977 6.19438 10.637V8.558H7.10738V10.615C7.10738 11.3117 7.27604 11.8397 7.61338 12.199C7.95071 12.5583 8.44571 12.738 9.09838 12.738H9.92338C10.334 12.738 10.697 12.6683 11.0124 12.529C11.335 12.397 11.5844 12.21 11.7604 11.968C11.9364 11.7333 12.0244 11.4657 12.0244 11.165ZM18.4422 7.887C18.6769 8.15833 18.8455 8.415 18.9482 8.657C19.0509 8.89167 19.1022 9.13 19.1022 9.372C19.1022 9.856 18.9335 10.2483 18.5962 10.549C18.2589 10.8497 17.7859 11 17.1772 11H14.0422L13.9542 10.054H17.1772C17.4999 10.054 17.7492 9.99167 17.9252 9.867C18.1012 9.74233 18.1892 9.57367 18.1892 9.361C18.1892 9.229 18.1525 9.097 18.0792 8.965C18.0132 8.82567 17.8995 8.66067 17.7382 8.47L15.6812 6.105L16.3302 5.456L18.4422 7.887ZM22.5189 10.054C22.5556 10.054 22.5812 10.087 22.5959 10.153C22.6179 10.2117 22.6289 10.34 22.6289 10.538C22.6289 10.7287 22.6179 10.8533 22.5959 10.912C22.5812 10.9707 22.5556 11 22.5189 11H22.2329C21.6756 11 21.2502 10.835 20.9569 10.505C20.6709 10.1677 20.5279 9.691 20.5279 9.075V3.883H21.4409V9.031C21.4409 9.713 21.7196 10.054 22.2769 10.054H22.5189ZM23.4592 10.054C23.1586 9.76067 23.0082 9.36833 23.0082 8.877C23.0082 8.46633 23.0962 8.096 23.2722 7.766C23.4556 7.436 23.7086 7.17933 24.0312 6.996C24.3612 6.80533 24.7352 6.71 25.1532 6.71C25.4319 6.71 25.6996 6.74667 25.9562 6.82C26.2129 6.89333 26.4806 7.018 26.7592 7.194L26.4402 7.942C25.9929 7.73667 25.5639 7.634 25.1532 7.634C24.8012 7.634 24.5079 7.74767 24.2732 7.975C24.0386 8.20233 23.9212 8.48467 23.9212 8.822C23.9212 9.18133 24.0276 9.47833 24.2402 9.713C24.4529 9.94033 24.7352 10.054 25.0872 10.054H27.0562L26.9682 11H22.0842C22.0109 11 21.9742 10.846 21.9742 10.538C21.9742 10.2153 22.0109 10.054 22.0842 10.054H23.4592ZM29.9438 12.738C30.5671 12.738 31.0548 12.5547 31.4068 12.188C31.7588 11.8287 31.9348 11.3263 31.9348 10.681V7.458H32.8478V9.207C32.8478 9.47833 32.9248 9.68733 33.0788 9.834C33.2401 9.98067 33.4711 10.054 33.7718 10.054H33.9148C33.9881 10.054 34.0248 10.2153 34.0248 10.538C34.0248 10.846 33.9881 11 33.9148 11H33.7718C33.5738 11 33.3905 10.967 33.2218 10.901C33.0531 10.8277 32.9285 10.736 32.8478 10.626V10.758C32.8405 11.3447 32.7158 11.858 32.4738 12.298C32.2318 12.7453 31.8945 13.0863 31.4618 13.321C31.0291 13.563 30.5305 13.684 29.9658 13.684H29.6578L29.5698 12.738H29.9438ZM35.5512 10.054C35.8372 10.054 36.0646 9.98067 36.2332 9.834C36.4019 9.68733 36.4862 9.48933 36.4862 9.24V7.458H37.3992V9.218C37.3992 9.48933 37.4726 9.69833 37.6192 9.845C37.7732 9.98433 37.9932 10.054 38.2792 10.054H38.5872C38.6606 10.054 38.6972 10.2117 38.6972 10.527C38.6972 10.8423 38.6606 11 38.5872 11H38.2462C37.5716 11 37.1316 10.7837 36.9262 10.351C36.6696 10.7837 36.2112 11 35.5512 11H33.4722C33.3989 11 33.3622 10.846 33.3622 10.538C33.3622 10.2153 33.3989 10.054 33.4722 10.054H35.5512ZM36.2442 12.386V13.255H33.3402V12.386H36.2442ZM39.5205 10.054C39.2198 9.76067 39.0695 9.36833 39.0695 8.877C39.0695 8.46633 39.1575 8.096 39.3335 7.766C39.5168 7.436 39.7698 7.17933 40.0925 6.996C40.4225 6.80533 40.7965 6.71 41.2145 6.71C41.4932 6.71 41.7608 6.74667 42.0175 6.82C42.2742 6.89333 42.5418 7.018 42.8205 7.194L42.5015 7.942C42.0542 7.73667 41.6252 7.634 41.2145 7.634C40.8625 7.634 40.5692 7.74767 40.3345 7.975C40.0998 8.20233 39.9825 8.48467 39.9825 8.822C39.9825 9.18133 40.0888 9.47833 40.3015 9.713C40.5142 9.94033 40.7965 10.054 41.1485 10.054H43.1175L43.0295 11H38.1455C38.0722 11 38.0355 10.846 38.0355 10.538C38.0355 10.2153 38.0722 10.054 38.1455 10.054H39.5205ZM40.5105 5.28V4.367H41.6765V5.28H40.5105Z" fill="white"/>
</svg>
