<svg width="71" height="29" viewBox="0 0 71 29" fill="none" xmlns="http://www.w3.org/2000/svg">
<path d="M16.5797 15.3559C16.8235 15.3559 16.921 15.8938 16.921 16.9208C16.921 17.8988 16.8235 18.3879 16.5797 18.3879H13.215C13.0199 21.0776 11.5082 22.6914 10.9718 23.2294C9.4114 24.7943 7.70467 25.0388 5.12019 25.0388H4.19367L2.92582 22.4958H5.12019C6.97322 22.4958 8.43613 22.0557 9.11883 21.4688C9.5577 21.1265 10.4842 20.0506 10.3379 18.3879H6.82692C4.4375 18.3879 2.682 17.8988 1.6092 16.9208C0.536395 15.9427 0 14.3778 0 12.226C0 10.7589 0.292588 9.48737 0.82899 8.36258C1.41415 7.23779 2.19436 6.35754 3.2184 5.72179C4.24243 5.08604 5.41278 4.7926 6.68064 4.7926C8.72872 4.7926 10.3379 5.47726 11.5082 6.84657C12.6786 8.21588 13.2637 10.0742 13.2637 12.4216V15.3559H16.5797ZM2.92582 12.0793C2.92582 12.9107 3.07211 13.5464 3.31593 14.0354C3.55975 14.5245 3.99861 14.8668 4.58377 15.0624C5.16894 15.3069 5.99792 15.4048 7.02196 15.4048H10.3379V12.6661C10.3379 11.0523 9.99657 9.82972 9.36264 8.99835C8.72872 8.16699 7.75342 7.77576 6.53432 7.77576C5.46152 7.77576 4.58378 8.16697 3.94985 8.94943C3.26716 9.7319 2.92582 10.7589 2.92582 12.0793Z" fill="#EC407A"/>
<path d="M21.9924 15.4047C22.2362 15.4047 22.1875 15.8938 22.1875 16.9207C22.1875 17.5565 22.1387 17.9477 22.0899 18.1433C22.0412 18.3389 22.0899 18.3879 21.9924 18.3879H16.4821C16.2383 18.3879 16.2383 17.8988 16.2383 16.9207C16.2383 16.285 16.2871 15.8938 16.3358 15.6492C16.3846 15.4536 16.4821 15.3558 16.5796 15.3558L21.9924 15.4047Z" fill="#EC407A"/>
<path d="M17.8477 25.1366L18.3353 22.3491H22.6753V25.1366H17.8477ZM26.04 15.4047C26.9665 15.4047 27.6979 15.1113 28.2343 14.6712C28.7707 14.1821 29.0633 13.5464 29.0633 12.7639V8.50928L31.9891 9.48736V12.6661C31.9891 13.5464 32.233 14.1821 32.7206 14.6712C33.2082 15.1113 33.8909 15.3558 34.8174 15.3558H35.7927C36.0365 15.3558 36.1341 15.8448 36.1341 16.8718C36.1341 17.8988 36.0365 18.3878 35.7927 18.3878H34.7199C33.6471 18.3878 32.7694 18.2411 32.0867 17.8988C31.404 17.5565 30.8676 17.0186 30.5262 16.3339C30.1361 17.0186 29.551 17.5565 28.8195 17.8988C28.088 18.2411 27.1615 18.3878 26.1375 18.3878H21.9438C21.7 18.3878 21.6025 17.8988 21.6025 16.9207C21.6025 16.3339 21.6512 15.8937 21.7 15.6981C21.7488 15.5025 21.8463 15.4047 21.9438 15.4047H26.04ZM21.3587 29L20.871 26.2125H24.0407L23.553 29H21.3587ZM22.2852 25.1366V22.3491H26.6251L27.1128 25.1366H22.2852Z" fill="#EC407A"/>
<path d="M36.5239 15.3558C37.3529 15.3558 37.9868 15.1602 38.4257 14.769C38.8158 14.3777 39.0596 13.8398 39.0596 13.0573V11.5902C39.0596 9.34064 39.6448 7.58009 40.8639 6.25968C42.0342 4.98818 43.6922 4.30353 45.789 4.30353C47.8859 4.30353 49.4951 4.93927 50.6166 6.16187C51.7382 7.38447 52.3234 9.14503 52.3234 11.4435V12.4216C52.3234 13.3997 52.5184 14.1332 52.9573 14.5733C53.3474 15.0135 53.9813 15.258 54.7616 15.258H55.6393C55.8831 15.258 55.9807 15.796 55.9807 16.8229C55.9807 17.801 55.8831 18.2901 55.6393 18.2901H54.7616C53.7375 18.2901 52.9085 18.0944 52.2746 17.7521C51.6407 17.4098 51.1043 16.8229 50.8117 16.0405C50.3241 16.774 49.6414 17.3609 48.7636 17.7521C47.8859 18.1433 46.8618 18.339 45.7403 18.339C44.5212 18.339 43.4971 18.1433 42.6682 17.7521C41.8392 17.3609 41.2052 16.8229 40.8151 16.1383C40.425 16.8718 39.8886 17.4587 39.2547 17.801C38.6208 18.1433 37.743 18.339 36.6702 18.339H35.7437C35.4999 18.339 35.4023 17.8499 35.4023 16.8718C35.4023 16.285 35.4511 15.8449 35.4999 15.6492C35.5486 15.4536 35.6462 15.3558 35.7437 15.3558H36.5239ZM49.3 11.5413C49.3 10.172 49.0074 9.09612 48.3735 8.41147C47.7884 7.72681 46.8618 7.38447 45.594 7.38447C44.3749 7.38447 43.4484 7.7268 42.8144 8.46036C42.2293 9.19392 41.8879 10.2698 41.8879 11.688C41.8879 12.8617 42.2293 13.742 42.8632 14.3777C43.4971 15.0135 44.4236 15.3558 45.594 15.3558C46.8131 15.3558 47.7396 15.0624 48.3735 14.4266C49.0074 13.7909 49.3 12.8128 49.3 11.5413Z" fill="#EC407A"/>
<path d="M54.179 24.941L53.6914 22.1535H58.519V24.941H54.179ZM64.9558 12.6172C64.9558 14.3777 64.4194 15.6982 63.3954 16.7251C62.3226 17.7032 60.9572 18.2411 59.2017 18.2411L55.5444 18.2901C55.3006 18.2901 55.2031 17.7521 55.2031 16.774C55.2031 16.1872 55.2518 15.747 55.3006 15.5514C55.3494 15.3558 55.4469 15.258 55.5444 15.258H59.2017C60.0794 15.258 60.7621 15.0135 61.2498 14.5733C61.7862 14.1332 62.03 13.4975 62.03 12.6172V9.34063L64.9558 8.36255V12.6172ZM58.1777 24.941V22.1535H63.0053L62.5177 24.941H58.1777Z" fill="#EC407A"/>
<path d="M68.0742 0L71 0.978078V18.4368H68.0742V0Z" fill="#EC407A"/>
</svg>
