<svg width="85" height="57" viewBox="0 0 85 57" fill="none" xmlns="http://www.w3.org/2000/svg">
<path d="M53.5091 10.1345C56.2934 7.87277 59.1997 6.52475 62.2244 6.29206C75.9292 5.23774 83.2259 13.6814 84.0034 25.0558V52.2262C84.0034 53.6404 84.0034 54.3475 83.564 54.7868C83.1247 55.2262 82.4176 55.2262 81.0034 55.2262H75.0656C73.6512 55.2262 72.9439 55.2262 72.5046 54.7867C72.0652 54.3473 72.0654 53.64 72.0656 52.2255L72.0677 42.1909V42.0721L72.0506 31.3669C72.0506 24.1656 71.7039 15.8808 62.7588 15.8808C53.8137 15.8808 54.1864 25.2837 54.1782 32.485L54.1759 52.2228C54.1757 53.6369 54.1756 54.3439 53.7363 54.7832C53.297 55.2225 52.59 55.2225 51.1759 55.2225H45.2235C43.8091 55.2225 43.1019 55.2225 42.6626 54.7831C42.2232 54.3436 42.2233 53.6365 42.2235 52.2221L42.2257 34.6084C42.2257 25.1014 42.4708 26.7286 42.0034 22.9461C40.5829 11.4491 16.4789 11.7741 21.7798 38.5027C22.1787 40.5142 23.4424 42.7222 27.1566 44.4683C30.9669 46.2596 32.8721 47.1553 32.8694 48.1106C32.8667 49.0658 31.1679 49.8529 27.7701 51.427L22.1395 54.0356C20.2271 54.9216 19.2708 55.3646 18.5787 54.9233C17.8865 54.482 17.8847 53.4301 17.881 51.3264C17.8731 46.7654 17.8632 39.1333 17.8633 29.6124C17.8824 2.98991 36.1279 3.80319 44.5182 9.67888L44.5182 9.6789C47.5941 11.8329 49.1321 12.9099 49.6343 12.892C50.1365 12.8741 51.2607 11.9609 53.5091 10.1345Z" fill="#EC407A"/>
<path d="M9.44533 15.5566H3C1.58579 15.5566 0.87868 15.5566 0.43934 15.996C0 16.4353 0 17.1424 0 18.5566V52.2261C0 53.6403 0 54.3474 0.43934 54.7868C0.87868 55.2261 1.58579 55.2261 3 55.2261H9.44533C10.8595 55.2261 11.5666 55.2261 12.006 54.7868C12.4453 54.3474 12.4453 53.6403 12.4453 52.2261V18.5566C12.4453 17.1424 12.4453 16.4353 12.006 15.996C11.5666 15.5566 10.8595 15.5566 9.44533 15.5566Z" fill="#EC407A"/>
<path d="M6.25047 12.4453C9.68715 12.4453 12.4669 9.65932 12.4592 6.22265C12.4516 2.78597 9.65935 0 6.22267 0C2.78598 0 0.00622351 2.78597 0.0139006 6.22265C0.0215777 9.65932 2.81378 12.4453 6.25047 12.4453Z" fill="#EC407A"/>
</svg>
