<svg width="140" height="57" viewBox="0 0 140 57" fill="none" xmlns="http://www.w3.org/2000/svg">
<path d="M32.6923 30.1822C33.1731 30.1822 33.3654 31.2395 33.3654 33.258C33.3654 35.1805 33.1731 36.1417 32.6923 36.1417H26.0577C25.6731 41.4283 22.6923 44.6004 21.6346 45.6577C18.5577 48.7336 15.1923 49.2142 10.0962 49.2142H8.26921L5.76923 44.2159H10.0962C13.75 44.2159 16.6346 43.3508 17.9808 42.1974C18.8462 41.5245 20.6731 39.4098 20.3846 36.1417H13.4615C8.75 36.1417 5.28845 35.1805 3.17307 33.258C1.05768 31.3356 0 28.2597 0 24.0304C0 21.1467 0.576935 18.6476 1.63463 16.4368C2.78847 14.226 4.3269 12.4958 6.34613 11.2463C8.36536 9.99667 10.6731 9.41992 13.1731 9.41992C17.2116 9.41992 20.3846 10.7656 22.6923 13.457C25 16.1484 26.1539 19.8011 26.1539 24.4149V30.1822H32.6923ZM5.76923 23.742C5.76923 25.3761 6.05768 26.6257 6.53845 27.5869C7.01922 28.5481 7.88458 29.2209 9.03843 29.6054C10.1923 30.086 11.8269 30.2783 13.8461 30.2783H20.3846V24.8955C20.3846 21.7235 19.7116 19.3205 18.4616 17.6864C17.2116 16.0523 15.2884 15.2834 12.8846 15.2834C10.7692 15.2834 9.03844 16.0523 7.78844 17.5902C6.44229 19.1282 5.76923 21.1468 5.76923 23.742Z" fill="#EC407A"/>
<path d="M43.3657 30.2782C43.8464 30.2782 43.7503 31.2394 43.7503 33.258C43.7503 34.5075 43.6541 35.2765 43.558 35.661C43.4618 36.0455 43.558 36.1416 43.3657 36.1416H32.5003C32.0195 36.1416 32.0195 35.1804 32.0195 33.258C32.0195 32.0084 32.1157 31.2394 32.2119 30.7588C32.308 30.3743 32.5003 30.1821 32.6926 30.1821L43.3657 30.2782Z" fill="#EC407A"/>
<path d="M35.1914 49.4064L36.1529 43.9275H44.7107V49.4064H35.1914ZM51.3452 30.2782C53.1722 30.2782 54.6145 29.7015 55.6722 28.8364C56.7299 27.8752 57.3068 26.6256 57.3068 25.0876V16.7251L63.076 18.6475V24.8954C63.076 26.6256 63.5568 27.8752 64.5183 28.8364C65.4799 29.7015 66.826 30.1821 68.6529 30.1821H70.576C71.0568 30.1821 71.2491 31.1433 71.2491 33.1618C71.2491 35.1804 71.0568 36.1416 70.576 36.1416H68.4607C66.3453 36.1416 64.6145 35.8532 63.2683 35.1804C61.9222 34.5075 60.8645 33.4502 60.1914 32.1045C59.4222 33.4502 58.2683 34.5075 56.826 35.1804C55.3837 35.8532 53.5568 36.1416 51.5376 36.1416H43.2684C42.7876 36.1416 42.5953 35.1804 42.5953 33.2579C42.5953 32.1045 42.6914 31.2394 42.7876 30.8549C42.8837 30.4704 43.076 30.2782 43.2684 30.2782H51.3452ZM42.1145 56.9999L41.153 51.521H47.403L46.4414 56.9999H42.1145ZM43.9414 49.4064V43.9275H52.4991L53.4606 49.4064H43.9414Z" fill="#EC407A"/>
<path d="M72.0201 30.1822C73.6547 30.1822 74.9048 29.7977 75.7701 29.0288C76.5394 28.2598 77.0201 27.2024 77.0201 25.6645V22.7809C77.0201 18.3593 78.174 14.8989 80.5778 12.3036C82.8855 9.80444 86.1547 8.45874 90.2894 8.45874C94.424 8.45874 97.5971 9.70831 99.8086 12.1113C102.02 14.5144 103.174 17.9748 103.174 22.4925V24.4149C103.174 26.3374 103.559 27.7791 104.424 28.6442C105.193 29.5093 106.443 29.99 107.982 29.99H109.712C110.193 29.99 110.386 31.0473 110.386 33.0659C110.386 34.9883 110.193 35.9495 109.712 35.9495H107.982C105.962 35.9495 104.328 35.565 103.078 34.8921C101.828 34.2193 100.77 33.0658 100.193 31.5279C99.2317 32.9697 97.8855 34.1232 96.1548 34.8921C94.424 35.6611 92.4048 36.0456 90.1932 36.0456C87.7894 36.0456 85.7702 35.6611 84.1355 34.8921C82.5009 34.1232 81.2509 33.0658 80.4817 31.7201C79.7125 33.162 78.6548 34.3154 77.4048 34.9883C76.1548 35.6611 74.424 36.0456 72.3086 36.0456H70.4817C70.0009 36.0456 69.8086 35.0844 69.8086 33.162C69.8086 32.0085 69.9048 31.1434 70.0009 30.7589C70.0971 30.3744 70.2894 30.1822 70.4817 30.1822H72.0201ZM97.2124 22.6847C97.2124 19.9933 96.6356 17.8787 95.3856 16.533C94.2317 15.1873 92.4048 14.5144 89.9048 14.5144C87.5009 14.5144 85.674 15.1872 84.424 16.6291C83.2701 18.0709 82.597 20.1856 82.597 22.9731C82.597 25.28 83.2701 27.0102 84.5201 28.2598C85.7701 29.5094 87.5971 30.1822 89.9048 30.1822C92.3086 30.1822 94.1356 29.6055 95.3856 28.3559C96.6356 27.1063 97.2124 25.1839 97.2124 22.6847Z" fill="#EC407A"/>
<path d="M106.829 49.022L105.867 43.543H115.386V49.022H106.829ZM128.079 24.7993C128.079 28.2597 127.021 30.855 125.002 32.8736C122.886 34.796 120.194 35.8533 116.733 35.8533L109.521 35.9495C109.04 35.9495 108.848 34.8921 108.848 32.9697C108.848 31.8162 108.944 30.9511 109.04 30.5666C109.136 30.1821 109.329 29.9899 109.521 29.9899H116.733C118.463 29.9899 119.809 29.5093 120.771 28.6442C121.829 27.7791 122.31 26.5295 122.31 24.7993V18.3592L128.079 16.4368V24.7993ZM114.713 49.022V43.543H124.233L123.271 49.022H114.713Z" fill="#EC407A"/>
<path d="M134.23 0L140 1.92243V36.2378H134.23V0Z" fill="#EC407A"/>
</svg>
