<svg width="64" height="64" viewBox="0 0 64 64" fill="none" xmlns="http://www.w3.org/2000/svg">
<mask id="mask0_218_17438" style="mask-type:alpha" maskUnits="userSpaceOnUse" x="0" y="0" width="64" height="64">
<rect width="64" height="64" fill="#D9D9D9"/>
</mask>
<g mask="url(#mask0_218_17438)">
<path d="M16.0002 48L9.86683 54.1334C9.02239 54.9778 8.05527 55.1663 6.9655 54.6987C5.8775 54.2329 5.3335 53.4 5.3335 52.2V10.6667C5.3335 9.20004 5.85616 7.94404 6.9015 6.89871C7.94505 5.85515 9.20016 5.33337 10.6668 5.33337H53.3335C54.8002 5.33337 56.0562 5.85515 57.1015 6.89871C58.1451 7.94404 58.6668 9.20004 58.6668 10.6667V29.3334H53.3335V10.6667H10.6668V42.6667H32.0002V48H16.0002Z" fill="#EFEFEF"/>
<path d="M55.7326 36.3337L46.2659 45.8004L42.4659 42.0004C41.977 41.5115 41.3548 41.267 40.5993 41.267C39.8437 41.267 39.2215 41.5115 38.7326 42.0004C38.1993 42.5337 37.9441 43.1666 37.9673 43.899C37.9886 44.6332 38.2437 45.2448 38.7326 45.7337L44.3993 51.467C44.9326 52.0003 45.5548 52.267 46.2659 52.267C46.977 52.267 47.5993 52.0003 48.1326 51.467L59.4659 40.1337C59.9993 39.6004 60.2553 38.9781 60.2339 38.267C60.2108 37.5559 59.9548 36.9337 59.4659 36.4003C58.9326 35.867 58.3104 35.5888 57.5993 35.5657C56.8882 35.5444 56.2659 35.8004 55.7326 36.3337Z" fill="#EC407A"/>
</g>
</svg>
