<svg width="24" height="24" viewBox="0 0 24 24" fill="none" xmlns="http://www.w3.org/2000/svg">
<path fill-rule="evenodd" clip-rule="evenodd" d="M8.53913 23.9997C10.1428 23.9971 11.4492 22.6899 11.4515 21.0858V1.18268C11.4526 0.533287 10.9254 0.00282909 10.2764 0H10.2692C6.52924 0 3.19347 2.80623 2.67798 6.31832C2.65741 6.45845 2.79594 6.56575 2.931 6.52306C3.48158 6.34902 4.052 6.26041 4.63165 6.2591L4.63689 6.25908C4.9258 6.25908 5.16987 6.48485 5.19244 6.77307C5.20187 6.92519 5.14813 7.07428 5.04506 7.18398C4.94199 7.29363 4.79659 7.35652 4.64617 7.35652C2.08876 7.35917 0.0060343 9.44252 0.00337398 12.0007L0.00329797 12.0049C-0.04978 13.4093 0.540358 14.7737 1.59048 15.6979C1.67473 15.7721 1.8037 15.7517 1.8707 15.6616C2.62395 14.6493 3.8073 14.0503 5.07813 14.0487C5.73097 14.0487 6.26136 13.5182 6.26136 12.8661C6.26106 12.7198 6.31791 12.5821 6.42136 12.4784C6.52481 12.3748 6.66238 12.3177 6.80878 12.3177L6.83804 12.318C7.13455 12.3388 7.3622 12.588 7.35627 12.8853C7.35341 13.2436 7.26579 13.5936 7.10117 13.9095C7.06049 13.9875 7.07125 14.0839 7.13341 14.1462L7.84858 14.8635C8.04727 15.0807 8.03982 15.4137 7.83163 15.6217C7.72811 15.7251 7.59053 15.7821 7.44414 15.7821C7.30664 15.7821 7.17507 15.7309 7.07367 15.6378L7.0701 15.6344L6.25315 14.8172C5.8988 15.0323 5.49458 15.1458 5.07835 15.1461C3.57261 15.1532 2.33191 16.2899 2.19282 17.7902C2.05411 19.2867 3.05934 20.6293 4.53262 20.9178C4.53281 20.9178 4.53301 20.9178 4.53321 20.9178C4.53487 20.9178 4.53624 20.9165 4.53631 20.9149C4.56551 20.2323 4.77035 19.5637 5.1289 18.9814C5.48941 18.3961 5.99753 17.9104 6.59846 17.5768C6.67972 17.5319 6.77131 17.5082 6.86343 17.5082C7.06333 17.5082 7.2475 17.6169 7.34404 17.7918C7.49028 18.0567 7.39374 18.3912 7.12893 18.5374C5.96774 19.181 5.38847 20.5287 5.72048 21.8146C6.05249 23.1004 7.21155 23.9989 8.53913 23.9997ZM21.0688 6.52336C21.2039 6.56608 21.3425 6.45872 21.3219 6.31854C20.8049 2.80601 17.4689 0 13.7295 0H13.7224C13.0739 0.00282909 12.5464 0.533316 12.5472 1.18255V7.77885C12.5472 7.88982 12.6419 7.97849 12.7506 7.95643C13.4856 7.80728 14.0399 7.15488 14.0473 6.38736C14.0438 6.10003 14.2584 5.85821 14.5465 5.82736L14.552 5.8269C14.5673 5.82599 14.5827 5.82594 14.598 5.82671C14.7435 5.82756 14.8796 5.88438 14.982 5.9869C15.084 6.08894 15.1424 6.23023 15.1422 6.37454C15.1434 6.74825 15.0656 7.12024 14.9158 7.46229C14.8828 7.53769 14.8965 7.62637 14.9547 7.68459L15.8525 8.58272C16.0581 8.79998 16.0535 9.13587 15.842 9.34739C15.7385 9.45096 15.6008 9.508 15.4544 9.508C15.3136 9.508 15.1798 9.4547 15.0776 9.35791L15.0754 9.35579L14.1694 8.45146C13.7611 8.79517 13.2589 9.01035 12.7297 9.06947C12.6279 9.08083 12.5472 9.1643 12.5472 9.26666V21.0881C12.5482 22.5128 13.5681 23.7201 14.9724 23.9586C15.1341 23.9861 15.2988 24 15.4619 24C16.6963 24 17.8002 23.2162 18.2089 22.0496C18.68 20.705 18.1176 19.2278 16.8716 18.5373C16.7432 18.4666 16.6497 18.3498 16.6087 18.2086C16.5678 18.0674 16.5843 17.9186 16.6552 17.7898C16.7519 17.614 16.9368 17.5047 17.1377 17.5047C17.2299 17.5047 17.3215 17.5284 17.4026 17.573C18.0039 17.9067 18.5121 18.3923 18.8725 18.9775C19.231 19.5594 19.4357 20.2275 19.4651 20.9102C19.4652 20.9121 19.4668 20.9136 19.4687 20.9136C19.4689 20.9136 19.4691 20.9136 19.4694 20.9135C20.939 20.6219 21.9412 19.2794 21.802 17.7859C21.6625 16.2886 20.4236 15.1526 18.9203 15.1433L18.9164 15.1432C18.6214 15.1313 18.3903 14.8907 18.3903 14.5953C18.3903 14.3 18.6214 14.0593 18.9164 14.0474L18.9211 14.0473C20.1921 14.0486 21.3755 14.6476 22.1286 15.6602C22.1956 15.7502 22.3246 15.7707 22.4088 15.6966C23.4593 14.7723 24.0496 13.4079 23.9967 12.0035L23.9967 11.9993C23.9936 9.44112 21.9106 7.35776 19.3532 7.35511C19.2027 7.35511 19.0574 7.29222 18.9543 7.18257C18.8512 7.07287 18.7974 6.92377 18.8067 6.7735C18.8303 6.48407 19.0743 6.25907 19.3623 6.25907L19.3695 6.25911C19.9483 6.26062 20.5188 6.34941 21.0688 6.52336Z" fill="#736AE1"/>
</svg>
