<svg width="24" height="25" viewBox="0 0 24 25" fill="none" xmlns="http://www.w3.org/2000/svg">
<path fill-rule="evenodd" clip-rule="evenodd" d="M18.2188 10.331L20.4543 11.9419L23.7384 8.48496C21.0817 7.07224 24.1425 8.69985 21.4857 7.28711L18.2188 10.331Z" fill="#00562F"/>
<path fill-rule="evenodd" clip-rule="evenodd" d="M17.8125 9.02049L20.048 10.6313L23.3321 7.17444C20.6754 5.7617 23.7362 7.38931 21.0795 5.97656L17.8125 9.02049Z" fill="#00562F"/>
<path fill-rule="evenodd" clip-rule="evenodd" d="M17.5781 8.13182L19.8137 9.7427L23.0977 6.28577C20.441 4.87303 23.5018 6.50064 20.8451 5.08789L17.5781 8.13182Z" fill="#00562F"/>
<path fill-rule="evenodd" clip-rule="evenodd" d="M15.4466 17.7665L13.5938 16.6504L15.9925 17.1044L15.4466 17.7665Z" fill="#782F2E"/>
<path fill-rule="evenodd" clip-rule="evenodd" d="M1.66941 19.7054L1.46875 19.9579L9.33868 24.6986C13.8571 19.1903 18.6977 13.9707 23.9992 9.16396L23.3605 8.91406L23.2505 8.96876L22.3091 9.89828L23.043 9.072L1.66941 19.7054Z" fill="url(#paint0_linear_9994_1728)"/>
<path fill-rule="evenodd" clip-rule="evenodd" d="M0.764861 16.0404C0.591913 16.2105 0.419016 16.3807 0.246094 16.5508C0.664879 17.5803 1.06246 18.6097 1.37664 19.6392C3.99504 21.2055 6.61341 22.7716 9.23178 24.3378C13.922 18.9868 18.9059 13.8884 23.8702 8.8531C23.8264 8.73072 23.7834 8.608 23.7415 8.48484L22.3108 9.89745L23.693 8.34122C23.5643 7.95618 23.4445 7.56729 23.3335 7.17462L22.4442 7.95698L23.2967 7.0432C23.2272 6.79244 23.1613 6.5401 23.0989 6.2863L20.7936 8.60207L23.0386 6.03591C23.0082 5.90725 22.9787 5.77821 22.9501 5.64881C22.552 5.52954 22.154 5.41026 21.7559 5.29102C14.759 8.87412 7.76189 12.4573 0.764861 16.0404Z" fill="#44884C"/>
<path fill-rule="evenodd" clip-rule="evenodd" d="M0.246094 16.5508C2.88263 18.0993 5.51922 19.6479 8.15575 21.1964C13.2341 16.2506 18.159 11.0576 22.9501 5.64881L21.7559 5.29102L0.764861 16.0404L0.246094 16.5508Z" fill="url(#paint1_linear_9994_1728)"/>
<path fill-rule="evenodd" clip-rule="evenodd" d="M0.078125 16.2525C2.72914 17.803 5.38015 19.3533 8.03116 20.9037C13.4098 16.1236 18.4117 10.8182 22.8507 5.30849C20.194 3.89577 17.5373 2.48303 14.8806 1.07031C10.6463 6.84703 5.66972 12.0473 0.078125 16.2525Z" fill="url(#paint2_linear_9994_1728)"/>
<path fill-rule="evenodd" clip-rule="evenodd" d="M0 15.7269C2.65104 17.2773 5.30202 18.8277 7.95303 20.3781C13.5336 15.9597 18.4106 10.785 22.6599 4.93547C20.0033 3.52276 17.3466 2.11001 14.6899 0.697266C10.4556 6.47398 5.59159 11.5217 0 15.7269Z" fill="url(#paint3_linear_9994_1728)"/>
<path fill-rule="evenodd" clip-rule="evenodd" d="M9.23178 24.3358L8.15575 21.1944C5.51922 19.6459 2.88263 18.0974 0.246094 16.5488C0.664879 17.5783 1.06246 18.6078 1.37664 19.6373C3.99504 21.2035 6.61341 22.7696 9.23178 24.3358Z" fill="url(#paint4_linear_9994_1728)"/>
<path fill-rule="evenodd" clip-rule="evenodd" d="M8.15625 21.196L9.23228 24.3374C13.9225 18.9864 18.9064 13.888 23.8707 8.85272C23.8269 8.73034 23.7839 8.60763 23.742 8.48447L22.3113 9.89708L23.6935 8.34084C23.5648 7.9558 23.445 7.56691 23.334 7.17424L22.4447 7.95661L23.2972 7.04282C23.2277 6.79206 23.1618 6.53973 23.0994 6.28592L20.7941 8.60169L23.0391 6.03553C23.0087 5.90688 22.9792 5.77784 22.9506 5.64844C18.1595 11.0572 13.2346 16.2502 8.15625 21.196Z" fill="url(#paint5_linear_9994_1728)"/>
<path fill-rule="evenodd" clip-rule="evenodd" d="M2.40451 14.6923C4.59122 12.8404 6.71389 10.9664 8.66774 8.95736C10.5963 6.97434 12.3545 4.85979 14.0608 2.73231C14.6137 3.02947 15.4227 2.80906 15.8487 2.23438C16.6281 2.64965 17.4065 3.06747 18.1826 3.48216C18.961 3.89799 19.7394 4.31267 20.5189 4.72598C20.0861 5.30654 20.1744 6.019 20.7296 6.31617C19.012 8.4791 17.2423 10.6333 15.3162 12.6672C13.3668 14.7256 11.2532 16.6526 9.07564 18.5596C8.52498 18.2369 7.5914 18.3766 6.99317 18.8647C6.21592 18.412 5.43805 17.9606 4.66145 17.5067C3.88583 17.0534 3.10928 16.5994 2.33203 16.1468C2.928 15.6665 2.95971 15.0131 2.40451 14.6923ZM13.2768 10.3015C14.2982 9.18365 15.2918 8.04466 16.2588 6.89482C16.3047 6.84026 16.388 6.81801 16.4424 6.84758C16.5579 6.91049 16.677 6.97581 16.7936 7.03845C16.8492 7.06832 16.8544 7.13853 16.8094 7.19198C15.8393 8.34492 14.849 9.48678 13.8274 10.6066C13.7771 10.6617 13.6921 10.6761 13.637 10.646C13.5199 10.5817 13.4008 10.5192 13.2858 10.4531C13.2331 10.4228 13.2265 10.3566 13.2768 10.3015ZM11.72 9.3687C12.4744 8.54786 13.2214 7.72517 13.9362 6.88494C14.6513 6.04439 15.3432 5.18835 16.0232 4.32841C16.0886 4.24566 16.2072 4.20924 16.2883 4.25362C16.4587 4.34699 16.6315 4.43833 16.8049 4.53112C16.8853 4.57414 16.9003 4.68293 16.8367 4.76334C16.1525 5.62764 15.462 6.48285 14.7451 7.32582C14.0276 8.16951 13.2837 8.99489 12.529 9.81739C12.4566 9.89628 12.3296 9.92172 12.248 9.87645C12.0781 9.782 11.9057 9.68583 11.7336 9.59107C11.6519 9.54611 11.6497 9.44525 11.72 9.3687ZM6.60795 12.1417C7.24579 11.5523 8.09252 11.1741 8.96232 11.0376C9.82376 10.9025 10.7094 11.0101 11.4141 11.4076C12.1234 11.8012 12.5187 12.4112 12.5811 13.0746C12.6433 13.7357 12.3636 14.4503 11.7359 15.0545C11.0946 15.6547 10.2198 16.0315 9.32486 16.1487C8.43197 16.2657 7.51887 16.129 6.80961 15.7217C6.10265 15.3143 5.72987 14.7121 5.69702 14.0685C5.66415 13.425 5.97008 12.7311 6.60795 12.1417Z" fill="url(#paint6_linear_9994_1728)"/>
<path fill-rule="evenodd" clip-rule="evenodd" d="M6.46094 10.1492L14.5108 14.7176L15.4467 17.77C16.235 16.9176 17.0434 16.0652 17.884 15.2129L16.9377 12.1623L8.88376 7.67578C8.09351 8.51515 7.28385 9.33789 6.46094 10.1492Z" fill="url(#paint7_linear_9994_1728)"/>
<path fill-rule="evenodd" clip-rule="evenodd" d="M16.9347 12.1621C16.1396 13.0429 15.3297 13.8922 14.5084 14.7169C14.5082 14.7171 14.508 14.7173 14.5078 14.7175L14.5272 14.7806L15.3891 17.5918L15.4204 17.6941L15.4437 17.7698C16.232 16.9175 17.0404 16.0651 17.881 15.2128L17.8521 15.1197L17.8266 15.0376L16.9543 12.2255L16.9347 12.1621Z" fill="url(#paint8_linear_9994_1728)"/>
<path fill-rule="evenodd" clip-rule="evenodd" d="M8.2866 8.30048C10.9628 9.81344 13.639 11.3264 16.3152 12.8394C16.5227 12.6157 16.7294 12.39 16.935 12.1623L8.88107 7.67578C8.6841 7.88501 8.48586 8.09322 8.2866 8.30048ZM15.127 14.1183C12.449 12.5946 9.77083 11.0709 7.09276 9.54721C6.88825 9.75211 6.68279 9.95624 6.47656 10.1596L14.5264 14.728L14.527 14.7274C14.7277 14.5259 14.9277 14.3228 15.127 14.1183Z" fill="url(#paint9_linear_9994_1728)"/>
<path fill-rule="evenodd" clip-rule="evenodd" d="M16.3451 12.8564C16.6528 13.851 16.9604 14.8455 17.2679 15.8401C17.4705 15.631 17.6748 15.4218 17.881 15.2128L16.9347 12.1621C16.729 12.3899 16.5224 12.6156 16.3149 12.8393C16.325 12.845 16.3351 12.8507 16.3451 12.8564ZM16.0495 17.1192C15.7419 16.1189 15.4344 15.1185 15.1267 14.1181C15.1206 14.1147 15.1145 14.1112 15.1084 14.1078L14.5078 14.7175L15.4437 17.7698C15.6442 17.553 15.8461 17.3361 16.0495 17.1192Z" fill="url(#paint10_linear_9994_1728)"/>
<path opacity="0.5" fill-rule="evenodd" clip-rule="evenodd" d="M3.01562 18.4844L8.24465 21.4549L14.3083 15.4082L8.3251 21.6898L3.01562 18.4844Z" fill="#1F3F37"/>
<path opacity="0.5" fill-rule="evenodd" clip-rule="evenodd" d="M6.16406 20.9585L8.51268 22.2377L11.9337 18.8477L8.598 22.4868L6.16406 20.9585Z" fill="#1F3F37"/>
<path opacity="0.5" fill-rule="evenodd" clip-rule="evenodd" d="M4.29688 20.7746L8.90649 23.3922L13.8914 17.7441L8.99875 23.6616L4.29688 20.7746Z" fill="#1F3F37"/>
<defs>
<linearGradient id="paint0_linear_9994_1728" x1="1.46875" y1="16.8063" x2="23.9992" y2="16.8063" gradientUnits="userSpaceOnUse">
<stop stop-color="#23732C"/>
<stop offset="1" stop-color="#1D6126"/>
</linearGradient>
<linearGradient id="paint1_linear_9994_1728" x1="0.246094" y1="13.2437" x2="22.9501" y2="13.2437" gradientUnits="userSpaceOnUse">
<stop stop-color="#28802E"/>
<stop offset="1" stop-color="#1C5C25"/>
</linearGradient>
<linearGradient id="paint2_linear_9994_1728" x1="0.078125" y1="10.987" x2="22.8507" y2="10.987" gradientUnits="userSpaceOnUse">
<stop stop-color="#2C8A30"/>
<stop offset="1" stop-color="#227028"/>
</linearGradient>
<linearGradient id="paint3_linear_9994_1728" x1="0" y1="10.5377" x2="22.6599" y2="10.5377" gradientUnits="userSpaceOnUse">
<stop stop-color="#309631"/>
<stop offset="1" stop-color="#51B850"/>
</linearGradient>
<linearGradient id="paint4_linear_9994_1728" x1="0.246094" y1="20.4423" x2="9.23178" y2="20.4423" gradientUnits="userSpaceOnUse">
<stop stop-color="#247829"/>
<stop offset="1" stop-color="#2C8A30"/>
</linearGradient>
<linearGradient id="paint5_linear_9994_1728" x1="8.15625" y1="14.9929" x2="23.8707" y2="14.9929" gradientUnits="userSpaceOnUse">
<stop stop-color="#277A2D"/>
<stop offset="1" stop-color="#216E27"/>
</linearGradient>
<linearGradient id="paint6_linear_9994_1728" x1="2.33203" y1="10.5495" x2="20.7296" y2="10.5495" gradientUnits="userSpaceOnUse">
<stop stop-color="#74D461"/>
<stop offset="1" stop-color="#95EB88"/>
</linearGradient>
<linearGradient id="paint7_linear_9994_1728" x1="6.46094" y1="12.7229" x2="17.884" y2="12.7229" gradientUnits="userSpaceOnUse">
<stop stop-color="#F8FAFF"/>
<stop offset="0.41575" stop-color="#E8EFFC"/>
<stop offset="1" stop-color="#CDDBF7"/>
</linearGradient>
<linearGradient id="paint8_linear_9994_1728" x1="11.375" y1="12.9362" x2="17.1445" y2="15.0409" gradientUnits="userSpaceOnUse">
<stop stop-color="#D5DCEB"/>
<stop offset="0.37935" stop-color="#C5CDE1"/>
<stop offset="1" stop-color="#A5AFCC"/>
</linearGradient>
<linearGradient id="paint9_linear_9994_1728" x1="6.47656" y1="11.2019" x2="16.935" y2="11.2019" gradientUnits="userSpaceOnUse">
<stop stop-color="#CC5AB9"/>
<stop offset="1" stop-color="#AB42BD"/>
</linearGradient>
<linearGradient id="paint10_linear_9994_1728" x1="14.6423" y1="13.0705" x2="17.8227" y2="16.4424" gradientUnits="userSpaceOnUse">
<stop stop-color="#983BA8"/>
<stop offset="1" stop-color="#6B2F61"/>
</linearGradient>
</defs>
</svg>
