<svg width="20" height="20" viewBox="0 0 20 20" fill="none" xmlns="http://www.w3.org/2000/svg">
<path d="M3 18C2.16667 18 1.45833 17.7123 0.875 17.137C0.291667 16.5623 0 15.85 0 15C0 14.1667 0.291667 13.4583 0.875 12.875C1.45833 12.2917 2.16667 12 3 12C3.65 12 4.22933 12.1873 4.738 12.562C5.246 12.9373 5.6 13.4167 5.8 14H6C6.55 14 7.02067 14.1957 7.412 14.587C7.804 14.979 8 15.45 8 16C8 16.55 7.804 17.021 7.412 17.413C7.02067 17.8043 6.55 18 6 18H3ZM7.9 19.5C8.55 19.1667 9.06267 18.6833 9.438 18.05C9.81267 17.4167 10 16.7333 10 16C10 14.95 9.69167 14.0627 9.075 13.338C8.45833 12.6127 7.6 12.1667 6.5 12C6.1 11.35 5.575 10.854 4.925 10.512C4.275 10.1707 3.63333 10 3 10C2.65 10 2.30433 10.0377 1.963 10.113C1.621 10.1877 1.3 10.3 1 10.45C0.933333 9.01667 1.15433 7.66667 1.663 6.4C2.171 5.13333 2.87933 4.025 3.788 3.075C4.696 2.125 5.77067 1.375 7.012 0.825C8.254 0.275 9.58333 0 11 0C10.05 1.66667 9.60433 3.38733 9.663 5.162C9.721 6.93733 10.1707 8.554 11.012 10.012C11.854 11.4707 13.025 12.6667 14.525 13.6C16.025 14.5333 17.7333 15 19.65 15C18.7167 16.5833 17.4917 17.8127 15.975 18.688C14.4583 19.5627 12.8167 20 11.05 20C10.5 20 9.971 19.9623 9.463 19.887C8.95433 19.8123 8.43333 19.6833 7.9 19.5Z" fill="#EC407A"/>
</svg>
