<svg width="24" height="25" viewBox="0 0 24 25" fill="none" xmlns="http://www.w3.org/2000/svg">
<path d="M11.9804 3.73828C15.2904 3.73828 17.9804 6.42828 17.9804 9.73828V12.6283C17.9804 13.2383 18.2404 14.1683 18.5504 14.6883L19.7004 16.5983C20.4104 17.7783 19.9204 19.0883 18.6204 19.5283C14.3104 20.9683 9.6604 20.9683 5.3504 19.5283C4.1404 19.1283 3.6104 17.6983 4.2704 16.5983L5.4204 14.6883C5.7204 14.1683 5.9804 13.2383 5.9804 12.6283V9.73828C5.9804 6.43828 8.6804 3.73828 11.9804 3.73828Z" stroke="#EC407A" stroke-width="1.5" stroke-miterlimit="10" stroke-linecap="round"/>
<path d="M10.1301 4.02855C10.4401 3.93855 10.7601 3.86855 11.0901 3.82855C12.0501 3.70855 12.9701 3.77855 13.8301 4.02855C13.5401 3.28855 12.8201 2.76855 11.9801 2.76855C11.1401 2.76855 10.4201 3.28855 10.1301 4.02855Z" stroke="#EC407A" stroke-width="1.5" stroke-miterlimit="10" stroke-linecap="round" stroke-linejoin="round"/>
<path d="M8.98047 19.8877C8.98047 21.5377 10.3305 22.8877 11.9805 22.8877C12.8005 22.8877 13.5605 22.5477 14.1005 22.0077C14.6405 21.4677 14.9805 20.7077 14.9805 19.8877" stroke="#EC407A" stroke-width="1.5" stroke-miterlimit="10"/>
</svg>
