<svg width="25" height="24" viewBox="0 0 25 24" fill="none" xmlns="http://www.w3.org/2000/svg">
<path d="M18.8302 7.16C18.7702 7.15 18.7002 7.15 18.6402 7.16C17.2602 7.11 16.1602 5.98 16.1602 4.58C16.1602 3.15 17.3102 2 18.7402 2C20.1702 2 21.3202 3.16 21.3202 4.58C21.3102 5.98 20.2102 7.11 18.8302 7.16Z" stroke="#938F94" stroke-width="1.5" stroke-linecap="round" stroke-linejoin="round"/>
<path d="M17.7995 14.4402C19.1695 14.6702 20.6795 14.4302 21.7395 13.7202C23.1495 12.7802 23.1495 11.2402 21.7395 10.3002C20.6695 9.59016 19.1395 9.35016 17.7695 9.59016" stroke="#938F94" stroke-width="1.5" stroke-linecap="round" stroke-linejoin="round"/>
<path d="M6.8025 7.16C6.8625 7.15 6.9325 7.15 6.9925 7.16C8.3725 7.11 9.4725 5.98 9.4725 4.58C9.4725 3.15 8.3225 2 6.8925 2C5.4625 2 4.3125 3.16 4.3125 4.58C4.3225 5.98 5.4225 7.11 6.8025 7.16Z" stroke="#938F94" stroke-width="1.5" stroke-linecap="round" stroke-linejoin="round"/>
<path d="M7.83344 14.4402C6.46344 14.6702 4.95344 14.4302 3.89344 13.7202C2.48344 12.7802 2.48344 11.2402 3.89344 10.3002C4.96344 9.59016 6.49343 9.35016 7.86343 9.59016" stroke="#938F94" stroke-width="1.5" stroke-linecap="round" stroke-linejoin="round"/>
<path d="M12.8302 14.6307C12.7702 14.6207 12.7002 14.6207 12.6402 14.6307C11.2602 14.5807 10.1602 13.4507 10.1602 12.0507C10.1602 10.6207 11.3102 9.4707 12.7402 9.4707C14.1702 9.4707 15.3202 10.6307 15.3202 12.0507C15.3102 13.4507 14.2102 14.5907 12.8302 14.6307Z" stroke="#938F94" stroke-width="1.5" stroke-linecap="round" stroke-linejoin="round"/>
<path d="M9.92078 17.7813C8.51078 18.7213 8.51078 20.2613 9.92078 21.2013C11.5208 22.2713 14.1408 22.2713 15.7408 21.2013C17.1508 20.2613 17.1508 18.7213 15.7408 17.7813C14.1508 16.7213 11.5208 16.7213 9.92078 17.7813Z" stroke="#938F94" stroke-width="1.5" stroke-linecap="round" stroke-linejoin="round"/>
</svg>
