<svg width="12" height="13" viewBox="0 0 12 13" fill="none" xmlns="http://www.w3.org/2000/svg">
<mask id="mask0_4745_39784" style="mask-type:alpha" maskUnits="userSpaceOnUse" x="0" y="0" width="12" height="13">
<rect y="0.5" width="12" height="12" fill="#D9D9D9"/>
</mask>
<g mask="url(#mask0_4745_39784)">
<path d="M6 11.25C4.89167 11.25 3.94792 10.8667 3.16875 10.1C2.38958 9.33333 2 8.4 2 7.3C2 6.775 2.10208 6.27292 2.30625 5.79375C2.51042 5.31458 2.8 4.89167 3.175 4.525L6 1.75L8.825 4.525C9.2 4.89167 9.48958 5.31458 9.69375 5.79375C9.89792 6.27292 10 6.775 10 7.3C10 8.4 9.61042 9.33333 8.83125 10.1C8.05208 10.8667 7.10833 11.25 6 11.25Z" fill="#EF137E"/>
</g>
</svg>
