<svg width="112" height="98" viewBox="0 0 112 98" fill="none" xmlns="http://www.w3.org/2000/svg">
<g clip-path="url(#clip0_325_28522)">
<path d="M58.0366 89.0732C77.9391 89.0732 94.0733 72.9391 94.0733 53.0366C94.0733 33.1341 77.9391 17 58.0366 17C38.1342 17 22 33.1341 22 53.0366C22 72.9391 38.1342 89.0732 58.0366 89.0732Z" fill="black" fill-opacity="0.1"/>
<mask id="mask0_325_28522" style="mask-type:alpha" maskUnits="userSpaceOnUse" x="0" y="0" width="112" height="98">
<path d="M96 0H16C7.16344 0 0 7.16344 0 16V82C0 90.8366 7.16344 98 16 98H96C104.837 98 112 90.8366 112 82V16C112 7.16344 104.837 0 96 0Z" fill="#F0F0F0"/>
</mask>
<g mask="url(#mask0_325_28522)">
<path d="M43.2919 41.4514C43.2919 41.4514 34.1391 47.2039 32.9746 78.9708C32.9746 78.9708 36.3283 82.441 42.5233 74.3129C48.7183 66.2082 51.3035 39.6814 51.3035 39.6814L43.2919 41.4514Z" fill="#FFB27D"/>
<path d="M31.4375 216.425L35.42 217.916C35.42 217.916 52.7008 193.951 54.8202 172.874C55.1928 169.101 55.0764 165.468 54.2612 162.091C54.2612 162.091 54.4243 161.136 54.727 159.413C54.8668 158.621 55.0298 157.666 55.2161 156.571C55.7751 153.357 56.5436 148.956 57.4286 143.948C59.4548 132.42 62.0865 117.678 64.136 106.825L63.0647 106.476L51.4665 102.726L49.0677 95.1103L40.4273 92.8279C40.4273 92.8279 38.4942 96.6008 36.7708 114.417C36.4448 116.746 36.1653 119.331 35.9557 122.126C35.2803 130.65 35.2337 141.247 36.7708 153.334C37.1667 156.432 37.6558 159.622 38.2846 162.906C38.7504 165.305 38.797 168.589 38.6107 172.362C37.7723 189.642 31.4375 216.425 31.4375 216.425Z" fill="#2B478B"/>
<path d="M35.9551 122.149L54.7031 159.413C54.8429 158.621 55.0059 157.666 55.1922 156.571C55.7512 153.357 56.5197 148.956 57.4047 143.948C59.4309 132.42 62.0626 117.678 64.1121 106.825L63.0408 106.476L51.4426 102.726L49.0438 95.1103L40.4034 92.8279C40.4034 92.8279 38.4704 96.6008 36.7469 114.417C36.4675 116.77 36.188 119.355 35.9551 122.149Z" fill="#233862"/>
<path d="M44.1992 97.6256L44.6417 93.8993C51.9081 95.8323 71.3315 88.4961 71.3315 88.4961C71.3315 88.4961 78.365 94.6911 77.4567 109.527C77.0142 116.77 76.1757 147.558 75.314 156.665C75.0113 159.972 74.7318 162.324 74.6153 163.255C74.592 163.535 74.6852 163.814 74.825 164.071C76.0826 166.213 77.1539 168.472 77.9923 170.755C86.4464 193.276 76.6881 221.014 76.6881 221.014L74.1495 219.989C74.1495 219.989 68.6067 189.13 64.0885 175.482C63.3199 173.177 62.5979 171.36 61.9225 170.266C59.9662 167.098 58.1497 161.928 56.4961 155.78C53.3753 144.158 50.86 129.02 49.1832 117.352C48.9736 117.375 44.1992 97.6256 44.1992 97.6256Z" fill="#2B478B"/>
<path d="M72.7978 41.3814C72.7978 41.4047 72.7745 41.428 72.7745 41.4513C70.888 46.7147 67.1151 53.6317 60.1283 54.7962C58.0089 55.1455 55.5868 54.9592 52.8153 54.0276C49.648 52.9563 47.1793 51.5123 45.2695 49.8821C47.9245 44.1761 51.1618 39.8909 51.3015 39.7046C51.3015 39.7046 51.7673 39.6347 52.5126 39.5648C53.0016 39.0757 53.188 36.9331 53.2346 34.674C53.3044 31.7861 53.1647 28.6886 53.1647 28.6886L62.9929 27.0351L63.5751 26.9419C63.4819 29.9462 63.7381 32.4848 64.1806 34.511C64.4834 35.9316 64.8793 37.0961 65.2985 37.9345C65.6013 38.5634 65.9041 39.0059 66.2068 39.2853C67.022 39.7511 67.8371 39.7977 68.7454 39.7511C69.6537 39.7045 71.1442 40.3101 72.7046 41.4047C72.7745 41.3581 72.7745 41.3581 72.7978 41.3814Z" fill="#FFB27D"/>
<path d="M72.7517 41.358C71.1913 40.2634 69.7007 39.7743 68.7925 39.7044C67.954 39.6578 67.0457 39.5181 66.2539 39.2386C66.2073 39.1921 66.184 39.1688 66.1374 39.1222C66.1142 39.0989 66.0909 39.0756 66.0676 39.0523C66.0443 39.029 66.021 39.0057 65.9977 38.9824C65.9744 38.9591 65.9511 38.9359 65.9279 38.9126C65.9046 38.8893 65.8813 38.866 65.858 38.8194C65.8347 38.7961 65.8114 38.7728 65.7881 38.7263C65.7648 38.703 65.7415 38.6564 65.7182 38.6098C65.695 38.5865 65.6717 38.5632 65.6717 38.5166C65.6484 38.4701 65.6251 38.4235 65.6018 38.4002C65.5785 38.3769 65.5785 38.3536 65.5552 38.307C65.5319 38.2838 65.5319 38.2372 65.5086 38.2139C65.4388 38.0974 65.3922 37.981 65.3223 37.8645C64.9031 37.0261 64.5072 35.8616 64.2044 34.441C60.7343 33.3697 56.4723 32.7408 54.2132 33.4628C54.2132 33.4628 57.2408 34.1382 57.3806 37.0028C57.5203 39.9606 55.5174 49.9751 49.9978 50.1148C46.3414 50.208 53.4214 53.9809 60.1055 54.7727C67.0923 53.6315 70.8652 46.6913 72.7517 41.4278C72.775 41.4278 72.775 41.3813 72.7517 41.358Z" fill="#ED985F"/>
<path d="M78.6906 94.9242C78.7139 96.4147 78.4577 97.7422 77.8056 98.7902C76.4548 103.215 37.2585 98.5806 39.4478 93.9227C39.4478 93.9227 41.3808 65.1369 40.1697 57.7308C40.1231 57.4513 40.0999 57.1951 40.0766 56.9389C39.4478 49.9055 45.8524 44.3393 43.3138 41.4514C43.3138 41.4514 45.6195 40.2636 51.3487 39.6814C51.1857 39.9609 46.784 47.2971 47.11 49.2068C47.4361 51.1631 59.7329 50.8138 60.944 49.7658C61.8989 48.9273 67.6048 43.9667 68.6295 40.5198C68.7926 40.0075 68.8624 39.6814 68.8624 39.6814C68.8624 39.6814 74.8246 40.4965 77.6892 42.709C77.6892 42.709 75.6397 45.1312 74.3122 48.0423C74.1957 48.3218 74.0793 48.6013 73.9629 48.8808C73.73 49.4863 73.5436 50.0918 73.4039 50.6973C73.2409 51.5125 73.4505 52.3276 73.893 53.1893C74.3122 53.9812 74.941 54.8429 75.663 55.7512C75.8959 56.0539 76.0356 56.1005 76.1754 56.1704C76.3151 56.2402 76.4548 56.3101 76.7343 56.6362C75.7794 60.246 74.3355 67.1165 73.2409 73.6375C72.9614 75.2911 73.0778 76.9679 73.5203 78.5516C73.7067 79.1804 73.9396 79.8093 74.219 80.3915C75.9657 84.0247 78.644 90.243 78.6906 94.9242Z" fill="#80558C"/>
<path d="M74.0093 10.1038C74.312 9.66129 77.8287 4.98009 85.4677 9.52155C85.4677 9.52155 81.5085 7.58853 79.8316 8.79958C79.8316 8.79958 83.6278 8.40366 85.2581 10.36C86.8884 12.3163 85.7938 16.6482 85.0485 17.8359C84.3032 19.0237 80.7399 22.0746 79.2261 21.5622C78.6672 21.3759 78.1082 20.98 77.6657 20.5608C77.6657 21.3293 77.6191 22.1212 77.526 23.0062C76.5711 31.0644 69.6308 35.0702 67.5348 32.7645C66.184 31.2973 63.9482 33.766 63.9482 33.766L56.4024 10.8956C56.3791 10.9189 69.8637 2.67443 74.0093 10.1038Z" fill="#2C3A64"/>
<path d="M68.9555 21.3292C68.4665 23.565 67.2554 26.2433 66.1608 29.4339C64.3675 34.6974 58.0094 34.2549 54.2365 33.463C52.5597 33.1137 51.3719 32.6945 51.3719 32.6945C48.2744 31.367 51.2555 18.0686 52.746 15.7397C54.2365 13.4107 56.7518 11.0119 64.4141 14.1327C68.8857 15.926 69.6309 18.2317 68.9555 21.3292Z" fill="#FFB27D"/>
<path d="M68.1868 22.0037C67.7909 24.2395 66.8128 26.9178 65.9511 30.1085C64.5071 35.3719 59.4067 34.9294 56.4023 34.1376C62.5508 32.9964 60.6876 18.4637 60.6876 18.4637C63.0864 17.7184 65.8812 19.2556 68.1868 22.0037Z" fill="#ED985F"/>
<path d="M78.6912 94.9245C65.6025 95.7396 57.4512 69.0731 57.4512 69.0731C57.4512 69.0731 70.5865 56.4968 75.6403 55.7748C75.8732 56.0775 76.0129 56.1241 76.1526 56.194C76.2924 56.2639 76.4321 56.3337 76.7116 56.6598C75.7567 60.2697 74.3128 67.1401 73.2182 73.6611C72.9387 75.3147 73.0552 76.9915 73.4977 78.5752C73.684 79.204 73.9169 79.8329 74.1963 80.4151C75.9664 84.025 78.6446 90.2433 78.6912 94.9245Z" fill="#674072"/>
<path d="M68.3035 83.2559C67.0459 83.3257 65.0663 83.3257 63.9018 82.9531C63.9018 82.9531 67.535 82.7202 66.7198 81.6023C66.5568 81.3927 64.7635 81.6489 62.7373 81.7653C61.8989 81.8119 59.8494 83.4422 59.9659 83.512C58.4986 83.3956 57.2177 82.7901 56.7752 82.7202C56.6588 82.6969 56.6122 82.6736 56.6122 82.6736L55.5176 86.5164C55.5176 86.5164 55.7971 86.563 56.2861 86.6329C57.4972 86.8657 60.0125 87.3781 62.4113 88.1467C65.7417 89.2646 68.0706 87.5411 69.0954 86.3301C69.7475 85.5615 70.2366 84.5834 70.1667 83.8847C70.0735 83.1161 69.0721 83.2093 68.3035 83.2559Z" fill="#FFB27D"/>
<path d="M62.9934 38.4935C62.9934 38.4935 67.8842 33.5329 67.8842 31.6464C67.8842 29.76 66.9526 24.2636 66.0211 24.7294C65.0662 25.1952 61.9687 32.0889 61.829 31.693C61.6892 31.3204 62.4811 29.8997 62.3646 29.2243C62.318 28.9448 61.7591 27.8269 61.2234 29.0613C60.7344 30.1559 59.6863 31.5765 59.6164 32.7643C59.5466 33.9288 60.4316 35.3029 59.5 37.5154L62.9934 38.4935Z" fill="#FFB27D"/>
<path d="M54.5637 11.6173C57.242 9.96371 58.4997 10.9652 59.0586 11.92C67.0003 10.5227 69.469 17.4397 69.469 17.4397C68.421 23.1922 71.3089 27.6871 71.3089 27.6871C71.3089 27.6871 68.6073 28.3159 63.9028 25.2417C62.4589 24.3101 61.4341 22.7031 60.7122 20.9331C61.5972 25.1252 63.5767 28.6186 63.5767 28.6186C58.3832 23.6813 58.8257 14.2956 58.8956 13.2941C57.9174 13.7133 55.9378 14.6682 55.0062 15.9491C53.7253 17.6958 52.095 21.5852 50.9771 21.0495C51.0004 21.0495 50.5579 14.086 54.5637 11.6173Z" fill="#2C3A64"/>
<path d="M32.9746 78.971C32.9746 78.971 34.7446 84.3509 58.5232 87.0758L59.9671 83.4892C59.9671 83.4892 45.5975 77.7832 37.9585 71.9609C36.3283 70.7265 32.9746 78.971 32.9746 78.971Z" fill="#FFB27D"/>
<path d="M79.8794 51.2323C77.1312 57.1246 71.1691 64.2046 65.1837 69.6543C63.4603 71.2147 61.7602 72.6587 60.1066 73.8697C55.1925 77.5495 50.9073 79.436 49.277 77.7591C47.67 76.1521 56.2638 60.6879 61.7835 52.2571C62.4821 51.1857 63.1343 50.2309 63.7165 49.439C65.207 47.3896 66.6277 45.8292 67.8853 44.688C71.0061 41.8466 73.2419 41.3576 73.2419 41.3576C83.0235 40.8219 79.8794 51.2323 79.8794 51.2323Z" fill="#FFB27D"/>
<path d="M59.9664 68.3043C58.7321 64.7643 59.9432 57.9172 61.783 52.2811C62.4817 51.2098 63.1338 50.2549 63.7161 49.4631C65.2066 47.4136 66.6272 45.8532 67.8849 44.712C69.3754 52.4907 59.9664 68.3043 59.9664 68.3043Z" fill="#F8A871"/>
<path d="M63.0164 38.2369C63.0164 38.2369 62.7369 46.202 62.0382 54.3067C61.3861 61.8525 61.5258 72.752 59.9655 73.9864C52.2333 80.1115 49.2756 77.7826 49.2756 77.7826C46.6904 66.557 59.7792 36.793 59.7792 36.793C61.6656 35.6052 63.0164 38.2369 63.0164 38.2369Z" fill="#FFB27D"/>
<path d="M66.3008 46.272C66.3008 46.272 68.7229 59.0114 74.1959 62.1089C74.1959 62.1089 85.8873 48.2284 78.225 42.0799C78.225 42.0799 74.4055 39.7044 68.816 39.7044L66.3008 46.272Z" fill="#80558C"/>
<path d="M43.2915 41.4507C43.2915 41.4507 39.6583 43.2673 36.9102 49.3226C36.9102 49.3226 38.4938 52.6996 41.5681 53.1188C44.6423 53.538 44.9916 42.4988 43.2915 41.4507Z" fill="#80558C"/>
<path d="M40.4263 73.7068C40.4263 73.7068 39.0755 72.915 37.3287 72.6122C35.582 72.3094 40.1468 65.6486 40.4263 63.4361C40.7057 61.2236 40.4263 73.7068 40.4263 73.7068Z" fill="#F8A871"/>
</g>
<path d="M100.854 91.0403L109 84.8911C109.738 84.334 109.884 83.288 109.327 82.55L94.8323 63.3481C94.2752 62.6101 93.2292 62.464 92.4912 63.0211L84.345 69.1703C83.607 69.7274 83.4609 70.7734 84.0179 71.5114L98.5126 90.7133C99.0697 91.4513 100.116 91.5974 100.854 91.0403Z" fill="#F2F2F2"/>
<path d="M101.746 83.7505C102.115 83.472 102.188 82.949 101.909 82.58L89.0748 65.5779L87.7266 66.5956L100.561 83.5977C100.854 83.956 101.377 84.0291 101.746 83.7505Z" fill="#E6E6E6"/>
<g opacity="0.3">
<path d="M100.709 83.2631L87.9814 66.4029L87.7402 66.585L100.575 83.5871C100.853 83.9561 101.376 84.0292 101.745 83.7506C101.944 83.6007 102.05 83.3869 102.081 83.1628C101.791 83.6047 101.127 83.8166 100.709 83.2631Z" fill="#E6E6E6"/>
</g>
<path d="M92.6869 65.3157C92.0774 65.7464 91.9323 66.5897 92.363 67.1993C92.7936 67.8088 93.6369 67.9539 94.2465 67.5232C94.8561 67.0925 95.0011 66.2493 94.5704 65.6397C94.1398 65.0301 93.2965 64.8851 92.6869 65.3157Z" fill="#FF4444"/>
<g opacity="0.3">
<path d="M92.1484 66.109C92.7761 65.5238 93.7749 65.3713 94.4391 66.2513C94.5998 66.4641 94.6965 66.6808 94.7434 66.8904C94.8914 66.4668 94.8437 65.9904 94.5545 65.6072C94.1045 65.0111 93.2578 64.8928 92.6617 65.3428C92.392 65.5463 92.2151 65.8136 92.1484 66.109Z" fill="#FF4444"/>
</g>
<path d="M86.5659 69.9513C85.9648 70.3938 85.8363 71.2398 86.2788 71.8408C86.7213 72.4418 87.5672 72.5703 88.1682 72.1278C88.7692 71.6854 88.8978 70.8394 88.4553 70.2384C88.0128 69.6374 87.1669 69.5089 86.5659 69.9513Z" fill="#FF4444"/>
<path opacity="0.3" d="M86.2188 70.2953C86.8436 69.9129 87.6436 69.9104 88.2114 70.6626C88.4578 70.989 88.562 71.3336 88.5559 71.6502C88.7821 71.212 88.759 70.6502 88.4377 70.2244C87.9877 69.6284 87.1409 69.5101 86.5449 69.96C86.4171 70.0564 86.3001 70.1671 86.2188 70.2953Z" fill="#FF4444"/>
<path d="M95.5699 68.6872C94.887 68.9885 94.5778 69.7863 94.879 70.4691C95.1803 71.1519 95.9781 71.4612 96.6609 71.1599C97.3437 70.8586 97.653 70.0608 97.3518 69.378C97.0505 68.6952 96.2527 68.3859 95.5699 68.6872Z" fill="#FF4444"/>
<path opacity="0.3" d="M94.9648 69.219C95.5753 68.8472 96.372 68.8697 96.9291 69.6076C97.1862 69.9482 97.2762 70.3036 97.2808 70.6343C97.5603 70.1782 97.5442 69.5666 97.2014 69.1125C96.7514 68.5164 95.9047 68.3981 95.3086 68.8481C95.1667 68.9552 95.0462 69.0907 94.9648 69.219Z" fill="#FF4444"/>
<path d="M90.1948 73.2069C89.4556 73.1037 88.7727 73.6192 88.6694 74.3584C88.5662 75.0975 89.0817 75.7805 89.8209 75.8837C90.56 75.987 91.243 75.4715 91.3462 74.7323C91.4495 73.9931 90.934 73.3102 90.1948 73.2069Z" fill="#FF4444"/>
<g opacity="0.3">
<path d="M90.6899 74.1827C91.0113 74.6085 91.0874 75.0635 91.0069 75.4585C91.4286 74.9842 91.4797 74.255 91.0833 73.7299C90.6333 73.1338 89.7866 73.0155 89.1905 73.4655C89.1054 73.5297 89.0309 73.6082 88.9707 73.676C89.5354 73.4502 90.1972 73.5299 90.6899 74.1827Z" fill="#FF4444"/>
</g>
<path d="M98.2164 72.1923C97.5335 72.4936 97.2242 73.2913 97.5255 73.9742C97.8268 74.657 98.6246 74.9663 99.3074 74.665C99.9902 74.3637 100.3 73.5659 99.9982 72.8831C99.6969 72.2003 98.8992 71.891 98.2164 72.1923Z" fill="#FF4444"/>
<g opacity="0.3">
<path d="M97.4902 72.9487C98.1039 72.4632 99.0283 72.3892 99.639 73.1981C99.8425 73.4678 99.943 73.7484 99.9687 74.0186C100.184 73.5663 100.143 73.0401 99.8221 72.6143C99.3721 72.0182 98.5254 71.9 97.9293 72.3499C97.7413 72.5141 97.5855 72.7208 97.4902 72.9487Z" fill="#FF4444"/>
</g>
<path d="M92.8413 76.7119C92.1021 76.6086 91.4192 77.1241 91.3159 77.8633C91.2127 78.6025 91.7282 79.2854 92.4674 79.3887C93.2065 79.4919 93.8894 78.9764 93.9927 78.2372C94.096 77.4981 93.5805 76.8151 92.8413 76.7119Z" fill="#FF4444"/>
<g opacity="0.3">
<path d="M91.4766 77.3772C92.0837 77.0304 92.8554 77.0493 93.4018 77.7731C93.6696 78.1279 93.7596 78.4833 93.7358 78.8354C94.0687 78.3614 94.0844 77.7034 93.7202 77.2209C93.2702 76.6249 92.4234 76.5066 91.8274 76.9565C91.6962 77.0778 91.5615 77.2241 91.4766 77.3772Z" fill="#FF4444"/>
</g>
<path d="M101.597 75.5952C100.858 75.492 100.175 76.0075 100.072 76.7467C99.9683 77.4858 100.484 78.1688 101.223 78.272C101.962 78.3753 102.645 77.8598 102.749 77.1206C102.852 76.3814 102.336 75.6985 101.597 75.5952Z" fill="#FF4444"/>
<g opacity="0.3">
<path d="M100.338 76.1018C100.945 75.7549 101.717 75.7739 102.263 76.4977C102.52 76.8383 102.621 77.2078 102.612 77.5493C102.838 77.1111 102.801 76.56 102.479 76.1343C102.029 75.5382 101.182 75.4199 100.586 75.8699C100.501 75.9341 100.413 76.0233 100.338 76.1018Z" fill="#FF4444"/>
</g>
<path d="M94.7593 80.317C94.076 80.6172 93.7654 81.4146 94.0657 82.0979C94.366 82.7812 95.1633 83.0917 95.8466 82.7915C96.5299 82.4912 96.8405 81.6939 96.5402 81.0105C96.24 80.3272 95.4426 80.0167 94.7593 80.317Z" fill="#FF4444"/>
<g opacity="0.3">
<path d="M94.0664 81.0147C94.6873 80.5682 95.5727 80.5014 96.1726 81.2962C96.3868 81.58 96.498 81.8749 96.5203 82.17C96.7607 81.7211 96.7234 81.17 96.3913 80.7301C95.9414 80.134 95.0946 80.0157 94.4985 80.4657C94.2998 80.6156 94.1475 80.7975 94.0664 81.0147Z" fill="#FF4444"/>
</g>
<path d="M105.139 79.6289C104.689 79.0332 103.842 78.9148 103.246 79.3645C102.65 79.8142 102.532 80.6616 102.982 81.2573C103.431 81.853 104.279 81.9714 104.874 81.5217C105.47 81.072 105.589 80.2246 105.139 79.6289Z" fill="#FF4444"/>
<g opacity="0.3">
<path d="M102.904 79.7104C103.515 79.3387 104.315 79.3362 104.883 80.0884C105.14 80.429 105.244 80.7736 105.224 81.1008C105.479 80.6413 105.459 80.0546 105.127 79.6146C104.677 79.0185 103.83 78.9003 103.234 79.3502C103.103 79.4715 102.986 79.5821 102.904 79.7104Z" fill="#FF4444"/>
</g>
<path d="M99.0219 84.2463C98.5722 83.6506 97.7248 83.5323 97.1291 83.9819C96.5334 84.4316 96.415 85.279 96.8647 85.8747C97.3144 86.4704 98.1618 86.5888 98.7575 86.1391C99.3532 85.6895 99.4716 84.842 99.0219 84.2463Z" fill="#FF4444"/>
<g opacity="0.3">
<path d="M96.6602 84.627C97.1706 84.0635 98.0591 83.8829 98.6376 84.6493C99.0233 85.1602 98.9824 85.7258 98.717 86.1712C98.7312 86.1604 98.7312 86.1604 98.7454 86.1497C99.3415 85.6998 99.4598 84.853 99.0098 84.2569C98.5599 83.6609 97.7131 83.5426 97.117 83.9925C96.9041 84.1532 96.7483 84.36 96.6602 84.627Z" fill="#FF4444"/>
</g>
<path d="M105.03 82.9546C104.298 82.8116 103.588 83.2895 103.445 84.022C103.302 84.7545 103.78 85.4643 104.513 85.6073C105.245 85.7502 105.955 85.2723 106.098 84.5398C106.241 83.8073 105.763 83.0976 105.03 82.9546Z" fill="#FF4444"/>
<g opacity="0.3">
<path d="M103.535 83.734C104.156 83.2875 105.027 83.2315 105.627 84.0262C105.841 84.3101 105.938 84.6156 105.975 84.9C106.215 84.4512 106.192 83.8893 105.86 83.4494C105.41 82.8533 104.563 82.735 103.967 83.185C103.769 83.3349 103.616 83.5168 103.535 83.734Z" fill="#FF4444"/>
</g>
<path d="M100.872 85.5729C100.192 85.8796 99.8889 86.6799 100.196 87.3603C100.502 88.0406 101.303 88.3435 101.983 88.0368C102.663 87.73 102.966 86.9298 102.659 86.2494C102.353 85.5691 101.552 85.2662 100.872 85.5729Z" fill="#FF4444"/>
<g opacity="0.3">
<path d="M100.072 86.7286C100.486 85.9485 101.587 85.5183 102.272 86.4266C102.562 86.8098 102.616 87.2364 102.514 87.603C102.872 87.1324 102.888 86.4745 102.513 85.9777C102.063 85.3817 101.216 85.2634 100.62 85.7133C100.279 85.9704 100.099 86.3515 100.072 86.7286Z" fill="#FF4444"/>
</g>
<path d="M22.7892 66.3104C24.4331 65.978 25.8784 67.3382 26.571 66.6138C27.2493 65.8786 27.7092 64.4056 27.2805 61.3409C26.8518 58.2762 26.018 56.9842 25.1514 56.4651C24.2974 55.9443 23.27 57.6631 21.598 57.7945L20.7617 62.2528L22.7892 66.3104Z" fill="#E6E6E6"/>
<g opacity="0.3">
<path d="M25.5556 66.7686C24.7378 65.5 24.2218 64.0995 23.9823 62.5706C23.5989 60.5625 23.6298 58.586 24.0875 56.6395C23.4371 57.0251 22.6387 57.7258 21.5999 57.8071L20.7637 62.2653L22.7912 66.3229C23.8482 66.0982 24.8118 66.5781 25.5556 66.7686Z" fill="#E6E6E6"/>
</g>
<path d="M15.9697 67.2644C14.2977 67.3958 13.2812 69.1004 12.4163 68.5938C11.5623 68.073 10.7159 66.7827 10.2872 63.718C9.85857 60.6533 10.3058 59.1821 10.9967 58.4452C11.6751 57.71 13.1346 59.0809 14.7785 58.7485L16.806 62.8062L15.9697 67.2644Z" fill="#E6E6E6"/>
<g opacity="0.3">
<path d="M12.2129 58.3519C12.9448 59.5557 13.4234 60.8718 13.6398 62.327C14.0302 64.3854 13.983 66.4282 13.4947 68.4302C14.1451 68.0447 14.9326 67.3582 15.9588 67.2787L16.7951 62.8205L14.7676 58.7629C13.82 58.9466 12.9334 58.5584 12.2129 58.3519Z" fill="#E6E6E6"/>
</g>
<path d="M26.3497 61.4709C26.6625 63.7066 26.4643 65.2198 25.7717 65.9442C25.6152 66.107 25.255 66.0037 24.6797 65.828C24.1314 65.6614 23.463 65.4604 22.7292 65.5246L21.0367 62.2141L21.7558 58.5662C22.4808 58.4392 23.0667 58.0499 23.5482 57.7392C24.0532 57.4125 24.3712 57.2143 24.5664 57.3279C25.433 57.847 26.037 59.2352 26.3497 61.4709ZM26.7265 61.4182C26.3365 58.6298 25.5596 57.4707 24.7646 57.0056C23.9697 56.5406 22.9966 58.0981 21.4394 58.2263L20.6348 62.2703L22.5181 65.9383C24.0507 65.6343 25.4013 66.8668 26.0507 66.1997C26.6876 65.5344 27.1166 64.2066 26.7265 61.4182Z" fill="#F2F2F2"/>
<path d="M16.54 62.8431L15.8209 66.4909C15.0959 66.618 14.51 67.0073 14.0285 67.3179C13.5235 67.6447 13.2055 67.8429 13.0103 67.7293C12.1455 67.2228 11.5415 65.8346 11.227 63.5863C10.9143 61.3506 11.1124 59.8373 11.805 59.113C11.9615 58.9502 12.3217 59.0535 12.897 59.2291C13.4453 59.3957 14.1138 59.5968 14.8475 59.5326L16.54 62.8431ZM16.9293 62.7886L15.046 59.1206C13.5134 59.4246 12.1628 58.1921 11.5134 58.8592C10.8765 59.5246 10.4493 60.8649 10.8376 63.6407C11.2277 66.4291 12.0045 67.5883 12.7995 68.0533C13.5945 68.5184 14.5676 66.9608 16.1248 66.8326L16.9293 62.7886Z" fill="#F2F2F2"/>
<path d="M16.5353 46.4138C18.7584 46.1028 20.5653 46.4775 21.893 47.5468C23.0042 48.4414 23.7373 49.8372 23.8515 51.2939C23.9239 52.2699 23.7085 53.5678 23.4458 55.0772C23.0808 57.2285 22.6648 59.6558 22.9846 61.9417C23.3043 64.2277 24.3722 66.4603 25.3117 68.4162C25.9785 69.7956 26.5418 70.9846 26.7399 71.943C27.0299 73.3751 26.7079 74.9185 25.8848 76.0837C24.8997 77.4637 23.2794 78.3307 21.0436 78.6434C18.8205 78.9544 17.0136 78.5796 15.6859 77.5104C14.5747 76.6157 13.8416 75.2199 13.7275 73.7632C13.655 72.7873 13.8704 71.4894 14.1331 69.9799C14.4998 67.8412 14.9141 65.4014 14.5943 63.1154C14.2746 60.8294 13.2067 58.5969 12.2672 56.6409C11.6004 55.2615 11.0371 54.0725 10.839 53.1141C10.549 51.682 10.871 50.1387 11.6941 48.9734C12.6792 47.5934 14.2995 46.7265 16.5353 46.4138Z" fill="#F2F2F2"/>
<g opacity="0.3">
<path d="M25.8269 76.1428C25.5609 76.3465 25.2896 76.5125 24.9952 76.6049C23.7833 77.0049 22.6845 77.3891 21.3793 77.2132C19.841 77.0185 18.3255 76.3469 17.3103 75.1315C16.1361 73.695 15.6872 72.0418 15.5776 70.2514C15.4061 67.5606 15.9698 64.9077 15.9023 62.2279C15.7789 60.8877 15.5891 59.5312 15.2414 58.2352C14.6269 56.7716 13.6584 55.5241 12.9469 54.0997C12.0001 52.1831 11.8775 49.9336 13.1312 48.0935C13.342 47.7694 13.5957 47.4778 13.8513 47.1988C12.9388 47.6337 12.2035 48.236 11.6686 48.9896C10.8455 50.1548 10.5236 51.6981 10.8135 53.1303C11.0116 54.0886 11.5749 55.2776 12.2417 56.6571C13.183 58.6256 14.2491 60.8456 14.5688 63.1315C14.8886 65.4175 14.4744 67.8574 14.1076 69.9961C13.8449 71.5055 13.6295 72.8034 13.702 73.7794C13.8161 75.2361 14.5492 76.6318 15.6604 77.5265C16.9864 78.5832 18.7824 78.9723 21.0182 78.6595C23.227 78.3377 24.8383 77.4977 25.8269 76.1428Z" fill="#F2F2F2"/>
</g>
<path d="M21.011 78.4173C18.8506 78.7195 17.1101 78.3611 15.8396 77.3351C14.7731 76.4854 14.0722 75.1364 13.9668 73.7424C13.887 72.8059 14.1168 71.5188 14.3687 70.0237C14.7445 67.8581 15.1587 65.4183 14.8319 63.082C14.5069 60.7584 13.4247 58.515 12.4817 56.534C11.8292 55.1653 11.2551 53.9907 11.0749 53.0682C10.8062 51.6971 11.1119 50.2201 11.89 49.0996C12.8301 47.7643 14.4055 46.9421 16.5659 46.6399C18.7262 46.3377 20.4668 46.6961 21.7372 47.7221C22.8037 48.5718 23.5047 49.9209 23.61 51.3148C23.6898 52.2513 23.46 53.5384 23.2082 55.0335C22.8324 57.1991 22.4181 59.639 22.7449 61.9752C23.0699 64.2988 24.1521 66.5422 25.0951 68.5232C25.7476 69.8919 26.3217 71.0666 26.502 71.989C26.7706 73.3601 26.465 74.8371 25.6869 75.9576C24.745 77.2803 23.1713 78.1151 21.011 78.4173ZM21.0742 78.8695C26.4751 78.114 27.4352 74.266 26.9632 71.8989C26.4912 69.5317 23.749 65.7662 23.2096 61.9102C22.6702 58.0542 24.2739 53.6807 24.0783 51.2749C23.8826 48.8691 21.9035 45.4322 16.5026 46.1877C11.1017 46.9432 10.1417 50.7912 10.6136 53.1584C11.0856 55.5255 13.8278 59.2911 14.3672 63.1471C14.9066 67.0031 13.3029 71.3765 13.4986 73.7823C13.6817 76.1898 15.6733 79.625 21.0742 78.8695Z" fill="#E6E6E6"/>
<path d="M15.106 74.3645C14.867 72.6563 17.0225 70.9461 19.9114 70.542C22.8003 70.1379 25.3423 71.191 25.5812 72.8992C25.8202 74.6074 23.7736 77.0963 20.8848 77.5004C17.9833 77.9063 15.3449 76.0727 15.106 74.3645Z" fill="#E6E6E6"/>
<path d="M20.5333 76.5506C20.5175 76.4375 20.5931 76.3373 20.7062 76.3215C20.8192 76.3057 20.9194 76.3813 20.9353 76.4944C20.9511 76.6074 20.8754 76.7076 20.7624 76.7234C20.6619 76.7375 20.5491 76.6636 20.5333 76.5506Z" fill="#F2F2F2"/>
<path d="M20.3556 75.282C20.3398 75.1689 20.4154 75.0687 20.5285 75.0529C20.6415 75.0371 20.7417 75.1127 20.7575 75.2257C20.7733 75.3388 20.6977 75.439 20.5847 75.4548C20.4842 75.4689 20.3714 75.395 20.3556 75.282Z" fill="#F2F2F2"/>
<path d="M20.1798 74.0135C20.164 73.9004 20.2396 73.8002 20.3527 73.7844C20.4657 73.7686 20.5659 73.8442 20.5817 73.9573C20.5976 74.0703 20.5219 74.1705 20.4089 74.1863C20.3084 74.2004 20.1956 74.1265 20.1798 74.0135Z" fill="#F2F2F2"/>
<path d="M20.0021 72.7449C19.9863 72.6318 20.0619 72.5316 20.1749 72.5158C20.288 72.5 20.3882 72.5756 20.404 72.6886C20.4198 72.8017 20.3442 72.9019 20.2312 72.9177C20.1307 72.9318 20.0179 72.8579 20.0021 72.7449Z" fill="#F2F2F2"/>
<path d="M21.7326 76.242C21.7167 76.1289 21.7924 76.0287 21.9054 76.0129C22.0184 75.9971 22.1187 76.0727 22.1345 76.1858C22.1503 76.2988 22.0747 76.399 21.9616 76.4148C21.8486 76.4307 21.7484 76.355 21.7326 76.242Z" fill="#F2F2F2"/>
<path d="M23.6583 74.897C23.6425 74.784 23.7181 74.6838 23.8312 74.6679C23.9442 74.6521 24.0444 74.7278 24.0603 74.8408C24.0761 74.9538 24.0004 75.0541 23.8874 75.0699C23.7869 75.0839 23.6741 75.0101 23.6583 74.897Z" fill="#F2F2F2"/>
<path d="M24.1818 74.0682C24.166 73.9551 24.2416 73.8549 24.3546 73.8391C24.4677 73.8233 24.5679 73.8989 24.5837 74.0119C24.5995 74.125 24.5239 74.2252 24.4108 74.241C24.2978 74.2568 24.1976 74.1812 24.1818 74.0682Z" fill="#F2F2F2"/>
<path d="M22.8047 74.6578C22.8202 74.7688 22.9228 74.8462 23.0338 74.8307C23.1448 74.8152 23.2222 74.7126 23.2066 74.6016C23.1911 74.4906 23.0886 74.4132 22.9776 74.4287C22.8666 74.4443 22.7892 74.5468 22.8047 74.6578Z" fill="#F2F2F2"/>
<path d="M22.4669 73.3349C22.4511 73.2219 22.5267 73.1217 22.6398 73.1059C22.7528 73.0901 22.853 73.1657 22.8689 73.2787C22.8847 73.3918 22.809 73.492 22.696 73.5078C22.583 73.5236 22.4827 73.448 22.4669 73.3349Z" fill="#F2F2F2"/>
<path d="M23.3771 73.899C23.3613 73.7859 23.4369 73.6857 23.5499 73.6699C23.663 73.6541 23.7632 73.7297 23.779 73.8427C23.7948 73.9558 23.7192 74.056 23.6062 74.0718C23.4931 74.0876 23.3929 74.012 23.3771 73.899Z" fill="#F2F2F2"/>
<path d="M23.5197 73.0851C23.5038 72.9721 23.5795 72.8719 23.6925 72.8561C23.8056 72.8402 23.9058 72.9159 23.9216 73.0289C23.9374 73.1419 23.8618 73.2422 23.7487 73.258C23.6483 73.272 23.5355 73.1982 23.5197 73.0851Z" fill="#F2F2F2"/>
<path d="M21.9083 75.2058C21.8925 75.0928 21.9681 74.9925 22.0812 74.9767C22.1942 74.9609 22.2944 75.0365 22.3103 75.1496C22.3261 75.2626 22.2504 75.3628 22.1374 75.3786C22.0244 75.3945 21.9241 75.3188 21.9083 75.2058Z" fill="#F2F2F2"/>
<path d="M21.9572 74.0975C21.9413 73.9845 22.017 73.8843 22.13 73.8684C22.2431 73.8526 22.3433 73.9283 22.3591 74.0413C22.3749 74.1543 22.2993 74.2546 22.1862 74.2704C22.0875 74.297 21.973 74.2106 21.9572 74.0975Z" fill="#F2F2F2"/>
<path d="M22.7775 72.4462C22.7617 72.3332 22.8373 72.2329 22.9503 72.2171C23.0634 72.2013 23.1636 72.2769 23.1794 72.39C23.1952 72.503 23.1196 72.6033 23.0065 72.6191C22.8935 72.6349 22.7933 72.5593 22.7775 72.4462Z" fill="#F2F2F2"/>
<path d="M20.7794 72.3543C20.7636 72.2413 20.8392 72.141 20.9523 72.1252C21.0653 72.1094 21.1655 72.185 21.1814 72.2981C21.1972 72.4111 21.1215 72.5113 21.0085 72.5271C20.8955 72.543 20.7952 72.4673 20.7794 72.3543Z" fill="#F2F2F2"/>
<path d="M21.6993 72.6996C21.6835 72.5865 21.7592 72.4863 21.8722 72.4705C21.9852 72.4547 22.0855 72.5303 22.1013 72.6433C22.1171 72.7564 22.0415 72.8566 21.9284 72.8724C21.8154 72.8882 21.7152 72.8126 21.6993 72.6996Z" fill="#F2F2F2"/>
<path d="M21.0958 73.5138C21.08 73.4008 21.1556 73.3006 21.2687 73.2848C21.3817 73.269 21.4819 73.3446 21.4978 73.4576C21.5136 73.5707 21.438 73.6709 21.3249 73.6867C21.2119 73.7025 21.1116 73.6269 21.0958 73.5138Z" fill="#F2F2F2"/>
<path d="M20.9845 75.7448C20.9687 75.6318 21.0443 75.5315 21.1574 75.5157C21.2704 75.4999 21.3706 75.5755 21.3864 75.6886C21.4022 75.8016 21.3266 75.9018 21.2136 75.9177C21.1005 75.9335 21.0003 75.8578 20.9845 75.7448Z" fill="#F2F2F2"/>
<path d="M21.0802 74.5021C21.0644 74.3891 21.14 74.2889 21.2531 74.273C21.3661 74.2572 21.4663 74.3329 21.4821 74.4459C21.4979 74.5589 21.4223 74.6592 21.3093 74.675C21.1962 74.6908 21.096 74.6152 21.0802 74.5021Z" fill="#F2F2F2"/>
<path d="M24.4611 73.043C24.4453 72.93 24.5209 72.8298 24.6339 72.8139C24.747 72.7981 24.8472 72.8738 24.863 72.9868C24.8788 73.0998 24.8032 73.2001 24.6901 73.2159C24.5771 73.2317 24.4769 73.1561 24.4611 73.043Z" fill="#F2F2F2"/>
<path d="M23.8556 72.1929C23.8398 72.0799 23.9154 71.9797 24.0285 71.9638C24.1415 71.948 24.2417 72.0236 24.2575 72.1367C24.2733 72.2497 24.1977 72.35 24.0847 72.3658C23.9716 72.3816 23.8714 72.306 23.8556 72.1929Z" fill="#F2F2F2"/>
<path d="M22.9337 71.6432C22.9179 71.5301 22.9935 71.4299 23.1066 71.4141C23.2196 71.3983 23.3198 71.4739 23.3357 71.587C23.3515 71.7 23.2758 71.8002 23.1628 71.816C23.0498 71.8318 22.9495 71.7562 22.9337 71.6432Z" fill="#F2F2F2"/>
<path d="M21.8947 71.4429C21.8788 71.3298 21.9545 71.2296 22.0675 71.2138C22.1806 71.198 22.2808 71.2736 22.2966 71.3866C22.3124 71.4997 22.2368 71.5999 22.1237 71.6157C22.0107 71.6315 21.9105 71.5559 21.8947 71.4429Z" fill="#F2F2F2"/>
<path d="M20.8478 71.3842C20.832 71.2712 20.9076 71.1709 21.0206 71.1551C21.1337 71.1393 21.2339 71.2149 21.2497 71.328C21.2655 71.441 21.1899 71.5412 21.0769 71.5571C20.9638 71.5729 20.8636 71.4972 20.8478 71.3842Z" fill="#F2F2F2"/>
<path d="M19.8244 71.4762C19.8085 71.3632 19.8842 71.263 19.9972 71.2472C20.1102 71.2314 20.2105 71.307 20.2263 71.42C20.2421 71.5331 20.1665 71.6333 20.0534 71.6491C19.9547 71.6757 19.8402 71.5893 19.8244 71.4762Z" fill="#F2F2F2"/>
<path d="M22.7968 75.5169C22.8759 75.4418 23.0033 75.4368 23.091 75.5142C23.1661 75.5933 23.1711 75.7207 23.0937 75.8083C23.0145 75.8834 22.8872 75.8884 22.7995 75.8111C22.7244 75.7319 22.7177 75.592 22.7968 75.5169Z" fill="#F2F2F2"/>
<path d="M19.7107 76.5249C19.6948 76.4118 19.5946 76.3362 19.4816 76.352C19.3685 76.3678 19.2929 76.4681 19.3087 76.5811C19.3245 76.6941 19.4248 76.7698 19.5378 76.754C19.6508 76.7381 19.7265 76.6379 19.7107 76.5249Z" fill="#F2F2F2"/>
<path d="M17.4899 75.7597C17.4741 75.6467 17.3739 75.5711 17.2609 75.5869C17.1478 75.6027 17.0722 75.7029 17.088 75.816C17.1038 75.929 17.2041 76.0046 17.3171 75.9888C17.4301 75.973 17.5058 75.8728 17.4899 75.7597Z" fill="#F2F2F2"/>
<path d="M16.7595 75.1065C16.7437 74.9935 16.6434 74.9179 16.5304 74.9337C16.4174 74.9495 16.3417 75.0497 16.3576 75.1628C16.3734 75.2758 16.4736 75.3514 16.5866 75.3356C16.6997 75.3198 16.7753 75.2196 16.7595 75.1065Z" fill="#F2F2F2"/>
<path d="M18.2458 75.2956C18.23 75.1825 18.1298 75.1069 18.0167 75.1227C17.9037 75.1385 17.8281 75.2387 17.8439 75.3518C17.8597 75.4648 17.9599 75.5405 18.073 75.5246C18.186 75.5088 18.2616 75.4086 18.2458 75.2956Z" fill="#F2F2F2"/>
<path d="M18.2204 73.9288C18.2046 73.8158 18.1044 73.7401 17.9913 73.756C17.8783 73.7718 17.8027 73.872 17.8185 73.985C17.8343 74.0981 17.9345 74.1737 18.0476 74.1579C18.148 74.1438 18.2362 74.0419 18.2204 73.9288Z" fill="#F2F2F2"/>
<path d="M17.486 74.723C17.4702 74.61 17.37 74.5343 17.257 74.5501C17.1439 74.566 17.0683 74.6662 17.0841 74.7792C17.0999 74.8923 17.2001 74.9679 17.3132 74.9521C17.4154 74.9506 17.5019 74.836 17.486 74.723Z" fill="#F2F2F2"/>
<path d="M17.1267 73.9794C17.1109 73.8664 17.0106 73.7907 16.8976 73.8066C16.7845 73.8224 16.7089 73.9226 16.7247 74.0356C16.7406 74.1487 16.8408 74.2243 16.9538 74.2085C17.0543 74.1944 17.1425 74.0924 17.1267 73.9794Z" fill="#F2F2F2"/>
<path d="M19.2575 75.5765C19.2417 75.4635 19.1415 75.3878 19.0285 75.4037C18.9154 75.4195 18.8398 75.5197 18.8556 75.6327C18.8714 75.7458 18.9716 75.8214 19.0847 75.8056C19.1977 75.7898 19.2733 75.6896 19.2575 75.5765Z" fill="#F2F2F2"/>
<path d="M18.5039 74.5807C18.5195 74.6917 18.622 74.7691 18.733 74.7535C18.844 74.738 18.9214 74.6354 18.9059 74.5245C18.8903 74.4135 18.7878 74.3361 18.6768 74.3516C18.5658 74.3671 18.4884 74.4697 18.5039 74.5807Z" fill="#F2F2F2"/>
<path d="M17.6657 73.1613C17.6499 73.0482 17.5497 72.9726 17.4367 72.9884C17.3236 73.0043 17.248 73.1045 17.2638 73.2175C17.2796 73.3306 17.3798 73.4062 17.4929 73.3904C17.6059 73.3746 17.6815 73.2743 17.6657 73.1613Z" fill="#F2F2F2"/>
<path d="M19.5739 72.523C19.5581 72.4099 19.4579 72.3343 19.3449 72.3501C19.2318 72.3659 19.1562 72.4662 19.172 72.5792C19.1878 72.6923 19.288 72.7679 19.4011 72.7521C19.5141 72.7362 19.5897 72.636 19.5739 72.523Z" fill="#F2F2F2"/>
<path d="M18.7849 73.1072C18.7691 72.9942 18.6688 72.9185 18.5558 72.9344C18.4428 72.9502 18.3671 73.0504 18.3829 73.1634C18.3988 73.2765 18.499 73.3521 18.612 73.3363C18.7251 73.3205 18.8007 73.2203 18.7849 73.1072Z" fill="#F2F2F2"/>
<path d="M19.5876 73.7247C19.5718 73.6117 19.4716 73.536 19.3585 73.5519C19.2455 73.5677 19.1699 73.6679 19.1857 73.7809C19.2015 73.894 19.3017 73.9696 19.4148 73.9538C19.5152 73.9397 19.6034 73.8378 19.5876 73.7247Z" fill="#F2F2F2"/>
<path d="M20.2946 75.8415C20.2788 75.7284 20.1786 75.6528 20.0656 75.6686C19.9525 75.6844 19.8769 75.7846 19.8927 75.8977C19.9085 76.0107 20.0087 76.0864 20.1218 76.0705C20.2348 76.0547 20.3104 75.9545 20.2946 75.8415Z" fill="#F2F2F2"/>
<path d="M19.8747 74.6708C19.8589 74.5578 19.7587 74.4821 19.6456 74.498C19.5326 74.5138 19.457 74.614 19.4728 74.727C19.4886 74.8401 19.5888 74.9157 19.7019 74.8999C19.8149 74.8841 19.8905 74.7839 19.8747 74.6708Z" fill="#F2F2F2"/>
<path d="M16.2224 74.1956C16.2066 74.0826 16.1063 74.0069 15.9933 74.0227C15.8803 74.0386 15.8046 74.1388 15.8204 74.2518C15.8363 74.3649 15.9365 74.4405 16.0495 74.4247C16.15 74.4106 16.2382 74.3086 16.2224 74.1956Z" fill="#F2F2F2"/>
<path d="M16.5583 73.2137C16.5425 73.1007 16.4423 73.0251 16.3292 73.0409C16.2162 73.0567 16.1406 73.1569 16.1564 73.2699C16.1722 73.383 16.2724 73.4586 16.3855 73.4428C16.4985 73.427 16.5741 73.3268 16.5583 73.2137Z" fill="#F2F2F2"/>
<path d="M17.3064 72.4303C17.2905 72.3172 17.1903 72.2416 17.0773 72.2574C16.9642 72.2732 16.8886 72.3735 16.9044 72.4865C16.9202 72.5995 17.0205 72.6752 17.1335 72.6594C17.234 72.6453 17.3222 72.5433 17.3064 72.4303Z" fill="#F2F2F2"/>
<path d="M18.238 71.9541C18.2222 71.8411 18.122 71.7655 18.0089 71.7813C17.8959 71.7971 17.8203 71.8973 17.8361 72.0104C17.8519 72.1234 17.9521 72.199 18.0651 72.1832C18.1782 72.1674 18.2538 72.0672 18.238 71.9541Z" fill="#F2F2F2"/>
<path d="M19.2282 71.6108C19.2124 71.4978 19.1122 71.4221 18.9992 71.438C18.8861 71.4538 18.8105 71.554 18.8263 71.667C18.8421 71.7801 18.9423 71.8557 19.0554 71.8399C19.1684 71.8241 19.244 71.7239 19.2282 71.6108Z" fill="#F2F2F2"/>
<path d="M18.4875 76.1195C18.3907 76.069 18.2669 76.0992 18.2038 76.1976C18.1533 76.2943 18.1835 76.4182 18.2819 76.4812C18.3786 76.5317 18.5025 76.5016 18.5655 76.4031C18.616 76.3064 18.5842 76.17 18.4875 76.1195Z" fill="#F2F2F2"/>
<path d="M11.9976 52.158C12.2366 53.8662 14.7786 54.9192 17.6675 54.5151C20.5563 54.111 22.7118 52.4009 22.4729 50.6927C22.2339 48.9845 19.583 47.1526 16.6941 47.5567C13.7927 47.9626 11.7587 50.4498 11.9976 52.158Z" fill="#E6E6E6"/>
<path d="M16.621 48.5789C16.6368 48.6919 16.737 48.7675 16.85 48.7517C16.9631 48.7359 17.0387 48.6357 17.0229 48.5226C17.0071 48.4096 16.9069 48.334 16.7938 48.3498C16.6916 48.3513 16.6052 48.4658 16.621 48.5789Z" fill="#F2F2F2"/>
<path d="M16.7968 49.8349C16.8126 49.948 16.9128 50.0236 17.0259 50.0078C17.1389 49.992 17.2145 49.8918 17.1987 49.7787C17.1829 49.6657 17.0827 49.5901 16.9697 49.6059C16.8692 49.6199 16.781 49.7219 16.7968 49.8349Z" fill="#F2F2F2"/>
<path d="M16.9745 51.1035C16.9904 51.2165 17.0906 51.2922 17.2036 51.2764C17.3167 51.2605 17.3923 51.1603 17.3765 51.0473C17.3607 50.9342 17.2604 50.8586 17.1474 50.8744C17.0469 50.8885 16.9587 50.9905 16.9745 51.1035Z" fill="#F2F2F2"/>
<path d="M17.1522 52.3721C17.168 52.4851 17.2682 52.5607 17.3812 52.5449C17.4943 52.5291 17.5699 52.4289 17.5541 52.3158C17.5383 52.2028 17.4381 52.1272 17.325 52.143C17.2245 52.157 17.1364 52.259 17.1522 52.3721Z" fill="#F2F2F2"/>
<path d="M17.8576 48.5341C17.8734 48.6471 17.9736 48.7228 18.0866 48.707C18.1997 48.6911 18.2753 48.5909 18.2595 48.4779C18.2437 48.3648 18.1434 48.2892 18.0304 48.305C17.9174 48.3208 17.8417 48.4211 17.8576 48.5341Z" fill="#F2F2F2"/>
<path d="M20.0757 49.2992C20.0915 49.4123 20.1917 49.4879 20.3048 49.4721C20.4178 49.4563 20.4934 49.3561 20.4776 49.243C20.4618 49.13 20.3616 49.0544 20.2486 49.0702C20.1481 49.0842 20.0616 49.1988 20.0757 49.2992Z" fill="#F2F2F2"/>
<path d="M20.8087 49.9524C20.8245 50.0655 20.9248 50.1411 21.0378 50.1253C21.1508 50.1095 21.2265 50.0093 21.2107 49.8962C21.1948 49.7832 21.0946 49.7076 20.9816 49.7234C20.8685 49.7392 20.7929 49.8394 20.8087 49.9524Z" fill="#F2F2F2"/>
<path d="M19.3222 49.7634C19.338 49.8764 19.4382 49.952 19.5513 49.9362C19.6643 49.9204 19.7399 49.8202 19.7241 49.7071C19.7083 49.5941 19.6081 49.5185 19.495 49.5343C19.3946 49.5483 19.3064 49.6503 19.3222 49.7634Z" fill="#F2F2F2"/>
<path d="M19.3595 51.1284C19.3753 51.2414 19.4755 51.3171 19.5886 51.3013C19.7016 51.2854 19.7772 51.1852 19.7614 51.0722C19.7456 50.9591 19.6454 50.8835 19.5324 50.8993C19.4193 50.9151 19.3437 51.0154 19.3595 51.1284Z" fill="#F2F2F2"/>
<path d="M20.0822 50.336C20.098 50.449 20.1982 50.5246 20.3112 50.5088C20.4243 50.493 20.4999 50.3928 20.4841 50.2798C20.4683 50.1667 20.3681 50.0911 20.255 50.1069C20.142 50.1227 20.0663 50.2229 20.0822 50.336Z" fill="#F2F2F2"/>
<path d="M20.4413 51.0795C20.4571 51.1926 20.5574 51.2682 20.6704 51.2524C20.7835 51.2366 20.8591 51.1363 20.8433 51.0233C20.8275 50.9102 20.7272 50.8346 20.6142 50.8504C20.5137 50.8645 20.4255 50.9665 20.4413 51.0795Z" fill="#F2F2F2"/>
<path d="M18.3106 49.495C18.3261 49.606 18.4287 49.6834 18.5397 49.6678C18.6506 49.6523 18.728 49.5497 18.7125 49.4388C18.697 49.3278 18.5944 49.2504 18.4834 49.2659C18.3724 49.2814 18.295 49.384 18.3106 49.495Z" fill="#F2F2F2"/>
<path d="M18.662 50.5345C18.6779 50.6476 18.7781 50.7232 18.8911 50.7074C19.0042 50.6916 19.0798 50.5914 19.064 50.4783C19.0482 50.3653 18.9479 50.2896 18.8349 50.3055C18.7344 50.3195 18.6462 50.4215 18.662 50.5345Z" fill="#F2F2F2"/>
<path d="M19.9025 51.8977C19.9183 52.0107 20.0185 52.0864 20.1315 52.0705C20.2446 52.0547 20.3202 51.9545 20.3044 51.8415C20.2886 51.7284 20.1884 51.6528 20.0753 51.6686C19.9623 51.6844 19.8867 51.7846 19.9025 51.8977Z" fill="#F2F2F2"/>
<path d="M18.006 52.5342C18.0218 52.6473 18.122 52.7229 18.2351 52.7071C18.3481 52.6913 18.4237 52.591 18.4079 52.478C18.3921 52.365 18.2919 52.2893 18.1788 52.3052C18.0658 52.321 17.9902 52.4212 18.006 52.5342Z" fill="#F2F2F2"/>
<path d="M18.7951 51.95C18.8109 52.063 18.9111 52.1387 19.0241 52.1229C19.1372 52.107 19.2128 52.0068 19.197 51.8938C19.1812 51.7807 19.0809 51.7051 18.9679 51.7209C18.8549 51.7367 18.7792 51.837 18.7951 51.95Z" fill="#F2F2F2"/>
<path d="M17.9923 51.3325C18.0081 51.4455 18.1083 51.5212 18.2214 51.5054C18.3344 51.4895 18.4101 51.3893 18.3942 51.2763C18.3784 51.1632 18.2782 51.0876 18.1652 51.1034C18.0521 51.1192 17.9765 51.2195 17.9923 51.3325Z" fill="#F2F2F2"/>
<path d="M17.2736 49.2175C17.2894 49.3306 17.3896 49.4062 17.5026 49.3904C17.6157 49.3746 17.6913 49.2743 17.6755 49.1613C17.6597 49.0482 17.5595 48.9726 17.4464 48.9884C17.3334 49.0043 17.2578 49.1045 17.2736 49.2175Z" fill="#F2F2F2"/>
<path d="M17.7072 50.3864C17.723 50.4994 17.8232 50.5751 17.9362 50.5593C18.0493 50.5434 18.1249 50.4432 18.1091 50.3302C18.0933 50.2171 17.9931 50.1415 17.88 50.1573C17.767 50.1731 17.6914 50.2734 17.7072 50.3864Z" fill="#F2F2F2"/>
<path d="M21.3595 50.8616C21.3753 50.9747 21.4755 51.0503 21.5886 51.0345C21.7016 51.0187 21.7772 50.9184 21.7614 50.8054C21.7456 50.6924 21.6454 50.6167 21.5324 50.6325C21.4193 50.6484 21.3437 50.7486 21.3595 50.8616Z" fill="#F2F2F2"/>
<path d="M21.0099 51.8453C21.0257 51.9583 21.1259 52.0339 21.239 52.0181C21.352 52.0023 21.4276 51.9021 21.4118 51.789C21.396 51.676 21.2958 51.6004 21.1827 51.6162C21.0697 51.632 20.9941 51.7322 21.0099 51.8453Z" fill="#F2F2F2"/>
<path d="M20.2735 52.6269C20.289 52.7379 20.3916 52.8153 20.5025 52.7997C20.6135 52.7842 20.6909 52.6816 20.6754 52.5707C20.6599 52.4597 20.5573 52.3823 20.4463 52.3978C20.3353 52.4133 20.2579 52.5159 20.2735 52.6269Z" fill="#F2F2F2"/>
<path d="M19.3283 53.1048C19.3441 53.2179 19.4443 53.2935 19.5573 53.2777C19.6704 53.2619 19.746 53.1617 19.7302 53.0486C19.7144 52.9356 19.6141 52.86 19.5011 52.8758C19.3881 52.8916 19.3124 52.9918 19.3283 53.1048Z" fill="#F2F2F2"/>
<path d="M18.342 53.4606C18.3578 53.5737 18.458 53.6493 18.5711 53.6335C18.6841 53.6177 18.7597 53.5175 18.7439 53.4044C18.7281 53.2914 18.6279 53.2158 18.5148 53.2316C18.4 53.2348 18.3262 53.3476 18.342 53.4606Z" fill="#F2F2F2"/>
<path d="M17.328 53.6407C17.3438 53.7537 17.444 53.8293 17.557 53.8135C17.6701 53.7977 17.7457 53.6975 17.7299 53.5844C17.7141 53.4714 17.6138 53.3958 17.5008 53.4116C17.4003 53.4257 17.3121 53.5276 17.328 53.6407Z" fill="#F2F2F2"/>
<path d="M19.0776 48.9394C19.1743 48.9899 19.2982 48.9598 19.3612 48.8613C19.4117 48.7646 19.3816 48.6408 19.2831 48.5777C19.1864 48.5272 19.0626 48.5573 18.9995 48.6558C18.9508 48.7651 18.9809 48.8889 19.0776 48.9394Z" fill="#F2F2F2"/>
<path d="M15.8357 48.817C15.8515 48.93 15.7758 49.0303 15.6628 49.0461C15.5498 49.0619 15.4495 48.9863 15.4337 48.8732C15.4179 48.7602 15.4935 48.66 15.6066 48.6441C15.7196 48.6283 15.8198 48.7039 15.8357 48.817Z" fill="#F2F2F2"/>
<path d="M13.9099 50.1619C13.9257 50.2749 13.8501 50.3752 13.737 50.391C13.624 50.4068 13.5238 50.3312 13.5079 50.2181C13.4921 50.1051 13.5678 50.0049 13.6808 49.989C13.7938 49.9732 13.8958 50.0614 13.9099 50.1619Z" fill="#F2F2F2"/>
<path d="M13.3864 50.9908C13.4022 51.1039 13.3266 51.2041 13.2136 51.2199C13.1005 51.2357 13.0003 51.1601 12.9845 51.047C12.9687 50.934 13.0443 50.8338 13.1574 50.818C13.2704 50.8022 13.3706 50.8778 13.3864 50.9908Z" fill="#F2F2F2"/>
<path d="M14.7634 50.4011C14.7792 50.5141 14.7036 50.6144 14.5905 50.6302C14.4775 50.646 14.3773 50.5704 14.3615 50.4573C14.3456 50.3443 14.4213 50.2441 14.5343 50.2282C14.6474 50.2124 14.7476 50.2881 14.7634 50.4011Z" fill="#F2F2F2"/>
<path d="M15.1149 51.7223C15.1308 51.8353 15.0551 51.9355 14.9421 51.9513C14.8291 51.9672 14.7288 51.8915 14.713 51.7785C14.6972 51.6654 14.7728 51.5652 14.8859 51.5494C14.9864 51.5354 15.0991 51.6092 15.1149 51.7223Z" fill="#F2F2F2"/>
<path d="M14.1911 51.16C14.2069 51.2731 14.1313 51.3733 14.0183 51.3891C13.9052 51.4049 13.805 51.3293 13.7892 51.2162C13.7734 51.1032 13.849 51.003 13.962 50.9872C14.0625 50.9731 14.1753 51.047 14.1911 51.16Z" fill="#F2F2F2"/>
<path d="M14.0485 51.9738C14.0644 52.0868 13.9887 52.1871 13.8757 52.2029C13.7626 52.2187 13.6624 52.1431 13.6466 52.03C13.6308 51.917 13.7064 51.8168 13.8195 51.8009C13.9199 51.7869 14.0327 51.8607 14.0485 51.9738Z" fill="#F2F2F2"/>
<path d="M15.6618 49.8657C15.6776 49.9787 15.602 50.079 15.489 50.0948C15.3759 50.1106 15.2757 50.035 15.2599 49.9219C15.2441 49.8089 15.3197 49.7087 15.4328 49.6928C15.5458 49.677 15.646 49.7527 15.6618 49.8657Z" fill="#F2F2F2"/>
<path d="M15.6091 50.9615C15.6249 51.0745 15.5493 51.1747 15.4362 51.1905C15.3232 51.2064 15.223 51.1307 15.2072 51.0177C15.1913 50.9046 15.267 50.8044 15.38 50.7886C15.4931 50.7728 15.5933 50.8484 15.6091 50.9615Z" fill="#F2F2F2"/>
<path d="M14.7907 52.6128C14.8065 52.7258 14.7309 52.826 14.6179 52.8418C14.5048 52.8577 14.4046 52.782 14.3888 52.669C14.373 52.5559 14.4486 52.4557 14.5617 52.4399C14.6747 52.4241 14.7749 52.4997 14.7907 52.6128Z" fill="#F2F2F2"/>
<path d="M16.8005 52.7029C16.8163 52.816 16.7407 52.9162 16.6276 52.932C16.5146 52.9478 16.4144 52.8722 16.3986 52.7591C16.3828 52.6461 16.4584 52.5459 16.5714 52.5301C16.6845 52.5143 16.7847 52.5899 16.8005 52.7029Z" fill="#F2F2F2"/>
<path d="M15.8825 52.3576C15.8983 52.4707 15.8227 52.5709 15.7097 52.5867C15.5966 52.6025 15.4964 52.5269 15.4806 52.4139C15.4648 52.3008 15.5404 52.2006 15.6535 52.1848C15.7665 52.169 15.8667 52.2446 15.8825 52.3576Z" fill="#F2F2F2"/>
<path d="M16.486 51.5433C16.5019 51.6564 16.4262 51.7566 16.3132 51.7724C16.2001 51.7882 16.0999 51.7126 16.0841 51.5995C16.0683 51.4865 16.1439 51.3863 16.257 51.3705C16.3574 51.3564 16.4702 51.4303 16.486 51.5433Z" fill="#F2F2F2"/>
<path d="M16.5837 49.3141C16.5995 49.4272 16.5239 49.5274 16.4108 49.5432C16.2978 49.559 16.1976 49.4834 16.1818 49.3703C16.166 49.2573 16.2416 49.1571 16.3546 49.1413C16.4677 49.1255 16.5679 49.2011 16.5837 49.3141Z" fill="#F2F2F2"/>
<path d="M16.4997 50.5551C16.5155 50.6681 16.4399 50.7684 16.3269 50.7842C16.2138 50.8 16.1136 50.7244 16.0978 50.6113C16.082 50.4983 16.1576 50.3981 16.2706 50.3822C16.3837 50.3664 16.4839 50.442 16.4997 50.5551Z" fill="#F2F2F2"/>
<path d="M13.1189 52.0142C13.1347 52.1272 13.059 52.2275 12.946 52.2433C12.833 52.2591 12.7327 52.1835 12.7169 52.0704C12.7011 51.9574 12.7767 51.8572 12.8898 51.8413C12.9903 51.8273 13.103 51.9012 13.1189 52.0142Z" fill="#F2F2F2"/>
<path d="M13.7126 52.8661C13.7284 52.9791 13.6528 53.0793 13.5398 53.0951C13.4267 53.111 13.3265 53.0353 13.3107 52.9223C13.2949 52.8092 13.3705 52.709 13.4835 52.6932C13.5966 52.6774 13.6968 52.753 13.7126 52.8661Z" fill="#F2F2F2"/>
<path d="M14.6462 53.414C14.662 53.5271 14.5864 53.6273 14.4733 53.6431C14.3603 53.6589 14.2601 53.5833 14.2443 53.4703C14.2285 53.3572 14.3041 53.257 14.4171 53.2412C14.5176 53.2271 14.6304 53.301 14.6462 53.414Z" fill="#F2F2F2"/>
<path d="M15.6735 53.6161C15.6894 53.7292 15.6137 53.8294 15.5007 53.8452C15.3877 53.861 15.2874 53.7854 15.2716 53.6723C15.2558 53.5593 15.3314 53.4591 15.4445 53.4433C15.5575 53.4275 15.6577 53.5031 15.6735 53.6161Z" fill="#F2F2F2"/>
<path d="M16.7205 53.6873C16.7363 53.8004 16.6607 53.9006 16.5476 53.9164C16.4346 53.9322 16.3344 53.8566 16.3185 53.7435C16.3027 53.6305 16.3783 53.5303 16.4914 53.5145C16.6027 53.4861 16.7047 53.5743 16.7205 53.6873Z" fill="#F2F2F2"/>
<path d="M14.7688 49.542C14.6896 49.6171 14.5623 49.6222 14.4746 49.5448C14.3995 49.4656 14.3945 49.3383 14.4719 49.2506C14.551 49.1755 14.6784 49.1705 14.766 49.2479C14.8429 49.3396 14.8479 49.4669 14.7688 49.542Z" fill="#F2F2F2"/>
<path d="M14.551 58.7802C14.5387 58.6923 14.5784 58.6099 14.661 58.5599C14.767 58.4938 14.9122 58.5248 14.9783 58.6308C17.9083 63.1897 16.2662 67.1971 16.1868 67.3619C16.1398 67.4837 16.0052 67.5282 15.8833 67.4812C15.7615 67.4342 15.7171 67.2996 15.7641 67.1777C15.7822 67.124 17.388 63.224 14.5901 58.8772C14.5598 58.843 14.5562 58.8179 14.551 58.7802Z" fill="#E6E6E6"/>
<path d="M20.9901 62.3359C20.8092 61.0422 20.8478 59.4873 21.3838 57.7347C21.4182 57.6147 21.5494 57.5451 21.6694 57.5795C21.7895 57.6139 21.8591 57.7451 21.8246 57.8651C20.3287 62.8254 22.943 66.1351 22.9734 66.1692C23.052 66.2735 23.0337 66.4169 22.942 66.4938C22.8377 66.5724 22.6943 66.554 22.6174 66.4624C22.5388 66.3581 21.3415 64.848 20.9901 62.3359Z" fill="#E6E6E6"/>
<path d="M34.7548 20.9453C34.7548 22.754 33.2837 24.225 31.4751 24.225C29.6664 24.225 28.1953 22.754 28.1953 20.9453C28.1953 19.1366 30.8239 13.9999 31.4751 13.9999C32.1262 13.9999 34.7548 19.1366 34.7548 20.9453Z" fill="#FF4444"/>
<g opacity="0.3">
<path d="M34.4413 19.4501C34.2484 21.0659 33.0426 22.2958 31.3304 22.4646C30.0763 22.5852 28.8223 21.7894 28.2194 20.68C28.2194 20.7765 28.1953 20.873 28.1953 20.9453C28.1953 22.754 29.6664 24.2251 31.4751 24.2251C33.2837 24.2251 34.7548 22.754 34.7548 20.9453C34.7548 20.5595 34.6342 20.0289 34.4413 19.4501Z" fill="#FF4444"/>
</g>
<path d="M39.0007 32.8826C39.0007 34.6672 37.5538 36.09 35.7933 36.09C34.0088 36.09 32.5859 34.6431 32.5859 32.8826C32.5859 31.098 35.1663 26.082 35.7933 26.082C36.4203 26.082 39.0007 31.1222 39.0007 32.8826Z" fill="#FF4444"/>
<g opacity="0.3">
<path d="M38.8559 31.9662C38.5183 33.5578 37.2884 34.7154 35.5521 34.8842C34.4669 34.9807 33.3817 34.4501 32.6582 33.6302C32.9958 35.053 34.274 36.1141 35.7933 36.1141C37.5778 36.1141 39.0006 34.6672 39.0006 32.9067C39.0006 32.6414 38.9524 32.3279 38.8559 31.9662Z" fill="#FF4444"/>
</g>
<path d="M29.3771 29.4581C29.3771 30.9292 28.1714 32.135 26.7003 32.135C25.2292 32.135 24.0234 30.9292 24.0234 29.4581C24.0234 27.9871 26.1697 23.7909 26.7003 23.7909C27.2308 23.7668 29.3771 27.963 29.3771 29.4581Z" fill="#FF4444"/>
<g opacity="0.3">
<path d="M29.1367 28.2766C29.1125 28.4936 29.0884 28.6865 29.0643 28.9036C28.8473 30.3505 27.2315 31.2669 25.881 31.0016C24.9887 30.8087 24.3376 30.2299 24 29.4582C24 30.9293 25.2058 32.1351 26.6768 32.1351C28.1479 32.1351 29.3537 30.9293 29.3537 29.4582C29.3778 29.1447 29.2813 28.7347 29.1367 28.2766Z" fill="#FF4444"/>
</g>
<path d="M95.0315 31.0785H93.1172V34.0701H95.0315V31.0785Z" fill="#FF4444"/>
<g opacity="0.3">
<path d="M95.0315 31.0785H93.1172V32.1647H95.0315V31.0785Z" fill="#FF4444"/>
</g>
<path d="M95.9216 36.9636H92.2265C91.8882 36.9636 91.6211 36.6965 91.6211 36.3581V33.874C91.6211 33.5357 91.8882 33.2686 92.2265 33.2686H95.9216C96.2599 33.2686 96.527 33.5357 96.527 33.874V36.3581C96.527 36.6965 96.251 36.9636 95.9216 36.9636Z" fill="#F2F2F2"/>
<path d="M91.6211 34.6042V36.3583C91.6211 36.6966 91.8882 36.9637 92.2265 36.9637H95.9216C96.2599 36.9637 96.527 36.6966 96.527 36.3583V34.6042H91.6211Z" fill="#F2F2F2"/>
<path d="M94.0701 34.9249C89.0752 34.9249 88.6567 38.3973 89.1642 41.6382C89.6717 44.8881 89.3512 52.8925 89.5738 53.2754C89.7964 53.6582 92.0223 53.7205 94.0612 53.7205C96.1002 53.7205 98.3261 53.6582 98.5487 53.2754C98.7713 52.8925 98.4508 44.8881 98.9583 41.6382C99.4836 38.3973 99.074 34.9249 94.0701 34.9249Z" fill="#FF4444"/>
<g opacity="0.3">
<path d="M97.5155 46.642C96.545 48.2981 94.88 49.607 92.9212 49.8118C91.9596 49.9186 90.9535 49.607 90.2412 48.957C89.9118 48.6632 89.6624 48.2981 89.4844 47.9064C89.5022 50.622 89.4666 53.0705 89.5912 53.2753C89.8138 53.6581 92.0397 53.7205 94.0787 53.7205C96.1176 53.7205 98.3435 53.6581 98.5661 53.2753C98.7442 52.9637 98.5661 47.5502 98.7798 43.8107C98.4593 44.8168 98.023 45.7695 97.5155 46.642Z" fill="#FF4444"/>
</g>
<path d="M94.0708 36.7322C90.2689 36.7322 89.9573 39.3677 90.3491 41.834C90.7319 44.3004 90.4915 51.8062 90.6607 52.0911C90.8299 52.3849 92.5216 52.4294 94.0708 52.4294C95.62 52.4294 97.3117 52.3849 97.4809 52.0911C97.6501 51.7973 97.4097 44.3004 97.7925 41.834C98.1843 39.3677 97.8727 36.7322 94.0708 36.7322Z" fill="#F2F2F2"/>
<g opacity="0.3">
<path d="M96.7849 48.8678C95.5383 49.7493 93.9268 49.9006 92.4577 49.6602C91.7632 49.5445 91.1399 49.2863 90.5879 48.8767C90.5879 50.6129 90.5879 51.9752 90.6591 52.0998C90.8283 52.3937 92.52 52.4382 94.0692 52.4382C95.6185 52.4382 97.3102 52.3937 97.4793 52.0998C97.5595 51.9663 97.5506 50.2479 97.5506 48.2089C97.3013 48.4226 97.0431 48.6452 96.7849 48.8678Z" fill="#F2F2F2"/>
</g>
<path d="M99.9907 30.7934C99.6078 30.5708 90.9802 29.6982 90.7309 30.1078C90.4727 30.5174 90.161 31.7639 94.0698 31.7639C97.9785 31.7639 99.9907 31.3632 99.9907 31.3632V30.7934Z" fill="#F2F2F2"/>
<path d="M95.3976 31.3276C94.6141 31.3187 93.8306 31.3187 93.047 31.3187C92.2991 31.3187 91.4533 31.2653 90.8122 30.829C90.741 30.7756 90.6697 30.7222 90.6074 30.6599C90.6876 31.1674 91.3642 31.755 94.0799 31.755C97.9975 31.755 100.001 31.3543 100.001 31.3543V31.2564C98.4605 31.2831 96.929 31.3454 95.3976 31.3276Z" fill="#F2F2F2"/>
<path d="M95.5576 45.3867C95.5576 46.3216 94.8987 47.0784 94.0796 47.0784C93.2604 47.0784 92.6016 46.3216 92.6016 45.3867C92.6016 44.4518 93.7858 41.7985 94.0796 41.7985C94.3645 41.7985 95.5576 44.4518 95.5576 45.3867Z" fill="#FF4444"/>
<g opacity="0.3">
<path d="M95.4232 44.6475C95.3697 45.4667 94.7732 46.0899 93.9273 46.1701C93.4198 46.2146 92.9123 45.9564 92.5918 45.5557C92.663 46.4105 93.2952 47.0782 94.0609 47.0782C94.88 47.0782 95.5389 46.3214 95.5389 45.3865C95.5567 45.1996 95.5033 44.9413 95.4232 44.6475Z" fill="#FF4444"/>
</g>
</g>
<defs>
<clipPath id="clip0_325_28522">
<rect width="112" height="98" fill="white"/>
</clipPath>
</defs>
</svg>
