<svg width="16" height="26" viewBox="0 0 16 26" fill="none" xmlns="http://www.w3.org/2000/svg">
<path fill-rule="evenodd" clip-rule="evenodd" d="M3.99635e-06 3.60988C0.000859924 2.67334 0.760779 1.91037 1.69399 1.90908H14.0195C14.9527 1.91037 15.713 2.67335 15.7143 3.60982L15.7143 24.0143C15.713 24.9508 14.9527 25.7134 14.0196 25.7143L1.69399 25.7143C0.761197 25.713 0.00127786 24.9504 0 24.0144L3.99635e-06 3.60988ZM11.3088 6.52718C11.518 5.48395 10.2207 4.85577 9.56916 5.68482L2.59321 14.5613C2.0711 15.2256 2.53187 16.2145 3.36353 16.2145H4.72199C4.85088 16.2145 4.94656 16.334 4.91842 16.4598L3.76932 21.5971C3.53938 22.6251 4.79971 23.287 5.47766 22.4943L12.3711 14.4341C12.9325 13.7777 12.4783 12.7484 11.6273 12.7484L10.3069 12.7484C10.1798 12.7484 10.0845 12.6321 10.1095 12.5076L11.3088 6.52718ZM3.77774 15.1989C3.60976 15.1989 3.51568 15.0053 3.61947 14.8732L9.81788 6.98615C9.94882 6.81953 10.2152 6.94233 10.1735 7.1501L9.09188 12.5437C8.96554 13.1737 9.43445 13.7641 10.0612 13.7641H11.1903C11.3622 13.7641 11.455 13.9656 11.3433 14.0962L5.25997 21.2092C5.1236 21.3686 4.86476 21.2392 4.91056 21.0344L5.93783 16.4418C6.08012 15.8057 5.60923 15.1989 4.97328 15.1989H3.77774ZM10.5199 1.1029C10.5199 1.38082 10.2946 1.60612 10.0167 1.60612H5.6976C5.41967 1.60612 5.19437 1.38082 5.19437 1.1029V0.503226C5.19437 0.225302 5.41967 0 5.6976 0H10.0167C10.2946 0 10.5199 0.225302 10.5199 0.503226V1.1029Z" fill="white"/>
</svg>
