<svg width="102" height="98" viewBox="0 0 102 98" fill="none" xmlns="http://www.w3.org/2000/svg">
<g clip-path="url(#clip0_325_28889)">
<mask id="mask0_325_28889" style="mask-type:alpha" maskUnits="userSpaceOnUse" x="0" y="0" width="102" height="98">
<path d="M86 0H16C7.16344 0 0 7.16344 0 16V82C0 90.8366 7.16344 98 16 98H86C94.8366 98 102 90.8366 102 82V16C102 7.16344 94.8366 0 86 0Z" fill="#F0F0F0"/>
</mask>
<g mask="url(#mask0_325_28889)">
<path d="M58.228 88.8833C78.1305 88.8833 94.2647 72.7492 94.2647 52.8467C94.2647 32.9442 78.1305 16.8101 58.228 16.8101C38.3256 16.8101 22.1914 32.9442 22.1914 52.8467C22.1914 72.7492 38.3256 88.8833 58.228 88.8833Z" fill="black" fill-opacity="0.1"/>
<path d="M18 36C23.5228 36 28 31.5228 28 26C28 20.4772 23.5228 16 18 16C12.4772 16 8 20.4772 8 26C8 31.5228 12.4772 36 18 36Z" fill="black" fill-opacity="0.02"/>
<path d="M12 57C15.866 57 19 53.866 19 50C19 46.134 15.866 43 12 43C8.13401 43 5 46.134 5 50C5 53.866 8.13401 57 12 57Z" fill="black" fill-opacity="0.02"/>
<path d="M93 92C96.866 92 100 88.866 100 85C100 81.134 96.866 78 93 78C89.134 78 86 81.134 86 85C86 88.866 89.134 92 93 92Z" fill="black" fill-opacity="0.02"/>
<path d="M34 21C37.866 21 41 17.866 41 14C41 10.134 37.866 7 34 7C30.134 7 27 10.134 27 14C27 17.866 30.134 21 34 21Z" fill="black" fill-opacity="0.02"/>
<path d="M27 94C30.866 94 34 90.866 34 87C34 83.134 30.866 80 27 80C23.134 80 20 83.134 20 87C20 90.866 23.134 94 27 94Z" fill="black" fill-opacity="0.02"/>
<path d="M15 78C18.866 78 22 74.866 22 71C22 67.134 18.866 64 15 64C11.134 64 8 67.134 8 71C8 74.866 11.134 78 15 78Z" fill="black" fill-opacity="0.02"/>
<path fill-rule="evenodd" clip-rule="evenodd" d="M54.8457 7.99577C54.1392 7.99577 53.4326 7.99578 52.7261 8.11917C50.1357 8.61275 47.8984 10.2169 46.9564 12.8081C46.4855 14.0421 46.8387 15.5228 46.25 16.7568C45.6612 17.9907 43.8951 18.3609 43.6596 19.8416C43.4241 21.0756 44.7193 21.8159 44.366 23.1733C44.1305 24.1604 42.953 24.037 42.2465 24.5306C40.8335 25.3944 41.3045 26.6283 41.6578 27.8623C41.7755 28.1091 41.6579 28.8494 41.7756 29.0962C41.8934 29.2196 42.1289 29.343 42.3644 29.343C42.4821 29.4664 42.8353 29.7132 43.0708 29.7132C43.1886 29.7132 43.3063 29.0962 43.3063 28.9728C43.424 28.6026 43.5419 28.3558 43.5419 27.9856C43.5419 27.492 43.3063 26.7517 43.6596 26.2581C44.0128 25.6411 44.9548 25.6411 45.4258 25.1476C45.5436 24.9008 45.779 24.654 45.779 24.4072C45.779 24.2838 45.779 24.1604 45.779 24.037C45.779 24.037 45.779 23.7902 45.779 23.9136C45.8967 24.1604 45.8968 24.4072 45.8968 24.654C45.8968 25.1476 45.7791 25.7645 45.4258 26.1347C45.0726 26.5049 44.4838 26.5049 44.366 27.1219C44.1305 27.6155 44.3661 28.4792 44.2483 28.9728C44.1306 29.7132 43.6595 30.0833 44.4838 30.5769C44.6015 30.7003 44.7193 30.7003 44.8371 30.8237C45.5436 31.1939 46.6032 31.4407 47.4275 31.4407C47.663 31.4407 48.0163 31.3173 48.2518 31.1939C48.3695 31.1939 48.4872 30.9471 48.605 30.9471C49.1937 31.0705 49.547 31.6875 50.2535 31.8109C50.8422 31.9343 51.4309 31.8109 52.0197 31.8109C53.3149 31.9343 54.8456 32.0576 56.2586 31.8109C57.5538 31.5641 58.8491 30.9471 60.1444 30.5769C60.8508 30.4535 61.6751 30.5769 62.4993 30.4535C63.6768 30.2067 64.8543 29.4664 65.9141 28.8494C66.7383 28.4792 67.5625 28.2324 68.3867 27.7389C69.211 27.1219 70.2706 26.7517 71.0949 26.1347C71.3304 26.0113 71.8014 25.7646 71.6836 25.3944C71.4481 24.037 69.6819 24.1604 69.3286 22.8031C69.2109 22.3095 68.8578 21.6925 68.8578 21.0756C68.8578 20.8288 68.8577 20.7054 68.9755 20.4586C68.9755 20.3352 68.9755 20.0884 69.0932 20.2118C69.4464 20.8288 69.211 21.6925 69.5642 22.3095C70.0352 23.1733 71.0949 23.7902 71.6836 24.2838C71.8014 24.4072 72.2725 24.9008 72.3902 24.9008C72.7435 24.9008 73.0966 24.5306 73.4498 24.4072C73.6853 24.2838 74.3919 23.5435 74.3919 23.5435C74.3919 23.5435 72.6257 22.3095 72.0369 21.4457C71.4482 20.582 71.5659 18.9778 70.8594 18.1141C69.9174 17.1269 67.0915 17.6205 66.6205 15.276C65.6785 10.4637 62.3816 7.62558 60.7331 7.2554C57.5539 6.39164 54.8457 7.99577 54.8457 7.99577Z" fill="#1B2139"/>
<path fill-rule="evenodd" clip-rule="evenodd" d="M66.3109 65.5604C66.3109 65.5604 70.5712 75.5304 71.0494 91.7673C71.4316 103.811 72.3189 117.542 69.7838 128.468C67.7054 137.672 67.3493 158.309 68.3621 170.096C68.5836 172.346 79.874 175.809 85.1096 178.469C85.1096 178.469 80.4431 180.468 73.0002 177.915C68.7583 176.442 64.2496 178.771 62.3571 177.436C60.0073 175.721 62.8602 172.815 62.2447 171.054C58.5675 160.045 50.1568 138.602 57.3271 126.556C57.3271 126.556 46.7486 80.7677 54.7707 70.1908C58.4272 65.3419 66.3109 65.5604 66.3109 65.5604Z" fill="#EBB9AF"/>
<path fill-rule="evenodd" clip-rule="evenodd" d="M54.3863 64.1269C54.3863 64.1269 61.1853 74.7361 63.5069 86.7941C64.1071 90.0471 56.5788 116.946 53.2093 131.748C51.0363 140.963 50.7748 161.588 51.7876 173.376C52.0091 175.625 63.2995 179.088 68.5351 181.749C68.5351 181.749 63.8686 183.747 56.4257 181.194C52.1838 179.721 47.6751 182.051 45.7826 180.715C43.4328 179.001 46.2857 176.095 45.6702 174.333C41.993 163.325 33.5823 141.881 40.7526 129.836C40.7526 129.836 34.6236 93.993 39.9649 82.0064C43.7148 73.4654 54.3863 64.1269 54.3863 64.1269Z" fill="#EBB9AF"/>
<path fill-rule="evenodd" clip-rule="evenodd" d="M57.1616 28.5775C54.5865 28.0046 53.5055 27.3965 52.1888 25.7802C45.9369 18.1979 47.6403 13.0893 50.4857 11.3751C61.0218 4.9181 64.7291 13.3206 64.7291 13.3206C64.7291 13.3206 67.4468 25.2943 66.4211 27.2191C65.2832 28.8932 61.9888 29.6043 57.1616 28.5775Z" fill="#EBB9AF"/>
<path fill-rule="evenodd" clip-rule="evenodd" d="M53.6084 23.4507C53.6084 23.4507 53.1969 25.0267 53.4398 26.5609C53.5811 28.2493 54.4238 30.4586 50.9853 33.4577C48.0035 35.7634 63.3268 39.7796 64.9509 37.3144C64.9509 37.3144 63.0062 34.2406 62.6618 32.8604C62.1689 31.0715 62.4953 26.7705 62.4953 26.7705C62.4953 26.7705 62.4047 25.0051 53.6084 23.4507Z" fill="#EBB9AF"/>
<path fill-rule="evenodd" clip-rule="evenodd" d="M68.5271 53.1773C68.4088 53.7552 80.5183 61.4009 81.8485 71.0343C84.5983 89.949 71.4359 84.9981 71.4426 120.314C71.4161 120.865 37.9433 120.676 37.9433 120.676C37.9433 120.676 33.5196 103.437 35.9457 91.7518C38.1063 81.4488 43.2935 75.996 45.7788 72.1306C49.2036 66.7998 48.7434 58.6596 48.6285 57.6584C47.6818 52.1058 45.4558 45.6667 44.4106 43.2984C42.6633 39.3347 47.8677 36.1626 52.8424 30.9882C52.8424 30.9882 56.0939 37.1891 61.2503 35.7721C62.5355 35.4053 62.1436 32.2521 62.1436 32.2521C62.1436 32.2521 68.942 41.1413 70.6794 43.8017C74.4188 49.6458 68.5983 52.4495 68.5271 53.1773Z" fill="#81CACF"/>
<path fill-rule="evenodd" clip-rule="evenodd" d="M68.621 85.2676C65.8216 87.3804 43.4105 72.6675 42.7744 70.4482C41.8876 67.4885 41.7901 46.814 41.7336 44.4986C41.4377 34.7624 50.5492 33.8009 50.9943 32.9663C50.9943 32.9663 50.9562 60.0036 51.0149 64.7914C51.02 65.0019 63.6344 78.8243 69.2865 81.5433C71.2317 82.5733 69.3636 84.7007 68.621 85.2676Z" fill="#EBB9AF"/>
<path d="M41.7336 44.4986C41.7901 46.814 41.8876 67.4885 42.7744 70.4482L51.0149 64.7914C50.9562 60.0036 50.9943 32.9663 50.9943 32.9663C50.5492 33.8009 41.4377 34.7624 41.7336 44.4986Z" fill="#81CACF"/>
<path fill-rule="evenodd" clip-rule="evenodd" d="M65.9051 81.9233C66.1209 81.6777 70.7727 81.7538 71.1636 81.7005C72.5096 81.4552 73.0296 81.199 74.1988 80.4838C75.1947 79.8539 74.802 79.6295 75.3221 79.3733C75.4087 79.3306 75.6723 79.7579 75.46 80.5589C75.2069 81.7977 74.3385 81.947 74.3385 81.947C75.7305 82.0969 80.7679 81.2866 80.8156 81.9595C80.7749 82.3973 75.129 83.2289 75.129 83.2289C75.6083 83.4105 80.996 82.9848 80.9553 83.4227C80.8296 84.181 74.8778 84.7454 74.8778 84.7454C74.8778 84.7454 80.5714 84.5867 80.5749 85.1421C80.5784 85.6975 74.6672 85.824 74.6672 85.824C74.6672 85.824 79.5401 86.4875 79.3685 86.8506C79.2393 87.0535 77.0231 87.1704 74.0215 86.8385C71.1509 86.5814 67.0173 85.9715 65.9685 85.0954C65.2257 84.4864 65.9051 81.9233 65.9051 81.9233Z" fill="#EBB9AF"/>
<path fill-rule="evenodd" clip-rule="evenodd" d="M74.6465 58.6758C74.7316 58.7217 74.9084 54.5603 71.9075 53.5065C70.6197 53.0945 70.0608 52.9345 68.9183 52.1753C67.9459 51.508 68.3464 51.2987 67.836 51.0229C67.7509 50.977 67.4721 51.394 67.6553 52.2024C67.8634 53.45 68.7258 53.6322 68.7258 53.6322C67.3294 53.7292 62.5812 53.8599 62.4974 54.8079C62.5222 55.247 67.8895 54.8832 67.8411 54.9989C67.3555 55.1623 64.4421 56.1424 63.2525 56.493C62.1963 56.7737 62.0994 57.0052 62.051 57.121C62.0026 57.2367 62.3913 57.3048 62.8284 57.2572C63.9696 57.0224 67.7703 56.6635 68.1224 56.5699C68.2559 56.5001 64.6632 58.1066 63.4984 58.8963C62.649 59.4306 62.1883 60.0331 63.73 59.589C64.7862 59.3082 65.8542 58.75 66.9222 58.1918C67.4077 58.0285 68.3304 57.8175 68.7793 57.4924C68.9979 57.4686 66.8017 58.9782 66.0374 59.5585C65.5885 59.8836 65.3097 60.3006 64.9458 60.6716C64.7639 60.8571 65.1893 61.0869 65.5897 60.8776C66.4392 60.3432 67.5674 59.3918 68.49 59.1809C69.5096 58.7384 72.5682 57.411 74.6465 58.6758Z" fill="#EBB9AF"/>
<path fill-rule="evenodd" clip-rule="evenodd" d="M52.3365 25.1821C52.3365 24.9112 50.487 22.203 49.9586 22.0676C49.5622 21.9322 49.0338 21.7968 48.6375 21.9322C47.8448 22.203 47.7127 23.5571 48.109 24.2342C48.6374 25.0467 49.6943 25.8591 50.7512 26.13C51.4118 26.2654 52.3365 25.9945 52.3365 25.1821Z" fill="#EBB9AF"/>
<path fill-rule="evenodd" clip-rule="evenodd" d="M61.4711 10.6319C61.4711 10.6319 60.7758 10.038 60.6599 10.6319C60.4282 11.9386 59.8487 13.2452 58.9216 14.1955C58.1103 15.027 56.9514 15.6209 56.256 16.5712C55.0971 18.1154 56.256 19.7785 55.5607 21.4415C54.9812 22.8669 53.5905 23.342 52.084 22.9857C51.5045 22.8669 50.925 22.3917 50.4615 22.1542C49.882 21.9166 49.1867 21.7978 48.7231 21.3227C47.9119 20.4912 47.5642 18.947 47.4483 17.7591C47.1006 15.9773 47.1006 14.1955 48.0278 12.5325C48.6072 11.5822 49.4185 10.8695 50.3456 10.2755C52.5475 8.85008 56.0242 7.42467 58.6897 7.78103C60.4281 8.01861 62.0506 8.25615 63.2095 9.68159C63.7889 10.3943 64.0208 11.2258 64.6003 11.9386C65.4115 13.0076 66.3385 13.7203 66.2226 15.1458C66.2226 15.5021 65.0637 15.027 65.0637 15.027C64.2525 14.6706 63.5572 13.9579 63.2095 13.1264C62.9777 12.5325 62.746 11.8198 62.3983 11.3446C62.0506 11.2258 61.7029 10.9883 61.4711 10.6319Z" fill="#1B2139"/>
</g>
</g>
<defs>
<clipPath id="clip0_325_28889">
<rect width="102" height="98" fill="white"/>
</clipPath>
</defs>
</svg>
