<svg width="55" height="19" viewBox="0 0 55 19" fill="none" xmlns="http://www.w3.org/2000/svg">
<path fill-rule="evenodd" clip-rule="evenodd" d="M7.29098 4.67274C7.19998 4.82693 7.074 4.95823 6.91976 5.04914L1.461 8.26639C0.804665 8.65321 0.804666 9.60257 1.461 9.9894L6.3851 12.8915C6.57393 13.0028 6.71933 13.1738 6.80918 13.3738C8.29353 16.6768 11.6123 18.9769 15.4683 18.9769L45.4913 18.9769C50.7317 18.9769 54.9798 14.7288 54.9798 9.48847C54.9798 4.24814 50.7317 1.11762e-05 45.4913 1.14053e-05L15.4683 1.08103e-05C11.9858 1.09625e-05 8.94151 1.87611 7.29098 4.67274Z" fill="#EC407A"/>
<path d="M18.0048 11.165C18.0048 10.703 17.7335 10.472 17.1908 10.472H15.1008V8.47C15.1008 7.86133 15.2842 7.37 15.6508 6.996C16.0175 6.61467 16.5125 6.424 17.1358 6.424H18.5328L18.6098 7.337H17.1138C16.7912 7.337 16.5272 7.44333 16.3218 7.656C16.1238 7.86133 16.0248 8.12167 16.0248 8.437V9.526H17.3448C17.8728 9.526 18.2652 9.66533 18.5218 9.944C18.7858 10.2153 18.9178 10.604 18.9178 11.11C18.9178 11.572 18.7822 12.001 18.5108 12.397C18.2468 12.793 17.8838 13.1047 17.4218 13.332C16.9672 13.5667 16.4612 13.684 15.9038 13.684H15.0568C14.1328 13.684 13.4215 13.4163 12.9228 12.881C12.4242 12.3457 12.1748 11.5977 12.1748 10.637V8.558H13.0878V10.615C13.0878 11.3117 13.2565 11.8397 13.5938 12.199C13.9312 12.5583 14.4262 12.738 15.0788 12.738H15.9038C16.3145 12.738 16.6775 12.6683 16.9928 12.529C17.3155 12.397 17.5648 12.21 17.7408 11.968C17.9168 11.7333 18.0048 11.4657 18.0048 11.165ZM24.4227 7.887C24.6573 8.15833 24.826 8.415 24.9287 8.657C25.0313 8.89167 25.0827 9.13 25.0827 9.372C25.0827 9.856 24.914 10.2483 24.5767 10.549C24.2393 10.8497 23.7663 11 23.1577 11H20.0227L19.9347 10.054H23.1577C23.4803 10.054 23.7297 9.99167 23.9057 9.867C24.0817 9.74233 24.1697 9.57367 24.1697 9.361C24.1697 9.229 24.133 9.097 24.0597 8.965C23.9937 8.82567 23.88 8.66067 23.7187 8.47L21.6617 6.105L22.3107 5.456L24.4227 7.887ZM28.4994 10.054C28.536 10.054 28.5617 10.087 28.5764 10.153C28.5984 10.2117 28.6094 10.34 28.6094 10.538C28.6094 10.7287 28.5984 10.8533 28.5764 10.912C28.5617 10.9707 28.536 11 28.4994 11H28.2134C27.656 11 27.2307 10.835 26.9374 10.505C26.6514 10.1677 26.5084 9.691 26.5084 9.075V3.883H27.4214V9.031C27.4214 9.713 27.7 10.054 28.2574 10.054H28.4994ZM29.4397 10.054C29.139 9.76067 28.9887 9.36833 28.9887 8.877C28.9887 8.46633 29.0767 8.096 29.2527 7.766C29.436 7.436 29.689 7.17933 30.0117 6.996C30.3417 6.80533 30.7157 6.71 31.1337 6.71C31.4124 6.71 31.68 6.74667 31.9367 6.82C32.1934 6.89333 32.461 7.018 32.7397 7.194L32.4207 7.942C31.9734 7.73667 31.5444 7.634 31.1337 7.634C30.7817 7.634 30.4884 7.74767 30.2537 7.975C30.019 8.20233 29.9017 8.48467 29.9017 8.822C29.9017 9.18133 30.008 9.47833 30.2207 9.713C30.4334 9.94033 30.7157 10.054 31.0677 10.054H33.0367L32.9487 11H28.0647C27.9914 11 27.9547 10.846 27.9547 10.538C27.9547 10.2153 27.9914 10.054 28.0647 10.054H29.4397ZM35.9243 12.738C36.5476 12.738 37.0353 12.5547 37.3873 12.188C37.7393 11.8287 37.9153 11.3263 37.9153 10.681V7.458H38.8283V9.207C38.8283 9.47833 38.9053 9.68733 39.0593 9.834C39.2206 9.98067 39.4516 10.054 39.7523 10.054H39.8953C39.9686 10.054 40.0053 10.2153 40.0053 10.538C40.0053 10.846 39.9686 11 39.8953 11H39.7523C39.5543 11 39.3709 10.967 39.2023 10.901C39.0336 10.8277 38.9089 10.736 38.8283 10.626V10.758C38.8209 11.3447 38.6963 11.858 38.4543 12.298C38.2123 12.7453 37.8749 13.0863 37.4423 13.321C37.0096 13.563 36.5109 13.684 35.9463 13.684H35.6383L35.5503 12.738H35.9243ZM41.5317 10.054C41.8177 10.054 42.045 9.98067 42.2137 9.834C42.3824 9.68733 42.4667 9.48933 42.4667 9.24V7.458H43.3797V9.218C43.3797 9.48933 43.453 9.69833 43.5997 9.845C43.7537 9.98433 43.9737 10.054 44.2597 10.054H44.5677C44.641 10.054 44.6777 10.2117 44.6777 10.527C44.6777 10.8423 44.641 11 44.5677 11H44.2267C43.552 11 43.112 10.7837 42.9067 10.351C42.65 10.7837 42.1917 11 41.5317 11H39.4527C39.3794 11 39.3427 10.846 39.3427 10.538C39.3427 10.2153 39.3794 10.054 39.4527 10.054H41.5317ZM42.2247 12.386V13.255H39.3207V12.386H42.2247ZM45.501 10.054C45.2003 9.76067 45.05 9.36833 45.05 8.877C45.05 8.46633 45.138 8.096 45.314 7.766C45.4973 7.436 45.7503 7.17933 46.073 6.996C46.403 6.80533 46.777 6.71 47.195 6.71C47.4736 6.71 47.7413 6.74667 47.998 6.82C48.2546 6.89333 48.5223 7.018 48.801 7.194L48.482 7.942C48.0346 7.73667 47.6056 7.634 47.195 7.634C46.843 7.634 46.5496 7.74767 46.315 7.975C46.0803 8.20233 45.963 8.48467 45.963 8.822C45.963 9.18133 46.0693 9.47833 46.282 9.713C46.4946 9.94033 46.777 10.054 47.129 10.054H49.098L49.01 11H44.126C44.0526 11 44.016 10.846 44.016 10.538C44.016 10.2153 44.0526 10.054 44.126 10.054H45.501ZM46.491 5.28V4.367H47.657V5.28H46.491Z" fill="white"/>
</svg>
