<svg width="16" height="16" viewBox="0 0 16 16" fill="none" xmlns="http://www.w3.org/2000/svg">
<path d="M8.0007 15.1671C4.53404 15.1671 1.7207 12.3471 1.7207 8.88708C1.7207 7.64042 2.08737 6.43375 2.7807 5.39375C2.93404 5.16708 3.24737 5.10042 3.47404 5.25375C3.7007 5.40708 3.76737 5.72042 3.61404 5.94708C3.03404 6.81375 2.72737 7.83375 2.72737 8.88042C2.72737 11.7937 5.09404 14.1604 8.00737 14.1604C10.9207 14.1604 13.2874 11.7937 13.2874 8.88042C13.2874 5.96708 10.914 3.60042 8.0007 3.60042C7.38737 3.60042 6.78737 3.68708 6.2207 3.86042C5.95404 3.94042 5.67404 3.79375 5.59404 3.52708C5.51404 3.26042 5.6607 2.98042 5.92737 2.90042C6.59404 2.70042 7.28737 2.59375 8.0007 2.59375C11.4674 2.59375 14.2807 5.41375 14.2807 8.87375C14.2807 12.3338 11.4674 15.1671 8.0007 15.1671Z" fill="#1C1B1E"/>
<path d="M5.24625 4.04707C5.13292 4.04707 5.01292 4.00707 4.91959 3.92707C4.70626 3.74041 4.68626 3.42707 4.86626 3.22041L6.79292 1.00707C6.97292 0.800406 7.29292 0.773739 7.49959 0.960406C7.70626 1.14041 7.72625 1.46041 7.54625 1.66707L5.61959 3.87374C5.51959 3.98707 5.37959 4.04707 5.24625 4.04707Z" fill="#1C1B1E"/>
<path d="M7.49241 5.68708C7.39241 5.68708 7.28574 5.65374 7.19907 5.59374L4.94574 3.94708C4.72574 3.78708 4.67907 3.47374 4.83907 3.25374C4.99907 3.02708 5.31241 2.98041 5.53907 3.14041L7.78574 4.78041C8.00574 4.94041 8.05907 5.25374 7.89241 5.48041C7.79907 5.62041 7.64574 5.68708 7.49241 5.68708Z" fill="#1C1B1E"/>
</svg>
