<svg width="25" height="25" viewBox="0 0 25 25" fill="none" xmlns="http://www.w3.org/2000/svg">
<g id="Impo Icon-Save">
<g id="vuesax/outline/archive-add">
<g id="archive-add">
<path id="Vector" d="M15 11.65H10C9.86614 11.65 9.75 11.5339 9.75 11.4C9.75 11.2661 9.86614 11.15 10 11.15H15C15.1339 11.15 15.25 11.2661 15.25 11.4C15.25 11.5339 15.1339 11.65 15 11.65Z" fill="#EC407A" stroke="#938F94"/>
<path id="Vector_2" d="M12.5 14.21C12.3661 14.21 12.25 14.0938 12.25 13.96V8.95999C12.25 8.82613 12.3661 8.70999 12.5 8.70999C12.6339 8.70999 12.75 8.82613 12.75 8.95999V13.96C12.75 14.0938 12.6339 14.21 12.5 14.21Z" fill="#EC407A" stroke="#938F94"/>
<path id="Vector_3" d="M18.2092 22.6064L18.2093 22.6063L18.2031 22.6029L13.3231 19.8929L13.3219 19.8922C13.0746 19.7558 12.7652 19.71 12.5053 19.71C12.2454 19.71 11.936 19.7558 11.6888 19.8922L11.6876 19.8929L6.80757 22.6029L6.80749 22.6029C5.92259 23.0945 5.10954 23.103 4.53675 22.7607L4.5326 22.7583C3.95909 22.4231 3.57031 21.7086 3.57031 20.7V6.61C3.57031 4.34614 5.41645 2.5 7.68031 2.5H17.3303C19.5942 2.5 21.4403 4.34614 21.4403 6.61V20.7C21.4403 21.7086 21.0515 22.4231 20.478 22.7583L20.478 22.7583L20.4731 22.7613C20.2084 22.92 19.899 23 19.5703 23C19.1567 23 18.6817 22.8776 18.2092 22.6064ZM13.5535 19.4549L13.5576 19.4571L18.4332 22.1646C18.4339 22.1651 18.4347 22.1655 18.4354 22.1659C18.995 22.4835 19.6811 22.6506 20.2176 22.3287C20.749 22.0099 20.9303 21.3445 20.9303 20.7V6.61C20.9303 4.62386 19.3065 3 17.3203 3H7.68031C5.69417 3 4.07031 4.62386 4.07031 6.61V20.7C4.07031 21.3345 4.24704 22.0252 4.79381 22.335C5.31989 22.6331 5.99435 22.4899 6.5652 22.1659C6.56596 22.1655 6.56671 22.1651 6.56746 22.1646L11.4431 19.4571L11.4431 19.4571L11.4471 19.4548C11.7253 19.2969 12.0956 19.21 12.5003 19.21C12.9051 19.21 13.2753 19.2969 13.5535 19.4549Z" fill="#EC407A" stroke="#938F94"/>
</g>
</g>
</g>
</svg>
