<svg width="25" height="24" viewBox="0 0 25 24" fill="none" xmlns="http://www.w3.org/2000/svg">
<path d="M11.6992 21.75C6.04922 21.75 1.44922 17.15 1.44922 11.5C1.44922 5.85 6.04922 1.25 11.6992 1.25C17.3492 1.25 21.9492 5.85 21.9492 11.5C21.9492 17.15 17.3492 21.75 11.6992 21.75ZM11.6992 2.75C6.86922 2.75 2.94922 6.68 2.94922 11.5C2.94922 16.32 6.86922 20.25 11.6992 20.25C16.5292 20.25 20.4492 16.32 20.4492 11.5C20.4492 6.68 16.5292 2.75 11.6992 2.75Z" fill="#1C1B1E"/>
<path d="M22.2006 22.75C22.0106 22.75 21.8206 22.68 21.6706 22.53L19.6706 20.53C19.3806 20.24 19.3806 19.76 19.6706 19.47C19.9606 19.18 20.4406 19.18 20.7306 19.47L22.7306 21.47C23.0206 21.76 23.0206 22.24 22.7306 22.53C22.5806 22.68 22.3906 22.75 22.2006 22.75Z" fill="#1C1B1E"/>
</svg>
