<svg width="24" height="24" viewBox="0 0 24 24" fill="none" xmlns="http://www.w3.org/2000/svg">
<path d="M5.92876 15.49L14.4888 19.77C20.2388 22.65 22.5988 20.29 19.7188 14.54L18.8488 12.8C18.5988 12.29 18.5988 11.7 18.8488 11.19L19.7188 9.45999C22.5988 3.70999 20.2488 1.34999 14.4888 4.22999L5.92876 8.50999C2.08876 10.43 2.08876 13.57 5.92876 15.49ZM9.15876 11.25L14.5588 11.25C14.9688 11.25 15.3088 11.59 15.3088 12C15.3088 12.41 14.9688 12.75 14.5588 12.75L9.15876 12.75C8.74876 12.75 8.40876 12.41 8.40876 12C8.40876 11.59 8.74876 11.25 9.15876 11.25Z" fill="#1C1B1E"/>
</svg>
