<svg width="24" height="24" viewBox="0 0 24 24" fill="none" xmlns="http://www.w3.org/2000/svg">
<path d="M16.9609 6.17C18.9609 7.56 20.3409 9.77 20.6209 12.32" stroke="#1C1B1E" stroke-width="1.5" stroke-linecap="round" stroke-linejoin="round"/>
<path d="M3.48828 12.37C3.74828 9.83 5.10828 7.62 7.08828 6.22" stroke="#1C1B1E" stroke-width="1.5" stroke-linecap="round" stroke-linejoin="round"/>
<path d="M8.19141 20.94C9.35141 21.53 10.6714 21.86 12.0614 21.86C13.4014 21.86 14.6614 21.56 15.7914 21.01" stroke="#1C1B1E" stroke-width="1.5" stroke-linecap="round" stroke-linejoin="round"/>
<path d="M12.0613 7.7C13.5966 7.7 14.8413 6.45535 14.8413 4.92C14.8413 3.38465 13.5966 2.14 12.0613 2.14C10.5259 2.14 9.28125 3.38465 9.28125 4.92C9.28125 6.45535 10.5259 7.7 12.0613 7.7Z" stroke="#1C1B1E" stroke-width="1.5" stroke-linecap="round" stroke-linejoin="round"/>
<path d="M4.83078 19.92C6.36613 19.92 7.61078 18.6754 7.61078 17.14C7.61078 15.6046 6.36613 14.36 4.83078 14.36C3.29543 14.36 2.05078 15.6046 2.05078 17.14C2.05078 18.6754 3.29543 19.92 4.83078 19.92Z" stroke="#1C1B1E" stroke-width="1.5" stroke-linecap="round" stroke-linejoin="round"/>
<path d="M19.1706 19.92C20.706 19.92 21.9506 18.6754 21.9506 17.14C21.9506 15.6046 20.706 14.36 19.1706 14.36C17.6353 14.36 16.3906 15.6046 16.3906 17.14C16.3906 18.6754 17.6353 19.92 19.1706 19.92Z" stroke="#1C1B1E" stroke-width="1.5" stroke-linecap="round" stroke-linejoin="round"/>
</svg>
