<svg width="24" height="24" viewBox="0 0 24 24" fill="none" xmlns="http://www.w3.org/2000/svg">
<g clip-path="url(#clip0_9994_1700)">
<path d="M12.3454 0.225358L15.7552 7.47802C15.8113 7.59735 15.9197 7.68005 16.0452 7.69918L23.6698 8.8622C23.9857 8.91039 24.1119 9.31789 23.8833 9.55177L18.366 15.1972C18.2753 15.2901 18.2338 15.4239 18.2553 15.555L19.5577 23.5265C19.6117 23.8567 19.2814 24.1086 18.9989 23.9527L12.1792 20.1891C12.067 20.1271 11.933 20.1271 11.8208 20.1891L5.00109 23.9527C4.71855 24.1086 4.38833 23.8567 4.44229 23.5265L5.74473 15.555C5.76616 15.4239 5.72474 15.2901 5.63397 15.1972L0.116723 9.55177C-0.111855 9.31789 0.0142796 8.91039 0.330167 8.8622L7.95482 7.69918C8.08026 7.68005 8.18869 7.59735 8.24479 7.47802L11.6546 0.225358C11.7959 -0.0751194 12.2041 -0.0751194 12.3454 0.225358Z" fill="#F3CC30"/>
<path d="M12.0022 1.90039L8.96358 8.07877C8.80419 8.40284 8.49824 8.6191 8.15224 8.65226L1.55469 9.28447L8.52515 9.62663C8.96787 9.64837 9.37304 9.36667 9.52671 8.93028L12.0022 1.90039Z" fill="#F7DB5E"/>
<path d="M4.5932 22.6112L4.44335 23.5284C4.38937 23.8587 4.7196 24.1106 5.00215 23.9546L11.8218 20.191C11.934 20.1291 12.0681 20.1291 12.1803 20.191L18.9999 23.9546C19.2825 24.1106 19.6127 23.8587 19.5587 23.5284L18.2563 15.557C18.2349 15.4258 18.2763 15.292 18.3671 15.1991L23.8843 9.55373C24.1129 9.31985 23.9868 8.91235 23.6709 8.86416L21.117 8.47461C16.9865 16.2561 10.6615 20.353 4.5932 22.6112Z" fill="#EDBD31"/>
</g>
<defs>
<clipPath id="clip0_9994_1700">
<rect width="24" height="24" fill="white"/>
</clipPath>
</defs>
</svg>
