<svg width="25" height="25" viewBox="0 0 25 25" fill="none" xmlns="http://www.w3.org/2000/svg">
<path d="M14.2289 4.26001L15.9889 7.78001C16.2289 8.27002 16.8689 8.74001 17.4089 8.83001L20.5989 9.36001C22.6389 9.70001 23.1189 11.18 21.6489 12.64L19.1689 15.12C18.7489 15.54 18.5189 16.35 18.6489 16.93L19.3589 20C19.9189 22.43 18.6289 23.37 16.4789 22.1L13.4889 20.33C12.9489 20.01 12.0589 20.01 11.5089 20.33L8.51893 22.1C6.37893 23.37 5.07893 22.42 5.63893 20L6.34893 16.93C6.47893 16.35 6.24893 15.54 5.82893 15.12L3.34893 12.64C1.88893 11.18 2.35893 9.70001 4.39893 9.36001L7.58893 8.83001C8.11893 8.74001 8.75893 8.27002 8.99893 7.78001L10.7589 4.26001C11.7189 2.35001 13.2789 2.35001 14.2289 4.26001Z" stroke="#938F94" stroke-width="1.5" stroke-linecap="round" stroke-linejoin="round"/>
</svg>
