<svg width="25" height="24" viewBox="0 0 25 24" fill="none" xmlns="http://www.w3.org/2000/svg">
<path d="M16.858 2H8.47797C4.83797 2 2.66797 4.17 2.66797 7.81V16.18C2.66797 19.83 4.83797 22 8.47797 22H16.848C20.488 22 22.658 19.83 22.658 16.19V7.81C22.668 4.17 20.498 2 16.858 2ZM8.29797 18.15C8.29797 18.56 7.95797 18.9 7.54797 18.9C7.13797 18.9 6.79797 18.56 6.79797 18.15V16.08C6.79797 15.67 7.13797 15.33 7.54797 15.33C7.95797 15.33 8.29797 15.67 8.29797 16.08V18.15ZM13.418 18.15C13.418 18.56 13.078 18.9 12.668 18.9C12.258 18.9 11.918 18.56 11.918 18.15V14C11.918 13.59 12.258 13.25 12.668 13.25C13.078 13.25 13.418 13.59 13.418 14V18.15ZM18.538 18.15C18.538 18.56 18.198 18.9 17.788 18.9C17.378 18.9 17.038 18.56 17.038 18.15V11.93C17.038 11.52 17.378 11.18 17.788 11.18C18.198 11.18 18.538 11.52 18.538 11.93V18.15ZM18.538 8.77C18.538 9.18 18.198 9.52 17.788 9.52C17.378 9.52 17.038 9.18 17.038 8.77V7.8C14.488 10.42 11.298 12.27 7.72797 13.16C7.66797 13.18 7.60797 13.18 7.54797 13.18C7.20797 13.18 6.90797 12.95 6.81797 12.61C6.71797 12.21 6.95797 11.8 7.36797 11.7C10.738 10.86 13.738 9.09 16.118 6.59H14.868C14.458 6.59 14.118 6.25 14.118 5.84C14.118 5.43 14.458 5.09 14.868 5.09H17.798C17.838 5.09 17.868 5.11 17.908 5.11C17.958 5.12 18.008 5.12 18.058 5.14C18.108 5.16 18.148 5.19 18.198 5.22C18.228 5.24 18.258 5.25 18.288 5.27C18.298 5.28 18.298 5.29 18.308 5.29C18.348 5.33 18.378 5.37 18.408 5.41C18.438 5.45 18.468 5.48 18.478 5.52C18.498 5.56 18.498 5.6 18.508 5.65C18.518 5.7 18.538 5.75 18.538 5.81C18.538 5.82 18.548 5.83 18.548 5.84V8.77H18.538Z" fill="#EC407A"/>
</svg>
