<svg width="336" height="61" viewBox="0 0 336 61" fill="none" xmlns="http://www.w3.org/2000/svg">
<g filter="url(#filter0_d_1375_28887)">
<rect x="4" width="328" height="53" rx="8" fill="#E52465"/>
<mask id="mask0_1375_28887" style="mask-type:alpha" maskUnits="userSpaceOnUse" x="4" y="0" width="328" height="48">
<rect x="4" width="328" height="48" rx="7" fill="#E52465"/>
</mask>
<g mask="url(#mask0_1375_28887)">
<path d="M240 -20L255.19 -1.7716C265.782 10.9388 282.692 16.502 298.761 12.5634V12.5634C314.031 8.8209 330.129 13.649 340.819 25.177L349 34L380.5 75" stroke="#FB88AF" stroke-width="0.5"/>
<path d="M242 -24L257.19 -5.7716C267.782 6.9388 284.692 12.502 300.761 8.56342V8.56342C316.031 4.8209 332.129 9.64902 342.819 21.177L351 30L382.5 71" stroke="#FBA3C1" stroke-width="0.5"/>
</g>
<rect x="12" y="11" width="98" height="32" rx="16" fill="#1C1B1E"/>
<path d="M35.3768 28.882C35.7582 28.882 36.0528 28.8083 36.2608 28.661C36.4688 28.5137 36.5728 28.3143 36.5728 28.063C36.5728 27.8897 36.5295 27.7207 36.4428 27.556C36.3648 27.3827 36.2305 27.2007 36.0398 27.01L32.9978 23.981V23.045L37.7298 21.16L38.0548 22.2L34.2588 23.695L36.8718 26.308C37.3918 26.8367 37.6518 27.426 37.6518 28.076C37.6518 28.648 37.4525 29.1117 37.0538 29.467C36.6552 29.8223 36.0962 30 35.3768 30H30.6448C29.8822 30 29.3058 29.8007 28.9158 29.402C28.5345 29.0033 28.3438 28.453 28.3438 27.751V25.814H29.4228V27.608C29.4228 28.4573 29.8518 28.882 30.7098 28.882H35.3768ZM39.5447 21.589H40.6237V30H39.5447V21.589ZM44.1885 27.881C44.1885 28.2017 44.2795 28.4487 44.4615 28.622C44.6522 28.7953 44.9252 28.882 45.2805 28.882H45.4495C45.5362 28.882 45.5795 29.0727 45.5795 29.454C45.5795 29.818 45.5362 30 45.4495 30H45.2805C45.0465 30 44.8298 29.961 44.6305 29.883C44.4312 29.7963 44.2838 29.688 44.1885 29.558V29.714C44.1798 30.4073 44.0325 31.014 43.7465 31.534C43.4605 32.0627 43.0618 32.4657 42.5505 32.743C42.0392 33.029 41.4498 33.172 40.7825 33.172H39.8725L39.7685 32.054H40.7565C41.4932 32.054 42.0695 31.8373 42.4855 31.404C42.9015 30.9793 43.1095 30.3857 43.1095 29.623V25.814H44.1885V27.881ZM46.4865 28.882C46.8245 28.882 47.0931 28.7953 47.2925 28.622C47.4918 28.4487 47.5915 28.2147 47.5915 27.92V25.814H48.6705V27.894C48.6705 28.2147 48.7571 28.4617 48.9305 28.635C49.1125 28.7997 49.3725 28.882 49.7105 28.882H50.0745C50.1611 28.882 50.2045 29.0683 50.2045 29.441C50.2045 29.8137 50.1611 30 50.0745 30H49.6715C48.8741 30 48.3541 29.7443 48.1115 29.233C47.8081 29.7443 47.2665 30 46.4865 30H44.9265C44.8398 30 44.7965 29.818 44.7965 29.454C44.7965 29.0727 44.8398 28.882 44.9265 28.882H46.4865ZM48.9435 23.227V24.254H45.5115V23.227H48.9435ZM50.5748 28.882C50.9561 28.882 51.2508 28.791 51.4588 28.609C51.6754 28.427 51.7838 28.1757 51.7838 27.855V25.814H52.8758V27.855C52.8758 28.5397 53.2614 28.882 54.0328 28.882C54.4141 28.882 54.7088 28.791 54.9168 28.609C55.1334 28.427 55.2418 28.1757 55.2418 27.855V25.814H56.3208V27.855C56.3208 28.1843 56.4118 28.44 56.5938 28.622C56.7844 28.7953 57.0618 28.882 57.4258 28.882C57.7898 28.882 58.0671 28.7953 58.2578 28.622C58.4484 28.44 58.5438 28.1843 58.5438 27.855V25.814H59.6228V27.829C59.6228 28.505 59.4234 29.038 59.0248 29.428C58.6348 29.8093 58.1018 30 57.4258 30C56.5504 30 55.9871 29.7313 55.7358 29.194C55.4151 29.7313 54.8474 30 54.0328 30C53.1141 30 52.5291 29.7313 52.2778 29.194C51.9571 29.7313 51.3894 30 50.5748 30H49.5608C49.4741 30 49.4308 29.818 49.4308 29.454C49.4308 29.0727 49.4741 28.882 49.5608 28.882H50.5748ZM56.3468 21.446V22.473H55.1638V21.446H56.3468ZM57.4648 23.227V24.254H54.0328V23.227H57.4648ZM61.3319 21.589H62.4109V30H61.3319V21.589ZM69.4692 28.882C69.7726 28.882 70.0152 28.817 70.1972 28.687C70.3879 28.557 70.4832 28.388 70.4832 28.18C70.4832 28.0067 70.4139 27.7207 70.2752 27.322C70.1366 26.9233 69.7726 25.918 69.1832 24.306C69.1572 24.2367 69.1312 24.1717 69.1052 24.111C69.0792 24.0417 69.0576 23.981 69.0402 23.929L70.0412 23.474L71.5622 27.79C71.7009 28.1887 71.8569 28.4703 72.0302 28.635C72.2036 28.7997 72.4419 28.882 72.7452 28.882H73.0182C73.1049 28.882 73.1482 29.0727 73.1482 29.454C73.1482 29.688 73.1352 29.8397 73.1092 29.909C73.0919 29.9697 73.0616 30 73.0182 30H72.7062C72.3076 30 71.9782 29.935 71.7182 29.805C71.4582 29.675 71.2546 29.467 71.1072 29.181C70.9426 29.467 70.7259 29.675 70.4572 29.805C70.1972 29.935 69.8679 30 69.4692 30H66.4272L66.3232 28.882H69.4692ZM75.9872 27.933C75.9872 28.5743 75.7922 29.0813 75.4022 29.454C75.0122 29.818 74.4966 30 73.8552 30H72.5032C72.4166 30 72.3732 29.818 72.3732 29.454C72.3732 29.0727 72.4166 28.882 72.5032 28.882H73.8552C74.1672 28.882 74.4186 28.7997 74.6092 28.635C74.8086 28.4617 74.9082 28.2233 74.9082 27.92V25.814H75.9872V27.933ZM75.2592 31.638V32.665H71.8272V31.638H75.2592ZM80.3248 28.882C80.6281 28.882 80.8708 28.817 81.0528 28.687C81.2434 28.557 81.3388 28.388 81.3388 28.18C81.3388 28.0067 81.2694 27.7207 81.1308 27.322C80.9921 26.9233 80.6281 25.918 80.0388 24.306C80.0128 24.2367 79.9868 24.1717 79.9608 24.111C79.9348 24.0417 79.9131 23.981 79.8958 23.929L80.8968 23.474L82.4178 27.79C82.5564 28.1887 82.7124 28.4703 82.8858 28.635C83.0591 28.7997 83.2974 28.882 83.6008 28.882H83.8738C83.9604 28.882 84.0038 29.0727 84.0038 29.454C84.0038 29.688 83.9908 29.8397 83.9648 29.909C83.9474 29.9697 83.9171 30 83.8738 30H83.5618C83.1631 30 82.8338 29.935 82.5738 29.805C82.3138 29.675 82.1101 29.467 81.9628 29.181C81.7981 29.467 81.5814 29.675 81.3128 29.805C81.0528 29.935 80.7234 30 80.3248 30H77.2828L77.1788 28.882H80.3248ZM83.6577 28.882C84.2731 28.882 84.5807 28.6047 84.5807 28.05V27.517C84.5807 26.685 84.8017 26.0307 85.2437 25.554C85.6857 25.0773 86.2924 24.839 87.0637 24.839C87.8351 24.839 88.4287 25.0643 88.8447 25.515C89.2607 25.9657 89.4687 26.6157 89.4687 27.465V27.829C89.4687 28.2017 89.5424 28.4703 89.6897 28.635C89.8371 28.7997 90.0624 28.882 90.3657 28.882H90.6907C90.7774 28.882 90.8207 29.0727 90.8207 29.454C90.8207 29.818 90.7774 30 90.6907 30H90.3657C89.6117 30 89.1221 29.7227 88.8967 29.168C88.7234 29.4367 88.4677 29.6447 88.1297 29.792C87.8004 29.9307 87.4321 30 87.0247 30C86.1234 30 85.5167 29.7313 85.2047 29.194C85.0574 29.4713 84.8624 29.675 84.6197 29.805C84.3771 29.935 84.0564 30 83.6577 30H83.3587C83.2721 30 83.2287 29.818 83.2287 29.454C83.2287 29.0727 83.2721 28.882 83.3587 28.882H83.6577ZM88.3897 27.465C88.3897 26.4423 87.9347 25.931 87.0247 25.931C86.5654 25.931 86.2231 26.061 85.9977 26.321C85.7724 26.581 85.6597 26.9797 85.6597 27.517C85.6597 27.9417 85.7767 28.2753 86.0107 28.518C86.2534 28.7607 86.5914 28.882 87.0247 28.882C87.9347 28.882 88.3897 28.4097 88.3897 27.465ZM93.6606 27.933C93.6606 28.5743 93.4656 29.0813 93.0756 29.454C92.6856 29.818 92.17 30 91.5286 30H90.1766C90.09 30 90.0466 29.818 90.0466 29.454C90.0466 29.0727 90.09 28.882 90.1766 28.882H91.5286C91.8406 28.882 92.092 28.7997 92.2826 28.635C92.482 28.4617 92.5816 28.2233 92.5816 27.92V25.814H93.6606V27.933ZM94.0636 23.227V24.254H90.6316V23.227H94.0636Z" fill="white"/>
</g>
<defs>
<filter id="filter0_d_1375_28887" x="0" y="0" width="336" height="61" filterUnits="userSpaceOnUse" color-interpolation-filters="sRGB">
<feFlood flood-opacity="0" result="BackgroundImageFix"/>
<feColorMatrix in="SourceAlpha" type="matrix" values="0 0 0 0 0 0 0 0 0 0 0 0 0 0 0 0 0 0 127 0" result="hardAlpha"/>
<feOffset dy="4"/>
<feGaussianBlur stdDeviation="2"/>
<feComposite in2="hardAlpha" operator="out"/>
<feColorMatrix type="matrix" values="0 0 0 0 0 0 0 0 0 0 0 0 0 0 0 0 0 0 0.25 0"/>
<feBlend mode="normal" in2="BackgroundImageFix" result="effect1_dropShadow_1375_28887"/>
<feBlend mode="normal" in="SourceGraphic" in2="effect1_dropShadow_1375_28887" result="shape"/>
</filter>
</defs>
</svg>
