<svg width="32" height="32" viewBox="0 0 32 32" fill="none" xmlns="http://www.w3.org/2000/svg">
<mask id="mask0_5480_13865" style="mask-type:alpha" maskUnits="userSpaceOnUse" x="0" y="0" width="32" height="32">
<circle cx="16" cy="16" r="16" fill="#D9D9D9"/>
</mask>
<g mask="url(#mask0_5480_13865)">
<mask id="mask1_5480_13865" style="mask-type:luminance" maskUnits="userSpaceOnUse" x="-3" y="-4" width="38" height="38">
<path d="M16 34C26.4934 34 35 25.4934 35 15C35 4.50659 26.4934 -4 16 -4C5.50659 -4 -3 4.50659 -3 15C-3 25.4934 5.50659 34 16 34Z" fill="white"/>
</mask>
<g mask="url(#mask1_5480_13865)">
<path d="M16 34C26.4934 34 35 25.4934 35 15C35 4.50659 26.4934 -4 16 -4C5.50659 -4 -3 4.50659 -3 15C-3 25.4934 5.50659 34 16 34Z" fill="#EAEAEA"/>
<path d="M15.5304 3.35452C15.5304 3.35452 20.8766 3.55364 22.0258 7.43648C23.1749 11.3193 23.6613 17.4735 23.6613 17.4735C23.6613 17.4735 15.1637 20.0806 8.06819 16.9444C8.06819 16.9444 7.39635 3.33311 15.5304 3.35452Z" fill="#252525"/>
<mask id="mask2_5480_13865" style="mask-type:luminance" maskUnits="userSpaceOnUse" x="-2" y="23" width="36" height="18">
<path d="M33.3895 34.9818C33.3719 35.2626 33.353 35.5391 33.3341 35.812C33.2318 37.3172 33.1203 38.7158 33.0064 40.0029H-1.20121C-1.42659 37.2136 -1.50822 34.4554 -1.2274 32.5653C-1.20609 32.4221 -1.18234 32.2814 -1.15552 32.1431C-0.177847 26.9855 4.20857 24.7677 7.27317 23.8369C9.02628 23.3057 10.3457 23.1936 10.3457 23.1936H10.3463L21.1299 23.1473H21.1312C21.1312 23.1473 21.1324 23.1473 21.1348 23.1479C21.136 23.1486 21.1379 23.1486 21.1397 23.1492C21.1421 23.1498 21.1458 23.1498 21.1494 23.151H21.1537C21.1543 23.1516 21.1543 23.151 21.1543 23.151C21.1689 23.1534 21.1902 23.1571 21.2176 23.1613C21.225 23.1626 21.2329 23.1638 21.2408 23.165C21.2512 23.1668 21.2627 23.1687 21.2743 23.1705C21.2889 23.1729 21.3042 23.176 21.32 23.1784C21.3279 23.1796 21.3364 23.1814 21.345 23.1827C21.3498 23.1833 21.3547 23.1845 21.3596 23.1851C21.387 23.19 21.4168 23.1955 21.4497 23.2015C21.504 23.2119 21.5649 23.2235 21.6319 23.2363C21.6696 23.2436 21.7098 23.2515 21.7513 23.26C21.7787 23.2661 21.8073 23.2716 21.8365 23.2777C21.8713 23.285 21.906 23.2923 21.9425 23.3002C21.9754 23.3069 22.0089 23.3149 22.0436 23.3222C22.1131 23.3374 22.1856 23.3538 22.2611 23.3715C22.28 23.3758 22.2989 23.38 22.3184 23.3849C22.3574 23.3934 22.3963 23.4032 22.4366 23.4129C22.4908 23.4257 22.5474 23.4397 22.6047 23.4537C22.6735 23.4708 22.7442 23.4891 22.8166 23.5079C22.8611 23.5195 22.9062 23.5311 22.9519 23.5433C23.0128 23.5597 23.0755 23.5768 23.1389 23.5938C23.198 23.6103 23.2577 23.6267 23.3186 23.6444C23.3637 23.6566 23.4087 23.67 23.4544 23.6834C23.6792 23.7486 23.9149 23.821 24.1598 23.9008C27.4242 24.965 32.2858 27.376 33.2452 32.4368C33.3932 33.2201 33.4486 34.0668 33.3895 34.9818Z" fill="white"/>
</mask>
<g mask="url(#mask2_5480_13865)">
<path d="M33.3856 34.9816C33.368 35.2624 33.3491 35.539 33.3302 35.8119C33.2279 37.3171 33.1164 38.7157 33.0025 40.0028H-1.20512C-1.4305 37.2135 -1.51213 34.4553 -1.2313 32.5652C-1.20999 32.422 -1.18624 32.2813 -1.15943 32.143C-0.181754 26.9854 4.20467 24.7675 7.26926 23.8368C9.02238 23.3056 10.3418 23.1935 10.3418 23.1935H10.3424L21.126 23.1472H21.1272C21.1272 23.1472 21.1285 23.1472 21.1309 23.1478C21.1321 23.1484 21.134 23.1484 21.1358 23.149C21.1382 23.1496 21.1419 23.1496 21.1455 23.1509H21.1498C21.1504 23.1515 21.1504 23.1509 21.1504 23.1509C21.165 23.1533 21.1863 23.157 21.2137 23.1612C21.2211 23.1624 21.229 23.1637 21.2369 23.1649C21.2472 23.1667 21.2588 23.1685 21.2704 23.1704C21.285 23.1728 21.3002 23.1758 21.3161 23.1783C21.324 23.1795 21.3325 23.1813 21.3411 23.1825C21.3459 23.1832 21.3508 23.1844 21.3557 23.185C21.3831 23.1899 21.4129 23.1953 21.4458 23.2014C21.5 23.2118 21.561 23.2234 21.628 23.2361C21.6657 23.2435 21.7059 23.2514 21.7474 23.2599C21.7748 23.266 21.8034 23.2715 21.8326 23.2776C21.8674 23.2849 21.9021 23.2922 21.9386 23.3001C21.9715 23.3068 22.005 23.3147 22.0397 23.322C22.1092 23.3373 22.1817 23.3537 22.2572 23.3714C22.2761 23.3756 22.295 23.3799 22.3145 23.3848C22.3535 23.3933 22.3924 23.403 22.4326 23.4128C22.4869 23.4256 22.5435 23.4396 22.6008 23.4536C22.6696 23.4707 22.7403 23.4889 22.8127 23.5078C22.8572 23.5194 22.9023 23.531 22.948 23.5432C23.0089 23.5596 23.0716 23.5767 23.135 23.5937C23.1941 23.6102 23.2538 23.6266 23.3147 23.6443C23.3598 23.6564 23.4048 23.6699 23.4505 23.6833C23.6753 23.7484 23.911 23.8209 24.1559 23.9007C27.4203 24.9649 32.2819 27.3759 33.2413 32.4366C33.3893 33.22 33.4447 34.0667 33.3856 34.9816Z" fill="#E16BFF"/>
<path d="M1.49159 24.805C1.37572 24.6692 1.16518 24.6692 1.04931 24.805C0.840322 25.0499 0.558594 25.4352 0.558594 25.732C0.558594 26.0288 0.840322 26.4141 1.04931 26.6591C1.16518 26.7949 1.37572 26.7949 1.49159 26.6591C1.70058 26.4141 1.98231 26.0288 1.98231 25.732C1.98231 25.4352 1.70058 25.0499 1.49159 24.805Z" fill="#F78B79"/>
<path d="M5.37831 24.805C5.26244 24.6692 5.0519 24.6692 4.93603 24.805C4.72704 25.0499 4.44531 25.4352 4.44531 25.732C4.44531 26.0288 4.72704 26.4141 4.93603 26.6591C5.0519 26.7949 5.26244 26.7949 5.37831 26.6591C5.5873 26.4141 5.86903 26.0288 5.86903 25.732C5.86903 25.4352 5.5873 25.0499 5.37831 24.805Z" fill="#E57CFF"/>
<path d="M9.27284 24.805C9.15697 24.6692 8.94643 24.6692 8.83056 24.805C8.62157 25.0499 8.33984 25.4352 8.33984 25.732C8.33984 26.0288 8.62157 26.4141 8.83056 26.6591C8.94643 26.7949 9.15697 26.7949 9.27284 26.6591C9.48183 26.4141 9.76356 26.0288 9.76356 25.732C9.76356 25.4352 9.48183 25.0499 9.27284 24.805Z" fill="#E57CFF"/>
<path d="M13.1635 24.805C13.0476 24.6692 12.8371 24.6692 12.7212 24.805C12.5122 25.0499 12.2305 25.4352 12.2305 25.732C12.2305 26.0288 12.5122 26.4141 12.7212 26.6591C12.8371 26.7949 13.0476 26.7949 13.1635 26.6591C13.3725 26.4141 13.6542 26.0288 13.6542 25.732C13.6542 25.4352 13.3725 25.0499 13.1635 24.805Z" fill="#E57CFF"/>
<path d="M17.0502 24.805C16.9343 24.6692 16.7238 24.6692 16.6079 24.805C16.3989 25.0499 16.1172 25.4352 16.1172 25.732C16.1172 26.0288 16.3989 26.4141 16.6079 26.6591C16.7238 26.7949 16.9343 26.7949 17.0502 26.6591C17.2592 26.4141 17.5409 26.0288 17.5409 25.732C17.5409 25.4352 17.2592 25.0499 17.0502 24.805Z" fill="#E57CFF"/>
<path d="M20.9408 24.805C20.8249 24.6692 20.6144 24.6692 20.4985 24.805C20.2895 25.0499 20.0078 25.4352 20.0078 25.732C20.0078 26.0288 20.2895 26.4141 20.4985 26.6591C20.6144 26.7949 20.8249 26.7949 20.9408 26.6591C21.1498 26.4141 21.4315 26.0288 21.4315 25.732C21.4315 25.4352 21.1498 25.0499 20.9408 24.805Z" fill="#E57CFF"/>
<path d="M24.8353 24.805C24.7195 24.6692 24.5089 24.6692 24.3931 24.805C24.1841 25.0499 23.9023 25.4352 23.9023 25.732C23.9023 26.0288 24.1841 26.4141 24.3931 26.6591C24.5089 26.7949 24.7195 26.7949 24.8353 26.6591C25.0443 26.4141 25.3261 26.0288 25.3261 25.732C25.3261 25.4352 25.0443 25.0499 24.8353 24.805Z" fill="#E57CFF"/>
<path d="M28.7221 24.805C28.6062 24.6692 28.3957 24.6692 28.2798 24.805C28.0708 25.0499 27.7891 25.4352 27.7891 25.732C27.7891 26.0288 28.0708 26.4141 28.2798 26.6591C28.3957 26.7949 28.6062 26.7949 28.7221 26.6591C28.931 26.4141 29.2128 26.0288 29.2128 25.732C29.2128 25.4352 28.931 25.0499 28.7221 24.805Z" fill="#F78B79"/>
<path d="M32.6127 24.805C32.4968 24.6692 32.2863 24.6692 32.1704 24.805C31.9614 25.0499 31.6797 25.4352 31.6797 25.732C31.6797 26.0288 31.9614 26.4141 32.1704 26.6591C32.2863 26.7949 32.4968 26.7949 32.6127 26.6591C32.8217 26.4141 33.1034 26.0288 33.1034 25.732C33.1034 25.4352 32.8217 25.0499 32.6127 24.805Z" fill="#F78B79"/>
<path d="M-0.45372 29.1999C-0.569595 29.0641 -0.780128 29.0641 -0.896004 29.1999C-1.10499 29.4448 -1.38672 29.8301 -1.38672 30.1269C-1.38672 30.4237 -1.10499 30.809 -0.896004 31.054C-0.780128 31.1898 -0.569595 31.1898 -0.45372 31.054C-0.244733 30.809 0.0369949 30.4237 0.0369949 30.1269C0.0369949 29.8301 -0.244733 29.4448 -0.45372 29.1999Z" fill="#F78B79"/>
<path d="M3.4369 29.1999C3.32103 29.0641 3.1105 29.0641 2.99462 29.1999C2.78563 29.4448 2.50391 29.8301 2.50391 30.1269C2.50391 30.4237 2.78563 30.809 2.99462 31.054C3.1105 31.1898 3.32103 31.1898 3.4369 31.054C3.64589 30.809 3.92762 30.4237 3.92762 30.1269C3.92762 29.8301 3.64589 29.4448 3.4369 29.1999Z" fill="#F78B79"/>
<path d="M7.32362 29.1999C7.20775 29.0641 6.99721 29.0641 6.88134 29.1999C6.67235 29.4448 6.39062 29.8301 6.39062 30.1269C6.39062 30.4237 6.67235 30.809 6.88134 31.054C6.99721 31.1898 7.20775 31.1898 7.32362 31.054C7.53261 30.809 7.81434 30.4237 7.81434 30.1269C7.81434 29.8301 7.53261 29.4448 7.32362 29.1999Z" fill="#E57CFF"/>
<path d="M11.2182 29.1999C11.1023 29.0641 10.8917 29.0641 10.7759 29.1999C10.5669 29.4448 10.2852 29.8301 10.2852 30.1269C10.2852 30.4237 10.5669 30.809 10.7759 31.054C10.8917 31.1898 11.1023 31.1898 11.2182 31.054C11.4271 30.809 11.7089 30.4237 11.7089 30.1269C11.7089 29.8301 11.4271 29.4448 11.2182 29.1999Z" fill="#E57CFF"/>
<path d="M15.1088 29.1999C14.9929 29.0641 14.7824 29.0641 14.6665 29.1999C14.4575 29.4448 14.1758 29.8301 14.1758 30.1269C14.1758 30.4237 14.4575 30.809 14.6665 31.054C14.7824 31.1898 14.9929 31.1898 15.1088 31.054C15.3178 30.809 15.5995 30.4237 15.5995 30.1269C15.5995 29.8301 15.3178 29.4448 15.1088 29.1999Z" fill="#E57CFF"/>
<path d="M18.9955 29.1999C18.8796 29.0641 18.6691 29.0641 18.5532 29.1999C18.3442 29.4448 18.0625 29.8301 18.0625 30.1269C18.0625 30.4237 18.3442 30.809 18.5532 31.054C18.6691 31.1898 18.8796 31.1898 18.9955 31.054C19.2045 30.809 19.4862 30.4237 19.4862 30.1269C19.4862 29.8301 19.2045 29.4448 18.9955 29.1999Z" fill="#E57CFF"/>
<path d="M22.8861 29.1999C22.7702 29.0641 22.5597 29.0641 22.4438 29.1999C22.2349 29.4448 21.9531 29.8301 21.9531 30.1269C21.9531 30.4237 22.2349 30.809 22.4438 31.054C22.5597 31.1898 22.7702 31.1898 22.8861 31.054C23.0951 30.809 23.3768 30.4237 23.3768 30.1269C23.3768 29.8301 23.0951 29.4448 22.8861 29.1999Z" fill="#E57CFF"/>
<path d="M26.7807 29.1999C26.6648 29.0641 26.4542 29.0641 26.3384 29.1999C26.1294 29.4448 25.8477 29.8301 25.8477 30.1269C25.8477 30.4237 26.1294 30.809 26.3384 31.054C26.4542 31.1898 26.6648 31.1898 26.7807 31.054C26.9896 30.809 27.2714 30.4237 27.2714 30.1269C27.2714 29.8301 26.9896 29.4448 26.7807 29.1999Z" fill="#FF7CA8"/>
<path d="M30.6674 29.1999C30.5515 29.0641 30.341 29.0641 30.2251 29.1999C30.0161 29.4448 29.7344 29.8301 29.7344 30.1269C29.7344 30.4237 30.0161 30.809 30.2251 31.054C30.341 31.1898 30.5515 31.1898 30.6674 31.054C30.8764 30.809 31.1581 30.4237 31.1581 30.1269C31.1581 29.8301 30.8764 29.4448 30.6674 29.1999Z" fill="#F78B79"/>
</g>
<path d="M21.1309 23.1468C19.9366 24.1414 18.779 24.7452 17.6889 25.0742L17.6815 25.0757H17.6801C14.0852 26.154 11.2205 24.2222 10.1055 23.2878C10.1862 23.257 10.267 23.2261 10.3464 23.1938C10.5623 23.1071 10.7636 23.0058 10.9502 22.8912C13.7914 21.1488 13.2743 16.3625 13.2743 16.3625H18.3191C18.3191 16.3625 18.2236 17.244 18.3397 18.3884C18.5086 20.0544 19.1242 22.2756 21.1309 23.1468Z" fill="#FFC6C6"/>
<path d="M18.338 18.3884C18.0427 18.8938 17.6196 19.2508 17.0202 19.3007C14.6697 19.4961 13.3475 17.1867 13.3754 16.9737L13.4974 16.3625H18.3174C18.3174 16.3625 18.2219 17.244 18.338 18.3884Z" fill="#FFB9B9"/>
<path d="M21.5039 11.9478C21.5039 11.2893 21.0387 10.7555 20.4648 10.7555C19.891 10.7555 19.4258 11.2893 19.4258 11.9478C19.4258 12.6064 19.891 13.434 20.4648 13.434C21.0387 13.434 21.5039 12.6064 21.5039 11.9478Z" fill="#FFC6C6"/>
<path d="M20.1904 12.3563L20.1172 12.3488C20.118 12.3409 20.2063 11.5636 20.9279 11.5446L20.9299 11.618C20.272 11.6353 20.1911 12.3491 20.1904 12.3563Z" fill="#252525"/>
<path d="M20.8993 12.2457C20.7765 12.1188 20.651 12.059 20.5259 12.0653C20.3365 12.0762 20.2081 12.2409 20.2068 12.2425L20.1484 12.198C20.1545 12.1901 20.2978 12.0052 20.5209 11.992C20.6711 11.9836 20.8135 12.0516 20.9521 12.1947L20.8993 12.2457Z" fill="#252525"/>
<path d="M9.96094 11.9478C9.96094 11.2893 10.4261 10.7555 11 10.7555C11.5738 10.7555 12.039 11.2893 12.039 11.9478C12.039 12.6064 11.5738 13.434 11 13.434C10.4261 13.434 9.96094 12.6064 9.96094 11.9478Z" fill="#FFC6C6"/>
<path d="M11.388 12.3563L11.4612 12.3488C11.4603 12.3409 11.3721 11.5636 10.6504 11.5446L10.6484 11.618C11.3064 11.6353 11.3873 12.3491 11.388 12.3563Z" fill="#252525"/>
<path d="M10.6778 12.2457C10.8006 12.1188 10.9261 12.059 11.0512 12.0653C11.2406 12.0762 11.369 12.2409 11.3703 12.2425L11.4287 12.198C11.4227 12.1901 11.2793 12.0052 11.0563 11.992C10.906 11.9836 10.7636 12.0516 10.625 12.1947L10.6778 12.2457Z" fill="#252525"/>
<path d="M18.6996 16.5257C17.9296 17.4101 16.9553 17.9797 15.7861 17.9606C14.6183 17.9797 13.6426 17.4101 12.8727 16.5257C12.8686 16.5203 12.8645 16.5148 12.8591 16.5094C11.48 14.7665 11.1993 12.2278 11.5727 9.20534C11.9474 6.17334 15.7861 5.73047 15.7861 5.73047C15.7861 5.73047 19.6248 6.17334 19.9996 9.20534C20.3743 12.2373 20.0909 14.7828 18.6996 16.5257Z" fill="#FFC6C6"/>
<path d="M19.7305 7.89026L19.9141 11.7282L20.3008 10.6081C20.3008 10.6081 21.1812 8.77171 19.7305 7.89026Z" fill="#252525"/>
<path d="M11.8506 7.89026L11.667 11.7282L11.2803 10.6081C11.2803 10.6081 10.3999 8.77171 11.8506 7.89026Z" fill="#252525"/>
<path d="M11.4602 9.43922C11.4602 9.43922 14.1946 8.33248 15.6254 6.83908C15.6254 6.83908 17.0309 8.73072 20.1158 9.64509L20.1524 6.14216L15.8996 4.8147L11.3008 7.32029L11.4602 9.43922Z" fill="#252525"/>
<path d="M33.3866 34.9817C33.3687 35.2625 33.3497 35.5393 33.3308 35.8121C32.2068 25.5594 21.4822 23.2217 21.1367 23.149C21.2542 23.166 22.4997 23.3601 24.1564 23.9007C27.9267 25.1293 33.8256 28.1549 33.3866 34.9817Z" fill="#DC56FE"/>
</g>
</g>
</svg>
