<svg width="18" height="19" viewBox="0 0 18 19" fill="none" xmlns="http://www.w3.org/2000/svg">
<mask id="mask0_9810_13557" style="mask-type:alpha" maskUnits="userSpaceOnUse" x="0" y="0" width="18" height="19">
<rect y="0.5" width="18" height="18" fill="#D9D9D9"/>
</mask>
<g mask="url(#mask0_9810_13557)">
<path d="M15 8.75C14.7875 8.75 14.6094 8.67812 14.4656 8.53438C14.3219 8.39062 14.25 8.2125 14.25 8C14.25 7.7875 14.3219 7.60938 14.4656 7.46562C14.6094 7.32188 14.7875 7.25 15 7.25C15.2125 7.25 15.3906 7.32188 15.5344 7.46562C15.6781 7.60938 15.75 7.7875 15.75 8C15.75 8.2125 15.6781 8.39062 15.5344 8.53438C15.3906 8.67812 15.2125 8.75 15 8.75ZM15 6.5C14.7875 6.5 14.6094 6.42813 14.4656 6.28438C14.3219 6.14062 14.25 5.9625 14.25 5.75V3.5C14.25 3.2875 14.3219 3.10938 14.4656 2.96562C14.6094 2.82187 14.7875 2.75 15 2.75C15.2125 2.75 15.3906 2.82187 15.5344 2.96562C15.6781 3.10938 15.75 3.2875 15.75 3.5V5.75C15.75 5.9625 15.6781 6.14062 15.5344 6.28438C15.3906 6.42813 15.2125 6.5 15 6.5ZM6.75 9.5C5.925 9.5 5.21875 9.20625 4.63125 8.61875C4.04375 8.03125 3.75 7.325 3.75 6.5C3.75 5.675 4.04375 4.96875 4.63125 4.38125C5.21875 3.79375 5.925 3.5 6.75 3.5C7.575 3.5 8.28125 3.79375 8.86875 4.38125C9.45625 4.96875 9.75 5.675 9.75 6.5C9.75 7.325 9.45625 8.03125 8.86875 8.61875C8.28125 9.20625 7.575 9.5 6.75 9.5ZM0.75 14V13.4C0.75 12.975 0.859375 12.5844 1.07812 12.2281C1.29688 11.8719 1.5875 11.6 1.95 11.4125C2.725 11.025 3.5125 10.7344 4.3125 10.5406C5.1125 10.3469 5.925 10.25 6.75 10.25C7.575 10.25 8.3875 10.3469 9.1875 10.5406C9.9875 10.7344 10.775 11.025 11.55 11.4125C11.9125 11.6 12.2031 11.8719 12.4219 12.2281C12.6406 12.5844 12.75 12.975 12.75 13.4V14C12.75 14.4125 12.6031 14.7656 12.3094 15.0594C12.0156 15.3531 11.6625 15.5 11.25 15.5H2.25C1.8375 15.5 1.48438 15.3531 1.19063 15.0594C0.896875 14.7656 0.75 14.4125 0.75 14Z" fill="#8925D1"/>
</g>
</svg>
